G04 start of page 7 for group -4079 idx -4079 *
G04 Title: 40/80switcher, topsilk *
G04 Creator: pcb 4.0.2 *
G04 CreationDate: Mon Apr 21 21:42:30 2025 UTC *
G04 For: ndv *
G04 Format: Gerber/RS-274X *
G04 PCB-Dimensions (mil): 2030.00 2290.00 *
G04 PCB-Coordinate-Origin: lower left *
%MOIN*%
%FSLAX25Y25*%
%LNTOPSILK*%
%ADD53C,0.0200*%
%ADD52C,0.0080*%
%ADD51C,0.0020*%
%ADD50C,0.0047*%
%ADD49C,0.0039*%
%ADD48C,0.0100*%
G54D48*X0Y229000D02*X203000D01*
X0D02*Y0D01*
X203000Y229000D02*Y0D01*
X0D02*X203000D01*
X70000Y229000D02*Y-17000D01*
X182750Y103375D02*Y101500D01*
X183375Y100875D01*
X184000Y101500D02*X183375Y100875D01*
X184000Y103375D02*Y101500D01*
X184625Y104000D02*X184000Y103375D01*
X184625Y104000D02*X185250Y103375D01*
Y101500D01*
X184625Y100875D01*
X183375Y104000D02*X182750Y103375D01*
X183375Y99375D02*X185250D01*
X183375D02*X182750Y98750D01*
Y98125D01*
X183375Y97500D01*
X185250D01*
X183375D02*X182750Y96875D01*
Y96250D01*
X183375Y95625D01*
X185250D01*
X186375Y94125D02*X186500D01*
X182750D02*X184625D01*
X183375Y92250D02*X187750D01*
X183375D02*X182750Y91625D01*
X185875Y92875D02*Y91625D01*
X185250Y89750D02*Y87875D01*
X184625Y90375D02*X185250Y89750D01*
X183375Y90375D02*X184625D01*
X183375D02*X182750Y89750D01*
Y87875D01*
Y86375D02*X187750D01*
X184625D02*X185250Y85750D01*
Y84500D01*
X184625Y83875D01*
X182750D02*X184625D01*
X193625Y121000D02*X196750Y118500D01*
X193625Y121000D02*Y117875D01*
X191750Y118500D02*X196750D01*
X192375Y116375D02*X191750Y115750D01*
X192375Y116375D02*X196125D01*
X196750Y115750D01*
Y114500D01*
X196125Y113875D01*
X192375D02*X196125D01*
X191750Y114500D02*X192375Y113875D01*
X191750Y115750D02*Y114500D01*
X193000Y116375D02*X195500Y113875D01*
X192375Y110125D02*X196125Y106375D01*
X192375Y102625D02*X191750Y102000D01*
X192375Y102625D02*X193375D01*
X194250Y101750D01*
Y101000D01*
X193375Y100125D01*
X192375D02*X193375D01*
X191750Y100750D02*X192375Y100125D01*
X191750Y102000D02*Y100750D01*
X195125Y102625D02*X194250Y101750D01*
X195125Y102625D02*X196125D01*
X196750Y102000D01*
Y100750D01*
X196125Y100125D01*
X195125D02*X196125D01*
X194250Y101000D02*X195125Y100125D01*
X192375Y98625D02*X191750Y98000D01*
X192375Y98625D02*X196125D01*
X196750Y98000D01*
Y96750D01*
X196125Y96125D01*
X192375D02*X196125D01*
X191750Y96750D02*X192375Y96125D01*
X191750Y98000D02*Y96750D01*
X193000Y98625D02*X195500Y96125D01*
X194250Y91750D02*Y89875D01*
X193625Y92375D02*X194250Y91750D01*
X192375Y92375D02*X193625D01*
X192375D02*X191750Y91750D01*
Y89875D01*
X192375Y88375D02*X193625D01*
X194250Y87750D01*
Y86500D01*
X193625Y85875D01*
X192375D02*X193625D01*
X191750Y86500D02*X192375Y85875D01*
X191750Y87750D02*Y86500D01*
X192375Y88375D02*X191750Y87750D01*
X192375Y84375D02*X196750D01*
X192375D02*X191750Y83750D01*
X192375Y82500D02*X194250D01*
X192375D02*X191750Y81875D01*
Y80625D01*
X192375Y80000D01*
X194250D01*
X191750Y77875D02*X193625D01*
X194250Y77250D01*
Y76625D01*
X193625Y76000D01*
X191750D02*X193625D01*
X194250Y75375D01*
Y74750D01*
X193625Y74125D01*
X191750D02*X193625D01*
X194250Y78500D02*X193625Y77875D01*
X191750Y72000D02*X193625D01*
X194250Y71375D01*
Y70750D01*
X193625Y70125D01*
X191750D02*X193625D01*
X194250Y72625D02*X193625Y72000D01*
X151000Y50250D02*X153500D01*
X152250Y51500D02*Y49000D01*
X15000Y25000D02*Y15000D01*
X25000D01*
Y25000D01*
X15000D01*
Y35000D02*Y25000D01*
X25000D01*
Y35000D01*
X15000D01*
X25000D02*Y25000D01*
X35000D01*
Y35000D01*
X25000D01*
Y25000D02*Y15000D01*
X35000D01*
Y25000D01*
X25000D01*
X15000Y45000D02*Y35000D01*
X25000D01*
Y45000D01*
X15000D01*
X25000D02*Y35000D01*
X35000D01*
Y45000D01*
X25000D01*
X15000Y15000D02*Y5000D01*
X25000D01*
Y15000D01*
X15000D01*
X25000D02*Y5000D01*
X35000D01*
Y15000D01*
X25000D01*
X55000D02*Y5000D01*
X65000D01*
Y15000D01*
X55000D01*
X45000Y35000D02*Y25000D01*
X55000D01*
Y35000D01*
X45000D01*
Y15000D02*Y5000D01*
X55000D01*
Y15000D01*
X45000D01*
X15000Y115000D02*Y105000D01*
X25000D01*
Y115000D01*
X15000D01*
Y125000D02*Y115000D01*
X25000D01*
Y125000D01*
X15000D01*
X25000D02*Y115000D01*
X35000D01*
Y125000D01*
X25000D01*
Y115000D02*Y105000D01*
X35000D01*
Y115000D01*
X25000D01*
X5000Y85000D02*Y75000D01*
X15000D01*
Y85000D01*
X5000D01*
Y95000D02*Y85000D01*
X15000D01*
Y95000D01*
X5000D01*
X15000Y105000D02*Y95000D01*
X25000D01*
Y105000D01*
X15000D01*
Y95000D02*Y85000D01*
X25000D01*
Y95000D01*
X15000D01*
X25000D02*Y85000D01*
X35000D01*
Y95000D01*
X25000D01*
Y105000D02*Y95000D01*
X35000D01*
Y105000D01*
X25000D01*
Y135000D02*Y125000D01*
X35000D01*
Y135000D01*
X25000D01*
Y155000D02*Y145000D01*
X35000D01*
Y155000D01*
X25000D01*
Y145000D02*Y135000D01*
X35000D01*
Y145000D01*
X25000D01*
Y85000D02*Y75000D01*
X35000D01*
Y85000D01*
X25000D01*
X55000Y55000D02*Y45000D01*
X65000D01*
Y55000D01*
X55000D01*
Y85000D02*Y75000D01*
X65000D01*
Y85000D01*
X55000D01*
Y75000D02*Y65000D01*
X65000D01*
Y75000D01*
X55000D01*
Y95000D02*Y85000D01*
X65000D01*
Y95000D01*
X55000D01*
Y105000D02*Y95000D01*
X65000D01*
Y105000D01*
X55000D01*
Y115000D02*Y105000D01*
X65000D01*
Y115000D01*
X55000D01*
Y125000D02*Y115000D01*
X65000D01*
Y125000D01*
X55000D01*
Y135000D02*Y125000D01*
X65000D01*
Y135000D01*
X55000D01*
Y155000D02*Y145000D01*
X65000D01*
Y155000D01*
X55000D01*
X45000D02*Y145000D01*
X55000D01*
Y155000D01*
X45000D01*
X55000Y145000D02*Y135000D01*
X65000D01*
Y145000D01*
X55000D01*
X45000D02*Y135000D01*
X55000D01*
Y145000D01*
X45000D01*
Y125000D02*Y115000D01*
X55000D01*
Y125000D01*
X45000D01*
Y105000D02*Y95000D01*
X55000D01*
Y105000D01*
X45000D01*
Y135000D02*Y125000D01*
X55000D01*
Y135000D01*
X45000D01*
Y115000D02*Y105000D01*
X55000D01*
Y115000D01*
X45000D01*
Y95000D02*Y85000D01*
X55000D01*
Y95000D01*
X45000D01*
X25000Y75000D02*Y65000D01*
X35000D01*
Y75000D01*
X25000D01*
X75000D02*Y65000D01*
X85000D01*
Y75000D01*
X75000D01*
Y105000D02*Y95000D01*
X85000D01*
Y105000D01*
X75000D01*
Y125000D02*Y115000D01*
X85000D01*
Y125000D01*
X75000D01*
Y85000D02*Y75000D01*
X85000D01*
Y85000D01*
X75000D01*
Y145000D02*Y135000D01*
X85000D01*
Y145000D01*
X75000D01*
X5000Y75000D02*Y65000D01*
X15000D01*
Y75000D01*
X5000D01*
Y55000D02*Y45000D01*
X15000D01*
Y55000D01*
X5000D01*
Y35000D02*Y25000D01*
X15000D01*
Y35000D01*
X5000D01*
Y65000D02*Y55000D01*
X15000D01*
Y65000D01*
X5000D01*
Y45000D02*Y35000D01*
X15000D01*
Y45000D01*
X5000D01*
Y25000D02*Y15000D01*
X15000D01*
Y25000D01*
X5000D01*
Y15000D02*Y5000D01*
X15000D01*
Y15000D01*
X5000D01*
X15000Y55000D02*Y45000D01*
X25000D01*
Y55000D01*
X15000D01*
Y75000D02*Y65000D01*
X25000D01*
Y75000D01*
X15000D01*
Y85000D02*Y75000D01*
X25000D01*
Y85000D01*
X15000D01*
X55000Y25000D02*Y15000D01*
X65000D01*
Y25000D01*
X55000D01*
Y35000D02*Y25000D01*
X65000D01*
Y35000D01*
X55000D01*
X45000Y25000D02*Y15000D01*
X55000D01*
Y25000D01*
X45000D01*
X55000Y45000D02*Y35000D01*
X65000D01*
Y45000D01*
X55000D01*
X45000Y85000D02*Y75000D01*
X55000D01*
Y85000D01*
X45000D01*
Y65000D02*Y55000D01*
X55000D01*
Y65000D01*
X45000D01*
Y45000D02*Y35000D01*
X55000D01*
Y45000D01*
X45000D01*
Y75000D02*Y65000D01*
X55000D01*
Y75000D01*
X45000D01*
Y55000D02*Y45000D01*
X55000D01*
Y55000D01*
X45000D01*
X25000D02*Y45000D01*
X35000D01*
Y55000D01*
X25000D01*
X75000D02*Y45000D01*
X85000D01*
Y55000D01*
X75000D01*
X25000Y65000D02*Y55000D01*
X35000D01*
Y65000D01*
X25000D01*
X75000Y15000D02*Y5000D01*
X85000D01*
Y15000D01*
X75000D01*
Y35000D02*Y25000D01*
X85000D01*
Y35000D01*
X75000D01*
Y25000D02*Y15000D01*
X85000D01*
Y25000D01*
X75000D01*
Y45000D02*Y35000D01*
X85000D01*
Y45000D01*
X75000D01*
Y65000D02*Y55000D01*
X85000D01*
Y65000D01*
X75000D01*
X15000Y205000D02*Y195000D01*
X25000D01*
Y205000D01*
X15000D01*
Y215000D02*Y205000D01*
X25000D01*
Y215000D01*
X15000D01*
Y225000D02*Y215000D01*
X25000D01*
Y225000D01*
X15000D01*
Y195000D02*Y185000D01*
X25000D01*
Y195000D01*
X15000D01*
Y185000D02*Y175000D01*
X25000D01*
Y185000D01*
X15000D01*
X5000Y195000D02*Y185000D01*
X15000D01*
Y195000D01*
X5000D01*
Y205000D02*Y195000D01*
X15000D01*
Y205000D01*
X5000D01*
Y185000D02*Y175000D01*
X15000D01*
Y185000D01*
X5000D01*
X55000Y215000D02*Y205000D01*
X65000D01*
Y215000D01*
X55000D01*
Y205000D02*Y195000D01*
X65000D01*
Y205000D01*
X55000D01*
X45000D02*Y195000D01*
X55000D01*
Y205000D01*
X45000D01*
X55000Y225000D02*Y215000D01*
X65000D01*
Y225000D01*
X55000D01*
X75000D02*Y215000D01*
X85000D01*
Y225000D01*
X75000D01*
Y215000D02*Y205000D01*
X85000D01*
Y215000D01*
X75000D01*
Y205000D02*Y195000D01*
X85000D01*
Y205000D01*
X75000D01*
X25000Y185000D02*Y175000D01*
X35000D01*
Y185000D01*
X25000D01*
X75000D02*Y175000D01*
X85000D01*
Y185000D01*
X75000D01*
X25000Y215000D02*Y205000D01*
X35000D01*
Y215000D01*
X25000D01*
Y205000D02*Y195000D01*
X35000D01*
Y205000D01*
X25000D01*
Y225000D02*Y215000D01*
X35000D01*
Y225000D01*
X25000D01*
X15000Y155000D02*Y145000D01*
X25000D01*
Y155000D01*
X15000D01*
X5000Y165000D02*Y155000D01*
X15000D01*
Y165000D01*
X5000D01*
Y155000D02*Y145000D01*
X15000D01*
Y155000D01*
X5000D01*
X15000Y135000D02*Y125000D01*
X25000D01*
Y135000D01*
X15000D01*
X5000D02*Y125000D01*
X15000D01*
Y135000D01*
X5000D01*
X15000Y145000D02*Y135000D01*
X25000D01*
Y145000D01*
X15000D01*
X5000D02*Y135000D01*
X15000D01*
Y145000D01*
X5000D01*
Y125000D02*Y115000D01*
X15000D01*
Y125000D01*
X5000D01*
Y115000D02*Y105000D01*
X15000D01*
Y115000D01*
X5000D01*
Y105000D02*Y95000D01*
X15000D01*
Y105000D01*
X5000D01*
X15000Y175000D02*Y165000D01*
X25000D01*
Y175000D01*
X15000D01*
X5000D02*Y165000D01*
X15000D01*
Y175000D01*
X5000D01*
X55000Y185000D02*Y175000D01*
X65000D01*
Y185000D01*
X55000D01*
Y195000D02*Y185000D01*
X65000D01*
Y195000D01*
X55000D01*
X45000Y185000D02*Y175000D01*
X55000D01*
Y185000D01*
X45000D01*
Y195000D02*Y185000D01*
X55000D01*
Y195000D01*
X45000D01*
X55000Y175000D02*Y165000D01*
X65000D01*
Y175000D01*
X55000D01*
X45000Y165000D02*Y155000D01*
X55000D01*
Y165000D01*
X45000D01*
Y175000D02*Y165000D01*
X55000D01*
Y175000D01*
X45000D01*
X25000D02*Y165000D01*
X35000D01*
Y175000D01*
X25000D01*
Y165000D02*Y155000D01*
X35000D01*
Y165000D01*
X25000D01*
X75000Y175000D02*Y165000D01*
X85000D01*
Y175000D01*
X75000D01*
Y135000D02*Y125000D01*
X85000D01*
Y135000D01*
X75000D01*
Y155000D02*Y145000D01*
X85000D01*
Y155000D01*
X75000D01*
Y95000D02*Y85000D01*
X85000D01*
Y95000D01*
X75000D01*
Y115000D02*Y105000D01*
X85000D01*
Y115000D01*
X75000D01*
Y165000D02*Y155000D01*
X85000D01*
Y165000D01*
X75000D01*
G54D49*X175662Y225000D02*X198496D01*
X175662D02*Y125000D01*
X198496D01*
Y225000D02*Y125000D01*
G54D50*X175229Y225433D02*X198929D01*
X175229D02*Y124567D01*
X198929D01*
Y225433D02*Y124567D01*
X179126Y226574D02*X194874D01*
G54D49*X188968Y225000D02*X187000Y222216D01*
X185032Y225000D01*
G54D50*X175229Y220000D02*X179166D01*
Y200000D01*
X175229D02*X179166D01*
Y220000D02*X181252Y219016D01*
Y200000D01*
X179166D02*X181252D01*
X175229Y219016D02*X179166D01*
X175229Y130000D02*X179166D01*
Y150000D02*Y130000D01*
X175229Y150000D02*X179166D01*
Y130000D02*X181252Y130985D01*
Y150000D02*Y130985D01*
X179166Y150000D02*X181252D01*
X175229Y130985D02*X179166D01*
X196566Y223149D02*X198929D01*
X196566D02*Y216851D01*
X198929D01*
X196566Y213150D02*X198929D01*
X196566D02*Y206851D01*
X198929D01*
X196566Y203150D02*X198929D01*
X196566D02*Y196851D01*
X198929D01*
X196566Y193150D02*X198929D01*
X196566D02*Y186851D01*
X198929D01*
X196566Y183150D02*X198929D01*
X196566D02*Y176851D01*
X198929D01*
X196566Y173150D02*X198929D01*
X196566D02*Y166851D01*
X198929D01*
X196566Y163150D02*X198929D01*
X196566D02*Y156851D01*
X198929D01*
X196566Y153150D02*X198929D01*
X196566D02*Y146851D01*
X198929D01*
X196566Y143150D02*X198929D01*
X196566D02*Y136851D01*
X198929D01*
X196566Y133150D02*X198929D01*
X196566D02*Y126851D01*
X198929D01*
G54D51*X173693Y226968D02*X200464D01*
X173693D02*Y123032D01*
X200464D01*
Y226968D02*Y123032D01*
G54D52*X175662Y65000D02*X198496D01*
X175662D02*Y45000D01*
X198496D01*
Y65000D02*Y45000D01*
X175229Y65433D02*X198929D01*
X175229D02*Y44567D01*
X198929D01*
Y65433D02*Y44567D01*
X179126Y66574D02*X194874D01*
X188968Y65000D02*X187000Y62216D01*
X185032Y65000D01*
X175229Y60000D02*X179166D01*
Y50000D01*
X175229D02*X179166D01*
Y60000D02*X181252Y59016D01*
Y50985D01*
X179166Y50000D01*
X175229Y59016D02*X179166D01*
X175229Y50985D02*X179166D01*
X196566Y63149D02*X198929D01*
X196566D02*Y56851D01*
X198929D01*
X196566Y53150D02*X198929D01*
X196566D02*Y46851D01*
X198929D01*
X173693Y66968D02*X200464D01*
X173693D02*Y43032D01*
X200464D01*
Y66968D02*Y43032D01*
X175662Y25000D02*X198496D01*
X175662D02*Y5000D01*
X198496D01*
Y25000D02*Y5000D01*
X175229Y25433D02*X198929D01*
X175229D02*Y4567D01*
X198929D01*
Y25433D02*Y4567D01*
X179126Y26574D02*X194874D01*
X188968Y25000D02*X187000Y22216D01*
X185032Y25000D01*
X175229Y20000D02*X179166D01*
Y10000D01*
X175229D02*X179166D01*
Y20000D02*X181252Y19016D01*
Y10985D01*
X179166Y10000D01*
X175229Y19016D02*X179166D01*
X175229Y10985D02*X179166D01*
X196566Y23149D02*X198929D01*
X196566D02*Y16851D01*
X198929D01*
X196566Y13150D02*X198929D01*
X196566D02*Y6851D01*
X198929D01*
X173693Y26968D02*X200464D01*
X173693D02*Y3032D01*
X200464D01*
Y26968D02*Y3032D01*
G54D48*X168500Y115000D02*X176000D01*
X156000D02*X163500D01*
G54D53*Y120000D02*Y110000D01*
X168500Y120000D02*Y110000D01*
G54D48*X92000Y125000D02*X172000D01*
Y165000D02*Y125000D01*
X92000Y165000D02*X172000D01*
X92000Y140000D02*Y125000D01*
Y165000D02*Y150000D01*
Y140000D02*G75*G03X92000Y150000I0J5000D01*G01*
Y185000D02*X172000D01*
Y225000D02*Y185000D01*
X92000Y225000D02*X172000D01*
X92000Y200000D02*Y185000D01*
Y225000D02*Y210000D01*
Y200000D02*G75*G03X92000Y210000I0J5000D01*G01*
X157000Y45000D02*G75*G03X157000Y45000I0J10000D01*G01*
X122000Y179000D02*Y169000D01*
X132000D01*
Y179000D01*
X122000D01*
X92000Y5000D02*X172000D01*
Y45000D02*Y5000D01*
X92000Y45000D02*X172000D01*
X92000Y20000D02*Y5000D01*
Y45000D02*Y30000D01*
Y20000D02*G75*G03X92000Y30000I0J5000D01*G01*
Y66000D02*X172000D01*
Y106000D02*Y66000D01*
X92000Y106000D02*X172000D01*
X92000Y81000D02*Y66000D01*
Y106000D02*Y91000D01*
Y81000D02*G75*G03X92000Y91000I0J5000D01*G01*
X177000Y35000D02*X184500D01*
X189500D02*X197000D01*
G54D53*X189500Y30000D02*Y40000D01*
X184500Y30000D02*Y40000D01*
X107000Y120000D02*X127000D01*
Y110000D01*
X107000D02*X127000D01*
X107000Y120000D02*Y110000D01*
X97000Y115000D02*X107000D01*
X127000D02*X137000D01*
G54D48*X103500Y56000D02*X111000D01*
X91000D02*X98500D01*
G54D53*Y61000D02*Y51000D01*
X103500Y61000D02*Y51000D01*
G54D48*Y174000D02*X111000D01*
X91000D02*X98500D01*
G54D53*Y179000D02*Y169000D01*
X103500Y179000D02*Y169000D01*
G54D48*X36000Y168000D02*X38000D01*
X38500Y168500D01*
Y169700D02*Y168500D01*
X38000Y170200D02*X38500Y169700D01*
X36500Y170200D02*X38000D01*
X36500Y172000D02*Y168000D01*
X36000Y172000D02*X38000D01*
X38500Y171500D01*
Y170700D01*
X38000Y170200D02*X38500Y170700D01*
X39700Y171000D02*Y168000D01*
Y171000D02*X40400Y172000D01*
X41500D01*
X42200Y171000D01*
Y168000D01*
X39700Y170000D02*X42200D01*
X43400Y168500D02*X43900Y168000D01*
X43400Y169300D02*Y168500D01*
Y169300D02*X44100Y170000D01*
X44700D01*
X45400Y169300D01*
Y168500D01*
X44900Y168000D02*X45400Y168500D01*
X43900Y168000D02*X44900D01*
X43400Y170700D02*X44100Y170000D01*
X43400Y171500D02*Y170700D01*
Y171500D02*X43900Y172000D01*
X44900D01*
X45400Y171500D01*
Y170700D01*
X44700Y170000D02*X45400Y170700D01*
X106200Y176500D02*X107500D01*
X105500Y177200D02*X106200Y176500D01*
X105500Y179800D02*Y177200D01*
Y179800D02*X106200Y180500D01*
X107500D01*
X108700Y178000D02*X110700Y180500D01*
X108700Y178000D02*X111200D01*
X110700Y180500D02*Y176500D01*
X36000Y148000D02*X38000D01*
X38500Y148500D01*
Y149700D02*Y148500D01*
X38000Y150200D02*X38500Y149700D01*
X36500Y150200D02*X38000D01*
X36500Y152000D02*Y148000D01*
X36000Y152000D02*X38000D01*
X38500Y151500D01*
Y150700D01*
X38000Y150200D02*X38500Y150700D01*
X39700Y151000D02*Y148000D01*
Y151000D02*X40400Y152000D01*
X41500D01*
X42200Y151000D01*
Y148000D01*
X39700Y150000D02*X42200D01*
X43900Y148000D02*X45900Y152000D01*
X43400D02*X45900D01*
X36000Y162000D02*Y158000D01*
Y162000D02*X37500Y160000D01*
X39000Y162000D01*
Y158000D01*
X40200Y161000D02*Y158000D01*
Y161000D02*X40900Y162000D01*
X42000D01*
X42700Y161000D01*
Y158000D01*
X40200Y160000D02*X42700D01*
X44400Y158000D02*X46400Y162000D01*
X43900D02*X46400D01*
X36000Y142000D02*Y138000D01*
Y142000D02*X37500Y140000D01*
X39000Y142000D01*
Y138000D01*
X40200Y141000D02*Y138000D01*
Y141000D02*X40900Y142000D01*
X42000D01*
X42700Y141000D01*
Y138000D01*
X40200Y140000D02*X42700D01*
X45400Y142000D02*X45900Y141500D01*
X44400Y142000D02*X45400D01*
X43900Y141500D02*X44400Y142000D01*
X43900Y141500D02*Y138500D01*
X44400Y138000D01*
X45400Y140200D02*X45900Y139700D01*
X43900Y140200D02*X45400D01*
X44400Y138000D02*X45400D01*
X45900Y138500D01*
Y139700D02*Y138500D01*
X129000Y148000D02*Y144500D01*
X129500Y144000D01*
X130500D01*
X131000Y144500D01*
Y148000D02*Y144500D01*
X132200Y147500D02*X132700Y148000D01*
X133700D01*
X134200Y147500D01*
X133700Y144000D02*X134200Y144500D01*
X132700Y144000D02*X133700D01*
X132200Y144500D02*X132700Y144000D01*
Y146200D02*X133700D01*
X134200Y147500D02*Y146700D01*
Y145700D02*Y144500D01*
Y145700D02*X133700Y146200D01*
X134200Y146700D02*X133700Y146200D01*
X83000Y142000D02*Y138000D01*
Y142000D02*X84500Y140000D01*
X86000Y142000D01*
Y138000D01*
X87200Y141000D02*Y138000D01*
Y141000D02*X87900Y142000D01*
X89000D01*
X89700Y141000D01*
Y138000D01*
X87200Y140000D02*X89700D01*
X92400Y142000D02*X92900Y141500D01*
X91400Y142000D02*X92400D01*
X90900Y141500D02*X91400Y142000D01*
X90900Y141500D02*Y138500D01*
X91400Y138000D01*
X92400Y140200D02*X92900Y139700D01*
X90900Y140200D02*X92400D01*
X91400Y138000D02*X92400D01*
X92900Y138500D01*
Y139700D02*Y138500D01*
X94100Y138000D02*X96100D01*
X36000Y182000D02*Y178000D01*
Y182000D02*X37500Y180000D01*
X39000Y182000D01*
Y178000D01*
X40200Y181000D02*Y178000D01*
Y181000D02*X40900Y182000D01*
X42000D01*
X42700Y181000D01*
Y178000D01*
X40200Y180000D02*X42700D01*
X43900Y178500D02*X44400Y178000D01*
X43900Y179300D02*Y178500D01*
Y179300D02*X44600Y180000D01*
X45200D01*
X45900Y179300D01*
Y178500D01*
X45400Y178000D02*X45900Y178500D01*
X44400Y178000D02*X45400D01*
X43900Y180700D02*X44600Y180000D01*
X43900Y181500D02*Y180700D01*
Y181500D02*X44400Y182000D01*
X45400D01*
X45900Y181500D01*
Y180700D01*
X45200Y180000D02*X45900Y180700D01*
X36000Y212000D02*Y208000D01*
Y212000D02*X37500Y210000D01*
X39000Y212000D01*
Y208000D01*
X40200Y211000D02*Y208000D01*
Y211000D02*X40900Y212000D01*
X42000D01*
X42700Y211000D01*
Y208000D01*
X40200Y210000D02*X42700D01*
X44400Y208000D02*X45900Y210000D01*
Y211500D02*Y210000D01*
X45400Y212000D02*X45900Y211500D01*
X44400Y212000D02*X45400D01*
X43900Y211500D02*X44400Y212000D01*
X43900Y211500D02*Y210500D01*
X44400Y210000D01*
X45900D01*
X36000Y198000D02*X38000D01*
X38500Y198500D01*
Y199700D02*Y198500D01*
X38000Y200200D02*X38500Y199700D01*
X36500Y200200D02*X38000D01*
X36500Y202000D02*Y198000D01*
X36000Y202000D02*X38000D01*
X38500Y201500D01*
Y200700D01*
X38000Y200200D02*X38500Y200700D01*
X39700Y201000D02*Y198000D01*
Y201000D02*X40400Y202000D01*
X41500D01*
X42200Y201000D01*
Y198000D01*
X39700Y200000D02*X42200D01*
X43900Y198000D02*X45400Y200000D01*
Y201500D02*Y200000D01*
X44900Y202000D02*X45400Y201500D01*
X43900Y202000D02*X44900D01*
X43400Y201500D02*X43900Y202000D01*
X43400Y201500D02*Y200500D01*
X43900Y200000D01*
X45400D01*
X36000Y218000D02*X38000D01*
X38500Y218500D01*
Y219700D02*Y218500D01*
X38000Y220200D02*X38500Y219700D01*
X36500Y220200D02*X38000D01*
X36500Y222000D02*Y218000D01*
X36000Y222000D02*X38000D01*
X38500Y221500D01*
Y220700D01*
X38000Y220200D02*X38500Y220700D01*
X39700Y221000D02*Y218000D01*
Y221000D02*X40400Y222000D01*
X41500D01*
X42200Y221000D01*
Y218000D01*
X39700Y220000D02*X42200D01*
X43400Y221200D02*X44200Y222000D01*
Y218000D01*
X43400D02*X44900D01*
X46100Y218500D02*X46600Y218000D01*
X46100Y221500D02*Y218500D01*
Y221500D02*X46600Y222000D01*
X47600D01*
X48100Y221500D01*
Y218500D01*
X47600Y218000D02*X48100Y218500D01*
X46600Y218000D02*X47600D01*
X46100Y219000D02*X48100Y221000D01*
X129000Y207000D02*Y203500D01*
X129500Y203000D01*
X130500D01*
X131000Y203500D01*
Y207000D02*Y203500D01*
X132200Y204500D02*X134200Y207000D01*
X132200Y204500D02*X134700D01*
X134200Y207000D02*Y203000D01*
X83000Y198000D02*X85000D01*
X85500Y198500D01*
Y199700D02*Y198500D01*
X85000Y200200D02*X85500Y199700D01*
X83500Y200200D02*X85000D01*
X83500Y202000D02*Y198000D01*
X83000Y202000D02*X85000D01*
X85500Y201500D01*
Y200700D01*
X85000Y200200D02*X85500Y200700D01*
X86700Y201000D02*Y198000D01*
Y201000D02*X87400Y202000D01*
X88500D01*
X89200Y201000D01*
Y198000D01*
X86700Y200000D02*X89200D01*
X90900Y198000D02*X92400Y200000D01*
Y201500D02*Y200000D01*
X91900Y202000D02*X92400Y201500D01*
X90900Y202000D02*X91900D01*
X90400Y201500D02*X90900Y202000D01*
X90400Y201500D02*Y200500D01*
X90900Y200000D01*
X92400D01*
X93600Y198000D02*X95600D01*
X83000Y162000D02*Y158000D01*
Y162000D02*X84500Y160000D01*
X86000Y162000D01*
Y158000D01*
X87200Y161000D02*Y158000D01*
Y161000D02*X87900Y162000D01*
X89000D01*
X89700Y161000D01*
Y158000D01*
X87200Y160000D02*X89700D01*
X91400Y158000D02*X93400Y162000D01*
X90900D02*X93400D01*
X94600Y158000D02*X96600D01*
X36000Y128000D02*X38000D01*
X38500Y128500D01*
Y129700D02*Y128500D01*
X38000Y130200D02*X38500Y129700D01*
X36500Y130200D02*X38000D01*
X36500Y132000D02*Y128000D01*
X36000Y132000D02*X38000D01*
X38500Y131500D01*
Y130700D01*
X38000Y130200D02*X38500Y130700D01*
X39700Y131000D02*Y128000D01*
Y131000D02*X40400Y132000D01*
X41500D01*
X42200Y131000D01*
Y128000D01*
X39700Y130000D02*X42200D01*
X44900Y132000D02*X45400Y131500D01*
X43900Y132000D02*X44900D01*
X43400Y131500D02*X43900Y132000D01*
X43400Y131500D02*Y128500D01*
X43900Y128000D01*
X44900Y130200D02*X45400Y129700D01*
X43400Y130200D02*X44900D01*
X43900Y128000D02*X44900D01*
X45400Y128500D01*
Y129700D02*Y128500D01*
X36000Y88000D02*X38000D01*
X38500Y88500D01*
Y89700D02*Y88500D01*
X38000Y90200D02*X38500Y89700D01*
X36500Y90200D02*X38000D01*
X36500Y92000D02*Y88000D01*
X36000Y92000D02*X38000D01*
X38500Y91500D01*
Y90700D01*
X38000Y90200D02*X38500Y90700D01*
X39700Y91000D02*Y88000D01*
Y91000D02*X40400Y92000D01*
X41500D01*
X42200Y91000D01*
Y88000D01*
X39700Y90000D02*X42200D01*
X43400Y89500D02*X45400Y92000D01*
X43400Y89500D02*X45900D01*
X45400Y92000D02*Y88000D01*
X36000Y102000D02*Y98000D01*
Y102000D02*X37500Y100000D01*
X39000Y102000D01*
Y98000D01*
X40200Y101000D02*Y98000D01*
Y101000D02*X40900Y102000D01*
X42000D01*
X42700Y101000D01*
Y98000D01*
X40200Y100000D02*X42700D01*
X43900Y99500D02*X45900Y102000D01*
X43900Y99500D02*X46400D01*
X45900Y102000D02*Y98000D01*
X36000Y122000D02*Y118000D01*
Y122000D02*X37500Y120000D01*
X39000Y122000D01*
Y118000D01*
X40200Y121000D02*Y118000D01*
Y121000D02*X40900Y122000D01*
X42000D01*
X42700Y121000D01*
Y118000D01*
X40200Y120000D02*X42700D01*
X43900Y122000D02*X45900D01*
X43900D02*Y120000D01*
X44400Y120500D01*
X45400D01*
X45900Y120000D01*
Y118500D01*
X45400Y118000D02*X45900Y118500D01*
X44400Y118000D02*X45400D01*
X43900Y118500D02*X44400Y118000D01*
X36000Y108000D02*X38000D01*
X38500Y108500D01*
Y109700D02*Y108500D01*
X38000Y110200D02*X38500Y109700D01*
X36500Y110200D02*X38000D01*
X36500Y112000D02*Y108000D01*
X36000Y112000D02*X38000D01*
X38500Y111500D01*
Y110700D01*
X38000Y110200D02*X38500Y110700D01*
X39700Y111000D02*Y108000D01*
Y111000D02*X40400Y112000D01*
X41500D01*
X42200Y111000D01*
Y108000D01*
X39700Y110000D02*X42200D01*
X43400Y112000D02*X45400D01*
X43400D02*Y110000D01*
X43900Y110500D01*
X44900D01*
X45400Y110000D01*
Y108500D01*
X44900Y108000D02*X45400Y108500D01*
X43900Y108000D02*X44900D01*
X43400Y108500D02*X43900Y108000D01*
X36000Y8000D02*X38000D01*
X38500Y8500D01*
Y9700D02*Y8500D01*
X38000Y10200D02*X38500Y9700D01*
X36500Y10200D02*X38000D01*
X36500Y12000D02*Y8000D01*
X36000Y12000D02*X38000D01*
X38500Y11500D01*
Y10700D01*
X38000Y10200D02*X38500Y10700D01*
X39700Y11000D02*Y8000D01*
Y11000D02*X40400Y12000D01*
X41500D01*
X42200Y11000D01*
Y8000D01*
X39700Y10000D02*X42200D01*
X43400Y8500D02*X43900Y8000D01*
X43400Y11500D02*Y8500D01*
Y11500D02*X43900Y12000D01*
X44900D01*
X45400Y11500D01*
Y8500D01*
X44900Y8000D02*X45400Y8500D01*
X43900Y8000D02*X44900D01*
X43400Y9000D02*X45400Y11000D01*
X36000Y28000D02*X38000D01*
X38500Y28500D01*
Y29700D02*Y28500D01*
X38000Y30200D02*X38500Y29700D01*
X36500Y30200D02*X38000D01*
X36500Y32000D02*Y28000D01*
X36000Y32000D02*X38000D01*
X38500Y31500D01*
Y30700D01*
X38000Y30200D02*X38500Y30700D01*
X39700Y31000D02*Y28000D01*
Y31000D02*X40400Y32000D01*
X41500D01*
X42200Y31000D01*
Y28000D01*
X39700Y30000D02*X42200D01*
X43400Y31200D02*X44200Y32000D01*
Y28000D01*
X43400D02*X44900D01*
X36000Y22000D02*Y18000D01*
Y22000D02*X37500Y20000D01*
X39000Y22000D01*
Y18000D01*
X40200Y21000D02*Y18000D01*
Y21000D02*X40900Y22000D01*
X42000D01*
X42700Y21000D01*
Y18000D01*
X40200Y20000D02*X42700D01*
X43900Y18500D02*X44400Y18000D01*
X43900Y21500D02*Y18500D01*
Y21500D02*X44400Y22000D01*
X45400D01*
X45900Y21500D01*
Y18500D01*
X45400Y18000D02*X45900Y18500D01*
X44400Y18000D02*X45400D01*
X43900Y19000D02*X45900Y21000D01*
X36000Y42000D02*Y38000D01*
Y42000D02*X37500Y40000D01*
X39000Y42000D01*
Y38000D01*
X40200Y41000D02*Y38000D01*
Y41000D02*X40900Y42000D01*
X42000D01*
X42700Y41000D01*
Y38000D01*
X40200Y40000D02*X42700D01*
X43900Y41200D02*X44700Y42000D01*
Y38000D01*
X43900D02*X45400D01*
X36000Y48000D02*X38000D01*
X38500Y48500D01*
Y49700D02*Y48500D01*
X38000Y50200D02*X38500Y49700D01*
X36500Y50200D02*X38000D01*
X36500Y52000D02*Y48000D01*
X36000Y52000D02*X38000D01*
X38500Y51500D01*
Y50700D01*
X38000Y50200D02*X38500Y50700D01*
X39700Y51000D02*Y48000D01*
Y51000D02*X40400Y52000D01*
X41500D01*
X42200Y51000D01*
Y48000D01*
X39700Y50000D02*X42200D01*
X43400Y51500D02*X43900Y52000D01*
X45400D01*
X45900Y51500D01*
Y50500D01*
X43400Y48000D02*X45900Y50500D01*
X43400Y48000D02*X45900D01*
X36000Y68000D02*X38000D01*
X38500Y68500D01*
Y69700D02*Y68500D01*
X38000Y70200D02*X38500Y69700D01*
X36500Y70200D02*X38000D01*
X36500Y72000D02*Y68000D01*
X36000Y72000D02*X38000D01*
X38500Y71500D01*
Y70700D01*
X38000Y70200D02*X38500Y70700D01*
X39700Y71000D02*Y68000D01*
Y71000D02*X40400Y72000D01*
X41500D01*
X42200Y71000D01*
Y68000D01*
X39700Y70000D02*X42200D01*
X43400Y71500D02*X43900Y72000D01*
X44900D01*
X45400Y71500D01*
X44900Y68000D02*X45400Y68500D01*
X43900Y68000D02*X44900D01*
X43400Y68500D02*X43900Y68000D01*
Y70200D02*X44900D01*
X45400Y71500D02*Y70700D01*
Y69700D02*Y68500D01*
Y69700D02*X44900Y70200D01*
X45400Y70700D02*X44900Y70200D01*
X36000Y62000D02*Y58000D01*
Y62000D02*X37500Y60000D01*
X39000Y62000D01*
Y58000D01*
X40200Y61000D02*Y58000D01*
Y61000D02*X40900Y62000D01*
X42000D01*
X42700Y61000D01*
Y58000D01*
X40200Y60000D02*X42700D01*
X43900Y61500D02*X44400Y62000D01*
X45900D01*
X46400Y61500D01*
Y60500D01*
X43900Y58000D02*X46400Y60500D01*
X43900Y58000D02*X46400D01*
X36000Y82000D02*Y78000D01*
Y82000D02*X37500Y80000D01*
X39000Y82000D01*
Y78000D01*
X40200Y81000D02*Y78000D01*
Y81000D02*X40900Y82000D01*
X42000D01*
X42700Y81000D01*
Y78000D01*
X40200Y80000D02*X42700D01*
X43900Y81500D02*X44400Y82000D01*
X45400D01*
X45900Y81500D01*
X45400Y78000D02*X45900Y78500D01*
X44400Y78000D02*X45400D01*
X43900Y78500D02*X44400Y78000D01*
Y80200D02*X45400D01*
X45900Y81500D02*Y80700D01*
Y79700D02*Y78500D01*
Y79700D02*X45400Y80200D01*
X45900Y80700D02*X45400Y80200D01*
X83000Y168000D02*X85000D01*
X85500Y168500D01*
Y169700D02*Y168500D01*
X85000Y170200D02*X85500Y169700D01*
X83500Y170200D02*X85000D01*
X83500Y172000D02*Y168000D01*
X83000Y172000D02*X85000D01*
X85500Y171500D01*
Y170700D01*
X85000Y170200D02*X85500Y170700D01*
X86700Y171000D02*Y168000D01*
Y171000D02*X87400Y172000D01*
X88500D01*
X89200Y171000D01*
Y168000D01*
X86700Y170000D02*X89200D01*
X90400Y168500D02*X90900Y168000D01*
X90400Y169300D02*Y168500D01*
Y169300D02*X91100Y170000D01*
X91700D01*
X92400Y169300D01*
Y168500D01*
X91900Y168000D02*X92400Y168500D01*
X90900Y168000D02*X91900D01*
X90400Y170700D02*X91100Y170000D01*
X90400Y171500D02*Y170700D01*
Y171500D02*X90900Y172000D01*
X91900D01*
X92400Y171500D01*
Y170700D01*
X91700Y170000D02*X92400Y170700D01*
X93600Y168000D02*X95600D01*
X83000Y128000D02*X85000D01*
X85500Y128500D01*
Y129700D02*Y128500D01*
X85000Y130200D02*X85500Y129700D01*
X83500Y130200D02*X85000D01*
X83500Y132000D02*Y128000D01*
X83000Y132000D02*X85000D01*
X85500Y131500D01*
Y130700D01*
X85000Y130200D02*X85500Y130700D01*
X86700Y131000D02*Y128000D01*
Y131000D02*X87400Y132000D01*
X88500D01*
X89200Y131000D01*
Y128000D01*
X86700Y130000D02*X89200D01*
X91900Y132000D02*X92400Y131500D01*
X90900Y132000D02*X91900D01*
X90400Y131500D02*X90900Y132000D01*
X90400Y131500D02*Y128500D01*
X90900Y128000D01*
X91900Y130200D02*X92400Y129700D01*
X90400Y130200D02*X91900D01*
X90900Y128000D02*X91900D01*
X92400Y128500D01*
Y129700D02*Y128500D01*
X93600Y128000D02*X95600D01*
X83000Y148000D02*X85000D01*
X85500Y148500D01*
Y149700D02*Y148500D01*
X85000Y150200D02*X85500Y149700D01*
X83500Y150200D02*X85000D01*
X83500Y152000D02*Y148000D01*
X83000Y152000D02*X85000D01*
X85500Y151500D01*
Y150700D01*
X85000Y150200D02*X85500Y150700D01*
X86700Y151000D02*Y148000D01*
Y151000D02*X87400Y152000D01*
X88500D01*
X89200Y151000D01*
Y148000D01*
X86700Y150000D02*X89200D01*
X90900Y148000D02*X92900Y152000D01*
X90400D02*X92900D01*
X94100Y148000D02*X96100D01*
X83000Y218000D02*X85000D01*
X85500Y218500D01*
Y219700D02*Y218500D01*
X85000Y220200D02*X85500Y219700D01*
X83500Y220200D02*X85000D01*
X83500Y222000D02*Y218000D01*
X83000Y222000D02*X85000D01*
X85500Y221500D01*
Y220700D01*
X85000Y220200D02*X85500Y220700D01*
X86700Y221000D02*Y218000D01*
Y221000D02*X87400Y222000D01*
X88500D01*
X89200Y221000D01*
Y218000D01*
X86700Y220000D02*X89200D01*
X90400Y221200D02*X91200Y222000D01*
Y218000D01*
X90400D02*X91900D01*
X93100Y218500D02*X93600Y218000D01*
X93100Y221500D02*Y218500D01*
Y221500D02*X93600Y222000D01*
X94600D01*
X95100Y221500D01*
Y218500D01*
X94600Y218000D02*X95100Y218500D01*
X93600Y218000D02*X94600D01*
X93100Y219000D02*X95100Y221000D01*
X96300Y218000D02*X98300D01*
X83000Y182000D02*Y178000D01*
Y182000D02*X84500Y180000D01*
X86000Y182000D01*
Y178000D01*
X87200Y181000D02*Y178000D01*
Y181000D02*X87900Y182000D01*
X89000D01*
X89700Y181000D01*
Y178000D01*
X87200Y180000D02*X89700D01*
X90900Y178500D02*X91400Y178000D01*
X90900Y179300D02*Y178500D01*
Y179300D02*X91600Y180000D01*
X92200D01*
X92900Y179300D01*
Y178500D01*
X92400Y178000D02*X92900Y178500D01*
X91400Y178000D02*X92400D01*
X90900Y180700D02*X91600Y180000D01*
X90900Y181500D02*Y180700D01*
Y181500D02*X91400Y182000D01*
X92400D01*
X92900Y181500D01*
Y180700D01*
X92200Y180000D02*X92900Y180700D01*
X94100Y178000D02*X96100D01*
X83000Y212000D02*Y208000D01*
Y212000D02*X84500Y210000D01*
X86000Y212000D01*
Y208000D01*
X87200Y211000D02*Y208000D01*
Y211000D02*X87900Y212000D01*
X89000D01*
X89700Y211000D01*
Y208000D01*
X87200Y210000D02*X89700D01*
X91400Y208000D02*X92900Y210000D01*
Y211500D02*Y210000D01*
X92400Y212000D02*X92900Y211500D01*
X91400Y212000D02*X92400D01*
X90900Y211500D02*X91400Y212000D01*
X90900Y211500D02*Y210500D01*
X91400Y210000D01*
X92900D01*
X94100Y208000D02*X96100D01*
X83000Y88000D02*X85000D01*
X85500Y88500D01*
Y89700D02*Y88500D01*
X85000Y90200D02*X85500Y89700D01*
X83500Y90200D02*X85000D01*
X83500Y92000D02*Y88000D01*
X83000Y92000D02*X85000D01*
X85500Y91500D01*
Y90700D01*
X85000Y90200D02*X85500Y90700D01*
X86700Y91000D02*Y88000D01*
Y91000D02*X87400Y92000D01*
X88500D01*
X89200Y91000D01*
Y88000D01*
X86700Y90000D02*X89200D01*
X90400Y89500D02*X92400Y92000D01*
X90400Y89500D02*X92900D01*
X92400Y92000D02*Y88000D01*
X94100D02*X96100D01*
X83000Y108000D02*X85000D01*
X85500Y108500D01*
Y109700D02*Y108500D01*
X85000Y110200D02*X85500Y109700D01*
X83500Y110200D02*X85000D01*
X83500Y112000D02*Y108000D01*
X83000Y112000D02*X85000D01*
X85500Y111500D01*
Y110700D01*
X85000Y110200D02*X85500Y110700D01*
X86700Y111000D02*Y108000D01*
Y111000D02*X87400Y112000D01*
X88500D01*
X89200Y111000D01*
Y108000D01*
X86700Y110000D02*X89200D01*
X90400Y112000D02*X92400D01*
X90400D02*Y110000D01*
X90900Y110500D01*
X91900D01*
X92400Y110000D01*
Y108500D01*
X91900Y108000D02*X92400Y108500D01*
X90900Y108000D02*X91900D01*
X90400Y108500D02*X90900Y108000D01*
X93600D02*X95600D01*
X83000Y48000D02*X85000D01*
X85500Y48500D01*
Y49700D02*Y48500D01*
X85000Y50200D02*X85500Y49700D01*
X83500Y50200D02*X85000D01*
X83500Y52000D02*Y48000D01*
X83000Y52000D02*X85000D01*
X85500Y51500D01*
Y50700D01*
X85000Y50200D02*X85500Y50700D01*
X86700Y51000D02*Y48000D01*
Y51000D02*X87400Y52000D01*
X88500D01*
X89200Y51000D01*
Y48000D01*
X86700Y50000D02*X89200D01*
X90400Y51500D02*X90900Y52000D01*
X92400D01*
X92900Y51500D01*
Y50500D01*
X90400Y48000D02*X92900Y50500D01*
X90400Y48000D02*X92900D01*
X94100D02*X96100D01*
X83000Y68000D02*X85000D01*
X85500Y68500D01*
Y69700D02*Y68500D01*
X85000Y70200D02*X85500Y69700D01*
X83500Y70200D02*X85000D01*
X83500Y72000D02*Y68000D01*
X83000Y72000D02*X85000D01*
X85500Y71500D01*
Y70700D01*
X85000Y70200D02*X85500Y70700D01*
X86700Y71000D02*Y68000D01*
Y71000D02*X87400Y72000D01*
X88500D01*
X89200Y71000D01*
Y68000D01*
X86700Y70000D02*X89200D01*
X90400Y71500D02*X90900Y72000D01*
X91900D01*
X92400Y71500D01*
X91900Y68000D02*X92400Y68500D01*
X90900Y68000D02*X91900D01*
X90400Y68500D02*X90900Y68000D01*
Y70200D02*X91900D01*
X92400Y71500D02*Y70700D01*
Y69700D02*Y68500D01*
Y69700D02*X91900Y70200D01*
X92400Y70700D02*X91900Y70200D01*
X93600Y68000D02*X95600D01*
X83000Y82000D02*Y78000D01*
Y82000D02*X84500Y80000D01*
X86000Y82000D01*
Y78000D01*
X87200Y81000D02*Y78000D01*
Y81000D02*X87900Y82000D01*
X89000D01*
X89700Y81000D01*
Y78000D01*
X87200Y80000D02*X89700D01*
X90900Y81500D02*X91400Y82000D01*
X92400D01*
X92900Y81500D01*
X92400Y78000D02*X92900Y78500D01*
X91400Y78000D02*X92400D01*
X90900Y78500D02*X91400Y78000D01*
Y80200D02*X92400D01*
X92900Y81500D02*Y80700D01*
Y79700D02*Y78500D01*
Y79700D02*X92400Y80200D01*
X92900Y80700D02*X92400Y80200D01*
X94100Y78000D02*X96100D01*
X83000Y62000D02*Y58000D01*
Y62000D02*X84500Y60000D01*
X86000Y62000D01*
Y58000D01*
X87200Y61000D02*Y58000D01*
Y61000D02*X87900Y62000D01*
X89000D01*
X89700Y61000D01*
Y58000D01*
X87200Y60000D02*X89700D01*
X90900Y61500D02*X91400Y62000D01*
X92900D01*
X93400Y61500D01*
Y60500D01*
X90900Y58000D02*X93400Y60500D01*
X90900Y58000D02*X93400D01*
X94600D02*X96600D01*
X83000Y8000D02*X85000D01*
X85500Y8500D01*
Y9700D02*Y8500D01*
X85000Y10200D02*X85500Y9700D01*
X83500Y10200D02*X85000D01*
X83500Y12000D02*Y8000D01*
X83000Y12000D02*X85000D01*
X85500Y11500D01*
Y10700D01*
X85000Y10200D02*X85500Y10700D01*
X86700Y11000D02*Y8000D01*
Y11000D02*X87400Y12000D01*
X88500D01*
X89200Y11000D01*
Y8000D01*
X86700Y10000D02*X89200D01*
X90400Y8500D02*X90900Y8000D01*
X90400Y11500D02*Y8500D01*
Y11500D02*X90900Y12000D01*
X91900D01*
X92400Y11500D01*
Y8500D01*
X91900Y8000D02*X92400Y8500D01*
X90900Y8000D02*X91900D01*
X90400Y9000D02*X92400Y11000D01*
X93600Y8000D02*X95600D01*
X83000Y22000D02*Y18000D01*
Y22000D02*X84500Y20000D01*
X86000Y22000D01*
Y18000D01*
X87200Y21000D02*Y18000D01*
Y21000D02*X87900Y22000D01*
X89000D01*
X89700Y21000D01*
Y18000D01*
X87200Y20000D02*X89700D01*
X90900Y18500D02*X91400Y18000D01*
X90900Y21500D02*Y18500D01*
Y21500D02*X91400Y22000D01*
X92400D01*
X92900Y21500D01*
Y18500D01*
X92400Y18000D02*X92900Y18500D01*
X91400Y18000D02*X92400D01*
X90900Y19000D02*X92900Y21000D01*
X94100Y18000D02*X96100D01*
X83000Y28000D02*X85000D01*
X85500Y28500D01*
Y29700D02*Y28500D01*
X85000Y30200D02*X85500Y29700D01*
X83500Y30200D02*X85000D01*
X83500Y32000D02*Y28000D01*
X83000Y32000D02*X85000D01*
X85500Y31500D01*
Y30700D01*
X85000Y30200D02*X85500Y30700D01*
X86700Y31000D02*Y28000D01*
Y31000D02*X87400Y32000D01*
X88500D01*
X89200Y31000D01*
Y28000D01*
X86700Y30000D02*X89200D01*
X90400Y31200D02*X91200Y32000D01*
Y28000D01*
X90400D02*X91900D01*
X93100D02*X95100D01*
X83000Y42000D02*Y38000D01*
Y42000D02*X84500Y40000D01*
X86000Y42000D01*
Y38000D01*
X87200Y41000D02*Y38000D01*
Y41000D02*X87900Y42000D01*
X89000D01*
X89700Y41000D01*
Y38000D01*
X87200Y40000D02*X89700D01*
X90900Y41200D02*X91700Y42000D01*
Y38000D01*
X90900D02*X92400D01*
X93600D02*X95600D01*
X83000Y102000D02*Y98000D01*
Y102000D02*X84500Y100000D01*
X86000Y102000D01*
Y98000D01*
X87200Y101000D02*Y98000D01*
Y101000D02*X87900Y102000D01*
X89000D01*
X89700Y101000D01*
Y98000D01*
X87200Y100000D02*X89700D01*
X90900Y99500D02*X92900Y102000D01*
X90900Y99500D02*X93400D01*
X92900Y102000D02*Y98000D01*
X94600D02*X96600D01*
X83000Y122000D02*Y118000D01*
Y122000D02*X84500Y120000D01*
X86000Y122000D01*
Y118000D01*
X87200Y121000D02*Y118000D01*
Y121000D02*X87900Y122000D01*
X89000D01*
X89700Y121000D01*
Y118000D01*
X87200Y120000D02*X89700D01*
X90900Y122000D02*X92900D01*
X90900D02*Y120000D01*
X91400Y120500D01*
X92400D01*
X92900Y120000D01*
Y118500D01*
X92400Y118000D02*X92900Y118500D01*
X91400Y118000D02*X92400D01*
X90900Y118500D02*X91400Y118000D01*
X94100D02*X96100D01*
X196220Y176300D02*Y175500D01*
X192720D02*X196220D01*
X192220Y176000D02*X192720Y175500D01*
X192220Y176500D02*Y176000D01*
X192720Y177000D02*X192220Y176500D01*
X192720Y177000D02*X193220D01*
X193720Y174300D02*X196220Y172300D01*
X193720Y174300D02*Y171800D01*
X192220Y172300D02*X196220D01*
Y57300D02*Y56500D01*
X192720D02*X196220D01*
X192220Y57000D02*X192720Y56500D01*
X192220Y57500D02*Y57000D01*
X192720Y58000D02*X192220Y57500D01*
X192720Y58000D02*X193220D01*
X195720Y55300D02*X196220Y54800D01*
Y53300D01*
X195720Y52800D01*
X194720D02*X195720D01*
X192220Y55300D02*X194720Y52800D01*
X192220Y55300D02*Y52800D01*
X196220Y16300D02*Y15500D01*
X192720D02*X196220D01*
X192220Y16000D02*X192720Y15500D01*
X192220Y16500D02*Y16000D01*
X192720Y17000D02*X192220Y16500D01*
X192720Y17000D02*X193220D01*
X195420Y14300D02*X196220Y13500D01*
X192220D02*X196220D01*
X192220Y14300D02*Y12800D01*
X192200Y38500D02*X193500D01*
X191500Y39200D02*X192200Y38500D01*
X191500Y41800D02*Y39200D01*
Y41800D02*X192200Y42500D01*
X193500D01*
X194700Y41700D02*X195500Y42500D01*
Y38500D01*
X194700D02*X196200D01*
X171200Y117500D02*X172500D01*
X170500Y118200D02*X171200Y117500D01*
X170500Y120800D02*Y118200D01*
Y120800D02*X171200Y121500D01*
X172500D01*
X173700Y121000D02*X174200Y121500D01*
X175200D01*
X175700Y121000D01*
X175200Y117500D02*X175700Y118000D01*
X174200Y117500D02*X175200D01*
X173700Y118000D02*X174200Y117500D01*
Y119700D02*X175200D01*
X175700Y121000D02*Y120200D01*
Y119200D02*Y118000D01*
Y119200D02*X175200Y119700D01*
X175700Y120200D02*X175200Y119700D01*
X114000Y117000D02*X116000D01*
X116500Y116500D01*
Y115500D01*
X116000Y115000D02*X116500Y115500D01*
X114500Y115000D02*X116000D01*
X114500Y117000D02*Y113000D01*
X115300Y115000D02*X116500Y113000D01*
X117700Y116200D02*X118500Y117000D01*
Y113000D01*
X117700D02*X119200D01*
X129000Y26000D02*Y22500D01*
X129500Y22000D01*
X130500D01*
X131000Y22500D01*
Y26000D02*Y22500D01*
X132200Y25200D02*X133000Y26000D01*
Y22000D01*
X132200D02*X133700D01*
X129000Y88000D02*Y84500D01*
X129500Y84000D01*
X130500D01*
X131000Y84500D01*
Y88000D02*Y84500D01*
X132200Y87500D02*X132700Y88000D01*
X134200D01*
X134700Y87500D01*
Y86500D01*
X132200Y84000D02*X134700Y86500D01*
X132200Y84000D02*X134700D01*
X107200Y59500D02*X108500D01*
X106500Y60200D02*X107200Y59500D01*
X106500Y62800D02*Y60200D01*
Y62800D02*X107200Y63500D01*
X108500D01*
X109700Y63000D02*X110200Y63500D01*
X111700D01*
X112200Y63000D01*
Y62000D01*
X109700Y59500D02*X112200Y62000D01*
X109700Y59500D02*X112200D01*
X137525Y54250D02*X138500D01*
X137000Y54775D02*X137525Y54250D01*
X137000Y56725D02*Y54775D01*
Y56725D02*X137525Y57250D01*
X138500D01*
X139400Y56650D02*X140000Y57250D01*
Y54250D01*
X139400D02*X140525D01*
X141425Y54625D02*X141800Y54250D01*
X141425Y56875D02*Y54625D01*
Y56875D02*X141800Y57250D01*
X142550D01*
X142925Y56875D01*
Y54625D01*
X142550Y54250D02*X142925Y54625D01*
X141800Y54250D02*X142550D01*
X141425Y55000D02*X142925Y56500D01*
X143825Y54625D02*X144200Y54250D01*
X143825Y56875D02*Y54625D01*
Y56875D02*X144200Y57250D01*
X144950D01*
X145325Y56875D01*
Y54625D01*
X144950Y54250D02*X145325Y54625D01*
X144200Y54250D02*X144950D01*
X143825Y55000D02*X145325Y56500D01*
X134000Y176000D02*X136000D01*
X136500Y175500D01*
Y174500D01*
X136000Y174000D02*X136500Y174500D01*
X134500Y174000D02*X136000D01*
X134500Y176000D02*Y172000D01*
X135300Y174000D02*X136500Y172000D01*
X137700Y175500D02*Y172500D01*
Y175500D02*X138200Y176000D01*
X139200D01*
X139700Y175500D01*
Y172500D01*
X139200Y172000D02*X139700Y172500D01*
X138200Y172000D02*X139200D01*
X137700Y172500D02*X138200Y172000D01*
X140900Y176000D02*Y172000D01*
Y176000D02*X142400Y174000D01*
X143900Y176000D01*
Y172000D01*
X145100D02*X147100D01*
X148300Y175000D02*Y172000D01*
Y175000D02*X149000Y176000D01*
X150100D01*
X150800Y175000D01*
Y172000D01*
X148300Y174000D02*X150800D01*
X152500Y176000D02*Y172000D01*
X153800Y176000D02*X154500Y175300D01*
Y172700D01*
X153800Y172000D02*X154500Y172700D01*
X152000Y172000D02*X153800D01*
X152000Y176000D02*X153800D01*
M02*
