G04 start of page 5 for group -4063 idx -4063 *
G04 Title: 40/80switcher, componentmask *
G04 Creator: pcb 4.0.2 *
G04 CreationDate: Mon Apr 21 21:42:30 2025 UTC *
G04 For: ndv *
G04 Format: Gerber/RS-274X *
G04 PCB-Dimensions (mil): 2030.00 2290.00 *
G04 PCB-Coordinate-Origin: lower left *
%MOIN*%
%FSLAX25Y25*%
%LNTOPMASK*%
%ADD41C,0.0765*%
%ADD40C,0.0740*%
%ADD39C,0.0610*%
%ADD38C,0.0660*%
%ADD37C,0.0001*%
%ADD36C,0.0080*%
G54D36*X0Y229000D02*X203000D01*
X0D02*Y0D01*
X203000Y229000D02*Y0D01*
X0D02*X203000D01*
G54D37*G36*
X16700Y23300D02*Y16700D01*
X23300D01*
Y23300D01*
X16700D01*
G37*
G36*
Y33300D02*Y26700D01*
X23300D01*
Y33300D01*
X16700D01*
G37*
G36*
X26700Y23300D02*Y16700D01*
X33300D01*
Y23300D01*
X26700D01*
G37*
G36*
X16700Y43300D02*Y36700D01*
X23300D01*
Y43300D01*
X16700D01*
G37*
G36*
X26700D02*Y36700D01*
X33300D01*
Y43300D01*
X26700D01*
G37*
G54D38*X97000Y40000D03*
G54D37*G36*
X76700Y43300D02*Y36700D01*
X83300D01*
Y43300D01*
X76700D01*
G37*
G36*
X16700Y13300D02*Y6700D01*
X23300D01*
Y13300D01*
X16700D01*
G37*
G36*
X26700D02*Y6700D01*
X33300D01*
Y13300D01*
X26700D01*
G37*
G36*
X56700D02*Y6700D01*
X63300D01*
Y13300D01*
X56700D01*
G37*
G36*
X76700D02*Y6700D01*
X83300D01*
Y13300D01*
X76700D01*
G37*
G36*
X93700D02*Y6700D01*
X100300D01*
Y13300D01*
X93700D01*
G37*
G36*
X76700Y23300D02*Y16700D01*
X83300D01*
Y23300D01*
X76700D01*
G37*
G36*
X46700Y33300D02*Y26700D01*
X53300D01*
Y33300D01*
X46700D01*
G37*
G36*
X26700D02*Y26700D01*
X33300D01*
Y33300D01*
X26700D01*
G37*
G36*
X76700D02*Y26700D01*
X83300D01*
Y33300D01*
X76700D01*
G37*
G36*
X46700Y13300D02*Y6700D01*
X53300D01*
Y13300D01*
X46700D01*
G37*
G36*
X16700Y103300D02*Y96700D01*
X23300D01*
Y103300D01*
X16700D01*
G37*
G36*
Y93300D02*Y86700D01*
X23300D01*
Y93300D01*
X16700D01*
G37*
G36*
Y113300D02*Y106700D01*
X23300D01*
Y113300D01*
X16700D01*
G37*
G36*
Y123300D02*Y116700D01*
X23300D01*
Y123300D01*
X16700D01*
G37*
G36*
Y133300D02*Y126700D01*
X23300D01*
Y133300D01*
X16700D01*
G37*
G36*
X6700D02*Y126700D01*
X13300D01*
Y133300D01*
X6700D01*
G37*
G36*
Y123300D02*Y116700D01*
X13300D01*
Y123300D01*
X6700D01*
G37*
G36*
Y113300D02*Y106700D01*
X13300D01*
Y113300D01*
X6700D01*
G37*
G36*
Y103300D02*Y96700D01*
X13300D01*
Y103300D01*
X6700D01*
G37*
G36*
X26700Y133300D02*Y126700D01*
X33300D01*
Y133300D01*
X26700D01*
G37*
G36*
Y123300D02*Y116700D01*
X33300D01*
Y123300D01*
X26700D01*
G37*
G36*
Y113300D02*Y106700D01*
X33300D01*
Y113300D01*
X26700D01*
G37*
G36*
Y93300D02*Y86700D01*
X33300D01*
Y93300D01*
X26700D01*
G37*
G36*
Y103300D02*Y96700D01*
X33300D01*
Y103300D01*
X26700D01*
G37*
G36*
X6700Y53300D02*Y46700D01*
X13300D01*
Y53300D01*
X6700D01*
G37*
G36*
Y33300D02*Y26700D01*
X13300D01*
Y33300D01*
X6700D01*
G37*
G36*
Y63300D02*Y56700D01*
X13300D01*
Y63300D01*
X6700D01*
G37*
G36*
Y43300D02*Y36700D01*
X13300D01*
Y43300D01*
X6700D01*
G37*
G36*
Y23300D02*Y16700D01*
X13300D01*
Y23300D01*
X6700D01*
G37*
G36*
Y13300D02*Y6700D01*
X13300D01*
Y13300D01*
X6700D01*
G37*
G36*
Y73300D02*Y66700D01*
X13300D01*
Y73300D01*
X6700D01*
G37*
G36*
Y83300D02*Y76700D01*
X13300D01*
Y83300D01*
X6700D01*
G37*
G36*
Y93300D02*Y86700D01*
X13300D01*
Y93300D01*
X6700D01*
G37*
G36*
X56700Y53300D02*Y46700D01*
X63300D01*
Y53300D01*
X56700D01*
G37*
G36*
Y73300D02*Y66700D01*
X63300D01*
Y73300D01*
X56700D01*
G37*
G36*
X46700Y103300D02*Y96700D01*
X53300D01*
Y103300D01*
X46700D01*
G37*
G36*
Y93300D02*Y86700D01*
X53300D01*
Y93300D01*
X46700D01*
G37*
G36*
X93700Y74300D02*Y67700D01*
X100300D01*
Y74300D01*
X93700D01*
G37*
G54D39*X91000Y56000D03*
G54D37*G36*
X56700Y83300D02*Y76700D01*
X63300D01*
Y83300D01*
X56700D01*
G37*
G36*
X76700Y53300D02*Y46700D01*
X83300D01*
Y53300D01*
X76700D01*
G37*
G36*
Y73300D02*Y66700D01*
X83300D01*
Y73300D01*
X76700D01*
G37*
G36*
Y83300D02*Y76700D01*
X83300D01*
Y83300D01*
X76700D01*
G37*
G36*
Y63300D02*Y56700D01*
X83300D01*
Y63300D01*
X76700D01*
G37*
G36*
X16700Y53300D02*Y46700D01*
X23300D01*
Y53300D01*
X16700D01*
G37*
G36*
Y73300D02*Y66700D01*
X23300D01*
Y73300D01*
X16700D01*
G37*
G36*
Y83300D02*Y76700D01*
X23300D01*
Y83300D01*
X16700D01*
G37*
G36*
X56700Y23300D02*Y16700D01*
X63300D01*
Y23300D01*
X56700D01*
G37*
G36*
Y33300D02*Y26700D01*
X63300D01*
Y33300D01*
X56700D01*
G37*
G36*
X46700Y23300D02*Y16700D01*
X53300D01*
Y23300D01*
X46700D01*
G37*
G36*
X56700Y43300D02*Y36700D01*
X63300D01*
Y43300D01*
X56700D01*
G37*
G36*
X46700Y83300D02*Y76700D01*
X53300D01*
Y83300D01*
X46700D01*
G37*
G36*
Y63300D02*Y56700D01*
X53300D01*
Y63300D01*
X46700D01*
G37*
G36*
Y43300D02*Y36700D01*
X53300D01*
Y43300D01*
X46700D01*
G37*
G36*
Y73300D02*Y66700D01*
X53300D01*
Y73300D01*
X46700D01*
G37*
G36*
Y53300D02*Y46700D01*
X53300D01*
Y53300D01*
X46700D01*
G37*
G36*
X26700D02*Y46700D01*
X33300D01*
Y53300D01*
X26700D01*
G37*
G36*
Y73300D02*Y66700D01*
X33300D01*
Y73300D01*
X26700D01*
G37*
G36*
Y83300D02*Y76700D01*
X33300D01*
Y83300D01*
X26700D01*
G37*
G36*
Y63300D02*Y56700D01*
X33300D01*
Y63300D01*
X26700D01*
G37*
G36*
X56700Y93300D02*Y86700D01*
X63300D01*
Y93300D01*
X56700D01*
G37*
G36*
Y103300D02*Y96700D01*
X63300D01*
Y103300D01*
X56700D01*
G37*
G36*
Y113300D02*Y106700D01*
X63300D01*
Y113300D01*
X56700D01*
G37*
G36*
Y123300D02*Y116700D01*
X63300D01*
Y123300D01*
X56700D01*
G37*
G36*
Y133300D02*Y126700D01*
X63300D01*
Y133300D01*
X56700D01*
G37*
G36*
X46700Y123300D02*Y116700D01*
X53300D01*
Y123300D01*
X46700D01*
G37*
G36*
Y113300D02*Y106700D01*
X53300D01*
Y113300D01*
X46700D01*
G37*
G36*
Y133300D02*Y126700D01*
X53300D01*
Y133300D01*
X46700D01*
G37*
G36*
X76700Y93300D02*Y86700D01*
X83300D01*
Y93300D01*
X76700D01*
G37*
G36*
Y113300D02*Y106700D01*
X83300D01*
Y113300D01*
X76700D01*
G37*
G36*
Y103300D02*Y96700D01*
X83300D01*
Y103300D01*
X76700D01*
G37*
G36*
Y123300D02*Y116700D01*
X83300D01*
Y123300D01*
X76700D01*
G37*
G54D40*X97000Y115000D03*
G54D38*Y101000D03*
G54D37*G36*
X93700Y133300D02*Y126700D01*
X100300D01*
Y133300D01*
X93700D01*
G37*
G36*
X16700Y203300D02*Y196700D01*
X23300D01*
Y203300D01*
X16700D01*
G37*
G36*
Y193300D02*Y186700D01*
X23300D01*
Y193300D01*
X16700D01*
G37*
G36*
Y183300D02*Y176700D01*
X23300D01*
Y183300D01*
X16700D01*
G37*
G36*
Y173300D02*Y166700D01*
X23300D01*
Y173300D01*
X16700D01*
G37*
G36*
X6700Y193300D02*Y186700D01*
X13300D01*
Y193300D01*
X6700D01*
G37*
G36*
Y163300D02*Y156700D01*
X13300D01*
Y163300D01*
X6700D01*
G37*
G36*
Y173300D02*Y166700D01*
X13300D01*
Y173300D01*
X6700D01*
G37*
G36*
Y203300D02*Y196700D01*
X13300D01*
Y203300D01*
X6700D01*
G37*
G36*
Y183300D02*Y176700D01*
X13300D01*
Y183300D01*
X6700D01*
G37*
G36*
X46700Y163300D02*Y156700D01*
X53300D01*
Y163300D01*
X46700D01*
G37*
G36*
Y173300D02*Y166700D01*
X53300D01*
Y173300D01*
X46700D01*
G37*
G36*
X26700D02*Y166700D01*
X33300D01*
Y173300D01*
X26700D01*
G37*
G36*
Y163300D02*Y156700D01*
X33300D01*
Y163300D01*
X26700D01*
G37*
G36*
X46700Y183300D02*Y176700D01*
X53300D01*
Y183300D01*
X46700D01*
G37*
G36*
X26700D02*Y176700D01*
X33300D01*
Y183300D01*
X26700D01*
G37*
G36*
X16700Y153300D02*Y146700D01*
X23300D01*
Y153300D01*
X16700D01*
G37*
G36*
X6700D02*Y146700D01*
X13300D01*
Y153300D01*
X6700D01*
G37*
G36*
X26700D02*Y146700D01*
X33300D01*
Y153300D01*
X26700D01*
G37*
G36*
X16700Y143300D02*Y136700D01*
X23300D01*
Y143300D01*
X16700D01*
G37*
G36*
X6700D02*Y136700D01*
X13300D01*
Y143300D01*
X6700D01*
G37*
G36*
X26700D02*Y136700D01*
X33300D01*
Y143300D01*
X26700D01*
G37*
G36*
X56700Y213300D02*Y206700D01*
X63300D01*
Y213300D01*
X56700D01*
G37*
G36*
Y183300D02*Y176700D01*
X63300D01*
Y183300D01*
X56700D01*
G37*
G36*
Y193300D02*Y186700D01*
X63300D01*
Y193300D01*
X56700D01*
G37*
G36*
Y203300D02*Y196700D01*
X63300D01*
Y203300D01*
X56700D01*
G37*
G36*
Y153300D02*Y146700D01*
X63300D01*
Y153300D01*
X56700D01*
G37*
G36*
Y173300D02*Y166700D01*
X63300D01*
Y173300D01*
X56700D01*
G37*
G36*
Y143300D02*Y136700D01*
X63300D01*
Y143300D01*
X56700D01*
G37*
G36*
X46700D02*Y136700D01*
X53300D01*
Y143300D01*
X46700D01*
G37*
G36*
Y153300D02*Y146700D01*
X53300D01*
Y153300D01*
X46700D01*
G37*
G36*
X56700Y223300D02*Y216700D01*
X63300D01*
Y223300D01*
X56700D01*
G37*
G36*
X46700Y203300D02*Y196700D01*
X53300D01*
Y203300D01*
X46700D01*
G37*
G36*
Y193300D02*Y186700D01*
X53300D01*
Y193300D01*
X46700D01*
G37*
G36*
X16700Y213300D02*Y206700D01*
X23300D01*
Y213300D01*
X16700D01*
G37*
G36*
Y223300D02*Y216700D01*
X23300D01*
Y223300D01*
X16700D01*
G37*
G36*
X26700Y213300D02*Y206700D01*
X33300D01*
Y213300D01*
X26700D01*
G37*
G36*
Y203300D02*Y196700D01*
X33300D01*
Y203300D01*
X26700D01*
G37*
G36*
Y223300D02*Y216700D01*
X33300D01*
Y223300D01*
X26700D01*
G37*
G36*
X76700D02*Y216700D01*
X83300D01*
Y223300D01*
X76700D01*
G37*
G36*
Y213300D02*Y206700D01*
X83300D01*
Y213300D01*
X76700D01*
G37*
G36*
Y203300D02*Y196700D01*
X83300D01*
Y203300D01*
X76700D01*
G37*
G54D38*X97000Y220000D03*
G54D37*G36*
X76700Y173300D02*Y166700D01*
X83300D01*
Y173300D01*
X76700D01*
G37*
G36*
Y183300D02*Y176700D01*
X83300D01*
Y183300D01*
X76700D01*
G37*
G36*
X93700Y193300D02*Y186700D01*
X100300D01*
Y193300D01*
X93700D01*
G37*
G54D39*X91000Y174000D03*
G54D37*G36*
X76700Y133300D02*Y126700D01*
X83300D01*
Y133300D01*
X76700D01*
G37*
G36*
Y143300D02*Y136700D01*
X83300D01*
Y143300D01*
X76700D01*
G37*
G36*
Y153300D02*Y146700D01*
X83300D01*
Y153300D01*
X76700D01*
G37*
G54D38*X97000Y160000D03*
G54D37*G36*
X76700Y163300D02*Y156700D01*
X83300D01*
Y163300D01*
X76700D01*
G37*
G54D41*X187000Y220000D03*
Y210000D03*
Y200000D03*
Y190000D03*
Y180000D03*
Y170000D03*
Y160000D03*
Y150000D03*
G54D39*X111000Y174000D03*
G54D37*G36*
X123700Y177300D02*Y170700D01*
X130300D01*
Y177300D01*
X123700D01*
G37*
G54D41*X187000Y140000D03*
G54D38*X167000Y220000D03*
X157000D03*
X147000D03*
X137000D03*
X127000D03*
X117000D03*
X107000D03*
G54D41*X187000Y130000D03*
Y60000D03*
Y50000D03*
Y20000D03*
Y10000D03*
G54D38*X167000D03*
Y40000D03*
Y71000D03*
G54D39*X177000Y35000D03*
X176000Y115000D03*
X197000Y35000D03*
G54D40*X137000Y115000D03*
G54D38*Y101000D03*
X127000D03*
X137000Y71000D03*
X147000D03*
X157000D03*
Y101000D03*
X147000D03*
G54D39*X156000Y115000D03*
G54D38*X117000Y101000D03*
X107000D03*
Y130000D03*
X117000D03*
X127000D03*
X137000D03*
X147000D03*
X157000D03*
X107000Y10000D03*
X117000D03*
X127000D03*
X137000D03*
X147000D03*
X157000D03*
Y40000D03*
X147000D03*
X137000D03*
X127000D03*
X117000D03*
X107000D03*
Y71000D03*
X117000D03*
X127000D03*
G54D39*X111000Y56000D03*
G54D37*G36*
X153700Y53300D02*Y46700D01*
X160300D01*
Y53300D01*
X153700D01*
G37*
G54D38*X157000Y60000D03*
X167000Y101000D03*
Y130000D03*
Y160000D03*
X157000D03*
X147000D03*
X137000D03*
X127000D03*
X117000D03*
X107000D03*
Y190000D03*
X117000D03*
X127000D03*
X137000D03*
X147000D03*
X157000D03*
X167000D03*
G54D41*X186095Y160000D02*X187905D01*
X186095Y150000D02*X187905D01*
X186095Y140000D02*X187905D01*
X186095Y130000D02*X187905D01*
G54D37*G36*
X182270Y63825D02*Y56175D01*
X191730D01*
Y63825D01*
X182270D01*
G37*
G54D41*X186095Y50000D02*X187905D01*
G54D37*G36*
X182270Y23825D02*Y16175D01*
X191730D01*
Y23825D01*
X182270D01*
G37*
G54D41*X186095Y10000D02*X187905D01*
X186095Y200000D02*X187905D01*
X186095Y190000D02*X187905D01*
G54D37*G36*
X182270Y223825D02*Y216175D01*
X191730D01*
Y223825D01*
X182270D01*
G37*
G54D41*X186095Y210000D02*X187905D01*
X186095Y180000D02*X187905D01*
X186095Y170000D02*X187905D01*
M02*
