G04 start of page 3 for group 1 idx 1 *
G04 Title: 40/80switcher, bottom *
G04 Creator: pcb 4.0.2 *
G04 CreationDate: Mon Apr 21 21:42:30 2025 UTC *
G04 For: ndv *
G04 Format: Gerber/RS-274X *
G04 PCB-Dimensions (mil): 2030.00 2290.00 *
G04 PCB-Coordinate-Origin: lower left *
%MOIN*%
%FSLAX25Y25*%
%LNBOTTOM*%
%ADD32C,0.0300*%
%ADD31C,0.0280*%
%ADD30C,0.0380*%
%ADD29C,0.0420*%
%ADD28C,0.0685*%
%ADD27C,0.0680*%
%ADD26C,0.0550*%
%ADD25C,0.0600*%
%ADD24C,0.0001*%
%ADD23C,0.0250*%
%ADD22C,0.0100*%
G54D22*X0Y229000D02*X203000D01*
X0D02*Y0D01*
X203000Y229000D02*Y0D01*
X0D02*X203000D01*
G54D23*X10000Y40000D02*X20000D01*
X10000Y50000D02*Y40000D01*
Y50000D02*X30000D01*
X10000Y70000D02*X30000D01*
X10000Y20000D02*X20000D01*
X10000Y30000D02*Y20000D01*
Y10000D02*X30000D01*
X10000Y30000D02*X30000D01*
X50000Y70000D02*Y80000D01*
G54D22*X107000Y71000D02*X109000D01*
X102000Y66000D02*X97000Y71000D01*
X102000Y76000D01*
G54D23*X50000Y60000D02*X60000Y70000D01*
X50000Y50000D02*X60000D01*
X50000D02*Y60000D01*
Y39000D02*X49000Y40000D01*
X30000Y60000D02*X50000D01*
G54D22*X112000Y57000D02*X111000Y56000D01*
G54D23*X107000Y52000D02*X111000Y56000D01*
X107000Y40000D02*Y52000D01*
X91000Y46000D02*X97000Y40000D01*
X30000Y80000D02*X60000D01*
X167000Y62000D02*X177000Y52000D01*
X167000Y84000D02*Y62000D01*
X176000Y93000D02*X167000Y84000D01*
X176000Y115000D02*Y93000D01*
X157000Y60000D02*X169000D01*
X167000Y124000D02*X176000Y115000D01*
X137000D02*X156000D01*
G54D22*X139000Y79000D02*X147000Y71000D01*
X122000Y79000D02*X139000D01*
X117000Y84000D02*X122000Y79000D01*
X117000Y101000D02*Y84000D01*
X112000Y96000D02*Y57000D01*
X107000Y101000D02*X112000Y96000D01*
Y106000D02*X107000Y101000D01*
G54D23*X177000Y32000D02*Y52000D01*
Y33000D02*Y10000D01*
G54D22*X124000Y33000D02*X145000D01*
X117000Y40000D02*X124000Y33000D01*
X147000Y31000D02*Y10000D01*
X145000Y33000D02*X147000Y31000D01*
G54D23*X60000Y30000D02*X50000D01*
X60000Y40000D02*Y30000D01*
Y10000D02*X50000D01*
X60000Y20000D02*Y10000D01*
Y20000D02*X30000D01*
X60000Y40000D02*X30000D01*
G54D22*X89000Y5000D02*X85000Y9000D01*
X101000Y5000D02*X89000D01*
X106000Y10000D02*X101000Y5000D01*
X107000Y10000D02*X106000D01*
X102000Y15000D02*Y66000D01*
X97000Y10000D02*X102000Y15000D01*
G54D23*X91000Y95000D02*Y46000D01*
X97000Y101000D02*X91000Y95000D01*
Y107000D02*X97000Y101000D01*
G54D22*X102000Y110000D02*X97000Y115000D01*
X102000Y76000D02*Y110000D01*
X80000Y10000D02*X85000D01*
G54D23*X10000Y170000D02*X20000Y180000D01*
Y190000D02*Y180000D01*
X10000D02*Y183000D01*
Y190000D02*Y180000D01*
Y210000D02*X20000Y220000D01*
X10000Y200000D02*Y210000D01*
X20000Y200000D02*Y210000D01*
X10000Y190000D02*X20000Y200000D01*
Y220000D02*X30000D01*
X20000Y200000D02*X30000D01*
Y210000D02*X60000D01*
X20000Y180000D02*X30000Y170000D01*
X60000Y210000D02*Y220000D01*
Y190000D02*Y200000D01*
Y170000D02*Y180000D01*
X50000Y200000D02*X60000Y210000D01*
X50000Y180000D02*X60000Y190000D01*
X50000Y178000D02*Y180000D01*
Y160000D02*X60000Y170000D01*
X30000Y180000D02*X50000D01*
X10000Y150000D02*X30000D01*
Y160000D02*X50000D01*
X10000Y70000D02*Y60000D01*
Y90000D02*Y80000D01*
Y100000D02*Y110000D01*
Y130000D02*Y120000D01*
Y150000D02*Y140000D01*
Y170000D02*Y160000D01*
Y90000D02*X30000D01*
X10000Y110000D02*X30000D01*
X10000Y130000D02*X30000D01*
X91000Y214000D02*Y166000D01*
X20000Y80000D02*Y70000D01*
Y100000D02*Y90000D01*
Y110000D02*Y120000D01*
Y140000D02*Y130000D01*
Y170000D02*Y150000D01*
X50000Y190000D02*Y200000D01*
Y170000D02*Y180000D01*
Y150000D02*Y160000D01*
Y130000D02*Y140000D01*
Y110000D02*Y120000D01*
Y90000D02*Y100000D01*
X60000D02*X30000D01*
X60000Y120000D02*X30000D01*
X60000Y140000D02*X30000D01*
X167000Y124000D02*Y140000D01*
X157000Y150000D02*X167000Y140000D01*
G54D22*X112000Y155000D02*Y106000D01*
X107000Y160000D02*X112000Y155000D01*
G54D23*X177000Y50000D02*X187000D01*
X191000Y35000D02*X197000D01*
X187000Y31000D02*X191000Y35000D01*
X187000Y20000D02*Y31000D01*
X167000Y10000D02*X187000D01*
X157000Y180000D02*Y150000D01*
X167000Y190000D02*X157000Y180000D01*
X149000Y168000D02*X157000Y160000D01*
G54D22*X142000Y215000D02*X167000Y190000D01*
X152000Y225000D02*X157000Y220000D01*
X142000Y215000D02*X147000Y220000D01*
G54D23*X167000D02*X187000D01*
G54D22*X91000Y225000D02*X152000D01*
X85000Y219000D02*X91000Y225000D01*
X112000Y215000D02*X142000D01*
X107000Y220000D02*X112000Y215000D01*
G54D23*X97000Y220000D02*X91000Y214000D01*
X107000Y170000D02*X111000Y174000D01*
G54D22*X97000Y190000D02*X102000Y185000D01*
G54D23*X111000Y174000D02*X117000Y168000D01*
X149000D01*
X107000Y160000D02*Y170000D01*
X97000Y160000D02*X91000Y154000D01*
Y166000D02*X97000Y160000D01*
X60000Y140000D02*Y150000D01*
Y120000D02*Y130000D01*
Y100000D02*Y110000D01*
Y80000D02*Y90000D01*
G54D22*X85000Y9000D02*Y219000D01*
G54D23*X91000Y154000D02*Y107000D01*
G54D22*X97000Y115000D02*Y130000D01*
X102000Y135000D02*X97000Y130000D01*
X102000Y185000D02*Y135000D01*
G54D24*G36*
X17000Y23000D02*Y17000D01*
X23000D01*
Y23000D01*
X17000D01*
G37*
G36*
Y33000D02*Y27000D01*
X23000D01*
Y33000D01*
X17000D01*
G37*
G36*
X27000Y23000D02*Y17000D01*
X33000D01*
Y23000D01*
X27000D01*
G37*
G36*
X17000Y43000D02*Y37000D01*
X23000D01*
Y43000D01*
X17000D01*
G37*
G36*
X27000D02*Y37000D01*
X33000D01*
Y43000D01*
X27000D01*
G37*
G54D25*X97000Y40000D03*
G54D24*G36*
X77000Y43000D02*Y37000D01*
X83000D01*
Y43000D01*
X77000D01*
G37*
G36*
X17000Y13000D02*Y7000D01*
X23000D01*
Y13000D01*
X17000D01*
G37*
G36*
X27000D02*Y7000D01*
X33000D01*
Y13000D01*
X27000D01*
G37*
G36*
X57000D02*Y7000D01*
X63000D01*
Y13000D01*
X57000D01*
G37*
G36*
X77000D02*Y7000D01*
X83000D01*
Y13000D01*
X77000D01*
G37*
G36*
X94000D02*Y7000D01*
X100000D01*
Y13000D01*
X94000D01*
G37*
G36*
X77000Y23000D02*Y17000D01*
X83000D01*
Y23000D01*
X77000D01*
G37*
G36*
X47000Y33000D02*Y27000D01*
X53000D01*
Y33000D01*
X47000D01*
G37*
G36*
X27000D02*Y27000D01*
X33000D01*
Y33000D01*
X27000D01*
G37*
G36*
X77000D02*Y27000D01*
X83000D01*
Y33000D01*
X77000D01*
G37*
G36*
X47000Y13000D02*Y7000D01*
X53000D01*
Y13000D01*
X47000D01*
G37*
G36*
X17000Y103000D02*Y97000D01*
X23000D01*
Y103000D01*
X17000D01*
G37*
G36*
Y93000D02*Y87000D01*
X23000D01*
Y93000D01*
X17000D01*
G37*
G36*
Y113000D02*Y107000D01*
X23000D01*
Y113000D01*
X17000D01*
G37*
G36*
Y123000D02*Y117000D01*
X23000D01*
Y123000D01*
X17000D01*
G37*
G36*
Y133000D02*Y127000D01*
X23000D01*
Y133000D01*
X17000D01*
G37*
G36*
X7000D02*Y127000D01*
X13000D01*
Y133000D01*
X7000D01*
G37*
G36*
Y123000D02*Y117000D01*
X13000D01*
Y123000D01*
X7000D01*
G37*
G36*
Y113000D02*Y107000D01*
X13000D01*
Y113000D01*
X7000D01*
G37*
G36*
Y103000D02*Y97000D01*
X13000D01*
Y103000D01*
X7000D01*
G37*
G36*
X27000Y133000D02*Y127000D01*
X33000D01*
Y133000D01*
X27000D01*
G37*
G36*
Y123000D02*Y117000D01*
X33000D01*
Y123000D01*
X27000D01*
G37*
G36*
Y113000D02*Y107000D01*
X33000D01*
Y113000D01*
X27000D01*
G37*
G36*
Y93000D02*Y87000D01*
X33000D01*
Y93000D01*
X27000D01*
G37*
G36*
Y103000D02*Y97000D01*
X33000D01*
Y103000D01*
X27000D01*
G37*
G36*
X7000Y53000D02*Y47000D01*
X13000D01*
Y53000D01*
X7000D01*
G37*
G36*
Y33000D02*Y27000D01*
X13000D01*
Y33000D01*
X7000D01*
G37*
G36*
Y63000D02*Y57000D01*
X13000D01*
Y63000D01*
X7000D01*
G37*
G36*
Y43000D02*Y37000D01*
X13000D01*
Y43000D01*
X7000D01*
G37*
G36*
Y23000D02*Y17000D01*
X13000D01*
Y23000D01*
X7000D01*
G37*
G36*
Y13000D02*Y7000D01*
X13000D01*
Y13000D01*
X7000D01*
G37*
G36*
Y73000D02*Y67000D01*
X13000D01*
Y73000D01*
X7000D01*
G37*
G36*
Y83000D02*Y77000D01*
X13000D01*
Y83000D01*
X7000D01*
G37*
G36*
Y93000D02*Y87000D01*
X13000D01*
Y93000D01*
X7000D01*
G37*
G36*
X57000Y53000D02*Y47000D01*
X63000D01*
Y53000D01*
X57000D01*
G37*
G36*
Y73000D02*Y67000D01*
X63000D01*
Y73000D01*
X57000D01*
G37*
G36*
X47000Y103000D02*Y97000D01*
X53000D01*
Y103000D01*
X47000D01*
G37*
G36*
Y93000D02*Y87000D01*
X53000D01*
Y93000D01*
X47000D01*
G37*
G36*
X94000Y74000D02*Y68000D01*
X100000D01*
Y74000D01*
X94000D01*
G37*
G54D26*X91000Y56000D03*
G54D24*G36*
X57000Y83000D02*Y77000D01*
X63000D01*
Y83000D01*
X57000D01*
G37*
G36*
X77000Y53000D02*Y47000D01*
X83000D01*
Y53000D01*
X77000D01*
G37*
G36*
Y73000D02*Y67000D01*
X83000D01*
Y73000D01*
X77000D01*
G37*
G36*
Y83000D02*Y77000D01*
X83000D01*
Y83000D01*
X77000D01*
G37*
G36*
Y63000D02*Y57000D01*
X83000D01*
Y63000D01*
X77000D01*
G37*
G36*
X17000Y53000D02*Y47000D01*
X23000D01*
Y53000D01*
X17000D01*
G37*
G36*
Y73000D02*Y67000D01*
X23000D01*
Y73000D01*
X17000D01*
G37*
G36*
Y83000D02*Y77000D01*
X23000D01*
Y83000D01*
X17000D01*
G37*
G36*
X57000Y23000D02*Y17000D01*
X63000D01*
Y23000D01*
X57000D01*
G37*
G36*
Y33000D02*Y27000D01*
X63000D01*
Y33000D01*
X57000D01*
G37*
G36*
X47000Y23000D02*Y17000D01*
X53000D01*
Y23000D01*
X47000D01*
G37*
G36*
X57000Y43000D02*Y37000D01*
X63000D01*
Y43000D01*
X57000D01*
G37*
G36*
X47000Y83000D02*Y77000D01*
X53000D01*
Y83000D01*
X47000D01*
G37*
G36*
Y63000D02*Y57000D01*
X53000D01*
Y63000D01*
X47000D01*
G37*
G36*
Y43000D02*Y37000D01*
X53000D01*
Y43000D01*
X47000D01*
G37*
G36*
Y73000D02*Y67000D01*
X53000D01*
Y73000D01*
X47000D01*
G37*
G36*
Y53000D02*Y47000D01*
X53000D01*
Y53000D01*
X47000D01*
G37*
G36*
X27000D02*Y47000D01*
X33000D01*
Y53000D01*
X27000D01*
G37*
G36*
Y73000D02*Y67000D01*
X33000D01*
Y73000D01*
X27000D01*
G37*
G36*
Y83000D02*Y77000D01*
X33000D01*
Y83000D01*
X27000D01*
G37*
G36*
Y63000D02*Y57000D01*
X33000D01*
Y63000D01*
X27000D01*
G37*
G36*
X57000Y93000D02*Y87000D01*
X63000D01*
Y93000D01*
X57000D01*
G37*
G36*
Y103000D02*Y97000D01*
X63000D01*
Y103000D01*
X57000D01*
G37*
G36*
Y113000D02*Y107000D01*
X63000D01*
Y113000D01*
X57000D01*
G37*
G36*
Y123000D02*Y117000D01*
X63000D01*
Y123000D01*
X57000D01*
G37*
G36*
Y133000D02*Y127000D01*
X63000D01*
Y133000D01*
X57000D01*
G37*
G36*
X47000Y123000D02*Y117000D01*
X53000D01*
Y123000D01*
X47000D01*
G37*
G36*
Y113000D02*Y107000D01*
X53000D01*
Y113000D01*
X47000D01*
G37*
G36*
Y133000D02*Y127000D01*
X53000D01*
Y133000D01*
X47000D01*
G37*
G36*
X77000Y93000D02*Y87000D01*
X83000D01*
Y93000D01*
X77000D01*
G37*
G36*
Y113000D02*Y107000D01*
X83000D01*
Y113000D01*
X77000D01*
G37*
G36*
Y103000D02*Y97000D01*
X83000D01*
Y103000D01*
X77000D01*
G37*
G36*
Y123000D02*Y117000D01*
X83000D01*
Y123000D01*
X77000D01*
G37*
G54D27*X97000Y115000D03*
G54D25*Y101000D03*
G54D24*G36*
X94000Y133000D02*Y127000D01*
X100000D01*
Y133000D01*
X94000D01*
G37*
G36*
X17000Y203000D02*Y197000D01*
X23000D01*
Y203000D01*
X17000D01*
G37*
G36*
Y193000D02*Y187000D01*
X23000D01*
Y193000D01*
X17000D01*
G37*
G36*
Y183000D02*Y177000D01*
X23000D01*
Y183000D01*
X17000D01*
G37*
G36*
Y173000D02*Y167000D01*
X23000D01*
Y173000D01*
X17000D01*
G37*
G36*
X7000Y193000D02*Y187000D01*
X13000D01*
Y193000D01*
X7000D01*
G37*
G36*
Y163000D02*Y157000D01*
X13000D01*
Y163000D01*
X7000D01*
G37*
G36*
Y173000D02*Y167000D01*
X13000D01*
Y173000D01*
X7000D01*
G37*
G36*
Y203000D02*Y197000D01*
X13000D01*
Y203000D01*
X7000D01*
G37*
G36*
Y183000D02*Y177000D01*
X13000D01*
Y183000D01*
X7000D01*
G37*
G36*
X47000Y163000D02*Y157000D01*
X53000D01*
Y163000D01*
X47000D01*
G37*
G36*
Y173000D02*Y167000D01*
X53000D01*
Y173000D01*
X47000D01*
G37*
G36*
X27000D02*Y167000D01*
X33000D01*
Y173000D01*
X27000D01*
G37*
G36*
Y163000D02*Y157000D01*
X33000D01*
Y163000D01*
X27000D01*
G37*
G36*
X47000Y183000D02*Y177000D01*
X53000D01*
Y183000D01*
X47000D01*
G37*
G36*
X27000D02*Y177000D01*
X33000D01*
Y183000D01*
X27000D01*
G37*
G36*
X17000Y153000D02*Y147000D01*
X23000D01*
Y153000D01*
X17000D01*
G37*
G36*
X7000D02*Y147000D01*
X13000D01*
Y153000D01*
X7000D01*
G37*
G36*
X27000D02*Y147000D01*
X33000D01*
Y153000D01*
X27000D01*
G37*
G36*
X17000Y143000D02*Y137000D01*
X23000D01*
Y143000D01*
X17000D01*
G37*
G36*
X7000D02*Y137000D01*
X13000D01*
Y143000D01*
X7000D01*
G37*
G36*
X27000D02*Y137000D01*
X33000D01*
Y143000D01*
X27000D01*
G37*
G36*
X57000Y213000D02*Y207000D01*
X63000D01*
Y213000D01*
X57000D01*
G37*
G36*
Y183000D02*Y177000D01*
X63000D01*
Y183000D01*
X57000D01*
G37*
G36*
Y193000D02*Y187000D01*
X63000D01*
Y193000D01*
X57000D01*
G37*
G36*
Y203000D02*Y197000D01*
X63000D01*
Y203000D01*
X57000D01*
G37*
G36*
Y153000D02*Y147000D01*
X63000D01*
Y153000D01*
X57000D01*
G37*
G36*
Y173000D02*Y167000D01*
X63000D01*
Y173000D01*
X57000D01*
G37*
G36*
Y143000D02*Y137000D01*
X63000D01*
Y143000D01*
X57000D01*
G37*
G36*
X47000D02*Y137000D01*
X53000D01*
Y143000D01*
X47000D01*
G37*
G36*
Y153000D02*Y147000D01*
X53000D01*
Y153000D01*
X47000D01*
G37*
G36*
X57000Y223000D02*Y217000D01*
X63000D01*
Y223000D01*
X57000D01*
G37*
G36*
X47000Y203000D02*Y197000D01*
X53000D01*
Y203000D01*
X47000D01*
G37*
G36*
Y193000D02*Y187000D01*
X53000D01*
Y193000D01*
X47000D01*
G37*
G36*
X17000Y213000D02*Y207000D01*
X23000D01*
Y213000D01*
X17000D01*
G37*
G36*
Y223000D02*Y217000D01*
X23000D01*
Y223000D01*
X17000D01*
G37*
G36*
X27000Y213000D02*Y207000D01*
X33000D01*
Y213000D01*
X27000D01*
G37*
G36*
Y203000D02*Y197000D01*
X33000D01*
Y203000D01*
X27000D01*
G37*
G36*
Y223000D02*Y217000D01*
X33000D01*
Y223000D01*
X27000D01*
G37*
G36*
X77000D02*Y217000D01*
X83000D01*
Y223000D01*
X77000D01*
G37*
G36*
Y213000D02*Y207000D01*
X83000D01*
Y213000D01*
X77000D01*
G37*
G36*
Y203000D02*Y197000D01*
X83000D01*
Y203000D01*
X77000D01*
G37*
G54D25*X97000Y220000D03*
G54D24*G36*
X77000Y173000D02*Y167000D01*
X83000D01*
Y173000D01*
X77000D01*
G37*
G36*
Y183000D02*Y177000D01*
X83000D01*
Y183000D01*
X77000D01*
G37*
G36*
X94000Y193000D02*Y187000D01*
X100000D01*
Y193000D01*
X94000D01*
G37*
G54D26*X91000Y174000D03*
G54D24*G36*
X77000Y133000D02*Y127000D01*
X83000D01*
Y133000D01*
X77000D01*
G37*
G36*
Y143000D02*Y137000D01*
X83000D01*
Y143000D01*
X77000D01*
G37*
G36*
Y153000D02*Y147000D01*
X83000D01*
Y153000D01*
X77000D01*
G37*
G54D25*X97000Y160000D03*
G54D24*G36*
X77000Y163000D02*Y157000D01*
X83000D01*
Y163000D01*
X77000D01*
G37*
G54D28*X187000Y220000D03*
Y210000D03*
Y200000D03*
Y190000D03*
Y180000D03*
Y170000D03*
Y160000D03*
Y150000D03*
G54D26*X111000Y174000D03*
G54D24*G36*
X124000Y177000D02*Y171000D01*
X130000D01*
Y177000D01*
X124000D01*
G37*
G54D28*X187000Y140000D03*
G54D25*X167000Y220000D03*
X157000D03*
X147000D03*
X137000D03*
X127000D03*
X117000D03*
X107000D03*
G54D28*X187000Y130000D03*
Y60000D03*
Y50000D03*
Y20000D03*
Y10000D03*
G54D25*X167000D03*
Y40000D03*
Y71000D03*
G54D26*X177000Y35000D03*
X176000Y115000D03*
X197000Y35000D03*
G54D27*X137000Y115000D03*
G54D25*Y101000D03*
X127000D03*
X137000Y71000D03*
X147000D03*
X157000D03*
Y101000D03*
X147000D03*
G54D26*X156000Y115000D03*
G54D25*X117000Y101000D03*
X107000D03*
Y130000D03*
X117000D03*
X127000D03*
X137000D03*
X147000D03*
X157000D03*
X107000Y10000D03*
X117000D03*
X127000D03*
X137000D03*
X147000D03*
X157000D03*
Y40000D03*
X147000D03*
X137000D03*
X127000D03*
X117000D03*
X107000D03*
Y71000D03*
X117000D03*
X127000D03*
G54D26*X111000Y56000D03*
G54D24*G36*
X154000Y53000D02*Y47000D01*
X160000D01*
Y53000D01*
X154000D01*
G37*
G54D25*X157000Y60000D03*
X167000Y101000D03*
Y130000D03*
Y160000D03*
X157000D03*
X147000D03*
X137000D03*
X127000D03*
X117000D03*
X107000D03*
Y190000D03*
X117000D03*
X127000D03*
X137000D03*
X147000D03*
X157000D03*
X167000D03*
G54D28*X186095Y160000D02*X187905D01*
X186095Y150000D02*X187905D01*
X186095Y140000D02*X187905D01*
X186095Y130000D02*X187905D01*
G54D24*G36*
X182670Y63425D02*Y56575D01*
X191330D01*
Y63425D01*
X182670D01*
G37*
G54D28*X186095Y50000D02*X187905D01*
G54D24*G36*
X182670Y23425D02*Y16575D01*
X191330D01*
Y23425D01*
X182670D01*
G37*
G54D28*X186095Y10000D02*X187905D01*
X186095Y200000D02*X187905D01*
X186095Y190000D02*X187905D01*
G54D24*G36*
X182670Y223425D02*Y216575D01*
X191330D01*
Y223425D01*
X182670D01*
G37*
G54D28*X186095Y210000D02*X187905D01*
X186095Y180000D02*X187905D01*
X186095Y170000D02*X187905D01*
G54D29*X70000Y140000D03*
Y145000D03*
Y130000D03*
Y120000D03*
Y110000D03*
Y100000D03*
Y105000D03*
Y115000D03*
Y95000D03*
Y125000D03*
Y135000D03*
Y190000D03*
Y180000D03*
Y185000D03*
Y220000D03*
Y210000D03*
Y200000D03*
Y205000D03*
Y215000D03*
Y225000D03*
Y150000D03*
Y155000D03*
Y170000D03*
Y160000D03*
Y165000D03*
Y175000D03*
Y195000D03*
Y90000D03*
Y80000D03*
Y85000D03*
Y55000D03*
Y70000D03*
Y60000D03*
Y65000D03*
Y75000D03*
Y50000D03*
Y40000D03*
Y30000D03*
Y25000D03*
Y35000D03*
Y20000D03*
Y10000D03*
Y5000D03*
Y15000D03*
Y45000D03*
G54D30*G54D31*G54D30*G54D31*G54D30*G54D31*G54D32*G54D30*G54D31*G54D30*G54D31*G54D30*G54D31*G54D32*G54D30*G54D31*G54D30*G54D32*G54D30*G54D31*G54D30*G54D31*G54D32*G54D30*G54D31*G54D32*G54D31*G54D32*G54D31*M02*
