G04 start of page 2 for group 0 idx 0 *
G04 Title: 40/80switcher, top *
G04 Creator: pcb 4.0.2 *
G04 CreationDate: Mon Apr 21 21:42:30 2025 UTC *
G04 For: ndv *
G04 Format: Gerber/RS-274X *
G04 PCB-Dimensions (mil): 2030.00 2290.00 *
G04 PCB-Coordinate-Origin: lower left *
%MOIN*%
%FSLAX25Y25*%
%LNTOP*%
%ADD21C,0.0300*%
%ADD20C,0.0280*%
%ADD19C,0.0380*%
%ADD18C,0.0420*%
%ADD17C,0.0685*%
%ADD16C,0.0680*%
%ADD15C,0.0550*%
%ADD14C,0.0600*%
%ADD13C,0.0001*%
%ADD12C,0.0250*%
%ADD11C,0.0100*%
G54D11*X0Y229000D02*X203000D01*
X0D02*Y0D01*
X203000Y229000D02*Y0D01*
X0D02*X203000D01*
X187000Y111000D02*Y60000D01*
G54D12*X155000Y88000D02*X177000D01*
Y47000D02*Y105000D01*
G54D11*X155000Y96000D02*X162000D01*
G54D12*X157000Y50000D02*X177000D01*
X189000Y35000D02*X177000Y47000D01*
X197000Y35000D02*X189000D01*
G54D11*X177000Y121000D02*X187000Y111000D01*
G54D12*X177000Y105000D02*X167000Y115000D01*
G54D11*X162000Y96000D02*X167000Y101000D01*
G54D12*Y115000D02*X156000D01*
G54D11*X109000Y121000D02*X177000D01*
X148000Y110000D02*X157000Y101000D01*
X148000Y107000D02*X152000Y103000D01*
X127000Y108000D02*X134000Y101000D01*
G54D12*X150000Y93000D02*X155000Y88000D01*
G54D11*X152000Y99000D02*X155000Y96000D01*
X152000Y103000D02*Y99000D01*
X133000Y110000D02*X148000D01*
X132000Y107000D02*X148000D01*
X134000Y101000D02*X137000D01*
X127000Y112000D02*X132000Y107000D01*
X142000Y96000D02*X147000Y101000D01*
X132000Y96000D02*X142000D01*
G54D12*X105000Y93000D02*X150000D01*
G54D11*X128000Y115000D02*X133000Y110000D01*
X111000Y115000D02*X128000D01*
X132000Y96000D02*X123000Y105000D01*
X119000Y45000D02*X122000Y42000D01*
Y35000D01*
X127000Y40000D02*X118000Y49000D01*
X109000D01*
X88000Y137000D02*X85000Y140000D01*
X88000Y125000D02*Y137000D01*
X80000Y140000D02*X85000D01*
X85500Y124500D02*Y133500D01*
X84000Y135000D01*
X92000Y158000D02*X80000Y170000D01*
Y160000D02*X90000Y150000D01*
X92000Y127000D02*Y158000D01*
X90000Y150000D02*Y126000D01*
X88000Y190000D02*Y178000D01*
X80000Y170000D01*
Y180000D02*Y187000D01*
Y120000D02*X87000D01*
X167000Y160000D02*X187000Y180000D01*
X172000Y155000D02*X187000Y170000D01*
X180000Y143000D02*X160000D01*
X187000Y150000D02*X180000Y143000D01*
X187000Y160000D02*X173000Y146000D01*
X122000Y155000D02*X172000D01*
X143000Y146000D02*X127000Y130000D01*
X147000D02*X160000Y143000D01*
X157000Y130000D02*X167000Y140000D01*
X173000Y146000D02*X143000D01*
X167000Y140000D02*X187000D01*
X181000Y124000D02*X187000Y130000D01*
X107000D02*X113000Y124000D01*
X111000Y115000D02*X102000Y124000D01*
X100000Y130000D02*X109000Y121000D01*
X97000Y130000D02*X100000D01*
X102000Y124000D02*X95000D01*
X88000Y119000D02*X87000Y120000D01*
X95000Y124000D02*X92000Y127000D01*
X90000Y126000D02*X95000Y121000D01*
X88000Y125000D02*X92000Y121000D01*
X90000Y120000D02*X85000Y125000D01*
X84000Y115000D02*X76000D01*
X75000Y116000D01*
Y125000D01*
X80000Y130000D01*
X84000Y135000D02*X77000D01*
X75000Y137000D01*
Y145000D01*
X80000Y150000D01*
X113000Y124000D02*X181000D01*
X117000Y160000D02*X122000Y155000D01*
X116000Y185000D02*X127000Y174000D01*
X117000Y190000D02*X122000Y185000D01*
X162000Y35000D02*X167000Y40000D01*
X154000Y35000D02*X162000D01*
X152000Y37000D02*X154000Y35000D01*
X152000Y42000D02*Y37000D01*
X139000Y58000D02*X157000Y40000D01*
X141000Y53000D02*X152000Y42000D01*
X141000Y46000D02*X147000Y40000D01*
X133000Y46000D02*X141000D01*
X122000Y58000D02*X139000D01*
X122000Y53000D02*X141000D01*
X157000Y71000D02*X146000Y82000D01*
X139000Y79000D02*X147000Y71000D01*
X132000Y66000D02*X137000Y71000D01*
X122000Y66000D02*X132000D01*
X109000Y71000D02*X122000Y58000D01*
Y66000D02*X109000Y79000D01*
X110000Y65000D02*X122000Y53000D01*
X119000Y82000D02*X113000Y88000D01*
X146000Y82000D02*X119000D01*
X117000Y79000D02*X139000D01*
X111000Y85000D02*X117000Y79000D01*
X122000Y76000D02*X127000Y71000D01*
X116000Y76000D02*X122000D01*
X110000Y82000D02*X116000Y76000D01*
X102000D02*X107000Y71000D01*
X99000Y79000D02*X109000D01*
X113000Y88000D02*X102000D01*
X101000Y85000D02*X111000D01*
X100000Y82000D02*X110000D01*
X133000Y46000D02*X127000Y40000D01*
X122000Y5000D02*X132000D01*
X137000Y10000D01*
X117000D02*X122000Y5000D01*
X117000Y20000D02*X127000Y10000D01*
Y25000D02*X137000Y15000D01*
Y10000D01*
X157000D02*X138000Y29000D01*
X122000Y35000D02*X124000Y33000D01*
X130000D01*
X137000Y40000D01*
X91000Y29000D02*X138000D01*
X117000Y40000D02*X110000Y33000D01*
X85000Y25000D02*X127000D01*
X93000Y33000D02*X110000D01*
X90000Y45000D02*X119000D01*
X111000Y112000D02*X102000Y121000D01*
X127000Y112000D02*X111000D01*
X95000Y108000D02*X127000D01*
X123000Y105000D02*X95000D01*
Y121000D02*X102000D01*
X92000Y111000D02*X95000Y108000D01*
X92000Y121000D02*Y111000D01*
X90000Y110000D02*Y120000D01*
X88000Y109000D02*Y119000D01*
X95000Y105000D02*X90000Y110000D01*
X92000Y105000D02*X88000Y109000D01*
X85000D02*X90000Y104000D01*
X85000Y109000D02*Y114000D01*
X84000Y115000D01*
X117000Y20000D02*X80000D01*
X93000Y33000D02*X85000Y41000D01*
X80000Y50000D02*X85000Y45000D01*
X80000Y40000D02*X91000Y29000D01*
X85000Y45000D02*Y41000D01*
Y50000D02*X90000Y45000D01*
X80000Y30000D02*X85000Y25000D01*
X80000Y60000D02*X85000Y55000D01*
Y50000D01*
X89000Y61000D02*X80000Y70000D01*
X85000Y75000D02*Y69000D01*
X89000Y65000D01*
X109000Y49000D02*X97000Y61000D01*
X89000D01*
Y65000D02*X110000D01*
G54D12*X97000Y101000D02*X105000Y93000D01*
G54D11*X92000Y98000D02*X102000Y88000D01*
X92000Y105000D02*Y98000D01*
X90000Y96000D02*X101000Y85000D01*
X90000Y104000D02*Y96000D01*
X88000Y94000D02*X100000Y82000D01*
X83000Y95000D02*X99000Y79000D01*
X88000Y98000D02*Y94000D01*
X86000Y100000D02*X88000Y98000D01*
X80000Y100000D02*X86000D01*
X80000Y80000D02*X85000Y75000D01*
X102000Y76000D02*X89000D01*
X80000Y90000D02*X85000Y85000D01*
Y80000D01*
X89000Y76000D01*
X83000Y95000D02*X77000D01*
X75000Y97000D01*
Y105000D01*
X80000Y110000D01*
X147000Y180000D02*X127000Y160000D01*
X157000Y180000D02*X147000D01*
X137000Y160000D02*X153000Y176000D01*
X159000Y172000D02*X147000Y160000D01*
X162000Y185000D02*X157000Y180000D01*
X153000Y176000D02*X163000D01*
X169000Y172000D02*X159000D01*
X162000Y204000D02*Y185000D01*
X163000Y176000D02*X187000Y200000D01*
Y190000D02*X169000Y172000D01*
X168000Y210000D02*X162000Y204000D01*
X187000Y210000D02*X168000D01*
X80000D02*X137000D01*
X157000Y190000D02*X137000Y210000D01*
X147000Y190000D02*X132000Y205000D01*
Y185000D02*X137000Y190000D01*
X118000Y199000D02*X127000Y190000D01*
X122000Y185000D02*X132000D01*
X125000Y202000D02*X137000Y190000D01*
X80000Y200000D02*X85000D01*
X87000Y202000D01*
X132000Y205000D02*X77000D01*
X87000Y202000D02*X125000D01*
X94000Y196000D02*X88000Y190000D01*
X80000Y187000D02*X92000Y199000D01*
X75000Y215000D02*X80000Y220000D01*
X75000Y215000D02*Y207000D01*
X77000Y205000D01*
X101000Y196000D02*X94000D01*
X107000Y190000D02*X101000Y196000D01*
X97000Y190000D02*X102000Y185000D01*
X116000D01*
X92000Y199000D02*X118000D01*
G54D13*G36*
X17000Y23000D02*Y17000D01*
X23000D01*
Y23000D01*
X17000D01*
G37*
G36*
Y33000D02*Y27000D01*
X23000D01*
Y33000D01*
X17000D01*
G37*
G36*
X27000Y23000D02*Y17000D01*
X33000D01*
Y23000D01*
X27000D01*
G37*
G36*
X17000Y43000D02*Y37000D01*
X23000D01*
Y43000D01*
X17000D01*
G37*
G36*
X27000D02*Y37000D01*
X33000D01*
Y43000D01*
X27000D01*
G37*
G54D14*X97000Y40000D03*
G54D13*G36*
X77000Y43000D02*Y37000D01*
X83000D01*
Y43000D01*
X77000D01*
G37*
G36*
X17000Y13000D02*Y7000D01*
X23000D01*
Y13000D01*
X17000D01*
G37*
G36*
X27000D02*Y7000D01*
X33000D01*
Y13000D01*
X27000D01*
G37*
G36*
X57000D02*Y7000D01*
X63000D01*
Y13000D01*
X57000D01*
G37*
G36*
X77000D02*Y7000D01*
X83000D01*
Y13000D01*
X77000D01*
G37*
G36*
X94000D02*Y7000D01*
X100000D01*
Y13000D01*
X94000D01*
G37*
G36*
X77000Y23000D02*Y17000D01*
X83000D01*
Y23000D01*
X77000D01*
G37*
G36*
X47000Y33000D02*Y27000D01*
X53000D01*
Y33000D01*
X47000D01*
G37*
G36*
X27000D02*Y27000D01*
X33000D01*
Y33000D01*
X27000D01*
G37*
G36*
X77000D02*Y27000D01*
X83000D01*
Y33000D01*
X77000D01*
G37*
G36*
X47000Y13000D02*Y7000D01*
X53000D01*
Y13000D01*
X47000D01*
G37*
G36*
X17000Y103000D02*Y97000D01*
X23000D01*
Y103000D01*
X17000D01*
G37*
G36*
Y93000D02*Y87000D01*
X23000D01*
Y93000D01*
X17000D01*
G37*
G36*
Y113000D02*Y107000D01*
X23000D01*
Y113000D01*
X17000D01*
G37*
G36*
Y123000D02*Y117000D01*
X23000D01*
Y123000D01*
X17000D01*
G37*
G36*
Y133000D02*Y127000D01*
X23000D01*
Y133000D01*
X17000D01*
G37*
G36*
X7000D02*Y127000D01*
X13000D01*
Y133000D01*
X7000D01*
G37*
G36*
Y123000D02*Y117000D01*
X13000D01*
Y123000D01*
X7000D01*
G37*
G36*
Y113000D02*Y107000D01*
X13000D01*
Y113000D01*
X7000D01*
G37*
G36*
Y103000D02*Y97000D01*
X13000D01*
Y103000D01*
X7000D01*
G37*
G36*
X27000Y133000D02*Y127000D01*
X33000D01*
Y133000D01*
X27000D01*
G37*
G36*
Y123000D02*Y117000D01*
X33000D01*
Y123000D01*
X27000D01*
G37*
G36*
Y113000D02*Y107000D01*
X33000D01*
Y113000D01*
X27000D01*
G37*
G36*
Y93000D02*Y87000D01*
X33000D01*
Y93000D01*
X27000D01*
G37*
G36*
Y103000D02*Y97000D01*
X33000D01*
Y103000D01*
X27000D01*
G37*
G36*
X7000Y53000D02*Y47000D01*
X13000D01*
Y53000D01*
X7000D01*
G37*
G36*
Y33000D02*Y27000D01*
X13000D01*
Y33000D01*
X7000D01*
G37*
G36*
Y63000D02*Y57000D01*
X13000D01*
Y63000D01*
X7000D01*
G37*
G36*
Y43000D02*Y37000D01*
X13000D01*
Y43000D01*
X7000D01*
G37*
G36*
Y23000D02*Y17000D01*
X13000D01*
Y23000D01*
X7000D01*
G37*
G36*
Y13000D02*Y7000D01*
X13000D01*
Y13000D01*
X7000D01*
G37*
G36*
Y73000D02*Y67000D01*
X13000D01*
Y73000D01*
X7000D01*
G37*
G36*
Y83000D02*Y77000D01*
X13000D01*
Y83000D01*
X7000D01*
G37*
G36*
Y93000D02*Y87000D01*
X13000D01*
Y93000D01*
X7000D01*
G37*
G36*
X57000Y53000D02*Y47000D01*
X63000D01*
Y53000D01*
X57000D01*
G37*
G36*
Y73000D02*Y67000D01*
X63000D01*
Y73000D01*
X57000D01*
G37*
G36*
X47000Y103000D02*Y97000D01*
X53000D01*
Y103000D01*
X47000D01*
G37*
G36*
Y93000D02*Y87000D01*
X53000D01*
Y93000D01*
X47000D01*
G37*
G36*
X94000Y74000D02*Y68000D01*
X100000D01*
Y74000D01*
X94000D01*
G37*
G54D15*X91000Y56000D03*
G54D13*G36*
X57000Y83000D02*Y77000D01*
X63000D01*
Y83000D01*
X57000D01*
G37*
G36*
X77000Y53000D02*Y47000D01*
X83000D01*
Y53000D01*
X77000D01*
G37*
G36*
Y73000D02*Y67000D01*
X83000D01*
Y73000D01*
X77000D01*
G37*
G36*
Y83000D02*Y77000D01*
X83000D01*
Y83000D01*
X77000D01*
G37*
G36*
Y63000D02*Y57000D01*
X83000D01*
Y63000D01*
X77000D01*
G37*
G36*
X17000Y53000D02*Y47000D01*
X23000D01*
Y53000D01*
X17000D01*
G37*
G36*
Y73000D02*Y67000D01*
X23000D01*
Y73000D01*
X17000D01*
G37*
G36*
Y83000D02*Y77000D01*
X23000D01*
Y83000D01*
X17000D01*
G37*
G36*
X57000Y23000D02*Y17000D01*
X63000D01*
Y23000D01*
X57000D01*
G37*
G36*
Y33000D02*Y27000D01*
X63000D01*
Y33000D01*
X57000D01*
G37*
G36*
X47000Y23000D02*Y17000D01*
X53000D01*
Y23000D01*
X47000D01*
G37*
G36*
X57000Y43000D02*Y37000D01*
X63000D01*
Y43000D01*
X57000D01*
G37*
G36*
X47000Y83000D02*Y77000D01*
X53000D01*
Y83000D01*
X47000D01*
G37*
G36*
Y63000D02*Y57000D01*
X53000D01*
Y63000D01*
X47000D01*
G37*
G36*
Y43000D02*Y37000D01*
X53000D01*
Y43000D01*
X47000D01*
G37*
G36*
Y73000D02*Y67000D01*
X53000D01*
Y73000D01*
X47000D01*
G37*
G36*
Y53000D02*Y47000D01*
X53000D01*
Y53000D01*
X47000D01*
G37*
G36*
X27000D02*Y47000D01*
X33000D01*
Y53000D01*
X27000D01*
G37*
G36*
Y73000D02*Y67000D01*
X33000D01*
Y73000D01*
X27000D01*
G37*
G36*
Y83000D02*Y77000D01*
X33000D01*
Y83000D01*
X27000D01*
G37*
G36*
Y63000D02*Y57000D01*
X33000D01*
Y63000D01*
X27000D01*
G37*
G36*
X57000Y93000D02*Y87000D01*
X63000D01*
Y93000D01*
X57000D01*
G37*
G36*
Y103000D02*Y97000D01*
X63000D01*
Y103000D01*
X57000D01*
G37*
G36*
Y113000D02*Y107000D01*
X63000D01*
Y113000D01*
X57000D01*
G37*
G36*
Y123000D02*Y117000D01*
X63000D01*
Y123000D01*
X57000D01*
G37*
G36*
Y133000D02*Y127000D01*
X63000D01*
Y133000D01*
X57000D01*
G37*
G36*
X47000Y123000D02*Y117000D01*
X53000D01*
Y123000D01*
X47000D01*
G37*
G36*
Y113000D02*Y107000D01*
X53000D01*
Y113000D01*
X47000D01*
G37*
G36*
Y133000D02*Y127000D01*
X53000D01*
Y133000D01*
X47000D01*
G37*
G36*
X77000Y93000D02*Y87000D01*
X83000D01*
Y93000D01*
X77000D01*
G37*
G36*
Y113000D02*Y107000D01*
X83000D01*
Y113000D01*
X77000D01*
G37*
G36*
Y103000D02*Y97000D01*
X83000D01*
Y103000D01*
X77000D01*
G37*
G36*
Y123000D02*Y117000D01*
X83000D01*
Y123000D01*
X77000D01*
G37*
G54D16*X97000Y115000D03*
G54D14*Y101000D03*
G54D13*G36*
X94000Y133000D02*Y127000D01*
X100000D01*
Y133000D01*
X94000D01*
G37*
G36*
X17000Y203000D02*Y197000D01*
X23000D01*
Y203000D01*
X17000D01*
G37*
G36*
Y193000D02*Y187000D01*
X23000D01*
Y193000D01*
X17000D01*
G37*
G36*
Y183000D02*Y177000D01*
X23000D01*
Y183000D01*
X17000D01*
G37*
G36*
Y173000D02*Y167000D01*
X23000D01*
Y173000D01*
X17000D01*
G37*
G36*
X7000Y193000D02*Y187000D01*
X13000D01*
Y193000D01*
X7000D01*
G37*
G36*
Y163000D02*Y157000D01*
X13000D01*
Y163000D01*
X7000D01*
G37*
G36*
Y173000D02*Y167000D01*
X13000D01*
Y173000D01*
X7000D01*
G37*
G36*
Y203000D02*Y197000D01*
X13000D01*
Y203000D01*
X7000D01*
G37*
G36*
Y183000D02*Y177000D01*
X13000D01*
Y183000D01*
X7000D01*
G37*
G36*
X47000Y163000D02*Y157000D01*
X53000D01*
Y163000D01*
X47000D01*
G37*
G36*
Y173000D02*Y167000D01*
X53000D01*
Y173000D01*
X47000D01*
G37*
G36*
X27000D02*Y167000D01*
X33000D01*
Y173000D01*
X27000D01*
G37*
G36*
Y163000D02*Y157000D01*
X33000D01*
Y163000D01*
X27000D01*
G37*
G36*
X47000Y183000D02*Y177000D01*
X53000D01*
Y183000D01*
X47000D01*
G37*
G36*
X27000D02*Y177000D01*
X33000D01*
Y183000D01*
X27000D01*
G37*
G36*
X17000Y153000D02*Y147000D01*
X23000D01*
Y153000D01*
X17000D01*
G37*
G36*
X7000D02*Y147000D01*
X13000D01*
Y153000D01*
X7000D01*
G37*
G36*
X27000D02*Y147000D01*
X33000D01*
Y153000D01*
X27000D01*
G37*
G36*
X17000Y143000D02*Y137000D01*
X23000D01*
Y143000D01*
X17000D01*
G37*
G36*
X7000D02*Y137000D01*
X13000D01*
Y143000D01*
X7000D01*
G37*
G36*
X27000D02*Y137000D01*
X33000D01*
Y143000D01*
X27000D01*
G37*
G36*
X57000Y213000D02*Y207000D01*
X63000D01*
Y213000D01*
X57000D01*
G37*
G36*
Y183000D02*Y177000D01*
X63000D01*
Y183000D01*
X57000D01*
G37*
G36*
Y193000D02*Y187000D01*
X63000D01*
Y193000D01*
X57000D01*
G37*
G36*
Y203000D02*Y197000D01*
X63000D01*
Y203000D01*
X57000D01*
G37*
G36*
Y153000D02*Y147000D01*
X63000D01*
Y153000D01*
X57000D01*
G37*
G36*
Y173000D02*Y167000D01*
X63000D01*
Y173000D01*
X57000D01*
G37*
G36*
Y143000D02*Y137000D01*
X63000D01*
Y143000D01*
X57000D01*
G37*
G36*
X47000D02*Y137000D01*
X53000D01*
Y143000D01*
X47000D01*
G37*
G36*
Y153000D02*Y147000D01*
X53000D01*
Y153000D01*
X47000D01*
G37*
G36*
X57000Y223000D02*Y217000D01*
X63000D01*
Y223000D01*
X57000D01*
G37*
G36*
X47000Y203000D02*Y197000D01*
X53000D01*
Y203000D01*
X47000D01*
G37*
G36*
Y193000D02*Y187000D01*
X53000D01*
Y193000D01*
X47000D01*
G37*
G36*
X17000Y213000D02*Y207000D01*
X23000D01*
Y213000D01*
X17000D01*
G37*
G36*
Y223000D02*Y217000D01*
X23000D01*
Y223000D01*
X17000D01*
G37*
G36*
X27000Y213000D02*Y207000D01*
X33000D01*
Y213000D01*
X27000D01*
G37*
G36*
Y203000D02*Y197000D01*
X33000D01*
Y203000D01*
X27000D01*
G37*
G36*
Y223000D02*Y217000D01*
X33000D01*
Y223000D01*
X27000D01*
G37*
G36*
X77000D02*Y217000D01*
X83000D01*
Y223000D01*
X77000D01*
G37*
G36*
Y213000D02*Y207000D01*
X83000D01*
Y213000D01*
X77000D01*
G37*
G36*
Y203000D02*Y197000D01*
X83000D01*
Y203000D01*
X77000D01*
G37*
G54D14*X97000Y220000D03*
G54D13*G36*
X77000Y173000D02*Y167000D01*
X83000D01*
Y173000D01*
X77000D01*
G37*
G36*
Y183000D02*Y177000D01*
X83000D01*
Y183000D01*
X77000D01*
G37*
G36*
X94000Y193000D02*Y187000D01*
X100000D01*
Y193000D01*
X94000D01*
G37*
G54D15*X91000Y174000D03*
G54D13*G36*
X77000Y133000D02*Y127000D01*
X83000D01*
Y133000D01*
X77000D01*
G37*
G36*
Y143000D02*Y137000D01*
X83000D01*
Y143000D01*
X77000D01*
G37*
G36*
Y153000D02*Y147000D01*
X83000D01*
Y153000D01*
X77000D01*
G37*
G54D14*X97000Y160000D03*
G54D13*G36*
X77000Y163000D02*Y157000D01*
X83000D01*
Y163000D01*
X77000D01*
G37*
G54D17*X187000Y220000D03*
Y210000D03*
Y200000D03*
Y190000D03*
Y180000D03*
Y170000D03*
Y160000D03*
Y150000D03*
G54D15*X111000Y174000D03*
G54D13*G36*
X124000Y177000D02*Y171000D01*
X130000D01*
Y177000D01*
X124000D01*
G37*
G54D17*X187000Y140000D03*
G54D14*X167000Y220000D03*
X157000D03*
X147000D03*
X137000D03*
X127000D03*
X117000D03*
X107000D03*
G54D17*X187000Y130000D03*
Y60000D03*
Y50000D03*
Y20000D03*
Y10000D03*
G54D14*X167000D03*
Y40000D03*
Y71000D03*
G54D15*X177000Y35000D03*
X176000Y115000D03*
X197000Y35000D03*
G54D16*X137000Y115000D03*
G54D14*Y101000D03*
X127000D03*
X137000Y71000D03*
X147000D03*
X157000D03*
Y101000D03*
X147000D03*
G54D15*X156000Y115000D03*
G54D14*X117000Y101000D03*
X107000D03*
Y130000D03*
X117000D03*
X127000D03*
X137000D03*
X147000D03*
X157000D03*
X107000Y10000D03*
X117000D03*
X127000D03*
X137000D03*
X147000D03*
X157000D03*
Y40000D03*
X147000D03*
X137000D03*
X127000D03*
X117000D03*
X107000D03*
Y71000D03*
X117000D03*
X127000D03*
G54D15*X111000Y56000D03*
G54D13*G36*
X154000Y53000D02*Y47000D01*
X160000D01*
Y53000D01*
X154000D01*
G37*
G54D14*X157000Y60000D03*
X167000Y101000D03*
Y130000D03*
Y160000D03*
X157000D03*
X147000D03*
X137000D03*
X127000D03*
X117000D03*
X107000D03*
Y190000D03*
X117000D03*
X127000D03*
X137000D03*
X147000D03*
X157000D03*
X167000D03*
G54D17*X186095Y160000D02*X187905D01*
X186095Y150000D02*X187905D01*
X186095Y140000D02*X187905D01*
X186095Y130000D02*X187905D01*
G54D13*G36*
X182670Y63425D02*Y56575D01*
X191330D01*
Y63425D01*
X182670D01*
G37*
G54D17*X186095Y50000D02*X187905D01*
G54D13*G36*
X182670Y23425D02*Y16575D01*
X191330D01*
Y23425D01*
X182670D01*
G37*
G54D17*X186095Y10000D02*X187905D01*
X186095Y200000D02*X187905D01*
X186095Y190000D02*X187905D01*
G54D13*G36*
X182670Y223425D02*Y216575D01*
X191330D01*
Y223425D01*
X182670D01*
G37*
G54D17*X186095Y210000D02*X187905D01*
X186095Y180000D02*X187905D01*
X186095Y170000D02*X187905D01*
G54D18*X70000Y140000D03*
Y145000D03*
Y130000D03*
Y120000D03*
Y110000D03*
Y100000D03*
Y105000D03*
Y115000D03*
Y95000D03*
Y125000D03*
Y135000D03*
Y190000D03*
Y180000D03*
Y185000D03*
Y220000D03*
Y210000D03*
Y200000D03*
Y205000D03*
Y215000D03*
Y225000D03*
Y150000D03*
Y155000D03*
Y170000D03*
Y160000D03*
Y165000D03*
Y175000D03*
Y195000D03*
Y90000D03*
Y80000D03*
Y85000D03*
Y55000D03*
Y70000D03*
Y60000D03*
Y65000D03*
Y75000D03*
Y50000D03*
Y40000D03*
Y30000D03*
Y25000D03*
Y35000D03*
Y20000D03*
Y10000D03*
Y5000D03*
Y15000D03*
Y45000D03*
G54D19*G54D20*G54D19*G54D20*G54D19*G54D20*G54D21*G54D19*G54D20*G54D19*G54D20*G54D19*G54D20*G54D21*G54D19*G54D20*G54D19*G54D21*G54D19*G54D20*G54D19*G54D20*G54D21*G54D19*G54D20*G54D21*G54D20*G54D21*G54D20*M02*
