G04 start of page 11 for group -3984 idx -3984 *
G04 Title: 40/80switcher, fab *
G04 Creator: pcb 4.0.2 *
G04 CreationDate: Mon Apr 21 21:42:30 2025 UTC *
G04 For: ndv *
G04 Format: Gerber/RS-274X *
G04 PCB-Dimensions (mil): 2030.00 2290.00 *
G04 PCB-Coordinate-Origin: lower left *
%MOIN*%
%FSLAX25Y25*%
%LNFAB*%
%ADD62C,0.0100*%
%ADD61C,0.0075*%
%ADD60C,0.0060*%
%ADD59C,0.0080*%
G54D59*X0Y229000D02*X203000D01*
X0D02*Y0D01*
X203000Y229000D02*Y0D01*
X0D02*X203000D01*
G54D59*X18800Y201200D02*X21200Y198800D01*
X18800D02*X21200Y201200D01*
X18800Y211200D02*X21200Y208800D01*
X18800D02*X21200Y211200D01*
X18800Y191200D02*X21200Y188800D01*
X18800D02*X21200Y191200D01*
X18800Y181200D02*X21200Y178800D01*
X18800D02*X21200Y181200D01*
X18800Y221200D02*X21200Y218800D01*
X18800D02*X21200Y221200D01*
X18800Y21200D02*X21200Y18800D01*
X18800D02*X21200Y21200D01*
X18800Y31200D02*X21200Y28800D01*
X18800D02*X21200Y31200D01*
X18800Y41200D02*X21200Y38800D01*
X18800D02*X21200Y41200D01*
X18800Y51200D02*X21200Y48800D01*
X18800D02*X21200Y51200D01*
X18800Y151200D02*X21200Y148800D01*
X18800D02*X21200Y151200D01*
X18800Y171200D02*X21200Y168800D01*
X18800D02*X21200Y171200D01*
X18800Y101200D02*X21200Y98800D01*
X18800D02*X21200Y101200D01*
X18800Y71200D02*X21200Y68800D01*
X18800D02*X21200Y71200D01*
X18800Y81200D02*X21200Y78800D01*
X18800D02*X21200Y81200D01*
X18800Y91200D02*X21200Y88800D01*
X18800D02*X21200Y91200D01*
X18800Y111200D02*X21200Y108800D01*
X18800D02*X21200Y111200D01*
X18800Y121200D02*X21200Y118800D01*
X18800D02*X21200Y121200D01*
X18800Y131200D02*X21200Y128800D01*
X18800D02*X21200Y131200D01*
X18800Y141200D02*X21200Y138800D01*
X18800D02*X21200Y141200D01*
X18800Y11200D02*X21200Y8800D01*
X18800D02*X21200Y11200D01*
X8800Y191200D02*X11200Y188800D01*
X8800D02*X11200Y191200D01*
X8800Y161200D02*X11200Y158800D01*
X8800D02*X11200Y161200D01*
X8800Y171200D02*X11200Y168800D01*
X8800D02*X11200Y171200D01*
X8800Y151200D02*X11200Y148800D01*
X8800D02*X11200Y151200D01*
X8800Y131200D02*X11200Y128800D01*
X8800D02*X11200Y131200D01*
X8800Y201200D02*X11200Y198800D01*
X8800D02*X11200Y201200D01*
X8800Y181200D02*X11200Y178800D01*
X8800D02*X11200Y181200D01*
X8800Y141200D02*X11200Y138800D01*
X8800D02*X11200Y141200D01*
X8800Y121200D02*X11200Y118800D01*
X8800D02*X11200Y121200D01*
X8800Y111200D02*X11200Y108800D01*
X8800D02*X11200Y111200D01*
X8800Y71200D02*X11200Y68800D01*
X8800D02*X11200Y71200D01*
X8800Y51200D02*X11200Y48800D01*
X8800D02*X11200Y51200D01*
X8800Y31200D02*X11200Y28800D01*
X8800D02*X11200Y31200D01*
X8800Y101200D02*X11200Y98800D01*
X8800D02*X11200Y101200D01*
X8800Y61200D02*X11200Y58800D01*
X8800D02*X11200Y61200D01*
X8800Y41200D02*X11200Y38800D01*
X8800D02*X11200Y41200D01*
X8800Y21200D02*X11200Y18800D01*
X8800D02*X11200Y21200D01*
X8800Y11200D02*X11200Y8800D01*
X8800D02*X11200Y11200D01*
X8800Y81200D02*X11200Y78800D01*
X8800D02*X11200Y81200D01*
X8800Y91200D02*X11200Y88800D01*
X8800D02*X11200Y91200D01*
X58800Y211200D02*X61200Y208800D01*
X58800D02*X61200Y211200D01*
X58800Y221200D02*X61200Y218800D01*
X58800D02*X61200Y221200D01*
X58800Y181200D02*X61200Y178800D01*
X58800D02*X61200Y181200D01*
X58800Y191200D02*X61200Y188800D01*
X58800D02*X61200Y191200D01*
X58800Y201200D02*X61200Y198800D01*
X58800D02*X61200Y201200D01*
X58800Y21200D02*X61200Y18800D01*
X58800D02*X61200Y21200D01*
X58800Y51200D02*X61200Y48800D01*
X58800D02*X61200Y51200D01*
X58800Y31200D02*X61200Y28800D01*
X58800D02*X61200Y31200D01*
X58800Y41200D02*X61200Y38800D01*
X58800D02*X61200Y41200D01*
X58800Y81200D02*X61200Y78800D01*
X58800D02*X61200Y81200D01*
X58800Y91200D02*X61200Y88800D01*
X58800D02*X61200Y91200D01*
X58800Y71200D02*X61200Y68800D01*
X58800D02*X61200Y71200D01*
X58800Y101200D02*X61200Y98800D01*
X58800D02*X61200Y101200D01*
X58800Y111200D02*X61200Y108800D01*
X58800D02*X61200Y111200D01*
X58800Y121200D02*X61200Y118800D01*
X58800D02*X61200Y121200D01*
X58800Y131200D02*X61200Y128800D01*
X58800D02*X61200Y131200D01*
X58800Y151200D02*X61200Y148800D01*
X58800D02*X61200Y151200D01*
X58800Y171200D02*X61200Y168800D01*
X58800D02*X61200Y171200D01*
X58800Y141200D02*X61200Y138800D01*
X58800D02*X61200Y141200D01*
X58800Y11200D02*X61200Y8800D01*
X58800D02*X61200Y11200D01*
X48800Y161200D02*X51200Y158800D01*
X48800D02*X51200Y161200D01*
X48800Y81200D02*X51200Y78800D01*
X48800D02*X51200Y81200D01*
X48800Y61200D02*X51200Y58800D01*
X48800D02*X51200Y61200D01*
X48800Y41200D02*X51200Y38800D01*
X48800D02*X51200Y41200D01*
X48800Y21200D02*X51200Y18800D01*
X48800D02*X51200Y21200D01*
X48800Y71200D02*X51200Y68800D01*
X48800D02*X51200Y71200D01*
X48800Y51200D02*X51200Y48800D01*
X48800D02*X51200Y51200D01*
X48800Y31200D02*X51200Y28800D01*
X48800D02*X51200Y31200D01*
X48800Y11200D02*X51200Y8800D01*
X48800D02*X51200Y11200D01*
X48800Y141200D02*X51200Y138800D01*
X48800D02*X51200Y141200D01*
X48800Y121200D02*X51200Y118800D01*
X48800D02*X51200Y121200D01*
X48800Y101200D02*X51200Y98800D01*
X48800D02*X51200Y101200D01*
X48800Y151200D02*X51200Y148800D01*
X48800D02*X51200Y151200D01*
X48800Y131200D02*X51200Y128800D01*
X48800D02*X51200Y131200D01*
X48800Y111200D02*X51200Y108800D01*
X48800D02*X51200Y111200D01*
X48800Y91200D02*X51200Y88800D01*
X48800D02*X51200Y91200D01*
X48800Y201200D02*X51200Y198800D01*
X48800D02*X51200Y201200D01*
X48800Y181200D02*X51200Y178800D01*
X48800D02*X51200Y181200D01*
X48800Y191200D02*X51200Y188800D01*
X48800D02*X51200Y191200D01*
X48800Y171200D02*X51200Y168800D01*
X48800D02*X51200Y171200D01*
X28800D02*X31200Y168800D01*
X28800D02*X31200Y171200D01*
X28800Y131200D02*X31200Y128800D01*
X28800D02*X31200Y131200D01*
X28800Y151200D02*X31200Y148800D01*
X28800D02*X31200Y151200D01*
X28800Y91200D02*X31200Y88800D01*
X28800D02*X31200Y91200D01*
X28800Y51200D02*X31200Y48800D01*
X28800D02*X31200Y51200D01*
X28800Y71200D02*X31200Y68800D01*
X28800D02*X31200Y71200D01*
X28800Y11200D02*X31200Y8800D01*
X28800D02*X31200Y11200D01*
X28800Y31200D02*X31200Y28800D01*
X28800D02*X31200Y31200D01*
X28800Y101200D02*X31200Y98800D01*
X28800D02*X31200Y101200D01*
X28800Y121200D02*X31200Y118800D01*
X28800D02*X31200Y121200D01*
X28800Y141200D02*X31200Y138800D01*
X28800D02*X31200Y141200D01*
X28800Y181200D02*X31200Y178800D01*
X28800D02*X31200Y181200D01*
X28800Y211200D02*X31200Y208800D01*
X28800D02*X31200Y211200D01*
X28800Y111200D02*X31200Y108800D01*
X28800D02*X31200Y111200D01*
X28800Y161200D02*X31200Y158800D01*
X28800D02*X31200Y161200D01*
X28800Y21200D02*X31200Y18800D01*
X28800D02*X31200Y21200D01*
X28800Y41200D02*X31200Y38800D01*
X28800D02*X31200Y41200D01*
X28800Y61200D02*X31200Y58800D01*
X28800D02*X31200Y61200D01*
X28800Y81200D02*X31200Y78800D01*
X28800D02*X31200Y81200D01*
X28800Y201200D02*X31200Y198800D01*
X28800D02*X31200Y201200D01*
X28800Y221200D02*X31200Y218800D01*
X28800D02*X31200Y221200D01*
X78800Y171200D02*X81200Y168800D01*
X78800D02*X81200Y171200D01*
X78800Y131200D02*X81200Y128800D01*
X78800D02*X81200Y131200D01*
X78800Y151200D02*X81200Y148800D01*
X78800D02*X81200Y151200D01*
X78800Y91200D02*X81200Y88800D01*
X78800D02*X81200Y91200D01*
X78800Y111200D02*X81200Y108800D01*
X78800D02*X81200Y111200D01*
X78800Y51200D02*X81200Y48800D01*
X78800D02*X81200Y51200D01*
X78800Y71200D02*X81200Y68800D01*
X78800D02*X81200Y71200D01*
X78800Y11200D02*X81200Y8800D01*
X78800D02*X81200Y11200D01*
X78800Y31200D02*X81200Y28800D01*
X78800D02*X81200Y31200D01*
X78800Y101200D02*X81200Y98800D01*
X78800D02*X81200Y101200D01*
X78800Y121200D02*X81200Y118800D01*
X78800D02*X81200Y121200D01*
X78800Y81200D02*X81200Y78800D01*
X78800D02*X81200Y81200D01*
X78800Y221200D02*X81200Y218800D01*
X78800D02*X81200Y221200D01*
X78800Y181200D02*X81200Y178800D01*
X78800D02*X81200Y181200D01*
X78800Y211200D02*X81200Y208800D01*
X78800D02*X81200Y211200D01*
X185800Y221200D02*X188200Y218800D01*
X185800D02*X188200Y221200D01*
X185800Y211200D02*X188200Y208800D01*
X185800D02*X188200Y211200D01*
X185800Y201200D02*X188200Y198800D01*
X185800D02*X188200Y201200D01*
X185800Y191200D02*X188200Y188800D01*
X185800D02*X188200Y191200D01*
X185800Y181200D02*X188200Y178800D01*
X185800D02*X188200Y181200D01*
X185800Y171200D02*X188200Y168800D01*
X185800D02*X188200Y171200D01*
X185800Y161200D02*X188200Y158800D01*
X185800D02*X188200Y161200D01*
X185800Y151200D02*X188200Y148800D01*
X185800D02*X188200Y151200D01*
X185800Y141200D02*X188200Y138800D01*
X185800D02*X188200Y141200D01*
X185800Y131200D02*X188200Y128800D01*
X185800D02*X188200Y131200D01*
X95800Y116200D02*X98200Y113800D01*
X95800D02*X98200Y116200D01*
X135800D02*X138200Y113800D01*
X135800D02*X138200Y116200D01*
X185800Y61200D02*X188200Y58800D01*
X185800D02*X188200Y61200D01*
X185800Y51200D02*X188200Y48800D01*
X185800D02*X188200Y51200D01*
X185800Y21200D02*X188200Y18800D01*
X185800D02*X188200Y21200D01*
X185800Y11200D02*X188200Y8800D01*
X185800D02*X188200Y11200D01*
X125800Y175200D02*X128200Y172800D01*
X125800D02*X128200Y175200D01*
X78800Y141200D02*X81200Y138800D01*
X78800D02*X81200Y141200D01*
X78800Y161200D02*X81200Y158800D01*
X78800D02*X81200Y161200D01*
X78800Y21200D02*X81200Y18800D01*
X78800D02*X81200Y21200D01*
X78800Y41200D02*X81200Y38800D01*
X78800D02*X81200Y41200D01*
X78800Y61200D02*X81200Y58800D01*
X78800D02*X81200Y61200D01*
X78800Y201200D02*X81200Y198800D01*
X78800D02*X81200Y201200D01*
X68800Y221200D02*X71200Y218800D01*
X68800D02*X71200Y221200D01*
X68800Y211200D02*X71200Y208800D01*
X68800D02*X71200Y211200D01*
X68800Y201200D02*X71200Y198800D01*
X68800D02*X71200Y201200D01*
X68800Y191200D02*X71200Y188800D01*
X68800D02*X71200Y191200D01*
X68800Y181200D02*X71200Y178800D01*
X68800D02*X71200Y181200D01*
X68800Y171200D02*X71200Y168800D01*
X68800D02*X71200Y171200D01*
X68800Y161200D02*X71200Y158800D01*
X68800D02*X71200Y161200D01*
X68800Y151200D02*X71200Y148800D01*
X68800D02*X71200Y151200D01*
X68800Y141200D02*X71200Y138800D01*
X68800D02*X71200Y141200D01*
X68800Y131200D02*X71200Y128800D01*
X68800D02*X71200Y131200D01*
X68800Y121200D02*X71200Y118800D01*
X68800D02*X71200Y121200D01*
X68800Y111200D02*X71200Y108800D01*
X68800D02*X71200Y111200D01*
X68800Y101200D02*X71200Y98800D01*
X68800D02*X71200Y101200D01*
X68800Y91200D02*X71200Y88800D01*
X68800D02*X71200Y91200D01*
X68800Y81200D02*X71200Y78800D01*
X68800D02*X71200Y81200D01*
X68800Y71200D02*X71200Y68800D01*
X68800D02*X71200Y71200D01*
X68800Y61200D02*X71200Y58800D01*
X68800D02*X71200Y61200D01*
X68800Y51200D02*X71200Y48800D01*
X68800D02*X71200Y51200D01*
X68800Y41200D02*X71200Y38800D01*
X68800D02*X71200Y41200D01*
X68800Y31200D02*X71200Y28800D01*
X68800D02*X71200Y31200D01*
X68800Y21200D02*X71200Y18800D01*
X68800D02*X71200Y21200D01*
X68800Y11200D02*X71200Y8800D01*
X68800D02*X71200Y11200D01*
X68800Y6200D02*X71200Y3800D01*
X68800D02*X71200Y6200D01*
X68800Y16200D02*X71200Y13800D01*
X68800D02*X71200Y16200D01*
X68800Y26200D02*X71200Y23800D01*
X68800D02*X71200Y26200D01*
X68800Y36200D02*X71200Y33800D01*
X68800D02*X71200Y36200D01*
X68800Y46200D02*X71200Y43800D01*
X68800D02*X71200Y46200D01*
X68800Y56200D02*X71200Y53800D01*
X68800D02*X71200Y56200D01*
X68800Y66200D02*X71200Y63800D01*
X68800D02*X71200Y66200D01*
X68800Y76200D02*X71200Y73800D01*
X68800D02*X71200Y76200D01*
X68800Y86200D02*X71200Y83800D01*
X68800D02*X71200Y86200D01*
X68800Y96200D02*X71200Y93800D01*
X68800D02*X71200Y96200D01*
X68800Y106200D02*X71200Y103800D01*
X68800D02*X71200Y106200D01*
X68800Y116200D02*X71200Y113800D01*
X68800D02*X71200Y116200D01*
X68800Y126200D02*X71200Y123800D01*
X68800D02*X71200Y126200D01*
X68800Y136200D02*X71200Y133800D01*
X68800D02*X71200Y136200D01*
X68800Y146200D02*X71200Y143800D01*
X68800D02*X71200Y146200D01*
X68800Y156200D02*X71200Y153800D01*
X68800D02*X71200Y156200D01*
X68800Y166200D02*X71200Y163800D01*
X68800D02*X71200Y166200D01*
X68800Y176200D02*X71200Y173800D01*
X68800D02*X71200Y176200D01*
X68800Y186200D02*X71200Y183800D01*
X68800D02*X71200Y186200D01*
X68800Y196200D02*X71200Y193800D01*
X68800D02*X71200Y196200D01*
X68800Y206200D02*X71200Y203800D01*
X68800D02*X71200Y206200D01*
X68800Y216200D02*X71200Y213800D01*
X68800D02*X71200Y216200D01*
X68800Y226200D02*X71200Y223800D01*
X68800D02*X71200Y226200D01*
X13800Y256450D02*X16200Y254050D01*
X13800D02*X16200Y256450D01*
G54D60*X135000Y257500D02*X136500Y254500D01*
X138000Y257500D01*
X136500Y254500D02*Y251500D01*
X139800Y254800D02*X142050D01*
X139800Y251500D02*X142800D01*
X139800Y257500D02*Y251500D01*
Y257500D02*X142800D01*
X147600D02*X148350Y256750D01*
X145350Y257500D02*X147600D01*
X144600Y256750D02*X145350Y257500D01*
X144600Y256750D02*Y255250D01*
X145350Y254500D01*
X147600D01*
X148350Y253750D01*
Y252250D01*
X147600Y251500D02*X148350Y252250D01*
X145350Y251500D02*X147600D01*
X144600Y252250D02*X145350Y251500D01*
X98000Y256300D02*X99200Y257500D01*
Y251500D01*
X98000D02*X100250D01*
X102050Y252250D02*X102800Y251500D01*
X102050Y253450D02*Y252250D01*
Y253450D02*X103100Y254500D01*
X104000D01*
X105050Y253450D01*
Y252250D01*
X104300Y251500D02*X105050Y252250D01*
X102800Y251500D02*X104300D01*
X102050Y255550D02*X103100Y254500D01*
X102050Y256750D02*Y255550D01*
Y256750D02*X102800Y257500D01*
X104300D01*
X105050Y256750D01*
Y255550D01*
X104000Y254500D02*X105050Y255550D01*
X106850Y253750D02*X109850Y257500D01*
X106850Y253750D02*X110600D01*
X109850Y257500D02*Y251500D01*
X45000Y252250D02*X45750Y251500D01*
X45000Y256750D02*Y252250D01*
Y256750D02*X45750Y257500D01*
X47250D01*
X48000Y256750D01*
Y252250D01*
X47250Y251500D02*X48000Y252250D01*
X45750Y251500D02*X47250D01*
X45000Y253000D02*X48000Y256000D01*
X49800Y251500D02*X50550D01*
X52350Y252250D02*X53100Y251500D01*
X52350Y256750D02*Y252250D01*
Y256750D02*X53100Y257500D01*
X54600D01*
X55350Y256750D01*
Y252250D01*
X54600Y251500D02*X55350Y252250D01*
X53100Y251500D02*X54600D01*
X52350Y253000D02*X55350Y256000D01*
X57150Y256750D02*X57900Y257500D01*
X59400D01*
X60150Y256750D01*
X59400Y251500D02*X60150Y252250D01*
X57900Y251500D02*X59400D01*
X57150Y252250D02*X57900Y251500D01*
Y254800D02*X59400D01*
X60150Y256750D02*Y255550D01*
Y254050D02*Y252250D01*
Y254050D02*X59400Y254800D01*
X60150Y255550D02*X59400Y254800D01*
X61950Y252250D02*X62700Y251500D01*
X61950Y253450D02*Y252250D01*
Y253450D02*X63000Y254500D01*
X63900D01*
X64950Y253450D01*
Y252250D01*
X64200Y251500D02*X64950Y252250D01*
X62700Y251500D02*X64200D01*
X61950Y255550D02*X63000Y254500D01*
X61950Y256750D02*Y255550D01*
Y256750D02*X62700Y257500D01*
X64200D01*
X64950Y256750D01*
Y255550D01*
X63900Y254500D02*X64950Y255550D01*
X177000Y36600D02*Y33400D01*
X175400Y35000D02*X178600D01*
X197000Y36600D02*Y33400D01*
X195400Y35000D02*X198600D01*
X111000Y57600D02*Y54400D01*
X109400Y56000D02*X112600D01*
X91000Y57600D02*Y54400D01*
X89400Y56000D02*X92600D01*
X176000Y116600D02*Y113400D01*
X174400Y115000D02*X177600D01*
X156000Y116600D02*Y113400D01*
X154400Y115000D02*X157600D01*
X111000Y175600D02*Y172400D01*
X109400Y174000D02*X112600D01*
X91000Y175600D02*Y172400D01*
X89400Y174000D02*X92600D01*
X157000Y51600D02*Y48400D01*
X155400Y50000D02*X158600D01*
X157000Y61600D02*Y58400D01*
X155400Y60000D02*X158600D01*
X15000Y271850D02*Y268650D01*
X13400Y270250D02*X16600D01*
X135000Y272500D02*X136500Y269500D01*
X138000Y272500D01*
X136500Y269500D02*Y266500D01*
X139800Y269800D02*X142050D01*
X139800Y266500D02*X142800D01*
X139800Y272500D02*Y266500D01*
Y272500D02*X142800D01*
X147600D02*X148350Y271750D01*
X145350Y272500D02*X147600D01*
X144600Y271750D02*X145350Y272500D01*
X144600Y271750D02*Y270250D01*
X145350Y269500D01*
X147600D01*
X148350Y268750D01*
Y267250D01*
X147600Y266500D02*X148350Y267250D01*
X145350Y266500D02*X147600D01*
X144600Y267250D02*X145350Y266500D01*
X98000Y271300D02*X99200Y272500D01*
Y266500D01*
X98000D02*X100250D01*
X102050Y267250D02*X102800Y266500D01*
X102050Y271750D02*Y267250D01*
Y271750D02*X102800Y272500D01*
X104300D01*
X105050Y271750D01*
Y267250D01*
X104300Y266500D02*X105050Y267250D01*
X102800Y266500D02*X104300D01*
X102050Y268000D02*X105050Y271000D01*
X45000Y267250D02*X45750Y266500D01*
X45000Y271750D02*Y267250D01*
Y271750D02*X45750Y272500D01*
X47250D01*
X48000Y271750D01*
Y267250D01*
X47250Y266500D02*X48000Y267250D01*
X45750Y266500D02*X47250D01*
X45000Y268000D02*X48000Y271000D01*
X49800Y266500D02*X50550D01*
X52350Y267250D02*X53100Y266500D01*
X52350Y271750D02*Y267250D01*
Y271750D02*X53100Y272500D01*
X54600D01*
X55350Y271750D01*
Y267250D01*
X54600Y266500D02*X55350Y267250D01*
X53100Y266500D02*X54600D01*
X52350Y268000D02*X55350Y271000D01*
X57150Y271750D02*X57900Y272500D01*
X59400D01*
X60150Y271750D01*
X59400Y266500D02*X60150Y267250D01*
X57900Y266500D02*X59400D01*
X57150Y267250D02*X57900Y266500D01*
Y269800D02*X59400D01*
X60150Y271750D02*Y270550D01*
Y269050D02*Y267250D01*
Y269050D02*X59400Y269800D01*
X60150Y270550D02*X59400Y269800D01*
X61950Y267250D02*X62700Y266500D01*
X61950Y271750D02*Y267250D01*
Y271750D02*X62700Y272500D01*
X64200D01*
X64950Y271750D01*
Y267250D01*
X64200Y266500D02*X64950Y267250D01*
X62700Y266500D02*X64200D01*
X61950Y268000D02*X64950Y271000D01*
X97000Y10000D02*Y8400D01*
Y10000D02*X98387Y10800D01*
X97000Y10000D02*X95613Y10800D01*
X107000Y10000D02*Y8400D01*
Y10000D02*X108387Y10800D01*
X107000Y10000D02*X105613Y10800D01*
X117000Y10000D02*Y8400D01*
Y10000D02*X118387Y10800D01*
X117000Y10000D02*X115613Y10800D01*
X127000Y10000D02*Y8400D01*
Y10000D02*X128387Y10800D01*
X127000Y10000D02*X125613Y10800D01*
X137000Y10000D02*Y8400D01*
Y10000D02*X138387Y10800D01*
X137000Y10000D02*X135613Y10800D01*
X147000Y10000D02*Y8400D01*
Y10000D02*X148387Y10800D01*
X147000Y10000D02*X145613Y10800D01*
X157000Y10000D02*Y8400D01*
Y10000D02*X158387Y10800D01*
X157000Y10000D02*X155613Y10800D01*
X167000Y10000D02*Y8400D01*
Y10000D02*X168387Y10800D01*
X167000Y10000D02*X165613Y10800D01*
X167000Y40000D02*Y38400D01*
Y40000D02*X168387Y40800D01*
X167000Y40000D02*X165613Y40800D01*
X157000Y40000D02*Y38400D01*
Y40000D02*X158387Y40800D01*
X157000Y40000D02*X155613Y40800D01*
X147000Y40000D02*Y38400D01*
Y40000D02*X148387Y40800D01*
X147000Y40000D02*X145613Y40800D01*
X137000Y40000D02*Y38400D01*
Y40000D02*X138387Y40800D01*
X137000Y40000D02*X135613Y40800D01*
X127000Y40000D02*Y38400D01*
Y40000D02*X128387Y40800D01*
X127000Y40000D02*X125613Y40800D01*
X117000Y40000D02*Y38400D01*
Y40000D02*X118387Y40800D01*
X117000Y40000D02*X115613Y40800D01*
X107000Y40000D02*Y38400D01*
Y40000D02*X108387Y40800D01*
X107000Y40000D02*X105613Y40800D01*
X97000Y40000D02*Y38400D01*
Y40000D02*X98387Y40800D01*
X97000Y40000D02*X95613Y40800D01*
X97000Y71000D02*Y69400D01*
Y71000D02*X98387Y71800D01*
X97000Y71000D02*X95613Y71800D01*
X107000Y71000D02*Y69400D01*
Y71000D02*X108387Y71800D01*
X107000Y71000D02*X105613Y71800D01*
X117000Y71000D02*Y69400D01*
Y71000D02*X118387Y71800D01*
X117000Y71000D02*X115613Y71800D01*
X127000Y71000D02*Y69400D01*
Y71000D02*X128387Y71800D01*
X127000Y71000D02*X125613Y71800D01*
X137000Y71000D02*Y69400D01*
Y71000D02*X138387Y71800D01*
X137000Y71000D02*X135613Y71800D01*
X147000Y71000D02*Y69400D01*
Y71000D02*X148387Y71800D01*
X147000Y71000D02*X145613Y71800D01*
X157000Y71000D02*Y69400D01*
Y71000D02*X158387Y71800D01*
X157000Y71000D02*X155613Y71800D01*
X167000Y71000D02*Y69400D01*
Y71000D02*X168387Y71800D01*
X167000Y71000D02*X165613Y71800D01*
X167000Y101000D02*Y99400D01*
Y101000D02*X168387Y101800D01*
X167000Y101000D02*X165613Y101800D01*
X157000Y101000D02*Y99400D01*
Y101000D02*X158387Y101800D01*
X157000Y101000D02*X155613Y101800D01*
X147000Y101000D02*Y99400D01*
Y101000D02*X148387Y101800D01*
X147000Y101000D02*X145613Y101800D01*
X137000Y101000D02*Y99400D01*
Y101000D02*X138387Y101800D01*
X137000Y101000D02*X135613Y101800D01*
X127000Y101000D02*Y99400D01*
Y101000D02*X128387Y101800D01*
X127000Y101000D02*X125613Y101800D01*
X117000Y101000D02*Y99400D01*
Y101000D02*X118387Y101800D01*
X117000Y101000D02*X115613Y101800D01*
X107000Y101000D02*Y99400D01*
Y101000D02*X108387Y101800D01*
X107000Y101000D02*X105613Y101800D01*
X97000Y101000D02*Y99400D01*
Y101000D02*X98387Y101800D01*
X97000Y101000D02*X95613Y101800D01*
X97000Y130000D02*Y128400D01*
Y130000D02*X98387Y130800D01*
X97000Y130000D02*X95613Y130800D01*
X107000Y130000D02*Y128400D01*
Y130000D02*X108387Y130800D01*
X107000Y130000D02*X105613Y130800D01*
X117000Y130000D02*Y128400D01*
Y130000D02*X118387Y130800D01*
X117000Y130000D02*X115613Y130800D01*
X127000Y130000D02*Y128400D01*
Y130000D02*X128387Y130800D01*
X127000Y130000D02*X125613Y130800D01*
X137000Y130000D02*Y128400D01*
Y130000D02*X138387Y130800D01*
X137000Y130000D02*X135613Y130800D01*
X147000Y130000D02*Y128400D01*
Y130000D02*X148387Y130800D01*
X147000Y130000D02*X145613Y130800D01*
X157000Y130000D02*Y128400D01*
Y130000D02*X158387Y130800D01*
X157000Y130000D02*X155613Y130800D01*
X167000Y130000D02*Y128400D01*
Y130000D02*X168387Y130800D01*
X167000Y130000D02*X165613Y130800D01*
X167000Y160000D02*Y158400D01*
Y160000D02*X168387Y160800D01*
X167000Y160000D02*X165613Y160800D01*
X157000Y160000D02*Y158400D01*
Y160000D02*X158387Y160800D01*
X157000Y160000D02*X155613Y160800D01*
X147000Y160000D02*Y158400D01*
Y160000D02*X148387Y160800D01*
X147000Y160000D02*X145613Y160800D01*
X137000Y160000D02*Y158400D01*
Y160000D02*X138387Y160800D01*
X137000Y160000D02*X135613Y160800D01*
X127000Y160000D02*Y158400D01*
Y160000D02*X128387Y160800D01*
X127000Y160000D02*X125613Y160800D01*
X117000Y160000D02*Y158400D01*
Y160000D02*X118387Y160800D01*
X117000Y160000D02*X115613Y160800D01*
X107000Y160000D02*Y158400D01*
Y160000D02*X108387Y160800D01*
X107000Y160000D02*X105613Y160800D01*
X97000Y160000D02*Y158400D01*
Y160000D02*X98387Y160800D01*
X97000Y160000D02*X95613Y160800D01*
X97000Y190000D02*Y188400D01*
Y190000D02*X98387Y190800D01*
X97000Y190000D02*X95613Y190800D01*
X107000Y190000D02*Y188400D01*
Y190000D02*X108387Y190800D01*
X107000Y190000D02*X105613Y190800D01*
X117000Y190000D02*Y188400D01*
Y190000D02*X118387Y190800D01*
X117000Y190000D02*X115613Y190800D01*
X127000Y190000D02*Y188400D01*
Y190000D02*X128387Y190800D01*
X127000Y190000D02*X125613Y190800D01*
X137000Y190000D02*Y188400D01*
Y190000D02*X138387Y190800D01*
X137000Y190000D02*X135613Y190800D01*
X147000Y190000D02*Y188400D01*
Y190000D02*X148387Y190800D01*
X147000Y190000D02*X145613Y190800D01*
X157000Y190000D02*Y188400D01*
Y190000D02*X158387Y190800D01*
X157000Y190000D02*X155613Y190800D01*
X167000Y190000D02*Y188400D01*
Y190000D02*X168387Y190800D01*
X167000Y190000D02*X165613Y190800D01*
X167000Y220000D02*Y218400D01*
Y220000D02*X168387Y220800D01*
X167000Y220000D02*X165613Y220800D01*
X157000Y220000D02*Y218400D01*
Y220000D02*X158387Y220800D01*
X157000Y220000D02*X155613Y220800D01*
X147000Y220000D02*Y218400D01*
Y220000D02*X148387Y220800D01*
X147000Y220000D02*X145613Y220800D01*
X137000Y220000D02*Y218400D01*
Y220000D02*X138387Y220800D01*
X137000Y220000D02*X135613Y220800D01*
X127000Y220000D02*Y218400D01*
Y220000D02*X128387Y220800D01*
X127000Y220000D02*X125613Y220800D01*
X117000Y220000D02*Y218400D01*
Y220000D02*X118387Y220800D01*
X117000Y220000D02*X115613Y220800D01*
X107000Y220000D02*Y218400D01*
Y220000D02*X108387Y220800D01*
X107000Y220000D02*X105613Y220800D01*
X97000Y220000D02*Y218400D01*
Y220000D02*X98387Y220800D01*
X97000Y220000D02*X95613Y220800D01*
X15000Y285250D02*Y283650D01*
Y285250D02*X16387Y286050D01*
X15000Y285250D02*X13613Y286050D01*
X135000Y287500D02*X136500Y284500D01*
X138000Y287500D01*
X136500Y284500D02*Y281500D01*
X139800Y284800D02*X142050D01*
X139800Y281500D02*X142800D01*
X139800Y287500D02*Y281500D01*
Y287500D02*X142800D01*
X147600D02*X148350Y286750D01*
X145350Y287500D02*X147600D01*
X144600Y286750D02*X145350Y287500D01*
X144600Y286750D02*Y285250D01*
X145350Y284500D01*
X147600D01*
X148350Y283750D01*
Y282250D01*
X147600Y281500D02*X148350Y282250D01*
X145350Y281500D02*X147600D01*
X144600Y282250D02*X145350Y281500D01*
X100250Y287500D02*X101000Y286750D01*
X98750Y287500D02*X100250D01*
X98000Y286750D02*X98750Y287500D01*
X98000Y286750D02*Y282250D01*
X98750Y281500D01*
X100250Y284800D02*X101000Y284050D01*
X98000Y284800D02*X100250D01*
X98750Y281500D02*X100250D01*
X101000Y282250D01*
Y284050D02*Y282250D01*
X102800Y283750D02*X105800Y287500D01*
X102800Y283750D02*X106550D01*
X105800Y287500D02*Y281500D01*
X45000Y282250D02*X45750Y281500D01*
X45000Y286750D02*Y282250D01*
Y286750D02*X45750Y287500D01*
X47250D01*
X48000Y286750D01*
Y282250D01*
X47250Y281500D02*X48000Y282250D01*
X45750Y281500D02*X47250D01*
X45000Y283000D02*X48000Y286000D01*
X49800Y281500D02*X50550D01*
X52350Y282250D02*X53100Y281500D01*
X52350Y286750D02*Y282250D01*
Y286750D02*X53100Y287500D01*
X54600D01*
X55350Y286750D01*
Y282250D01*
X54600Y281500D02*X55350Y282250D01*
X53100Y281500D02*X54600D01*
X52350Y283000D02*X55350Y286000D01*
X57150Y286750D02*X57900Y287500D01*
X60150D01*
X60900Y286750D01*
Y285250D01*
X57150Y281500D02*X60900Y285250D01*
X57150Y281500D02*X60900D01*
X62700Y282250D02*X63450Y281500D01*
X62700Y283450D02*Y282250D01*
Y283450D02*X63750Y284500D01*
X64650D01*
X65700Y283450D01*
Y282250D01*
X64950Y281500D02*X65700Y282250D01*
X63450Y281500D02*X64950D01*
X62700Y285550D02*X63750Y284500D01*
X62700Y286750D02*Y285550D01*
Y286750D02*X63450Y287500D01*
X64950D01*
X65700Y286750D01*
Y285550D01*
X64650Y284500D02*X65700Y285550D01*
X3000Y302500D02*X3750Y301750D01*
X750Y302500D02*X3000D01*
X0Y301750D02*X750Y302500D01*
X0Y301750D02*Y300250D01*
X750Y299500D01*
X3000D01*
X3750Y298750D01*
Y297250D01*
X3000Y296500D02*X3750Y297250D01*
X750Y296500D02*X3000D01*
X0Y297250D02*X750Y296500D01*
X5550Y299500D02*Y297250D01*
X6300Y296500D01*
X8550Y299500D02*Y295000D01*
X7800Y294250D02*X8550Y295000D01*
X6300Y294250D02*X7800D01*
X5550Y295000D02*X6300Y294250D01*
Y296500D02*X7800D01*
X8550Y297250D01*
X11100Y298750D02*Y296500D01*
Y298750D02*X11850Y299500D01*
X12600D01*
X13350Y298750D01*
Y296500D01*
Y298750D02*X14100Y299500D01*
X14850D01*
X15600Y298750D01*
Y296500D01*
X10350Y299500D02*X11100Y298750D01*
X17400Y302500D02*Y296500D01*
Y297250D02*X18150Y296500D01*
X19650D01*
X20400Y297250D01*
Y298750D02*Y297250D01*
X19650Y299500D02*X20400Y298750D01*
X18150Y299500D02*X19650D01*
X17400Y298750D02*X18150Y299500D01*
X22200Y298750D02*Y297250D01*
Y298750D02*X22950Y299500D01*
X24450D01*
X25200Y298750D01*
Y297250D01*
X24450Y296500D02*X25200Y297250D01*
X22950Y296500D02*X24450D01*
X22200Y297250D02*X22950Y296500D01*
X27000Y302500D02*Y297250D01*
X27750Y296500D01*
X0Y293250D02*X29250D01*
X41750Y302500D02*Y296500D01*
X43700Y302500D02*X44750Y301450D01*
Y297550D01*
X43700Y296500D02*X44750Y297550D01*
X41000Y296500D02*X43700D01*
X41000Y302500D02*X43700D01*
G54D61*X46550Y301000D02*Y300850D01*
G54D60*Y298750D02*Y296500D01*
X50300Y299500D02*X51050Y298750D01*
X48800Y299500D02*X50300D01*
X48050Y298750D02*X48800Y299500D01*
X48050Y298750D02*Y297250D01*
X48800Y296500D01*
X51050Y299500D02*Y297250D01*
X51800Y296500D01*
X48800D02*X50300D01*
X51050Y297250D01*
X54350Y298750D02*Y296500D01*
Y298750D02*X55100Y299500D01*
X55850D01*
X56600Y298750D01*
Y296500D01*
Y298750D02*X57350Y299500D01*
X58100D01*
X58850Y298750D01*
Y296500D01*
X53600Y299500D02*X54350Y298750D01*
X60650Y296500D02*X61400D01*
X65900Y297250D02*X66650Y296500D01*
X65900Y301750D02*X66650Y302500D01*
X65900Y301750D02*Y297250D01*
X68450Y302500D02*X69950D01*
X69200D02*Y296500D01*
X68450D02*X69950D01*
X72500Y298750D02*Y296500D01*
Y298750D02*X73250Y299500D01*
X74000D01*
X74750Y298750D01*
Y296500D01*
X71750Y299500D02*X72500Y298750D01*
X77300Y299500D02*X79550D01*
X76550Y298750D02*X77300Y299500D01*
X76550Y298750D02*Y297250D01*
X77300Y296500D01*
X79550D01*
X81350Y302500D02*Y296500D01*
Y298750D02*X82100Y299500D01*
X83600D01*
X84350Y298750D01*
Y296500D01*
X86150Y302500D02*X86900Y301750D01*
Y297250D01*
X86150Y296500D02*X86900Y297250D01*
X41000Y293250D02*X88700D01*
X96050Y296500D02*X98000D01*
X95000Y297550D02*X96050Y296500D01*
X95000Y301450D02*Y297550D01*
Y301450D02*X96050Y302500D01*
X98000D01*
X99800Y298750D02*Y297250D01*
Y298750D02*X100550Y299500D01*
X102050D01*
X102800Y298750D01*
Y297250D01*
X102050Y296500D02*X102800Y297250D01*
X100550Y296500D02*X102050D01*
X99800Y297250D02*X100550Y296500D01*
X104600Y299500D02*Y297250D01*
X105350Y296500D01*
X106850D01*
X107600Y297250D01*
Y299500D02*Y297250D01*
X110150Y298750D02*Y296500D01*
Y298750D02*X110900Y299500D01*
X111650D01*
X112400Y298750D01*
Y296500D01*
X109400Y299500D02*X110150Y298750D01*
X114950Y302500D02*Y297250D01*
X115700Y296500D01*
X114200Y300250D02*X115700D01*
X95000Y293250D02*X117200D01*
X130750Y302500D02*Y296500D01*
X130000Y302500D02*X133000D01*
X133750Y301750D01*
Y300250D01*
X133000Y299500D02*X133750Y300250D01*
X130750Y299500D02*X133000D01*
X135550Y302500D02*Y297250D01*
X136300Y296500D01*
X140050Y299500D02*X140800Y298750D01*
X138550Y299500D02*X140050D01*
X137800Y298750D02*X138550Y299500D01*
X137800Y298750D02*Y297250D01*
X138550Y296500D01*
X140800Y299500D02*Y297250D01*
X141550Y296500D01*
X138550D02*X140050D01*
X140800Y297250D01*
X144100Y302500D02*Y297250D01*
X144850Y296500D01*
X143350Y300250D02*X144850D01*
X147100Y296500D02*X149350D01*
X146350Y297250D02*X147100Y296500D01*
X146350Y298750D02*Y297250D01*
Y298750D02*X147100Y299500D01*
X148600D01*
X149350Y298750D01*
X146350Y298000D02*X149350D01*
Y298750D02*Y298000D01*
X154150Y302500D02*Y296500D01*
X153400D02*X154150Y297250D01*
X151900Y296500D02*X153400D01*
X151150Y297250D02*X151900Y296500D01*
X151150Y298750D02*Y297250D01*
Y298750D02*X151900Y299500D01*
X153400D01*
X154150Y298750D01*
X157450Y299500D02*Y298750D01*
Y297250D02*Y296500D01*
X155950Y301750D02*Y301000D01*
Y301750D02*X156700Y302500D01*
X158200D01*
X158950Y301750D01*
Y301000D01*
X157450Y299500D02*X158950Y301000D01*
X130000Y293250D02*X160750D01*
X0Y317500D02*X3000D01*
X1500D02*Y311500D01*
X4800Y317500D02*Y311500D01*
Y313750D02*X5550Y314500D01*
X7050D01*
X7800Y313750D01*
Y311500D01*
X10350D02*X12600D01*
X9600Y312250D02*X10350Y311500D01*
X9600Y313750D02*Y312250D01*
Y313750D02*X10350Y314500D01*
X11850D01*
X12600Y313750D01*
X9600Y313000D02*X12600D01*
Y313750D02*Y313000D01*
X15150Y313750D02*Y311500D01*
Y313750D02*X15900Y314500D01*
X17400D01*
X14400D02*X15150Y313750D01*
X19950Y311500D02*X22200D01*
X19200Y312250D02*X19950Y311500D01*
X19200Y313750D02*Y312250D01*
Y313750D02*X19950Y314500D01*
X21450D01*
X22200Y313750D01*
X19200Y313000D02*X22200D01*
Y313750D02*Y313000D01*
X28950Y314500D02*X29700Y313750D01*
X27450Y314500D02*X28950D01*
X26700Y313750D02*X27450Y314500D01*
X26700Y313750D02*Y312250D01*
X27450Y311500D01*
X29700Y314500D02*Y312250D01*
X30450Y311500D01*
X27450D02*X28950D01*
X29700Y312250D01*
X33000Y313750D02*Y311500D01*
Y313750D02*X33750Y314500D01*
X35250D01*
X32250D02*X33000Y313750D01*
X37800Y311500D02*X40050D01*
X37050Y312250D02*X37800Y311500D01*
X37050Y313750D02*Y312250D01*
Y313750D02*X37800Y314500D01*
X39300D01*
X40050Y313750D01*
X37050Y313000D02*X40050D01*
Y313750D02*Y313000D01*
X44550Y316750D02*X45300Y317500D01*
X46800D01*
X47550Y316750D01*
X46800Y311500D02*X47550Y312250D01*
X45300Y311500D02*X46800D01*
X44550Y312250D02*X45300Y311500D01*
Y314800D02*X46800D01*
X47550Y316750D02*Y315550D01*
Y314050D02*Y312250D01*
Y314050D02*X46800Y314800D01*
X47550Y315550D02*X46800Y314800D01*
X55050Y317500D02*Y311500D01*
X54300D02*X55050Y312250D01*
X52800Y311500D02*X54300D01*
X52050Y312250D02*X52800Y311500D01*
X52050Y313750D02*Y312250D01*
Y313750D02*X52800Y314500D01*
X54300D01*
X55050Y313750D01*
G54D61*X56850Y316000D02*Y315850D01*
G54D60*Y313750D02*Y311500D01*
X59100Y316750D02*Y311500D01*
Y316750D02*X59850Y317500D01*
X60600D01*
X58350Y314500D02*X59850D01*
X62850Y316750D02*Y311500D01*
Y316750D02*X63600Y317500D01*
X64350D01*
X62100Y314500D02*X63600D01*
X66600Y311500D02*X68850D01*
X65850Y312250D02*X66600Y311500D01*
X65850Y313750D02*Y312250D01*
Y313750D02*X66600Y314500D01*
X68100D01*
X68850Y313750D01*
X65850Y313000D02*X68850D01*
Y313750D02*Y313000D01*
X71400Y313750D02*Y311500D01*
Y313750D02*X72150Y314500D01*
X73650D01*
X70650D02*X71400Y313750D01*
X76200Y311500D02*X78450D01*
X75450Y312250D02*X76200Y311500D01*
X75450Y313750D02*Y312250D01*
Y313750D02*X76200Y314500D01*
X77700D01*
X78450Y313750D01*
X75450Y313000D02*X78450D01*
Y313750D02*Y313000D01*
X81000Y313750D02*Y311500D01*
Y313750D02*X81750Y314500D01*
X82500D01*
X83250Y313750D01*
Y311500D01*
X80250Y314500D02*X81000Y313750D01*
X85800Y317500D02*Y312250D01*
X86550Y311500D01*
X85050Y315250D02*X86550D01*
X93750Y317500D02*Y311500D01*
X93000D02*X93750Y312250D01*
X91500Y311500D02*X93000D01*
X90750Y312250D02*X91500Y311500D01*
X90750Y313750D02*Y312250D01*
Y313750D02*X91500Y314500D01*
X93000D01*
X93750Y313750D01*
X96300D02*Y311500D01*
Y313750D02*X97050Y314500D01*
X98550D01*
X95550D02*X96300Y313750D01*
G54D61*X100350Y316000D02*Y315850D01*
G54D60*Y313750D02*Y311500D01*
X101850Y317500D02*Y312250D01*
X102600Y311500D01*
X104100Y317500D02*Y312250D01*
X104850Y311500D01*
X109800D02*X112050D01*
X112800Y312250D01*
X112050Y313000D02*X112800Y312250D01*
X109800Y313000D02*X112050D01*
X109050Y313750D02*X109800Y313000D01*
X109050Y313750D02*X109800Y314500D01*
X112050D01*
X112800Y313750D01*
X109050Y312250D02*X109800Y311500D01*
G54D61*X114600Y316000D02*Y315850D01*
G54D60*Y313750D02*Y311500D01*
X116100Y314500D02*X119100D01*
X116100Y311500D02*X119100Y314500D01*
X116100Y311500D02*X119100D01*
X121650D02*X123900D01*
X120900Y312250D02*X121650Y311500D01*
X120900Y313750D02*Y312250D01*
Y313750D02*X121650Y314500D01*
X123150D01*
X123900Y313750D01*
X120900Y313000D02*X123900D01*
Y313750D02*Y313000D01*
X126450Y311500D02*X128700D01*
X129450Y312250D01*
X128700Y313000D02*X129450Y312250D01*
X126450Y313000D02*X128700D01*
X125700Y313750D02*X126450Y313000D01*
X125700Y313750D02*X126450Y314500D01*
X128700D01*
X129450Y313750D01*
X125700Y312250D02*X126450Y311500D01*
X133950Y314500D02*Y312250D01*
X134700Y311500D01*
X136200D01*
X136950Y312250D01*
Y314500D02*Y312250D01*
X139500Y311500D02*X141750D01*
X142500Y312250D01*
X141750Y313000D02*X142500Y312250D01*
X139500Y313000D02*X141750D01*
X138750Y313750D02*X139500Y313000D01*
X138750Y313750D02*X139500Y314500D01*
X141750D01*
X142500Y313750D01*
X138750Y312250D02*X139500Y311500D01*
X145050D02*X147300D01*
X144300Y312250D02*X145050Y311500D01*
X144300Y313750D02*Y312250D01*
Y313750D02*X145050Y314500D01*
X146550D01*
X147300Y313750D01*
X144300Y313000D02*X147300D01*
Y313750D02*Y313000D01*
X152100Y317500D02*Y311500D01*
X151350D02*X152100Y312250D01*
X149850Y311500D02*X151350D01*
X149100Y312250D02*X149850Y311500D01*
X149100Y313750D02*Y312250D01*
Y313750D02*X149850Y314500D01*
X151350D01*
X152100Y313750D01*
G54D61*X156600Y316000D02*Y315850D01*
G54D60*Y313750D02*Y311500D01*
X158850Y313750D02*Y311500D01*
Y313750D02*X159600Y314500D01*
X160350D01*
X161100Y313750D01*
Y311500D01*
X158100Y314500D02*X158850Y313750D01*
X166350Y317500D02*Y312250D01*
X167100Y311500D01*
X165600Y315250D02*X167100D01*
X168600Y317500D02*Y311500D01*
Y313750D02*X169350Y314500D01*
X170850D01*
X171600Y313750D01*
Y311500D01*
G54D61*X173400Y316000D02*Y315850D01*
G54D60*Y313750D02*Y311500D01*
X175650D02*X177900D01*
X178650Y312250D01*
X177900Y313000D02*X178650Y312250D01*
X175650Y313000D02*X177900D01*
X174900Y313750D02*X175650Y313000D01*
X174900Y313750D02*X175650Y314500D01*
X177900D01*
X178650Y313750D01*
X174900Y312250D02*X175650Y311500D01*
X183150Y317500D02*Y312250D01*
X183900Y311500D01*
X187650Y314500D02*X188400Y313750D01*
X186150Y314500D02*X187650D01*
X185400Y313750D02*X186150Y314500D01*
X185400Y313750D02*Y312250D01*
X186150Y311500D01*
X188400Y314500D02*Y312250D01*
X189150Y311500D01*
X186150D02*X187650D01*
X188400Y312250D01*
X190950Y314500D02*Y312250D01*
X191700Y311500D01*
X193950Y314500D02*Y310000D01*
X193200Y309250D02*X193950Y310000D01*
X191700Y309250D02*X193200D01*
X190950Y310000D02*X191700Y309250D01*
Y311500D02*X193200D01*
X193950Y312250D01*
X195750Y313750D02*Y312250D01*
Y313750D02*X196500Y314500D01*
X198000D01*
X198750Y313750D01*
Y312250D01*
X198000Y311500D02*X198750Y312250D01*
X196500Y311500D02*X198000D01*
X195750Y312250D02*X196500Y311500D01*
X200550Y314500D02*Y312250D01*
X201300Y311500D01*
X202800D01*
X203550Y312250D01*
Y314500D02*Y312250D01*
X206100Y317500D02*Y312250D01*
X206850Y311500D01*
X205350Y315250D02*X206850D01*
X208350Y310000D02*X209850Y311500D01*
X214350Y316750D02*X215100Y317500D01*
X217350D01*
X218100Y316750D01*
Y315250D01*
X214350Y311500D02*X218100Y315250D01*
X214350Y311500D02*X218100D01*
X219900Y317500D02*X222900D01*
X219900D02*Y314500D01*
X220650Y315250D01*
X222150D01*
X222900Y314500D01*
Y312250D01*
X222150Y311500D02*X222900Y312250D01*
X220650Y311500D02*X222150D01*
X219900Y312250D02*X220650Y311500D01*
X224700Y312250D02*X225450Y311500D01*
X224700Y313450D02*Y312250D01*
Y313450D02*X225750Y314500D01*
X226650D01*
X227700Y313450D01*
Y312250D01*
X226950Y311500D02*X227700Y312250D01*
X225450Y311500D02*X226950D01*
X224700Y315550D02*X225750Y314500D01*
X224700Y316750D02*Y315550D01*
Y316750D02*X225450Y317500D01*
X226950D01*
X227700Y316750D01*
Y315550D01*
X226650Y314500D02*X227700Y315550D01*
X232200Y317500D02*Y311500D01*
Y313750D02*X232950Y314500D01*
X234450D01*
X235200Y313750D01*
Y311500D01*
X237000Y313750D02*Y312250D01*
Y313750D02*X237750Y314500D01*
X239250D01*
X240000Y313750D01*
Y312250D01*
X239250Y311500D02*X240000Y312250D01*
X237750Y311500D02*X239250D01*
X237000Y312250D02*X237750Y311500D01*
X241800Y317500D02*Y312250D01*
X242550Y311500D01*
X244800D02*X247050D01*
X244050Y312250D02*X244800Y311500D01*
X244050Y313750D02*Y312250D01*
Y313750D02*X244800Y314500D01*
X246300D01*
X247050Y313750D01*
X244050Y313000D02*X247050D01*
Y313750D02*Y313000D01*
X249600Y311500D02*X251850D01*
X252600Y312250D01*
X251850Y313000D02*X252600Y312250D01*
X249600Y313000D02*X251850D01*
X248850Y313750D02*X249600Y313000D01*
X248850Y313750D02*X249600Y314500D01*
X251850D01*
X252600Y313750D01*
X248850Y312250D02*X249600Y311500D01*
X257850Y317500D02*Y312250D01*
X258600Y311500D01*
X257100Y315250D02*X258600D01*
X260100Y313750D02*Y312250D01*
Y313750D02*X260850Y314500D01*
X262350D01*
X263100Y313750D01*
Y312250D01*
X262350Y311500D02*X263100Y312250D01*
X260850Y311500D02*X262350D01*
X260100Y312250D02*X260850Y311500D01*
X265650Y317500D02*Y312250D01*
X266400Y311500D01*
X264900Y315250D02*X266400D01*
X270150Y314500D02*X270900Y313750D01*
X268650Y314500D02*X270150D01*
X267900Y313750D02*X268650Y314500D01*
X267900Y313750D02*Y312250D01*
X268650Y311500D01*
X270900Y314500D02*Y312250D01*
X271650Y311500D01*
X268650D02*X270150D01*
X270900Y312250D01*
X273450Y317500D02*Y312250D01*
X274200Y311500D01*
G54D62*X0Y229000D02*X203000D01*
X0D02*Y0D01*
X203000Y229000D02*Y0D01*
X0D02*X203000D01*
G54D60*X200000Y242500D02*Y236500D01*
Y242500D02*X202250Y239500D01*
X204500Y242500D01*
Y236500D01*
X208550Y239500D02*X209300Y238750D01*
X207050Y239500D02*X208550D01*
X206300Y238750D02*X207050Y239500D01*
X206300Y238750D02*Y237250D01*
X207050Y236500D01*
X209300Y239500D02*Y237250D01*
X210050Y236500D01*
X207050D02*X208550D01*
X209300Y237250D01*
X211850Y239500D02*X214850Y236500D01*
X211850D02*X214850Y239500D01*
G54D61*X216650Y241000D02*Y240850D01*
G54D60*Y238750D02*Y236500D01*
X218900Y238750D02*Y236500D01*
Y238750D02*X219650Y239500D01*
X220400D01*
X221150Y238750D01*
Y236500D01*
Y238750D02*X221900Y239500D01*
X222650D01*
X223400Y238750D01*
Y236500D01*
X218150Y239500D02*X218900Y238750D01*
X225200Y239500D02*Y237250D01*
X225950Y236500D01*
X227450D01*
X228200Y237250D01*
Y239500D02*Y237250D01*
X230750Y238750D02*Y236500D01*
Y238750D02*X231500Y239500D01*
X232250D01*
X233000Y238750D01*
Y236500D01*
Y238750D02*X233750Y239500D01*
X234500D01*
X235250Y238750D01*
Y236500D01*
X230000Y239500D02*X230750Y238750D01*
X240500Y242500D02*Y236500D01*
X242450Y242500D02*X243500Y241450D01*
Y237550D01*
X242450Y236500D02*X243500Y237550D01*
X239750Y236500D02*X242450D01*
X239750Y242500D02*X242450D01*
G54D61*X245300Y241000D02*Y240850D01*
G54D60*Y238750D02*Y236500D01*
X247550Y238750D02*Y236500D01*
Y238750D02*X248300Y239500D01*
X249050D01*
X249800Y238750D01*
Y236500D01*
Y238750D02*X250550Y239500D01*
X251300D01*
X252050Y238750D01*
Y236500D01*
X246800Y239500D02*X247550Y238750D01*
X254600Y236500D02*X256850D01*
X253850Y237250D02*X254600Y236500D01*
X253850Y238750D02*Y237250D01*
Y238750D02*X254600Y239500D01*
X256100D01*
X256850Y238750D01*
X253850Y238000D02*X256850D01*
Y238750D02*Y238000D01*
X259400Y238750D02*Y236500D01*
Y238750D02*X260150Y239500D01*
X260900D01*
X261650Y238750D01*
Y236500D01*
X258650Y239500D02*X259400Y238750D01*
X264200Y236500D02*X266450D01*
X267200Y237250D01*
X266450Y238000D02*X267200Y237250D01*
X264200Y238000D02*X266450D01*
X263450Y238750D02*X264200Y238000D01*
X263450Y238750D02*X264200Y239500D01*
X266450D01*
X267200Y238750D01*
X263450Y237250D02*X264200Y236500D01*
G54D61*X269000Y241000D02*Y240850D01*
G54D60*Y238750D02*Y236500D01*
X270500Y238750D02*Y237250D01*
Y238750D02*X271250Y239500D01*
X272750D01*
X273500Y238750D01*
Y237250D01*
X272750Y236500D02*X273500Y237250D01*
X271250Y236500D02*X272750D01*
X270500Y237250D02*X271250Y236500D01*
X276050Y238750D02*Y236500D01*
Y238750D02*X276800Y239500D01*
X277550D01*
X278300Y238750D01*
Y236500D01*
X275300Y239500D02*X276050Y238750D01*
X280850Y236500D02*X283100D01*
X283850Y237250D01*
X283100Y238000D02*X283850Y237250D01*
X280850Y238000D02*X283100D01*
X280100Y238750D02*X280850Y238000D01*
X280100Y238750D02*X280850Y239500D01*
X283100D01*
X283850Y238750D01*
X280100Y237250D02*X280850Y236500D01*
X285650Y240250D02*X286400D01*
X285650Y238750D02*X286400D01*
X290900Y241750D02*X291650Y242500D01*
X293900D01*
X294650Y241750D01*
Y240250D01*
X290900Y236500D02*X294650Y240250D01*
X290900Y236500D02*X294650D01*
X296450Y237250D02*X297200Y236500D01*
X296450Y241750D02*Y237250D01*
Y241750D02*X297200Y242500D01*
X298700D01*
X299450Y241750D01*
Y237250D01*
X298700Y236500D02*X299450Y237250D01*
X297200Y236500D02*X298700D01*
X296450Y238000D02*X299450Y241000D01*
X301250Y241750D02*X302000Y242500D01*
X303500D01*
X304250Y241750D01*
X303500Y236500D02*X304250Y237250D01*
X302000Y236500D02*X303500D01*
X301250Y237250D02*X302000Y236500D01*
Y239800D02*X303500D01*
X304250Y241750D02*Y240550D01*
Y239050D02*Y237250D01*
Y239050D02*X303500Y239800D01*
X304250Y240550D02*X303500Y239800D01*
X306050Y237250D02*X306800Y236500D01*
X306050Y241750D02*Y237250D01*
Y241750D02*X306800Y242500D01*
X308300D01*
X309050Y241750D01*
Y237250D01*
X308300Y236500D02*X309050Y237250D01*
X306800Y236500D02*X308300D01*
X306050Y238000D02*X309050Y241000D01*
X310850Y236500D02*X311600D01*
X313400Y237250D02*X314150Y236500D01*
X313400Y241750D02*Y237250D01*
Y241750D02*X314150Y242500D01*
X315650D01*
X316400Y241750D01*
Y237250D01*
X315650Y236500D02*X316400Y237250D01*
X314150Y236500D02*X315650D01*
X313400Y238000D02*X316400Y241000D01*
X318200Y237250D02*X318950Y236500D01*
X318200Y241750D02*Y237250D01*
Y241750D02*X318950Y242500D01*
X320450D01*
X321200Y241750D01*
Y237250D01*
X320450Y236500D02*X321200Y237250D01*
X318950Y236500D02*X320450D01*
X318200Y238000D02*X321200Y241000D01*
X323000Y237250D02*X323750Y236500D01*
X323000Y241750D02*Y237250D01*
Y241750D02*X323750Y242500D01*
X325250D01*
X326000Y241750D01*
Y237250D01*
X325250Y236500D02*X326000Y237250D01*
X323750Y236500D02*X325250D01*
X323000Y238000D02*X326000Y241000D01*
X327800Y237250D02*X328550Y236500D01*
X327800Y241750D02*Y237250D01*
Y241750D02*X328550Y242500D01*
X330050D01*
X330800Y241750D01*
Y237250D01*
X330050Y236500D02*X330800Y237250D01*
X328550Y236500D02*X330050D01*
X327800Y238000D02*X330800Y241000D01*
X332600Y237250D02*X333350Y236500D01*
X332600Y241750D02*Y237250D01*
Y241750D02*X333350Y242500D01*
X334850D01*
X335600Y241750D01*
Y237250D01*
X334850Y236500D02*X335600Y237250D01*
X333350Y236500D02*X334850D01*
X332600Y238000D02*X335600Y241000D01*
X337400Y237250D02*X338150Y236500D01*
X337400Y241750D02*Y237250D01*
Y241750D02*X338150Y242500D01*
X339650D01*
X340400Y241750D01*
Y237250D01*
X339650Y236500D02*X340400Y237250D01*
X338150Y236500D02*X339650D01*
X337400Y238000D02*X340400Y241000D01*
X345650Y238750D02*Y236500D01*
Y238750D02*X346400Y239500D01*
X347150D01*
X347900Y238750D01*
Y236500D01*
Y238750D02*X348650Y239500D01*
X349400D01*
X350150Y238750D01*
Y236500D01*
X344900Y239500D02*X345650Y238750D01*
G54D61*X351950Y241000D02*Y240850D01*
G54D60*Y238750D02*Y236500D01*
X353450Y242500D02*Y237250D01*
X354200Y236500D01*
X356450D02*X358700D01*
X359450Y237250D01*
X358700Y238000D02*X359450Y237250D01*
X356450Y238000D02*X358700D01*
X355700Y238750D02*X356450Y238000D01*
X355700Y238750D02*X356450Y239500D01*
X358700D01*
X359450Y238750D01*
X355700Y237250D02*X356450Y236500D01*
X363950Y239500D02*Y237250D01*
X364700Y236500D01*
X365450D01*
X366200Y237250D01*
Y239500D02*Y237250D01*
X366950Y236500D01*
X367700D01*
X368450Y237250D01*
Y239500D02*Y237250D01*
G54D61*X370250Y241000D02*Y240850D01*
G54D60*Y238750D02*Y236500D01*
X374750Y242500D02*Y236500D01*
X374000D02*X374750Y237250D01*
X372500Y236500D02*X374000D01*
X371750Y237250D02*X372500Y236500D01*
X371750Y238750D02*Y237250D01*
Y238750D02*X372500Y239500D01*
X374000D01*
X374750Y238750D01*
X377300Y236500D02*X379550D01*
X376550Y237250D02*X377300Y236500D01*
X376550Y238750D02*Y237250D01*
Y238750D02*X377300Y239500D01*
X378800D01*
X379550Y238750D01*
X376550Y238000D02*X379550D01*
Y238750D02*Y238000D01*
X381350Y235000D02*X382850Y236500D01*
X387350Y241750D02*X388100Y242500D01*
X390350D01*
X391100Y241750D01*
Y240250D01*
X387350Y236500D02*X391100Y240250D01*
X387350Y236500D02*X391100D01*
X392900Y241750D02*X393650Y242500D01*
X395900D01*
X396650Y241750D01*
Y240250D01*
X392900Y236500D02*X396650Y240250D01*
X392900Y236500D02*X396650D01*
X399200D02*X401450Y239500D01*
Y241750D02*Y239500D01*
X400700Y242500D02*X401450Y241750D01*
X399200Y242500D02*X400700D01*
X398450Y241750D02*X399200Y242500D01*
X398450Y241750D02*Y240250D01*
X399200Y239500D01*
X401450D01*
X403250Y237250D02*X404000Y236500D01*
X403250Y241750D02*Y237250D01*
Y241750D02*X404000Y242500D01*
X405500D01*
X406250Y241750D01*
Y237250D01*
X405500Y236500D02*X406250Y237250D01*
X404000Y236500D02*X405500D01*
X403250Y238000D02*X406250Y241000D01*
X408050Y236500D02*X408800D01*
X410600Y237250D02*X411350Y236500D01*
X410600Y241750D02*Y237250D01*
Y241750D02*X411350Y242500D01*
X412850D01*
X413600Y241750D01*
Y237250D01*
X412850Y236500D02*X413600Y237250D01*
X411350Y236500D02*X412850D01*
X410600Y238000D02*X413600Y241000D01*
X415400Y237250D02*X416150Y236500D01*
X415400Y241750D02*Y237250D01*
Y241750D02*X416150Y242500D01*
X417650D01*
X418400Y241750D01*
Y237250D01*
X417650Y236500D02*X418400Y237250D01*
X416150Y236500D02*X417650D01*
X415400Y238000D02*X418400Y241000D01*
X420200Y237250D02*X420950Y236500D01*
X420200Y241750D02*Y237250D01*
Y241750D02*X420950Y242500D01*
X422450D01*
X423200Y241750D01*
Y237250D01*
X422450Y236500D02*X423200Y237250D01*
X420950Y236500D02*X422450D01*
X420200Y238000D02*X423200Y241000D01*
X425000Y237250D02*X425750Y236500D01*
X425000Y241750D02*Y237250D01*
Y241750D02*X425750Y242500D01*
X427250D01*
X428000Y241750D01*
Y237250D01*
X427250Y236500D02*X428000Y237250D01*
X425750Y236500D02*X427250D01*
X425000Y238000D02*X428000Y241000D01*
X429800Y237250D02*X430550Y236500D01*
X429800Y241750D02*Y237250D01*
Y241750D02*X430550Y242500D01*
X432050D01*
X432800Y241750D01*
Y237250D01*
X432050Y236500D02*X432800Y237250D01*
X430550Y236500D02*X432050D01*
X429800Y238000D02*X432800Y241000D01*
X434600Y237250D02*X435350Y236500D01*
X434600Y241750D02*Y237250D01*
Y241750D02*X435350Y242500D01*
X436850D01*
X437600Y241750D01*
Y237250D01*
X436850Y236500D02*X437600Y237250D01*
X435350Y236500D02*X436850D01*
X434600Y238000D02*X437600Y241000D01*
X442850Y238750D02*Y236500D01*
Y238750D02*X443600Y239500D01*
X444350D01*
X445100Y238750D01*
Y236500D01*
Y238750D02*X445850Y239500D01*
X446600D01*
X447350Y238750D01*
Y236500D01*
X442100Y239500D02*X442850Y238750D01*
G54D61*X449150Y241000D02*Y240850D01*
G54D60*Y238750D02*Y236500D01*
X450650Y242500D02*Y237250D01*
X451400Y236500D01*
X453650D02*X455900D01*
X456650Y237250D01*
X455900Y238000D02*X456650Y237250D01*
X453650Y238000D02*X455900D01*
X452900Y238750D02*X453650Y238000D01*
X452900Y238750D02*X453650Y239500D01*
X455900D01*
X456650Y238750D01*
X452900Y237250D02*X453650Y236500D01*
X461150Y242500D02*Y236500D01*
Y238750D02*X461900Y239500D01*
X463400D01*
X464150Y238750D01*
Y236500D01*
G54D61*X465950Y241000D02*Y240850D01*
G54D60*Y238750D02*Y236500D01*
X469700Y239500D02*X470450Y238750D01*
X468200Y239500D02*X469700D01*
X467450Y238750D02*X468200Y239500D01*
X467450Y238750D02*Y237250D01*
X468200Y236500D01*
X469700D01*
X470450Y237250D01*
X467450Y235000D02*X468200Y234250D01*
X469700D01*
X470450Y235000D01*
Y239500D02*Y235000D01*
X472250Y242500D02*Y236500D01*
Y238750D02*X473000Y239500D01*
X474500D01*
X475250Y238750D01*
Y236500D01*
X0Y-9500D02*X3000D01*
X3750Y-8750D01*
Y-6950D02*Y-8750D01*
X3000Y-6200D02*X3750Y-6950D01*
X750Y-6200D02*X3000D01*
X750Y-3500D02*Y-9500D01*
X0Y-3500D02*X3000D01*
X3750Y-4250D01*
Y-5450D01*
X3000Y-6200D02*X3750Y-5450D01*
X5550Y-7250D02*Y-8750D01*
Y-7250D02*X6300Y-6500D01*
X7800D01*
X8550Y-7250D01*
Y-8750D01*
X7800Y-9500D02*X8550Y-8750D01*
X6300Y-9500D02*X7800D01*
X5550Y-8750D02*X6300Y-9500D01*
X12600Y-6500D02*X13350Y-7250D01*
X11100Y-6500D02*X12600D01*
X10350Y-7250D02*X11100Y-6500D01*
X10350Y-7250D02*Y-8750D01*
X11100Y-9500D01*
X13350Y-6500D02*Y-8750D01*
X14100Y-9500D01*
X11100D02*X12600D01*
X13350Y-8750D01*
X16650Y-7250D02*Y-9500D01*
Y-7250D02*X17400Y-6500D01*
X18900D01*
X15900D02*X16650Y-7250D01*
X23700Y-3500D02*Y-9500D01*
X22950D02*X23700Y-8750D01*
X21450Y-9500D02*X22950D01*
X20700Y-8750D02*X21450Y-9500D01*
X20700Y-7250D02*Y-8750D01*
Y-7250D02*X21450Y-6500D01*
X22950D01*
X23700Y-7250D01*
X28200D02*Y-8750D01*
Y-7250D02*X28950Y-6500D01*
X30450D01*
X31200Y-7250D01*
Y-8750D01*
X30450Y-9500D02*X31200Y-8750D01*
X28950Y-9500D02*X30450D01*
X28200Y-8750D02*X28950Y-9500D01*
X33000Y-6500D02*Y-8750D01*
X33750Y-9500D01*
X35250D01*
X36000Y-8750D01*
Y-6500D02*Y-8750D01*
X38550Y-3500D02*Y-8750D01*
X39300Y-9500D01*
X37800Y-5750D02*X39300D01*
X40800Y-3500D02*Y-8750D01*
X41550Y-9500D01*
G54D61*X43050Y-5000D02*Y-5150D01*
G54D60*Y-7250D02*Y-9500D01*
X45300Y-7250D02*Y-9500D01*
Y-7250D02*X46050Y-6500D01*
X46800D01*
X47550Y-7250D01*
Y-9500D01*
X44550Y-6500D02*X45300Y-7250D01*
X50100Y-9500D02*X52350D01*
X49350Y-8750D02*X50100Y-9500D01*
X49350Y-7250D02*Y-8750D01*
Y-7250D02*X50100Y-6500D01*
X51600D01*
X52350Y-7250D01*
X49350Y-8000D02*X52350D01*
Y-7250D02*Y-8000D01*
G54D61*X56850Y-5000D02*Y-5150D01*
G54D60*Y-7250D02*Y-9500D01*
X59100D02*X61350D01*
X62100Y-8750D01*
X61350Y-8000D02*X62100Y-8750D01*
X59100Y-8000D02*X61350D01*
X58350Y-7250D02*X59100Y-8000D01*
X58350Y-7250D02*X59100Y-6500D01*
X61350D01*
X62100Y-7250D01*
X58350Y-8750D02*X59100Y-9500D01*
X67350Y-3500D02*Y-8750D01*
X68100Y-9500D01*
X66600Y-5750D02*X68100D01*
X69600Y-3500D02*Y-9500D01*
Y-7250D02*X70350Y-6500D01*
X71850D01*
X72600Y-7250D01*
Y-9500D01*
X75150D02*X77400D01*
X74400Y-8750D02*X75150Y-9500D01*
X74400Y-7250D02*Y-8750D01*
Y-7250D02*X75150Y-6500D01*
X76650D01*
X77400Y-7250D01*
X74400Y-8000D02*X77400D01*
Y-7250D02*Y-8000D01*
X82650Y-6500D02*X84900D01*
X81900Y-7250D02*X82650Y-6500D01*
X81900Y-7250D02*Y-8750D01*
X82650Y-9500D01*
X84900D01*
X87450D02*X89700D01*
X86700Y-8750D02*X87450Y-9500D01*
X86700Y-7250D02*Y-8750D01*
Y-7250D02*X87450Y-6500D01*
X88950D01*
X89700Y-7250D01*
X86700Y-8000D02*X89700D01*
Y-7250D02*Y-8000D01*
X92250Y-7250D02*Y-9500D01*
Y-7250D02*X93000Y-6500D01*
X93750D01*
X94500Y-7250D01*
Y-9500D01*
X91500Y-6500D02*X92250Y-7250D01*
X97050Y-3500D02*Y-8750D01*
X97800Y-9500D01*
X96300Y-5750D02*X97800D01*
X100050Y-9500D02*X102300D01*
X99300Y-8750D02*X100050Y-9500D01*
X99300Y-7250D02*Y-8750D01*
Y-7250D02*X100050Y-6500D01*
X101550D01*
X102300Y-7250D01*
X99300Y-8000D02*X102300D01*
Y-7250D02*Y-8000D01*
X104850Y-7250D02*Y-9500D01*
Y-7250D02*X105600Y-6500D01*
X107100D01*
X104100D02*X104850Y-7250D01*
X108900Y-3500D02*Y-8750D01*
X109650Y-9500D01*
G54D61*X111150Y-5000D02*Y-5150D01*
G54D60*Y-7250D02*Y-9500D01*
X113400Y-7250D02*Y-9500D01*
Y-7250D02*X114150Y-6500D01*
X114900D01*
X115650Y-7250D01*
Y-9500D01*
X112650Y-6500D02*X113400Y-7250D01*
X118200Y-9500D02*X120450D01*
X117450Y-8750D02*X118200Y-9500D01*
X117450Y-7250D02*Y-8750D01*
Y-7250D02*X118200Y-6500D01*
X119700D01*
X120450Y-7250D01*
X117450Y-8000D02*X120450D01*
Y-7250D02*Y-8000D01*
X124950Y-7250D02*Y-8750D01*
Y-7250D02*X125700Y-6500D01*
X127200D01*
X127950Y-7250D01*
Y-8750D01*
X127200Y-9500D02*X127950Y-8750D01*
X125700Y-9500D02*X127200D01*
X124950Y-8750D02*X125700Y-9500D01*
X130500Y-4250D02*Y-9500D01*
Y-4250D02*X131250Y-3500D01*
X132000D01*
X129750Y-6500D02*X131250D01*
X136950Y-3500D02*Y-8750D01*
X137700Y-9500D01*
X136200Y-5750D02*X137700D01*
X139200Y-3500D02*Y-9500D01*
Y-7250D02*X139950Y-6500D01*
X141450D01*
X142200Y-7250D01*
Y-9500D01*
G54D61*X144000Y-5000D02*Y-5150D01*
G54D60*Y-7250D02*Y-9500D01*
X146250D02*X148500D01*
X149250Y-8750D01*
X148500Y-8000D02*X149250Y-8750D01*
X146250Y-8000D02*X148500D01*
X145500Y-7250D02*X146250Y-8000D01*
X145500Y-7250D02*X146250Y-6500D01*
X148500D01*
X149250Y-7250D01*
X145500Y-8750D02*X146250Y-9500D01*
X153750Y-8750D02*X154500Y-9500D01*
X153750Y-7550D02*Y-8750D01*
Y-7550D02*X154800Y-6500D01*
X155700D01*
X156750Y-7550D01*
Y-8750D01*
X156000Y-9500D02*X156750Y-8750D01*
X154500Y-9500D02*X156000D01*
X153750Y-5450D02*X154800Y-6500D01*
X153750Y-4250D02*Y-5450D01*
Y-4250D02*X154500Y-3500D01*
X156000D01*
X156750Y-4250D01*
Y-5450D01*
X155700Y-6500D02*X156750Y-5450D01*
X158550Y-9500D02*X159300D01*
X161100Y-8750D02*X161850Y-9500D01*
X161100Y-4250D02*Y-8750D01*
Y-4250D02*X161850Y-3500D01*
X163350D01*
X164100Y-4250D01*
Y-8750D01*
X163350Y-9500D02*X164100Y-8750D01*
X161850Y-9500D02*X163350D01*
X161100Y-8000D02*X164100Y-5000D01*
X165900Y-8750D02*X166650Y-9500D01*
X165900Y-4250D02*Y-8750D01*
Y-4250D02*X166650Y-3500D01*
X168150D01*
X168900Y-4250D01*
Y-8750D01*
X168150Y-9500D02*X168900Y-8750D01*
X166650Y-9500D02*X168150D01*
X165900Y-8000D02*X168900Y-5000D01*
X170700Y-8750D02*X171450Y-9500D01*
X170700Y-4250D02*Y-8750D01*
Y-4250D02*X171450Y-3500D01*
X172950D01*
X173700Y-4250D01*
Y-8750D01*
X172950Y-9500D02*X173700Y-8750D01*
X171450Y-9500D02*X172950D01*
X170700Y-8000D02*X173700Y-5000D01*
X175500Y-8750D02*X176250Y-9500D01*
X175500Y-4250D02*Y-8750D01*
Y-4250D02*X176250Y-3500D01*
X177750D01*
X178500Y-4250D01*
Y-8750D01*
X177750Y-9500D02*X178500Y-8750D01*
X176250Y-9500D02*X177750D01*
X175500Y-8000D02*X178500Y-5000D01*
X180300Y-8750D02*X181050Y-9500D01*
X180300Y-4250D02*Y-8750D01*
Y-4250D02*X181050Y-3500D01*
X182550D01*
X183300Y-4250D01*
Y-8750D01*
X182550Y-9500D02*X183300Y-8750D01*
X181050Y-9500D02*X182550D01*
X180300Y-8000D02*X183300Y-5000D01*
X185100Y-8750D02*X185850Y-9500D01*
X185100Y-4250D02*Y-8750D01*
Y-4250D02*X185850Y-3500D01*
X187350D01*
X188100Y-4250D01*
Y-8750D01*
X187350Y-9500D02*X188100Y-8750D01*
X185850Y-9500D02*X187350D01*
X185100Y-8000D02*X188100Y-5000D01*
X193350Y-7250D02*Y-9500D01*
Y-7250D02*X194100Y-6500D01*
X194850D01*
X195600Y-7250D01*
Y-9500D01*
Y-7250D02*X196350Y-6500D01*
X197100D01*
X197850Y-7250D01*
Y-9500D01*
X192600Y-6500D02*X193350Y-7250D01*
G54D61*X199650Y-5000D02*Y-5150D01*
G54D60*Y-7250D02*Y-9500D01*
X201150Y-3500D02*Y-8750D01*
X201900Y-9500D01*
X206850Y-7250D02*Y-9500D01*
Y-7250D02*X207600Y-6500D01*
X209100D01*
X206100D02*X206850Y-7250D01*
X211650Y-9500D02*X213900D01*
X210900Y-8750D02*X211650Y-9500D01*
X210900Y-7250D02*Y-8750D01*
Y-7250D02*X211650Y-6500D01*
X213150D01*
X213900Y-7250D01*
X210900Y-8000D02*X213900D01*
Y-7250D02*Y-8000D01*
X216450Y-6500D02*X218700D01*
X215700Y-7250D02*X216450Y-6500D01*
X215700Y-7250D02*Y-8750D01*
X216450Y-9500D01*
X218700D01*
X221250Y-3500D02*Y-8750D01*
X222000Y-9500D01*
X220500Y-5750D02*X222000D01*
X225750Y-6500D02*X226500Y-7250D01*
X224250Y-6500D02*X225750D01*
X223500Y-7250D02*X224250Y-6500D01*
X223500Y-7250D02*Y-8750D01*
X224250Y-9500D01*
X226500Y-6500D02*Y-8750D01*
X227250Y-9500D01*
X224250D02*X225750D01*
X226500Y-8750D01*
X229800Y-7250D02*Y-9500D01*
Y-7250D02*X230550Y-6500D01*
X231300D01*
X232050Y-7250D01*
Y-9500D01*
X229050Y-6500D02*X229800Y-7250D01*
X236100Y-6500D02*X236850Y-7250D01*
X234600Y-6500D02*X236100D01*
X233850Y-7250D02*X234600Y-6500D01*
X233850Y-7250D02*Y-8750D01*
X234600Y-9500D01*
X236100D01*
X236850Y-8750D01*
X233850Y-11000D02*X234600Y-11750D01*
X236100D01*
X236850Y-11000D01*
Y-6500D02*Y-11000D01*
X238650Y-3500D02*Y-8750D01*
X239400Y-9500D01*
X241650D02*X243900D01*
X240900Y-8750D02*X241650Y-9500D01*
X240900Y-7250D02*Y-8750D01*
Y-7250D02*X241650Y-6500D01*
X243150D01*
X243900Y-7250D01*
X240900Y-8000D02*X243900D01*
Y-7250D02*Y-8000D01*
X248400Y-6500D02*X251400D01*
X255900Y-8750D02*X256650Y-9500D01*
X255900Y-4250D02*Y-8750D01*
Y-4250D02*X256650Y-3500D01*
X258150D01*
X258900Y-4250D01*
Y-8750D01*
X258150Y-9500D02*X258900Y-8750D01*
X256650Y-9500D02*X258150D01*
X255900Y-8000D02*X258900Y-5000D01*
X260700Y-11000D02*X262200Y-9500D01*
X264000Y-8750D02*X264750Y-9500D01*
X264000Y-4250D02*Y-8750D01*
Y-4250D02*X264750Y-3500D01*
X266250D01*
X267000Y-4250D01*
Y-8750D01*
X266250Y-9500D02*X267000Y-8750D01*
X264750Y-9500D02*X266250D01*
X264000Y-8000D02*X267000Y-5000D01*
X272250Y-3500D02*Y-8750D01*
X273000Y-9500D01*
X271500Y-5750D02*X273000D01*
X274500Y-7250D02*Y-8750D01*
Y-7250D02*X275250Y-6500D01*
X276750D01*
X277500Y-7250D01*
Y-8750D01*
X276750Y-9500D02*X277500Y-8750D01*
X275250Y-9500D02*X276750D01*
X274500Y-8750D02*X275250Y-9500D01*
X282000Y-4250D02*X282750Y-3500D01*
X285000D01*
X285750Y-4250D01*
Y-5750D01*
X282000Y-9500D02*X285750Y-5750D01*
X282000Y-9500D02*X285750D01*
X287550Y-8750D02*X288300Y-9500D01*
X287550Y-4250D02*Y-8750D01*
Y-4250D02*X288300Y-3500D01*
X289800D01*
X290550Y-4250D01*
Y-8750D01*
X289800Y-9500D02*X290550Y-8750D01*
X288300Y-9500D02*X289800D01*
X287550Y-8000D02*X290550Y-5000D01*
X292350Y-4250D02*X293100Y-3500D01*
X294600D01*
X295350Y-4250D01*
X294600Y-9500D02*X295350Y-8750D01*
X293100Y-9500D02*X294600D01*
X292350Y-8750D02*X293100Y-9500D01*
Y-6200D02*X294600D01*
X295350Y-4250D02*Y-5450D01*
Y-6950D02*Y-8750D01*
Y-6950D02*X294600Y-6200D01*
X295350Y-5450D02*X294600Y-6200D01*
X297150Y-8750D02*X297900Y-9500D01*
X297150Y-4250D02*Y-8750D01*
Y-4250D02*X297900Y-3500D01*
X299400D01*
X300150Y-4250D01*
Y-8750D01*
X299400Y-9500D02*X300150Y-8750D01*
X297900Y-9500D02*X299400D01*
X297150Y-8000D02*X300150Y-5000D01*
X301950Y-9500D02*X302700D01*
X304500Y-8750D02*X305250Y-9500D01*
X304500Y-4250D02*Y-8750D01*
Y-4250D02*X305250Y-3500D01*
X306750D01*
X307500Y-4250D01*
Y-8750D01*
X306750Y-9500D02*X307500Y-8750D01*
X305250Y-9500D02*X306750D01*
X304500Y-8000D02*X307500Y-5000D01*
X309300Y-8750D02*X310050Y-9500D01*
X309300Y-4250D02*Y-8750D01*
Y-4250D02*X310050Y-3500D01*
X311550D01*
X312300Y-4250D01*
Y-8750D01*
X311550Y-9500D02*X312300Y-8750D01*
X310050Y-9500D02*X311550D01*
X309300Y-8000D02*X312300Y-5000D01*
X314100Y-8750D02*X314850Y-9500D01*
X314100Y-4250D02*Y-8750D01*
Y-4250D02*X314850Y-3500D01*
X316350D01*
X317100Y-4250D01*
Y-8750D01*
X316350Y-9500D02*X317100Y-8750D01*
X314850Y-9500D02*X316350D01*
X314100Y-8000D02*X317100Y-5000D01*
X318900Y-8750D02*X319650Y-9500D01*
X318900Y-4250D02*Y-8750D01*
Y-4250D02*X319650Y-3500D01*
X321150D01*
X321900Y-4250D01*
Y-8750D01*
X321150Y-9500D02*X321900Y-8750D01*
X319650Y-9500D02*X321150D01*
X318900Y-8000D02*X321900Y-5000D01*
X323700Y-8750D02*X324450Y-9500D01*
X323700Y-4250D02*Y-8750D01*
Y-4250D02*X324450Y-3500D01*
X325950D01*
X326700Y-4250D01*
Y-8750D01*
X325950Y-9500D02*X326700Y-8750D01*
X324450Y-9500D02*X325950D01*
X323700Y-8000D02*X326700Y-5000D01*
X328500Y-8750D02*X329250Y-9500D01*
X328500Y-4250D02*Y-8750D01*
Y-4250D02*X329250Y-3500D01*
X330750D01*
X331500Y-4250D01*
Y-8750D01*
X330750Y-9500D02*X331500Y-8750D01*
X329250Y-9500D02*X330750D01*
X328500Y-8000D02*X331500Y-5000D01*
X333300Y-11000D02*X334800Y-9500D01*
X336600Y-4250D02*X337350Y-3500D01*
X339600D01*
X340350Y-4250D01*
Y-5750D01*
X336600Y-9500D02*X340350Y-5750D01*
X336600Y-9500D02*X340350D01*
X342150Y-4250D02*X342900Y-3500D01*
X345150D01*
X345900Y-4250D01*
Y-5750D01*
X342150Y-9500D02*X345900Y-5750D01*
X342150Y-9500D02*X345900D01*
X348450D02*X350700Y-6500D01*
Y-4250D02*Y-6500D01*
X349950Y-3500D02*X350700Y-4250D01*
X348450Y-3500D02*X349950D01*
X347700Y-4250D02*X348450Y-3500D01*
X347700Y-4250D02*Y-5750D01*
X348450Y-6500D01*
X350700D01*
X352500Y-8750D02*X353250Y-9500D01*
X352500Y-4250D02*Y-8750D01*
Y-4250D02*X353250Y-3500D01*
X354750D01*
X355500Y-4250D01*
Y-8750D01*
X354750Y-9500D02*X355500Y-8750D01*
X353250Y-9500D02*X354750D01*
X352500Y-8000D02*X355500Y-5000D01*
X357300Y-9500D02*X358050D01*
X359850Y-8750D02*X360600Y-9500D01*
X359850Y-4250D02*Y-8750D01*
Y-4250D02*X360600Y-3500D01*
X362100D01*
X362850Y-4250D01*
Y-8750D01*
X362100Y-9500D02*X362850Y-8750D01*
X360600Y-9500D02*X362100D01*
X359850Y-8000D02*X362850Y-5000D01*
X364650Y-8750D02*X365400Y-9500D01*
X364650Y-4250D02*Y-8750D01*
Y-4250D02*X365400Y-3500D01*
X366900D01*
X367650Y-4250D01*
Y-8750D01*
X366900Y-9500D02*X367650Y-8750D01*
X365400Y-9500D02*X366900D01*
X364650Y-8000D02*X367650Y-5000D01*
X369450Y-8750D02*X370200Y-9500D01*
X369450Y-4250D02*Y-8750D01*
Y-4250D02*X370200Y-3500D01*
X371700D01*
X372450Y-4250D01*
Y-8750D01*
X371700Y-9500D02*X372450Y-8750D01*
X370200Y-9500D02*X371700D01*
X369450Y-8000D02*X372450Y-5000D01*
X374250Y-8750D02*X375000Y-9500D01*
X374250Y-4250D02*Y-8750D01*
Y-4250D02*X375000Y-3500D01*
X376500D01*
X377250Y-4250D01*
Y-8750D01*
X376500Y-9500D02*X377250Y-8750D01*
X375000Y-9500D02*X376500D01*
X374250Y-8000D02*X377250Y-5000D01*
X379050Y-8750D02*X379800Y-9500D01*
X379050Y-4250D02*Y-8750D01*
Y-4250D02*X379800Y-3500D01*
X381300D01*
X382050Y-4250D01*
Y-8750D01*
X381300Y-9500D02*X382050Y-8750D01*
X379800Y-9500D02*X381300D01*
X379050Y-8000D02*X382050Y-5000D01*
X383850Y-8750D02*X384600Y-9500D01*
X383850Y-4250D02*Y-8750D01*
Y-4250D02*X384600Y-3500D01*
X386100D01*
X386850Y-4250D01*
Y-8750D01*
X386100Y-9500D02*X386850Y-8750D01*
X384600Y-9500D02*X386100D01*
X383850Y-8000D02*X386850Y-5000D01*
X392100Y-7250D02*Y-9500D01*
Y-7250D02*X392850Y-6500D01*
X393600D01*
X394350Y-7250D01*
Y-9500D01*
Y-7250D02*X395100Y-6500D01*
X395850D01*
X396600Y-7250D01*
Y-9500D01*
X391350Y-6500D02*X392100Y-7250D01*
G54D61*X398400Y-5000D02*Y-5150D01*
G54D60*Y-7250D02*Y-9500D01*
X399900Y-3500D02*Y-8750D01*
X400650Y-9500D01*
X402900D02*X405150D01*
X405900Y-8750D01*
X405150Y-8000D02*X405900Y-8750D01*
X402900Y-8000D02*X405150D01*
X402150Y-7250D02*X402900Y-8000D01*
X402150Y-7250D02*X402900Y-6500D01*
X405150D01*
X405900Y-7250D01*
X402150Y-8750D02*X402900Y-9500D01*
X200750Y257500D02*Y251500D01*
X202700Y257500D02*X203750Y256450D01*
Y252550D01*
X202700Y251500D02*X203750Y252550D01*
X200000Y251500D02*X202700D01*
X200000Y257500D02*X202700D01*
X207800Y254500D02*X208550Y253750D01*
X206300Y254500D02*X207800D01*
X205550Y253750D02*X206300Y254500D01*
X205550Y253750D02*Y252250D01*
X206300Y251500D01*
X208550Y254500D02*Y252250D01*
X209300Y251500D01*
X206300D02*X207800D01*
X208550Y252250D01*
X211850Y257500D02*Y252250D01*
X212600Y251500D01*
X211100Y255250D02*X212600D01*
X214850Y251500D02*X217100D01*
X214100Y252250D02*X214850Y251500D01*
X214100Y253750D02*Y252250D01*
Y253750D02*X214850Y254500D01*
X216350D01*
X217100Y253750D01*
X214100Y253000D02*X217100D01*
Y253750D02*Y253000D01*
X218900Y255250D02*X219650D01*
X218900Y253750D02*X219650D01*
X224150Y257500D02*Y251500D01*
Y257500D02*X226400Y254500D01*
X228650Y257500D01*
Y251500D01*
X230450Y253750D02*Y252250D01*
Y253750D02*X231200Y254500D01*
X232700D01*
X233450Y253750D01*
Y252250D01*
X232700Y251500D02*X233450Y252250D01*
X231200Y251500D02*X232700D01*
X230450Y252250D02*X231200Y251500D01*
X236000Y253750D02*Y251500D01*
Y253750D02*X236750Y254500D01*
X237500D01*
X238250Y253750D01*
Y251500D01*
X235250Y254500D02*X236000Y253750D01*
X242750Y256000D02*Y251500D01*
Y256000D02*X243800Y257500D01*
X245450D01*
X246500Y256000D01*
Y251500D01*
X242750Y254500D02*X246500D01*
X249050Y253750D02*Y249250D01*
X248300Y254500D02*X249050Y253750D01*
X249800Y254500D01*
X251300D01*
X252050Y253750D01*
Y252250D01*
X251300Y251500D02*X252050Y252250D01*
X249800Y251500D02*X251300D01*
X249050Y252250D02*X249800Y251500D01*
X254600Y253750D02*Y251500D01*
Y253750D02*X255350Y254500D01*
X256850D01*
X253850D02*X254600Y253750D01*
X261350Y256750D02*X262100Y257500D01*
X264350D01*
X265100Y256750D01*
Y255250D01*
X261350Y251500D02*X265100Y255250D01*
X261350Y251500D02*X265100D01*
X266900Y256300D02*X268100Y257500D01*
Y251500D01*
X266900D02*X269150D01*
X273650Y256750D02*X274400Y257500D01*
X276650D01*
X277400Y256750D01*
Y255250D01*
X273650Y251500D02*X277400Y255250D01*
X273650Y251500D02*X277400D01*
X279200Y256300D02*X280400Y257500D01*
Y251500D01*
X279200D02*X281450D01*
X283250Y255250D02*X284000D01*
X283250Y253750D02*X284000D01*
X285800D02*X288800Y257500D01*
X285800Y253750D02*X289550D01*
X288800Y257500D02*Y251500D01*
X291350Y256750D02*X292100Y257500D01*
X294350D01*
X295100Y256750D01*
Y255250D01*
X291350Y251500D02*X295100Y255250D01*
X291350Y251500D02*X295100D01*
X296900Y255250D02*X297650D01*
X296900Y253750D02*X297650D01*
X299450Y256750D02*X300200Y257500D01*
X301700D01*
X302450Y256750D01*
X301700Y251500D02*X302450Y252250D01*
X300200Y251500D02*X301700D01*
X299450Y252250D02*X300200Y251500D01*
Y254800D02*X301700D01*
X302450Y256750D02*Y255550D01*
Y254050D02*Y252250D01*
Y254050D02*X301700Y254800D01*
X302450Y255550D02*X301700Y254800D01*
X304250Y252250D02*X305000Y251500D01*
X304250Y256750D02*Y252250D01*
Y256750D02*X305000Y257500D01*
X306500D01*
X307250Y256750D01*
Y252250D01*
X306500Y251500D02*X307250Y252250D01*
X305000Y251500D02*X306500D01*
X304250Y253000D02*X307250Y256000D01*
X311750Y256750D02*X312500Y257500D01*
X314750D01*
X315500Y256750D01*
Y255250D01*
X311750Y251500D02*X315500Y255250D01*
X311750Y251500D02*X315500D01*
X317300Y252250D02*X318050Y251500D01*
X317300Y256750D02*Y252250D01*
Y256750D02*X318050Y257500D01*
X319550D01*
X320300Y256750D01*
Y252250D01*
X319550Y251500D02*X320300Y252250D01*
X318050Y251500D02*X319550D01*
X317300Y253000D02*X320300Y256000D01*
X322100Y256750D02*X322850Y257500D01*
X325100D01*
X325850Y256750D01*
Y255250D01*
X322100Y251500D02*X325850Y255250D01*
X322100Y251500D02*X325850D01*
X327650Y257500D02*X330650D01*
X327650D02*Y254500D01*
X328400Y255250D01*
X329900D01*
X330650Y254500D01*
Y252250D01*
X329900Y251500D02*X330650Y252250D01*
X328400Y251500D02*X329900D01*
X327650Y252250D02*X328400Y251500D01*
X335150Y257500D02*Y252250D01*
X335900Y251500D01*
X337400D01*
X338150Y252250D01*
Y257500D02*Y252250D01*
X339950Y257500D02*X342950D01*
X341450D02*Y251500D01*
X345800D02*X347750D01*
X344750Y252550D02*X345800Y251500D01*
X344750Y256450D02*Y252550D01*
Y256450D02*X345800Y257500D01*
X347750D01*
X200000Y271000D02*Y266500D01*
Y271000D02*X201050Y272500D01*
X202700D01*
X203750Y271000D01*
Y266500D01*
X200000Y269500D02*X203750D01*
X205550D02*Y267250D01*
X206300Y266500D01*
X207800D01*
X208550Y267250D01*
Y269500D02*Y267250D01*
X211100Y272500D02*Y267250D01*
X211850Y266500D01*
X210350Y270250D02*X211850D01*
X213350Y272500D02*Y266500D01*
Y268750D02*X214100Y269500D01*
X215600D01*
X216350Y268750D01*
Y266500D01*
X218150Y268750D02*Y267250D01*
Y268750D02*X218900Y269500D01*
X220400D01*
X221150Y268750D01*
Y267250D01*
X220400Y266500D02*X221150Y267250D01*
X218900Y266500D02*X220400D01*
X218150Y267250D02*X218900Y266500D01*
X223700Y268750D02*Y266500D01*
Y268750D02*X224450Y269500D01*
X225950D01*
X222950D02*X223700Y268750D01*
X227750Y270250D02*X228500D01*
X227750Y268750D02*X228500D01*
X233000Y272500D02*Y266500D01*
Y272500D02*X236750Y266500D01*
Y272500D02*Y266500D01*
G54D61*X238550Y271000D02*Y270850D01*
G54D60*Y268750D02*Y266500D01*
X240800Y269500D02*X243050D01*
X240050Y268750D02*X240800Y269500D01*
X240050Y268750D02*Y267250D01*
X240800Y266500D01*
X243050D01*
X244850Y268750D02*Y267250D01*
Y268750D02*X245600Y269500D01*
X247100D01*
X247850Y268750D01*
Y267250D01*
X247100Y266500D02*X247850Y267250D01*
X245600Y266500D02*X247100D01*
X244850Y267250D02*X245600Y266500D01*
X255350Y272500D02*Y266500D01*
X254600D02*X255350Y267250D01*
X253100Y266500D02*X254600D01*
X252350Y267250D02*X253100Y266500D01*
X252350Y268750D02*Y267250D01*
Y268750D02*X253100Y269500D01*
X254600D01*
X255350Y268750D01*
X257900Y266500D02*X260150D01*
X257150Y267250D02*X257900Y266500D01*
X257150Y268750D02*Y267250D01*
Y268750D02*X257900Y269500D01*
X259400D01*
X260150Y268750D01*
X257150Y268000D02*X260150D01*
Y268750D02*Y268000D01*
X264650Y272500D02*X266150Y266500D01*
X267650Y272500D01*
X270200Y268750D02*Y266500D01*
Y268750D02*X270950Y269500D01*
X272450D01*
X269450D02*X270200Y268750D01*
G54D61*X274250Y271000D02*Y270850D01*
G54D60*Y268750D02*Y266500D01*
X276500D02*X278750D01*
X275750Y267250D02*X276500Y266500D01*
X275750Y268750D02*Y267250D01*
Y268750D02*X276500Y269500D01*
X278000D01*
X278750Y268750D01*
X275750Y268000D02*X278750D01*
Y268750D02*Y268000D01*
X281300Y266500D02*X283550D01*
X284300Y267250D01*
X283550Y268000D02*X284300Y267250D01*
X281300Y268000D02*X283550D01*
X280550Y268750D02*X281300Y268000D01*
X280550Y268750D02*X281300Y269500D01*
X283550D01*
X284300Y268750D01*
X280550Y267250D02*X281300Y266500D01*
X200000Y287500D02*X203000D01*
X201500D02*Y281500D01*
G54D61*X204800Y286000D02*Y285850D01*
G54D60*Y283750D02*Y281500D01*
X207050Y287500D02*Y282250D01*
X207800Y281500D01*
X206300Y285250D02*X207800D01*
X209300Y287500D02*Y282250D01*
X210050Y281500D01*
X212300D02*X214550D01*
X211550Y282250D02*X212300Y281500D01*
X211550Y283750D02*Y282250D01*
Y283750D02*X212300Y284500D01*
X213800D01*
X214550Y283750D01*
X211550Y283000D02*X214550D01*
Y283750D02*Y283000D01*
X216350Y285250D02*X217100D01*
X216350Y283750D02*X217100D01*
X221600D02*X224600Y287500D01*
X221600Y283750D02*X225350D01*
X224600Y287500D02*Y281500D01*
X227150Y282250D02*X227900Y281500D01*
X227150Y286750D02*Y282250D01*
Y286750D02*X227900Y287500D01*
X229400D01*
X230150Y286750D01*
Y282250D01*
X229400Y281500D02*X230150Y282250D01*
X227900Y281500D02*X229400D01*
X227150Y283000D02*X230150Y286000D01*
X231950Y282250D02*X236450Y286750D01*
X238250Y282250D02*X239000Y281500D01*
X238250Y283450D02*Y282250D01*
Y283450D02*X239300Y284500D01*
X240200D01*
X241250Y283450D01*
Y282250D01*
X240500Y281500D02*X241250Y282250D01*
X239000Y281500D02*X240500D01*
X238250Y285550D02*X239300Y284500D01*
X238250Y286750D02*Y285550D01*
Y286750D02*X239000Y287500D01*
X240500D01*
X241250Y286750D01*
Y285550D01*
X240200Y284500D02*X241250Y285550D01*
X243050Y282250D02*X243800Y281500D01*
X243050Y286750D02*Y282250D01*
Y286750D02*X243800Y287500D01*
X245300D01*
X246050Y286750D01*
Y282250D01*
X245300Y281500D02*X246050Y282250D01*
X243800Y281500D02*X245300D01*
X243050Y283000D02*X246050Y286000D01*
X248600Y281500D02*X250850D01*
X251600Y282250D01*
X250850Y283000D02*X251600Y282250D01*
X248600Y283000D02*X250850D01*
X247850Y283750D02*X248600Y283000D01*
X247850Y283750D02*X248600Y284500D01*
X250850D01*
X251600Y283750D01*
X247850Y282250D02*X248600Y281500D01*
X253400Y284500D02*Y282250D01*
X254150Y281500D01*
X254900D01*
X255650Y282250D01*
Y284500D02*Y282250D01*
X256400Y281500D01*
X257150D01*
X257900Y282250D01*
Y284500D02*Y282250D01*
G54D61*X259700Y286000D02*Y285850D01*
G54D60*Y283750D02*Y281500D01*
X261950Y287500D02*Y282250D01*
X262700Y281500D01*
X261200Y285250D02*X262700D01*
X264950Y284500D02*X267200D01*
X264200Y283750D02*X264950Y284500D01*
X264200Y283750D02*Y282250D01*
X264950Y281500D01*
X267200D01*
X269000Y287500D02*Y281500D01*
Y283750D02*X269750Y284500D01*
X271250D01*
X272000Y283750D01*
Y281500D01*
X274550D02*X276800D01*
X273800Y282250D02*X274550Y281500D01*
X273800Y283750D02*Y282250D01*
Y283750D02*X274550Y284500D01*
X276050D01*
X276800Y283750D01*
X273800Y283000D02*X276800D01*
Y283750D02*Y283000D01*
X279350Y283750D02*Y281500D01*
Y283750D02*X280100Y284500D01*
X281600D01*
X278600D02*X279350Y283750D01*
X286100Y284500D02*X289100D01*
X293600Y287500D02*Y281500D01*
Y287500D02*X296600D01*
X293600Y284800D02*X295850D01*
X300650Y284500D02*X301400Y283750D01*
X299150Y284500D02*X300650D01*
X298400Y283750D02*X299150Y284500D01*
X298400Y283750D02*Y282250D01*
X299150Y281500D01*
X301400Y284500D02*Y282250D01*
X302150Y281500D01*
X299150D02*X300650D01*
X301400Y282250D01*
X303950Y287500D02*Y281500D01*
Y282250D02*X304700Y281500D01*
X306200D01*
X306950Y282250D01*
Y283750D02*Y282250D01*
X306200Y284500D02*X306950Y283750D01*
X304700Y284500D02*X306200D01*
X303950Y283750D02*X304700Y284500D01*
X309500Y283750D02*Y281500D01*
Y283750D02*X310250Y284500D01*
X311750D01*
X308750D02*X309500Y283750D01*
G54D61*X313550Y286000D02*Y285850D01*
G54D60*Y283750D02*Y281500D01*
X315800Y284500D02*X318050D01*
X315050Y283750D02*X315800Y284500D01*
X315050Y283750D02*Y282250D01*
X315800Y281500D01*
X318050D01*
X322100Y284500D02*X322850Y283750D01*
X320600Y284500D02*X322100D01*
X319850Y283750D02*X320600Y284500D01*
X319850Y283750D02*Y282250D01*
X320600Y281500D01*
X322850Y284500D02*Y282250D01*
X323600Y281500D01*
X320600D02*X322100D01*
X322850Y282250D01*
X326150Y287500D02*Y282250D01*
X326900Y281500D01*
X325400Y285250D02*X326900D01*
G54D61*X328400Y286000D02*Y285850D01*
G54D60*Y283750D02*Y281500D01*
X329900Y283750D02*Y282250D01*
Y283750D02*X330650Y284500D01*
X332150D01*
X332900Y283750D01*
Y282250D01*
X332150Y281500D02*X332900Y282250D01*
X330650Y281500D02*X332150D01*
X329900Y282250D02*X330650Y281500D01*
X335450Y283750D02*Y281500D01*
Y283750D02*X336200Y284500D01*
X336950D01*
X337700Y283750D01*
Y281500D01*
X334700Y284500D02*X335450Y283750D01*
X342950Y287500D02*Y281500D01*
X344900Y287500D02*X345950Y286450D01*
Y282550D01*
X344900Y281500D02*X345950Y282550D01*
X342200Y281500D02*X344900D01*
X342200Y287500D02*X344900D01*
X348500Y283750D02*Y281500D01*
Y283750D02*X349250Y284500D01*
X350750D01*
X347750D02*X348500Y283750D01*
X354800Y284500D02*X355550Y283750D01*
X353300Y284500D02*X354800D01*
X352550Y283750D02*X353300Y284500D01*
X352550Y283750D02*Y282250D01*
X353300Y281500D01*
X355550Y284500D02*Y282250D01*
X356300Y281500D01*
X353300D02*X354800D01*
X355550Y282250D01*
X358100Y284500D02*Y282250D01*
X358850Y281500D01*
X359600D01*
X360350Y282250D01*
Y284500D02*Y282250D01*
X361100Y281500D01*
X361850D01*
X362600Y282250D01*
Y284500D02*Y282250D01*
G54D61*X364400Y286000D02*Y285850D01*
G54D60*Y283750D02*Y281500D01*
X366650Y283750D02*Y281500D01*
Y283750D02*X367400Y284500D01*
X368150D01*
X368900Y283750D01*
Y281500D01*
X365900Y284500D02*X366650Y283750D01*
X372950Y284500D02*X373700Y283750D01*
X371450Y284500D02*X372950D01*
X370700Y283750D02*X371450Y284500D01*
X370700Y283750D02*Y282250D01*
X371450Y281500D01*
X372950D01*
X373700Y282250D01*
X370700Y280000D02*X371450Y279250D01*
X372950D01*
X373700Y280000D01*
Y284500D02*Y280000D01*
M02*
