M48
INCH
T35C0.030
T34C0.028
T33C0.038
%
T34
X009700Y022000
X009700Y019000
X009700Y016000
X009700Y013000
X009700Y010100
X009700Y007100
X009700Y004000
X009700Y001000
X010700Y022000
X010700Y019000
X010700Y016000
X010700Y013000
X010700Y010100
X010700Y007100
X010700Y004000
X010700Y001000
X011700Y022000
X011700Y019000
X011700Y016000
X011700Y013000
X011700Y010100
X011700Y007100
X011700Y004000
X011700Y001000
X012700Y022000
X012700Y019000
X012700Y016000
X012700Y013000
X012700Y010100
X012700Y007100
X012700Y004000
X012700Y001000
X013700Y022000
X013700Y019000
X013700Y016000
X013700Y013000
X013700Y010100
X013700Y007100
X013700Y004000
X013700Y001000
X014700Y022000
X014700Y019000
X014700Y016000
X014700Y013000
X014700Y010100
X014700Y007100
X014700Y004000
X014700Y001000
X015700Y022000
X015700Y019000
X015700Y016000
X015700Y013000
X015700Y010100
X015700Y007100
X015700Y004000
X015700Y001000
X016700Y022000
X016700Y019000
X016700Y016000
X016700Y013000
X016700Y010100
X016700Y007100
X016700Y004000
X016700Y001000
T35
X009100Y017400
X009100Y005600
X011100Y017400
X011100Y005600
X015600Y011500
X015700Y006000
X015700Y005000
X017600Y011500
X017700Y003500
X019700Y003500
T33
X001000Y020000
X001000Y019000
X001000Y018000
X001000Y017000
X001000Y016000
X001000Y015000
X001000Y014000
X001000Y013000
X001000Y012000
X001000Y011000
X001000Y010000
X001000Y009000
X001000Y008000
X001000Y007000
X001000Y006000
X001000Y005000
X001000Y004000
X001000Y003000
X001000Y002000
X001000Y001000
X002000Y022000
X002000Y021000
X002000Y020000
X002000Y019000
X002000Y018000
X002000Y017000
X002000Y015000
X002000Y014000
X002000Y013000
X002000Y012000
X002000Y011000
X002000Y010000
X002000Y009000
X002000Y008000
X002000Y007000
X002000Y005000
X002000Y004000
X002000Y003000
X002000Y002000
X002000Y001000
X003000Y022000
X003000Y021000
X003000Y020000
X003000Y018000
X003000Y017000
X003000Y016000
X003000Y015000
X003000Y014000
X003000Y013000
X003000Y012000
X003000Y011000
X003000Y010000
X003000Y009000
X003000Y008000
X003000Y007000
X003000Y006000
X003000Y005000
X003000Y004000
X003000Y003000
X003000Y002000
X003000Y001000
X005000Y020000
X005000Y019000
X005000Y018000
X005000Y017000
X005000Y016000
X005000Y015000
X005000Y014000
X005000Y013000
X005000Y012000
X005000Y011000
X005000Y010000
X005000Y009000
X005000Y008000
X005000Y007000
X005000Y006000
X005000Y005000
X005000Y004000
X005000Y003000
X005000Y002000
X005000Y001000
X006000Y022000
X006000Y021000
X006000Y020000
X006000Y019000
X006000Y018000
X006000Y017000
X006000Y015000
X006000Y014000
X006000Y013000
X006000Y012000
X006000Y011000
X006000Y010000
X006000Y009000
X006000Y008000
X006000Y007000
X006000Y005000
X006000Y004000
X006000Y003000
X006000Y002000
X006000Y001000
X007000Y022500
X007000Y022000
X007000Y021500
X007000Y021000
X007000Y020500
X007000Y020000
X007000Y019500
X007000Y019000
X007000Y018500
X007000Y018000
X007000Y017500
X007000Y017000
X007000Y016500
X007000Y016000
X007000Y015500
X007000Y015000
X007000Y014500
X007000Y014000
X007000Y013500
X007000Y013000
X007000Y012500
X007000Y012000
X007000Y011500
X007000Y011000
X007000Y010500
X007000Y010000
X007000Y009500
X007000Y009000
X007000Y008500
X007000Y008000
X007000Y007500
X007000Y007000
X007000Y006500
X007000Y006000
X007000Y005500
X007000Y005000
X007000Y004500
X007000Y004000
X007000Y003500
X007000Y003000
X007000Y002500
X007000Y002000
X007000Y001500
X007000Y001000
X007000Y000500
X008000Y022000
X008000Y021000
X008000Y020000
X008000Y018000
X008000Y017000
X008000Y016000
X008000Y015000
X008000Y014000
X008000Y013000
X008000Y012000
X008000Y011000
X008000Y010000
X008000Y009000
X008000Y008000
X008000Y007000
X008000Y006000
X008000Y005000
X008000Y004000
X008000Y003000
X008000Y002000
X008000Y001000
X009700Y011500
X012700Y017400
X013700Y011500
X018700Y022000
X018700Y021000
X018700Y020000
X018700Y019000
X018700Y018000
X018700Y017000
X018700Y016000
X018700Y015000
X018700Y014000
X018700Y013000
X018700Y006000
X018700Y005000
X018700Y002000
X018700Y001000
M30
