G04 start of page 12 for group -3984 idx -3984 *
G04 Title: PET_32k, fab *
G04 Creator: pcb 4.0.2 *
G04 CreationDate: Sat May  3 17:01:18 2025 UTC *
G04 For: ndv *
G04 Format: Gerber/RS-274X *
G04 PCB-Dimensions (mil): 820.00 2020.00 *
G04 PCB-Coordinate-Origin: lower left *
%MOIN*%
%FSLAX25Y25*%
%LNFAB*%
%ADD33C,0.0075*%
%ADD32C,0.0060*%
%ADD31C,0.0080*%
%ADD30C,0.0100*%
G54D30*X0Y202000D02*Y0D01*
Y202000D02*X82000D01*
X0Y0D02*X82000D01*
Y202000D02*Y0D01*
G54D31*X6000Y196000D02*Y194400D01*
Y196000D02*X7387Y196800D01*
X6000Y196000D02*X4613Y196800D01*
X6000Y186000D02*Y184400D01*
Y186000D02*X7387Y186800D01*
X6000Y186000D02*X4613Y186800D01*
X6000Y176000D02*Y174400D01*
Y176000D02*X7387Y176800D01*
X6000Y176000D02*X4613Y176800D01*
X6000Y166000D02*Y164400D01*
Y166000D02*X7387Y166800D01*
X6000Y166000D02*X4613Y166800D01*
X6000Y156000D02*Y154400D01*
Y156000D02*X7387Y156800D01*
X6000Y156000D02*X4613Y156800D01*
X6000Y146000D02*Y144400D01*
Y146000D02*X7387Y146800D01*
X6000Y146000D02*X4613Y146800D01*
X6000Y136000D02*Y134400D01*
Y136000D02*X7387Y136800D01*
X6000Y136000D02*X4613Y136800D01*
X6000Y126000D02*Y124400D01*
Y126000D02*X7387Y126800D01*
X6000Y126000D02*X4613Y126800D01*
X6000Y116000D02*Y114400D01*
Y116000D02*X7387Y116800D01*
X6000Y116000D02*X4613Y116800D01*
X6000Y106000D02*Y104400D01*
Y106000D02*X7387Y106800D01*
X6000Y106000D02*X4613Y106800D01*
X6000Y96000D02*Y94400D01*
Y96000D02*X7387Y96800D01*
X6000Y96000D02*X4613Y96800D01*
X6000Y86000D02*Y84400D01*
Y86000D02*X7387Y86800D01*
X6000Y86000D02*X4613Y86800D01*
X6000Y76000D02*Y74400D01*
Y76000D02*X7387Y76800D01*
X6000Y76000D02*X4613Y76800D01*
X6000Y66000D02*Y64400D01*
Y66000D02*X7387Y66800D01*
X6000Y66000D02*X4613Y66800D01*
X6000Y56000D02*Y54400D01*
Y56000D02*X7387Y56800D01*
X6000Y56000D02*X4613Y56800D01*
X6000Y46000D02*Y44400D01*
Y46000D02*X7387Y46800D01*
X6000Y46000D02*X4613Y46800D01*
X6000Y36000D02*Y34400D01*
Y36000D02*X7387Y36800D01*
X6000Y36000D02*X4613Y36800D01*
X6000Y26000D02*Y24400D01*
Y26000D02*X7387Y26800D01*
X6000Y26000D02*X4613Y26800D01*
X6000Y16000D02*Y14400D01*
Y16000D02*X7387Y16800D01*
X6000Y16000D02*X4613Y16800D01*
X6000Y6000D02*Y4400D01*
Y6000D02*X7387Y6800D01*
X6000Y6000D02*X4613Y6800D01*
X66000Y6000D02*Y4400D01*
Y6000D02*X67387Y6800D01*
X66000Y6000D02*X64613Y6800D01*
X66000Y16000D02*Y14400D01*
Y16000D02*X67387Y16800D01*
X66000Y16000D02*X64613Y16800D01*
X66000Y26000D02*Y24400D01*
Y26000D02*X67387Y26800D01*
X66000Y26000D02*X64613Y26800D01*
X66000Y36000D02*Y34400D01*
Y36000D02*X67387Y36800D01*
X66000Y36000D02*X64613Y36800D01*
X66000Y46000D02*Y44400D01*
Y46000D02*X67387Y46800D01*
X66000Y46000D02*X64613Y46800D01*
X66000Y56000D02*Y54400D01*
Y56000D02*X67387Y56800D01*
X66000Y56000D02*X64613Y56800D01*
X66000Y66000D02*Y64400D01*
Y66000D02*X67387Y66800D01*
X66000Y66000D02*X64613Y66800D01*
X66000Y76000D02*Y74400D01*
Y76000D02*X67387Y76800D01*
X66000Y76000D02*X64613Y76800D01*
X66000Y86000D02*Y84400D01*
Y86000D02*X67387Y86800D01*
X66000Y86000D02*X64613Y86800D01*
X66000Y96000D02*Y94400D01*
Y96000D02*X67387Y96800D01*
X66000Y96000D02*X64613Y96800D01*
X66000Y106000D02*Y104400D01*
Y106000D02*X67387Y106800D01*
X66000Y106000D02*X64613Y106800D01*
X66000Y116000D02*Y114400D01*
Y116000D02*X67387Y116800D01*
X66000Y116000D02*X64613Y116800D01*
X66000Y126000D02*Y124400D01*
Y126000D02*X67387Y126800D01*
X66000Y126000D02*X64613Y126800D01*
X66000Y136000D02*Y134400D01*
Y136000D02*X67387Y136800D01*
X66000Y136000D02*X64613Y136800D01*
X66000Y146000D02*Y144400D01*
Y146000D02*X67387Y146800D01*
X66000Y146000D02*X64613Y146800D01*
X66000Y156000D02*Y154400D01*
Y156000D02*X67387Y156800D01*
X66000Y156000D02*X64613Y156800D01*
X66000Y166000D02*Y164400D01*
Y166000D02*X67387Y166800D01*
X66000Y166000D02*X64613Y166800D01*
X66000Y176000D02*Y174400D01*
Y176000D02*X67387Y176800D01*
X66000Y176000D02*X64613Y176800D01*
X66000Y186000D02*Y184400D01*
Y186000D02*X67387Y186800D01*
X66000Y186000D02*X64613Y186800D01*
X66000Y196000D02*Y194400D01*
Y196000D02*X67387Y196800D01*
X66000Y196000D02*X64613Y196800D01*
X16000Y196000D02*Y194400D01*
Y196000D02*X17387Y196800D01*
X16000Y196000D02*X14613Y196800D01*
X16000Y186000D02*Y184400D01*
Y186000D02*X17387Y186800D01*
X16000Y186000D02*X14613Y186800D01*
X16000Y176000D02*Y174400D01*
Y176000D02*X17387Y176800D01*
X16000Y176000D02*X14613Y176800D01*
X16000Y166000D02*Y164400D01*
Y166000D02*X17387Y166800D01*
X16000Y166000D02*X14613Y166800D01*
X16000Y156000D02*Y154400D01*
Y156000D02*X17387Y156800D01*
X16000Y156000D02*X14613Y156800D01*
X16000Y146000D02*Y144400D01*
Y146000D02*X17387Y146800D01*
X16000Y146000D02*X14613Y146800D01*
X16000Y136000D02*Y134400D01*
Y136000D02*X17387Y136800D01*
X16000Y136000D02*X14613Y136800D01*
X16000Y126000D02*Y124400D01*
Y126000D02*X17387Y126800D01*
X16000Y126000D02*X14613Y126800D01*
X16000Y116000D02*Y114400D01*
Y116000D02*X17387Y116800D01*
X16000Y116000D02*X14613Y116800D01*
X16000Y106000D02*Y104400D01*
Y106000D02*X17387Y106800D01*
X16000Y106000D02*X14613Y106800D01*
X16000Y96000D02*Y94400D01*
Y96000D02*X17387Y96800D01*
X16000Y96000D02*X14613Y96800D01*
X16000Y86000D02*Y84400D01*
Y86000D02*X17387Y86800D01*
X16000Y86000D02*X14613Y86800D01*
X16000Y76000D02*Y74400D01*
Y76000D02*X17387Y76800D01*
X16000Y76000D02*X14613Y76800D01*
X16000Y66000D02*Y64400D01*
Y66000D02*X17387Y66800D01*
X16000Y66000D02*X14613Y66800D01*
X16000Y56000D02*Y54400D01*
Y56000D02*X17387Y56800D01*
X16000Y56000D02*X14613Y56800D01*
X16000Y46000D02*Y44400D01*
Y46000D02*X17387Y46800D01*
X16000Y46000D02*X14613Y46800D01*
X16000Y36000D02*Y34400D01*
Y36000D02*X17387Y36800D01*
X16000Y36000D02*X14613Y36800D01*
X16000Y26000D02*Y24400D01*
Y26000D02*X17387Y26800D01*
X16000Y26000D02*X14613Y26800D01*
X16000Y16000D02*Y14400D01*
Y16000D02*X17387Y16800D01*
X16000Y16000D02*X14613Y16800D01*
X16000Y6000D02*Y4400D01*
Y6000D02*X17387Y6800D01*
X16000Y6000D02*X14613Y6800D01*
X76000Y6000D02*Y4400D01*
Y6000D02*X77387Y6800D01*
X76000Y6000D02*X74613Y6800D01*
X76000Y16000D02*Y14400D01*
Y16000D02*X77387Y16800D01*
X76000Y16000D02*X74613Y16800D01*
X76000Y26000D02*Y24400D01*
Y26000D02*X77387Y26800D01*
X76000Y26000D02*X74613Y26800D01*
X76000Y36000D02*Y34400D01*
Y36000D02*X77387Y36800D01*
X76000Y36000D02*X74613Y36800D01*
X76000Y46000D02*Y44400D01*
Y46000D02*X77387Y46800D01*
X76000Y46000D02*X74613Y46800D01*
X76000Y56000D02*Y54400D01*
Y56000D02*X77387Y56800D01*
X76000Y56000D02*X74613Y56800D01*
X76000Y66000D02*Y64400D01*
Y66000D02*X77387Y66800D01*
X76000Y66000D02*X74613Y66800D01*
X76000Y76000D02*Y74400D01*
Y76000D02*X77387Y76800D01*
X76000Y76000D02*X74613Y76800D01*
X76000Y86000D02*Y84400D01*
Y86000D02*X77387Y86800D01*
X76000Y86000D02*X74613Y86800D01*
X76000Y96000D02*Y94400D01*
Y96000D02*X77387Y96800D01*
X76000Y96000D02*X74613Y96800D01*
X76000Y106000D02*Y104400D01*
Y106000D02*X77387Y106800D01*
X76000Y106000D02*X74613Y106800D01*
X76000Y116000D02*Y114400D01*
Y116000D02*X77387Y116800D01*
X76000Y116000D02*X74613Y116800D01*
X76000Y126000D02*Y124400D01*
Y126000D02*X77387Y126800D01*
X76000Y126000D02*X74613Y126800D01*
X76000Y136000D02*Y134400D01*
Y136000D02*X77387Y136800D01*
X76000Y136000D02*X74613Y136800D01*
X76000Y146000D02*Y144400D01*
Y146000D02*X77387Y146800D01*
X76000Y146000D02*X74613Y146800D01*
X76000Y156000D02*Y154400D01*
Y156000D02*X77387Y156800D01*
X76000Y156000D02*X74613Y156800D01*
X76000Y166000D02*Y164400D01*
Y166000D02*X77387Y166800D01*
X76000Y166000D02*X74613Y166800D01*
X76000Y176000D02*Y174400D01*
Y176000D02*X77387Y176800D01*
X76000Y176000D02*X74613Y176800D01*
X76000Y186000D02*Y184400D01*
Y186000D02*X77387Y186800D01*
X76000Y186000D02*X74613Y186800D01*
X76000Y196000D02*Y194400D01*
Y196000D02*X77387Y196800D01*
X76000Y196000D02*X74613Y196800D01*
X15000Y258250D02*Y256650D01*
Y258250D02*X16387Y259050D01*
X15000Y258250D02*X13613Y259050D01*
G54D32*X135000Y260500D02*X136500Y257500D01*
X138000Y260500D01*
X136500Y257500D02*Y254500D01*
X139800Y257800D02*X142050D01*
X139800Y254500D02*X142800D01*
X139800Y260500D02*Y254500D01*
Y260500D02*X142800D01*
X147600D02*X148350Y259750D01*
X145350Y260500D02*X147600D01*
X144600Y259750D02*X145350Y260500D01*
X144600Y259750D02*Y258250D01*
X145350Y257500D01*
X147600D01*
X148350Y256750D01*
Y255250D01*
X147600Y254500D02*X148350Y255250D01*
X145350Y254500D02*X147600D01*
X144600Y255250D02*X145350Y254500D01*
X98000Y255250D02*X98750Y254500D01*
X98000Y256450D02*Y255250D01*
Y256450D02*X99050Y257500D01*
X99950D01*
X101000Y256450D01*
Y255250D01*
X100250Y254500D02*X101000Y255250D01*
X98750Y254500D02*X100250D01*
X98000Y258550D02*X99050Y257500D01*
X98000Y259750D02*Y258550D01*
Y259750D02*X98750Y260500D01*
X100250D01*
X101000Y259750D01*
Y258550D01*
X99950Y257500D02*X101000Y258550D01*
X102800Y255250D02*X103550Y254500D01*
X102800Y259750D02*Y255250D01*
Y259750D02*X103550Y260500D01*
X105050D01*
X105800Y259750D01*
Y255250D01*
X105050Y254500D02*X105800Y255250D01*
X103550Y254500D02*X105050D01*
X102800Y256000D02*X105800Y259000D01*
X45000Y255250D02*X45750Y254500D01*
X45000Y259750D02*Y255250D01*
Y259750D02*X45750Y260500D01*
X47250D01*
X48000Y259750D01*
Y255250D01*
X47250Y254500D02*X48000Y255250D01*
X45750Y254500D02*X47250D01*
X45000Y256000D02*X48000Y259000D01*
X49800Y254500D02*X50550D01*
X52350Y255250D02*X53100Y254500D01*
X52350Y259750D02*Y255250D01*
Y259750D02*X53100Y260500D01*
X54600D01*
X55350Y259750D01*
Y255250D01*
X54600Y254500D02*X55350Y255250D01*
X53100Y254500D02*X54600D01*
X52350Y256000D02*X55350Y259000D01*
X57150Y259750D02*X57900Y260500D01*
X60150D01*
X60900Y259750D01*
Y258250D01*
X57150Y254500D02*X60900Y258250D01*
X57150Y254500D02*X60900D01*
X62700Y255250D02*X63450Y254500D01*
X62700Y256450D02*Y255250D01*
Y256450D02*X63750Y257500D01*
X64650D01*
X65700Y256450D01*
Y255250D01*
X64950Y254500D02*X65700Y255250D01*
X63450Y254500D02*X64950D01*
X62700Y258550D02*X63750Y257500D01*
X62700Y259750D02*Y258550D01*
Y259750D02*X63450Y260500D01*
X64950D01*
X65700Y259750D01*
Y258550D01*
X64650Y257500D02*X65700Y258550D01*
X3000Y275500D02*X3750Y274750D01*
X750Y275500D02*X3000D01*
X0Y274750D02*X750Y275500D01*
X0Y274750D02*Y273250D01*
X750Y272500D01*
X3000D01*
X3750Y271750D01*
Y270250D01*
X3000Y269500D02*X3750Y270250D01*
X750Y269500D02*X3000D01*
X0Y270250D02*X750Y269500D01*
X5550Y272500D02*Y270250D01*
X6300Y269500D01*
X8550Y272500D02*Y268000D01*
X7800Y267250D02*X8550Y268000D01*
X6300Y267250D02*X7800D01*
X5550Y268000D02*X6300Y267250D01*
Y269500D02*X7800D01*
X8550Y270250D01*
X11100Y271750D02*Y269500D01*
Y271750D02*X11850Y272500D01*
X12600D01*
X13350Y271750D01*
Y269500D01*
Y271750D02*X14100Y272500D01*
X14850D01*
X15600Y271750D01*
Y269500D01*
X10350Y272500D02*X11100Y271750D01*
X17400Y275500D02*Y269500D01*
Y270250D02*X18150Y269500D01*
X19650D01*
X20400Y270250D01*
Y271750D02*Y270250D01*
X19650Y272500D02*X20400Y271750D01*
X18150Y272500D02*X19650D01*
X17400Y271750D02*X18150Y272500D01*
X22200Y271750D02*Y270250D01*
Y271750D02*X22950Y272500D01*
X24450D01*
X25200Y271750D01*
Y270250D01*
X24450Y269500D02*X25200Y270250D01*
X22950Y269500D02*X24450D01*
X22200Y270250D02*X22950Y269500D01*
X27000Y275500D02*Y270250D01*
X27750Y269500D01*
X0Y266250D02*X29250D01*
X41750Y275500D02*Y269500D01*
X43700Y275500D02*X44750Y274450D01*
Y270550D01*
X43700Y269500D02*X44750Y270550D01*
X41000Y269500D02*X43700D01*
X41000Y275500D02*X43700D01*
G54D33*X46550Y274000D02*Y273850D01*
G54D32*Y271750D02*Y269500D01*
X50300Y272500D02*X51050Y271750D01*
X48800Y272500D02*X50300D01*
X48050Y271750D02*X48800Y272500D01*
X48050Y271750D02*Y270250D01*
X48800Y269500D01*
X51050Y272500D02*Y270250D01*
X51800Y269500D01*
X48800D02*X50300D01*
X51050Y270250D01*
X54350Y271750D02*Y269500D01*
Y271750D02*X55100Y272500D01*
X55850D01*
X56600Y271750D01*
Y269500D01*
Y271750D02*X57350Y272500D01*
X58100D01*
X58850Y271750D01*
Y269500D01*
X53600Y272500D02*X54350Y271750D01*
X60650Y269500D02*X61400D01*
X65900Y270250D02*X66650Y269500D01*
X65900Y274750D02*X66650Y275500D01*
X65900Y274750D02*Y270250D01*
X68450Y275500D02*X69950D01*
X69200D02*Y269500D01*
X68450D02*X69950D01*
X72500Y271750D02*Y269500D01*
Y271750D02*X73250Y272500D01*
X74000D01*
X74750Y271750D01*
Y269500D01*
X71750Y272500D02*X72500Y271750D01*
X77300Y272500D02*X79550D01*
X76550Y271750D02*X77300Y272500D01*
X76550Y271750D02*Y270250D01*
X77300Y269500D01*
X79550D01*
X81350Y275500D02*Y269500D01*
Y271750D02*X82100Y272500D01*
X83600D01*
X84350Y271750D01*
Y269500D01*
X86150Y275500D02*X86900Y274750D01*
Y270250D01*
X86150Y269500D02*X86900Y270250D01*
X41000Y266250D02*X88700D01*
X96050Y269500D02*X98000D01*
X95000Y270550D02*X96050Y269500D01*
X95000Y274450D02*Y270550D01*
Y274450D02*X96050Y275500D01*
X98000D01*
X99800Y271750D02*Y270250D01*
Y271750D02*X100550Y272500D01*
X102050D01*
X102800Y271750D01*
Y270250D01*
X102050Y269500D02*X102800Y270250D01*
X100550Y269500D02*X102050D01*
X99800Y270250D02*X100550Y269500D01*
X104600Y272500D02*Y270250D01*
X105350Y269500D01*
X106850D01*
X107600Y270250D01*
Y272500D02*Y270250D01*
X110150Y271750D02*Y269500D01*
Y271750D02*X110900Y272500D01*
X111650D01*
X112400Y271750D01*
Y269500D01*
X109400Y272500D02*X110150Y271750D01*
X114950Y275500D02*Y270250D01*
X115700Y269500D01*
X114200Y273250D02*X115700D01*
X95000Y266250D02*X117200D01*
X130750Y275500D02*Y269500D01*
X130000Y275500D02*X133000D01*
X133750Y274750D01*
Y273250D01*
X133000Y272500D02*X133750Y273250D01*
X130750Y272500D02*X133000D01*
X135550Y275500D02*Y270250D01*
X136300Y269500D01*
X140050Y272500D02*X140800Y271750D01*
X138550Y272500D02*X140050D01*
X137800Y271750D02*X138550Y272500D01*
X137800Y271750D02*Y270250D01*
X138550Y269500D01*
X140800Y272500D02*Y270250D01*
X141550Y269500D01*
X138550D02*X140050D01*
X140800Y270250D01*
X144100Y275500D02*Y270250D01*
X144850Y269500D01*
X143350Y273250D02*X144850D01*
X147100Y269500D02*X149350D01*
X146350Y270250D02*X147100Y269500D01*
X146350Y271750D02*Y270250D01*
Y271750D02*X147100Y272500D01*
X148600D01*
X149350Y271750D01*
X146350Y271000D02*X149350D01*
Y271750D02*Y271000D01*
X154150Y275500D02*Y269500D01*
X153400D02*X154150Y270250D01*
X151900Y269500D02*X153400D01*
X151150Y270250D02*X151900Y269500D01*
X151150Y271750D02*Y270250D01*
Y271750D02*X151900Y272500D01*
X153400D01*
X154150Y271750D01*
X157450Y272500D02*Y271750D01*
Y270250D02*Y269500D01*
X155950Y274750D02*Y274000D01*
Y274750D02*X156700Y275500D01*
X158200D01*
X158950Y274750D01*
Y274000D01*
X157450Y272500D02*X158950Y274000D01*
X130000Y266250D02*X160750D01*
X0Y290500D02*X3000D01*
X1500D02*Y284500D01*
X4800Y290500D02*Y284500D01*
Y286750D02*X5550Y287500D01*
X7050D01*
X7800Y286750D01*
Y284500D01*
X10350D02*X12600D01*
X9600Y285250D02*X10350Y284500D01*
X9600Y286750D02*Y285250D01*
Y286750D02*X10350Y287500D01*
X11850D01*
X12600Y286750D01*
X9600Y286000D02*X12600D01*
Y286750D02*Y286000D01*
X15150Y286750D02*Y284500D01*
Y286750D02*X15900Y287500D01*
X17400D01*
X14400D02*X15150Y286750D01*
X19950Y284500D02*X22200D01*
X19200Y285250D02*X19950Y284500D01*
X19200Y286750D02*Y285250D01*
Y286750D02*X19950Y287500D01*
X21450D01*
X22200Y286750D01*
X19200Y286000D02*X22200D01*
Y286750D02*Y286000D01*
X28950Y287500D02*X29700Y286750D01*
X27450Y287500D02*X28950D01*
X26700Y286750D02*X27450Y287500D01*
X26700Y286750D02*Y285250D01*
X27450Y284500D01*
X29700Y287500D02*Y285250D01*
X30450Y284500D01*
X27450D02*X28950D01*
X29700Y285250D01*
X33000Y286750D02*Y284500D01*
Y286750D02*X33750Y287500D01*
X35250D01*
X32250D02*X33000Y286750D01*
X37800Y284500D02*X40050D01*
X37050Y285250D02*X37800Y284500D01*
X37050Y286750D02*Y285250D01*
Y286750D02*X37800Y287500D01*
X39300D01*
X40050Y286750D01*
X37050Y286000D02*X40050D01*
Y286750D02*Y286000D01*
X44550Y289300D02*X45750Y290500D01*
Y284500D01*
X44550D02*X46800D01*
X54300Y290500D02*Y284500D01*
X53550D02*X54300Y285250D01*
X52050Y284500D02*X53550D01*
X51300Y285250D02*X52050Y284500D01*
X51300Y286750D02*Y285250D01*
Y286750D02*X52050Y287500D01*
X53550D01*
X54300Y286750D01*
G54D33*X56100Y289000D02*Y288850D01*
G54D32*Y286750D02*Y284500D01*
X58350Y289750D02*Y284500D01*
Y289750D02*X59100Y290500D01*
X59850D01*
X57600Y287500D02*X59100D01*
X62100Y289750D02*Y284500D01*
Y289750D02*X62850Y290500D01*
X63600D01*
X61350Y287500D02*X62850D01*
X65850Y284500D02*X68100D01*
X65100Y285250D02*X65850Y284500D01*
X65100Y286750D02*Y285250D01*
Y286750D02*X65850Y287500D01*
X67350D01*
X68100Y286750D01*
X65100Y286000D02*X68100D01*
Y286750D02*Y286000D01*
X70650Y286750D02*Y284500D01*
Y286750D02*X71400Y287500D01*
X72900D01*
X69900D02*X70650Y286750D01*
X75450Y284500D02*X77700D01*
X74700Y285250D02*X75450Y284500D01*
X74700Y286750D02*Y285250D01*
Y286750D02*X75450Y287500D01*
X76950D01*
X77700Y286750D01*
X74700Y286000D02*X77700D01*
Y286750D02*Y286000D01*
X80250Y286750D02*Y284500D01*
Y286750D02*X81000Y287500D01*
X81750D01*
X82500Y286750D01*
Y284500D01*
X79500Y287500D02*X80250Y286750D01*
X85050Y290500D02*Y285250D01*
X85800Y284500D01*
X84300Y288250D02*X85800D01*
X93000Y290500D02*Y284500D01*
X92250D02*X93000Y285250D01*
X90750Y284500D02*X92250D01*
X90000Y285250D02*X90750Y284500D01*
X90000Y286750D02*Y285250D01*
Y286750D02*X90750Y287500D01*
X92250D01*
X93000Y286750D01*
X95550D02*Y284500D01*
Y286750D02*X96300Y287500D01*
X97800D01*
X94800D02*X95550Y286750D01*
G54D33*X99600Y289000D02*Y288850D01*
G54D32*Y286750D02*Y284500D01*
X101100Y290500D02*Y285250D01*
X101850Y284500D01*
X103350Y290500D02*Y285250D01*
X104100Y284500D01*
X109050D02*X111300D01*
X112050Y285250D01*
X111300Y286000D02*X112050Y285250D01*
X109050Y286000D02*X111300D01*
X108300Y286750D02*X109050Y286000D01*
X108300Y286750D02*X109050Y287500D01*
X111300D01*
X112050Y286750D01*
X108300Y285250D02*X109050Y284500D01*
G54D33*X113850Y289000D02*Y288850D01*
G54D32*Y286750D02*Y284500D01*
X115350Y287500D02*X118350D01*
X115350Y284500D02*X118350Y287500D01*
X115350Y284500D02*X118350D01*
X120900D02*X123150D01*
X120150Y285250D02*X120900Y284500D01*
X120150Y286750D02*Y285250D01*
Y286750D02*X120900Y287500D01*
X122400D01*
X123150Y286750D01*
X120150Y286000D02*X123150D01*
Y286750D02*Y286000D01*
X125700Y284500D02*X127950D01*
X128700Y285250D01*
X127950Y286000D02*X128700Y285250D01*
X125700Y286000D02*X127950D01*
X124950Y286750D02*X125700Y286000D01*
X124950Y286750D02*X125700Y287500D01*
X127950D01*
X128700Y286750D01*
X124950Y285250D02*X125700Y284500D01*
X133200Y287500D02*Y285250D01*
X133950Y284500D01*
X135450D01*
X136200Y285250D01*
Y287500D02*Y285250D01*
X138750Y284500D02*X141000D01*
X141750Y285250D01*
X141000Y286000D02*X141750Y285250D01*
X138750Y286000D02*X141000D01*
X138000Y286750D02*X138750Y286000D01*
X138000Y286750D02*X138750Y287500D01*
X141000D01*
X141750Y286750D01*
X138000Y285250D02*X138750Y284500D01*
X144300D02*X146550D01*
X143550Y285250D02*X144300Y284500D01*
X143550Y286750D02*Y285250D01*
Y286750D02*X144300Y287500D01*
X145800D01*
X146550Y286750D01*
X143550Y286000D02*X146550D01*
Y286750D02*Y286000D01*
X151350Y290500D02*Y284500D01*
X150600D02*X151350Y285250D01*
X149100Y284500D02*X150600D01*
X148350Y285250D02*X149100Y284500D01*
X148350Y286750D02*Y285250D01*
Y286750D02*X149100Y287500D01*
X150600D01*
X151350Y286750D01*
G54D33*X155850Y289000D02*Y288850D01*
G54D32*Y286750D02*Y284500D01*
X158100Y286750D02*Y284500D01*
Y286750D02*X158850Y287500D01*
X159600D01*
X160350Y286750D01*
Y284500D01*
X157350Y287500D02*X158100Y286750D01*
X165600Y290500D02*Y285250D01*
X166350Y284500D01*
X164850Y288250D02*X166350D01*
X167850Y290500D02*Y284500D01*
Y286750D02*X168600Y287500D01*
X170100D01*
X170850Y286750D01*
Y284500D01*
G54D33*X172650Y289000D02*Y288850D01*
G54D32*Y286750D02*Y284500D01*
X174900D02*X177150D01*
X177900Y285250D01*
X177150Y286000D02*X177900Y285250D01*
X174900Y286000D02*X177150D01*
X174150Y286750D02*X174900Y286000D01*
X174150Y286750D02*X174900Y287500D01*
X177150D01*
X177900Y286750D01*
X174150Y285250D02*X174900Y284500D01*
X182400Y290500D02*Y285250D01*
X183150Y284500D01*
X186900Y287500D02*X187650Y286750D01*
X185400Y287500D02*X186900D01*
X184650Y286750D02*X185400Y287500D01*
X184650Y286750D02*Y285250D01*
X185400Y284500D01*
X187650Y287500D02*Y285250D01*
X188400Y284500D01*
X185400D02*X186900D01*
X187650Y285250D01*
X190200Y287500D02*Y285250D01*
X190950Y284500D01*
X193200Y287500D02*Y283000D01*
X192450Y282250D02*X193200Y283000D01*
X190950Y282250D02*X192450D01*
X190200Y283000D02*X190950Y282250D01*
Y284500D02*X192450D01*
X193200Y285250D01*
X195000Y286750D02*Y285250D01*
Y286750D02*X195750Y287500D01*
X197250D01*
X198000Y286750D01*
Y285250D01*
X197250Y284500D02*X198000Y285250D01*
X195750Y284500D02*X197250D01*
X195000Y285250D02*X195750Y284500D01*
X199800Y287500D02*Y285250D01*
X200550Y284500D01*
X202050D01*
X202800Y285250D01*
Y287500D02*Y285250D01*
X205350Y290500D02*Y285250D01*
X206100Y284500D01*
X204600Y288250D02*X206100D01*
X207600Y283000D02*X209100Y284500D01*
X213600Y285250D02*X214350Y284500D01*
X213600Y286450D02*Y285250D01*
Y286450D02*X214650Y287500D01*
X215550D01*
X216600Y286450D01*
Y285250D01*
X215850Y284500D02*X216600Y285250D01*
X214350Y284500D02*X215850D01*
X213600Y288550D02*X214650Y287500D01*
X213600Y289750D02*Y288550D01*
Y289750D02*X214350Y290500D01*
X215850D01*
X216600Y289750D01*
Y288550D01*
X215550Y287500D02*X216600Y288550D01*
X218400Y285250D02*X219150Y284500D01*
X218400Y289750D02*Y285250D01*
Y289750D02*X219150Y290500D01*
X220650D01*
X221400Y289750D01*
Y285250D01*
X220650Y284500D02*X221400Y285250D01*
X219150Y284500D02*X220650D01*
X218400Y286000D02*X221400Y289000D01*
X225900Y290500D02*Y284500D01*
Y286750D02*X226650Y287500D01*
X228150D01*
X228900Y286750D01*
Y284500D01*
X230700Y286750D02*Y285250D01*
Y286750D02*X231450Y287500D01*
X232950D01*
X233700Y286750D01*
Y285250D01*
X232950Y284500D02*X233700Y285250D01*
X231450Y284500D02*X232950D01*
X230700Y285250D02*X231450Y284500D01*
X235500Y290500D02*Y285250D01*
X236250Y284500D01*
X238500D02*X240750D01*
X237750Y285250D02*X238500Y284500D01*
X237750Y286750D02*Y285250D01*
Y286750D02*X238500Y287500D01*
X240000D01*
X240750Y286750D01*
X237750Y286000D02*X240750D01*
Y286750D02*Y286000D01*
X243300Y284500D02*X245550D01*
X246300Y285250D01*
X245550Y286000D02*X246300Y285250D01*
X243300Y286000D02*X245550D01*
X242550Y286750D02*X243300Y286000D01*
X242550Y286750D02*X243300Y287500D01*
X245550D01*
X246300Y286750D01*
X242550Y285250D02*X243300Y284500D01*
X251550Y290500D02*Y285250D01*
X252300Y284500D01*
X250800Y288250D02*X252300D01*
X253800Y286750D02*Y285250D01*
Y286750D02*X254550Y287500D01*
X256050D01*
X256800Y286750D01*
Y285250D01*
X256050Y284500D02*X256800Y285250D01*
X254550Y284500D02*X256050D01*
X253800Y285250D02*X254550Y284500D01*
X259350Y290500D02*Y285250D01*
X260100Y284500D01*
X258600Y288250D02*X260100D01*
X263850Y287500D02*X264600Y286750D01*
X262350Y287500D02*X263850D01*
X261600Y286750D02*X262350Y287500D01*
X261600Y286750D02*Y285250D01*
X262350Y284500D01*
X264600Y287500D02*Y285250D01*
X265350Y284500D01*
X262350D02*X263850D01*
X264600Y285250D01*
X267150Y290500D02*Y285250D01*
X267900Y284500D01*
G54D30*X0Y202000D02*X82000D01*
X0D02*Y0D01*
X82000Y202000D02*Y0D01*
X0D02*X82000D01*
G54D32*X200000Y215500D02*Y209500D01*
Y215500D02*X202250Y212500D01*
X204500Y215500D01*
Y209500D01*
X208550Y212500D02*X209300Y211750D01*
X207050Y212500D02*X208550D01*
X206300Y211750D02*X207050Y212500D01*
X206300Y211750D02*Y210250D01*
X207050Y209500D01*
X209300Y212500D02*Y210250D01*
X210050Y209500D01*
X207050D02*X208550D01*
X209300Y210250D01*
X211850Y212500D02*X214850Y209500D01*
X211850D02*X214850Y212500D01*
G54D33*X216650Y214000D02*Y213850D01*
G54D32*Y211750D02*Y209500D01*
X218900Y211750D02*Y209500D01*
Y211750D02*X219650Y212500D01*
X220400D01*
X221150Y211750D01*
Y209500D01*
Y211750D02*X221900Y212500D01*
X222650D01*
X223400Y211750D01*
Y209500D01*
X218150Y212500D02*X218900Y211750D01*
X225200Y212500D02*Y210250D01*
X225950Y209500D01*
X227450D01*
X228200Y210250D01*
Y212500D02*Y210250D01*
X230750Y211750D02*Y209500D01*
Y211750D02*X231500Y212500D01*
X232250D01*
X233000Y211750D01*
Y209500D01*
Y211750D02*X233750Y212500D01*
X234500D01*
X235250Y211750D01*
Y209500D01*
X230000Y212500D02*X230750Y211750D01*
X240500Y215500D02*Y209500D01*
X242450Y215500D02*X243500Y214450D01*
Y210550D01*
X242450Y209500D02*X243500Y210550D01*
X239750Y209500D02*X242450D01*
X239750Y215500D02*X242450D01*
G54D33*X245300Y214000D02*Y213850D01*
G54D32*Y211750D02*Y209500D01*
X247550Y211750D02*Y209500D01*
Y211750D02*X248300Y212500D01*
X249050D01*
X249800Y211750D01*
Y209500D01*
Y211750D02*X250550Y212500D01*
X251300D01*
X252050Y211750D01*
Y209500D01*
X246800Y212500D02*X247550Y211750D01*
X254600Y209500D02*X256850D01*
X253850Y210250D02*X254600Y209500D01*
X253850Y211750D02*Y210250D01*
Y211750D02*X254600Y212500D01*
X256100D01*
X256850Y211750D01*
X253850Y211000D02*X256850D01*
Y211750D02*Y211000D01*
X259400Y211750D02*Y209500D01*
Y211750D02*X260150Y212500D01*
X260900D01*
X261650Y211750D01*
Y209500D01*
X258650Y212500D02*X259400Y211750D01*
X264200Y209500D02*X266450D01*
X267200Y210250D01*
X266450Y211000D02*X267200Y210250D01*
X264200Y211000D02*X266450D01*
X263450Y211750D02*X264200Y211000D01*
X263450Y211750D02*X264200Y212500D01*
X266450D01*
X267200Y211750D01*
X263450Y210250D02*X264200Y209500D01*
G54D33*X269000Y214000D02*Y213850D01*
G54D32*Y211750D02*Y209500D01*
X270500Y211750D02*Y210250D01*
Y211750D02*X271250Y212500D01*
X272750D01*
X273500Y211750D01*
Y210250D01*
X272750Y209500D02*X273500Y210250D01*
X271250Y209500D02*X272750D01*
X270500Y210250D02*X271250Y209500D01*
X276050Y211750D02*Y209500D01*
Y211750D02*X276800Y212500D01*
X277550D01*
X278300Y211750D01*
Y209500D01*
X275300Y212500D02*X276050Y211750D01*
X280850Y209500D02*X283100D01*
X283850Y210250D01*
X283100Y211000D02*X283850Y210250D01*
X280850Y211000D02*X283100D01*
X280100Y211750D02*X280850Y211000D01*
X280100Y211750D02*X280850Y212500D01*
X283100D01*
X283850Y211750D01*
X280100Y210250D02*X280850Y209500D01*
X285650Y213250D02*X286400D01*
X285650Y211750D02*X286400D01*
X290900Y210250D02*X291650Y209500D01*
X290900Y211450D02*Y210250D01*
Y211450D02*X291950Y212500D01*
X292850D01*
X293900Y211450D01*
Y210250D01*
X293150Y209500D02*X293900Y210250D01*
X291650Y209500D02*X293150D01*
X290900Y213550D02*X291950Y212500D01*
X290900Y214750D02*Y213550D01*
Y214750D02*X291650Y215500D01*
X293150D01*
X293900Y214750D01*
Y213550D01*
X292850Y212500D02*X293900Y213550D01*
X295700Y214750D02*X296450Y215500D01*
X298700D01*
X299450Y214750D01*
Y213250D01*
X295700Y209500D02*X299450Y213250D01*
X295700Y209500D02*X299450D01*
X301250Y210250D02*X302000Y209500D01*
X301250Y214750D02*Y210250D01*
Y214750D02*X302000Y215500D01*
X303500D01*
X304250Y214750D01*
Y210250D01*
X303500Y209500D02*X304250Y210250D01*
X302000Y209500D02*X303500D01*
X301250Y211000D02*X304250Y214000D01*
X306050Y209500D02*X306800D01*
X308600Y210250D02*X309350Y209500D01*
X308600Y214750D02*Y210250D01*
Y214750D02*X309350Y215500D01*
X310850D01*
X311600Y214750D01*
Y210250D01*
X310850Y209500D02*X311600Y210250D01*
X309350Y209500D02*X310850D01*
X308600Y211000D02*X311600Y214000D01*
X313400Y210250D02*X314150Y209500D01*
X313400Y214750D02*Y210250D01*
Y214750D02*X314150Y215500D01*
X315650D01*
X316400Y214750D01*
Y210250D01*
X315650Y209500D02*X316400Y210250D01*
X314150Y209500D02*X315650D01*
X313400Y211000D02*X316400Y214000D01*
X318200Y210250D02*X318950Y209500D01*
X318200Y214750D02*Y210250D01*
Y214750D02*X318950Y215500D01*
X320450D01*
X321200Y214750D01*
Y210250D01*
X320450Y209500D02*X321200Y210250D01*
X318950Y209500D02*X320450D01*
X318200Y211000D02*X321200Y214000D01*
X323000Y210250D02*X323750Y209500D01*
X323000Y214750D02*Y210250D01*
Y214750D02*X323750Y215500D01*
X325250D01*
X326000Y214750D01*
Y210250D01*
X325250Y209500D02*X326000Y210250D01*
X323750Y209500D02*X325250D01*
X323000Y211000D02*X326000Y214000D01*
X327800Y210250D02*X328550Y209500D01*
X327800Y214750D02*Y210250D01*
Y214750D02*X328550Y215500D01*
X330050D01*
X330800Y214750D01*
Y210250D01*
X330050Y209500D02*X330800Y210250D01*
X328550Y209500D02*X330050D01*
X327800Y211000D02*X330800Y214000D01*
X332600Y210250D02*X333350Y209500D01*
X332600Y214750D02*Y210250D01*
Y214750D02*X333350Y215500D01*
X334850D01*
X335600Y214750D01*
Y210250D01*
X334850Y209500D02*X335600Y210250D01*
X333350Y209500D02*X334850D01*
X332600Y211000D02*X335600Y214000D01*
X340850Y211750D02*Y209500D01*
Y211750D02*X341600Y212500D01*
X342350D01*
X343100Y211750D01*
Y209500D01*
Y211750D02*X343850Y212500D01*
X344600D01*
X345350Y211750D01*
Y209500D01*
X340100Y212500D02*X340850Y211750D01*
G54D33*X347150Y214000D02*Y213850D01*
G54D32*Y211750D02*Y209500D01*
X348650Y215500D02*Y210250D01*
X349400Y209500D01*
X351650D02*X353900D01*
X354650Y210250D01*
X353900Y211000D02*X354650Y210250D01*
X351650Y211000D02*X353900D01*
X350900Y211750D02*X351650Y211000D01*
X350900Y211750D02*X351650Y212500D01*
X353900D01*
X354650Y211750D01*
X350900Y210250D02*X351650Y209500D01*
X359150Y212500D02*Y210250D01*
X359900Y209500D01*
X360650D01*
X361400Y210250D01*
Y212500D02*Y210250D01*
X362150Y209500D01*
X362900D01*
X363650Y210250D01*
Y212500D02*Y210250D01*
G54D33*X365450Y214000D02*Y213850D01*
G54D32*Y211750D02*Y209500D01*
X369950Y215500D02*Y209500D01*
X369200D02*X369950Y210250D01*
X367700Y209500D02*X369200D01*
X366950Y210250D02*X367700Y209500D01*
X366950Y211750D02*Y210250D01*
Y211750D02*X367700Y212500D01*
X369200D01*
X369950Y211750D01*
X372500Y209500D02*X374750D01*
X371750Y210250D02*X372500Y209500D01*
X371750Y211750D02*Y210250D01*
Y211750D02*X372500Y212500D01*
X374000D01*
X374750Y211750D01*
X371750Y211000D02*X374750D01*
Y211750D02*Y211000D01*
X376550Y208000D02*X378050Y209500D01*
X382550Y214750D02*X383300Y215500D01*
X385550D01*
X386300Y214750D01*
Y213250D01*
X382550Y209500D02*X386300Y213250D01*
X382550Y209500D02*X386300D01*
X388100Y210250D02*X388850Y209500D01*
X388100Y214750D02*Y210250D01*
Y214750D02*X388850Y215500D01*
X390350D01*
X391100Y214750D01*
Y210250D01*
X390350Y209500D02*X391100Y210250D01*
X388850Y209500D02*X390350D01*
X388100Y211000D02*X391100Y214000D01*
X392900Y214750D02*X393650Y215500D01*
X395900D01*
X396650Y214750D01*
Y213250D01*
X392900Y209500D02*X396650Y213250D01*
X392900Y209500D02*X396650D01*
X398450Y210250D02*X399200Y209500D01*
X398450Y214750D02*Y210250D01*
Y214750D02*X399200Y215500D01*
X400700D01*
X401450Y214750D01*
Y210250D01*
X400700Y209500D02*X401450Y210250D01*
X399200Y209500D02*X400700D01*
X398450Y211000D02*X401450Y214000D01*
X403250Y209500D02*X404000D01*
X405800Y210250D02*X406550Y209500D01*
X405800Y214750D02*Y210250D01*
Y214750D02*X406550Y215500D01*
X408050D01*
X408800Y214750D01*
Y210250D01*
X408050Y209500D02*X408800Y210250D01*
X406550Y209500D02*X408050D01*
X405800Y211000D02*X408800Y214000D01*
X410600Y210250D02*X411350Y209500D01*
X410600Y214750D02*Y210250D01*
Y214750D02*X411350Y215500D01*
X412850D01*
X413600Y214750D01*
Y210250D01*
X412850Y209500D02*X413600Y210250D01*
X411350Y209500D02*X412850D01*
X410600Y211000D02*X413600Y214000D01*
X415400Y210250D02*X416150Y209500D01*
X415400Y214750D02*Y210250D01*
Y214750D02*X416150Y215500D01*
X417650D01*
X418400Y214750D01*
Y210250D01*
X417650Y209500D02*X418400Y210250D01*
X416150Y209500D02*X417650D01*
X415400Y211000D02*X418400Y214000D01*
X420200Y210250D02*X420950Y209500D01*
X420200Y214750D02*Y210250D01*
Y214750D02*X420950Y215500D01*
X422450D01*
X423200Y214750D01*
Y210250D01*
X422450Y209500D02*X423200Y210250D01*
X420950Y209500D02*X422450D01*
X420200Y211000D02*X423200Y214000D01*
X425000Y210250D02*X425750Y209500D01*
X425000Y214750D02*Y210250D01*
Y214750D02*X425750Y215500D01*
X427250D01*
X428000Y214750D01*
Y210250D01*
X427250Y209500D02*X428000Y210250D01*
X425750Y209500D02*X427250D01*
X425000Y211000D02*X428000Y214000D01*
X429800Y210250D02*X430550Y209500D01*
X429800Y214750D02*Y210250D01*
Y214750D02*X430550Y215500D01*
X432050D01*
X432800Y214750D01*
Y210250D01*
X432050Y209500D02*X432800Y210250D01*
X430550Y209500D02*X432050D01*
X429800Y211000D02*X432800Y214000D01*
X438050Y211750D02*Y209500D01*
Y211750D02*X438800Y212500D01*
X439550D01*
X440300Y211750D01*
Y209500D01*
Y211750D02*X441050Y212500D01*
X441800D01*
X442550Y211750D01*
Y209500D01*
X437300Y212500D02*X438050Y211750D01*
G54D33*X444350Y214000D02*Y213850D01*
G54D32*Y211750D02*Y209500D01*
X445850Y215500D02*Y210250D01*
X446600Y209500D01*
X448850D02*X451100D01*
X451850Y210250D01*
X451100Y211000D02*X451850Y210250D01*
X448850Y211000D02*X451100D01*
X448100Y211750D02*X448850Y211000D01*
X448100Y211750D02*X448850Y212500D01*
X451100D01*
X451850Y211750D01*
X448100Y210250D02*X448850Y209500D01*
X456350Y215500D02*Y209500D01*
Y211750D02*X457100Y212500D01*
X458600D01*
X459350Y211750D01*
Y209500D01*
G54D33*X461150Y214000D02*Y213850D01*
G54D32*Y211750D02*Y209500D01*
X464900Y212500D02*X465650Y211750D01*
X463400Y212500D02*X464900D01*
X462650Y211750D02*X463400Y212500D01*
X462650Y211750D02*Y210250D01*
X463400Y209500D01*
X464900D01*
X465650Y210250D01*
X462650Y208000D02*X463400Y207250D01*
X464900D01*
X465650Y208000D01*
Y212500D02*Y208000D01*
X467450Y215500D02*Y209500D01*
Y211750D02*X468200Y212500D01*
X469700D01*
X470450Y211750D01*
Y209500D01*
X0Y-9500D02*X3000D01*
X3750Y-8750D01*
Y-6950D02*Y-8750D01*
X3000Y-6200D02*X3750Y-6950D01*
X750Y-6200D02*X3000D01*
X750Y-3500D02*Y-9500D01*
X0Y-3500D02*X3000D01*
X3750Y-4250D01*
Y-5450D01*
X3000Y-6200D02*X3750Y-5450D01*
X5550Y-7250D02*Y-8750D01*
Y-7250D02*X6300Y-6500D01*
X7800D01*
X8550Y-7250D01*
Y-8750D01*
X7800Y-9500D02*X8550Y-8750D01*
X6300Y-9500D02*X7800D01*
X5550Y-8750D02*X6300Y-9500D01*
X12600Y-6500D02*X13350Y-7250D01*
X11100Y-6500D02*X12600D01*
X10350Y-7250D02*X11100Y-6500D01*
X10350Y-7250D02*Y-8750D01*
X11100Y-9500D01*
X13350Y-6500D02*Y-8750D01*
X14100Y-9500D01*
X11100D02*X12600D01*
X13350Y-8750D01*
X16650Y-7250D02*Y-9500D01*
Y-7250D02*X17400Y-6500D01*
X18900D01*
X15900D02*X16650Y-7250D01*
X23700Y-3500D02*Y-9500D01*
X22950D02*X23700Y-8750D01*
X21450Y-9500D02*X22950D01*
X20700Y-8750D02*X21450Y-9500D01*
X20700Y-7250D02*Y-8750D01*
Y-7250D02*X21450Y-6500D01*
X22950D01*
X23700Y-7250D01*
X28200D02*Y-8750D01*
Y-7250D02*X28950Y-6500D01*
X30450D01*
X31200Y-7250D01*
Y-8750D01*
X30450Y-9500D02*X31200Y-8750D01*
X28950Y-9500D02*X30450D01*
X28200Y-8750D02*X28950Y-9500D01*
X33000Y-6500D02*Y-8750D01*
X33750Y-9500D01*
X35250D01*
X36000Y-8750D01*
Y-6500D02*Y-8750D01*
X38550Y-3500D02*Y-8750D01*
X39300Y-9500D01*
X37800Y-5750D02*X39300D01*
X40800Y-3500D02*Y-8750D01*
X41550Y-9500D01*
G54D33*X43050Y-5000D02*Y-5150D01*
G54D32*Y-7250D02*Y-9500D01*
X45300Y-7250D02*Y-9500D01*
Y-7250D02*X46050Y-6500D01*
X46800D01*
X47550Y-7250D01*
Y-9500D01*
X44550Y-6500D02*X45300Y-7250D01*
X50100Y-9500D02*X52350D01*
X49350Y-8750D02*X50100Y-9500D01*
X49350Y-7250D02*Y-8750D01*
Y-7250D02*X50100Y-6500D01*
X51600D01*
X52350Y-7250D01*
X49350Y-8000D02*X52350D01*
Y-7250D02*Y-8000D01*
G54D33*X56850Y-5000D02*Y-5150D01*
G54D32*Y-7250D02*Y-9500D01*
X59100D02*X61350D01*
X62100Y-8750D01*
X61350Y-8000D02*X62100Y-8750D01*
X59100Y-8000D02*X61350D01*
X58350Y-7250D02*X59100Y-8000D01*
X58350Y-7250D02*X59100Y-6500D01*
X61350D01*
X62100Y-7250D01*
X58350Y-8750D02*X59100Y-9500D01*
X67350Y-3500D02*Y-8750D01*
X68100Y-9500D01*
X66600Y-5750D02*X68100D01*
X69600Y-3500D02*Y-9500D01*
Y-7250D02*X70350Y-6500D01*
X71850D01*
X72600Y-7250D01*
Y-9500D01*
X75150D02*X77400D01*
X74400Y-8750D02*X75150Y-9500D01*
X74400Y-7250D02*Y-8750D01*
Y-7250D02*X75150Y-6500D01*
X76650D01*
X77400Y-7250D01*
X74400Y-8000D02*X77400D01*
Y-7250D02*Y-8000D01*
X82650Y-6500D02*X84900D01*
X81900Y-7250D02*X82650Y-6500D01*
X81900Y-7250D02*Y-8750D01*
X82650Y-9500D01*
X84900D01*
X87450D02*X89700D01*
X86700Y-8750D02*X87450Y-9500D01*
X86700Y-7250D02*Y-8750D01*
Y-7250D02*X87450Y-6500D01*
X88950D01*
X89700Y-7250D01*
X86700Y-8000D02*X89700D01*
Y-7250D02*Y-8000D01*
X92250Y-7250D02*Y-9500D01*
Y-7250D02*X93000Y-6500D01*
X93750D01*
X94500Y-7250D01*
Y-9500D01*
X91500Y-6500D02*X92250Y-7250D01*
X97050Y-3500D02*Y-8750D01*
X97800Y-9500D01*
X96300Y-5750D02*X97800D01*
X100050Y-9500D02*X102300D01*
X99300Y-8750D02*X100050Y-9500D01*
X99300Y-7250D02*Y-8750D01*
Y-7250D02*X100050Y-6500D01*
X101550D01*
X102300Y-7250D01*
X99300Y-8000D02*X102300D01*
Y-7250D02*Y-8000D01*
X104850Y-7250D02*Y-9500D01*
Y-7250D02*X105600Y-6500D01*
X107100D01*
X104100D02*X104850Y-7250D01*
X108900Y-3500D02*Y-8750D01*
X109650Y-9500D01*
G54D33*X111150Y-5000D02*Y-5150D01*
G54D32*Y-7250D02*Y-9500D01*
X113400Y-7250D02*Y-9500D01*
Y-7250D02*X114150Y-6500D01*
X114900D01*
X115650Y-7250D01*
Y-9500D01*
X112650Y-6500D02*X113400Y-7250D01*
X118200Y-9500D02*X120450D01*
X117450Y-8750D02*X118200Y-9500D01*
X117450Y-7250D02*Y-8750D01*
Y-7250D02*X118200Y-6500D01*
X119700D01*
X120450Y-7250D01*
X117450Y-8000D02*X120450D01*
Y-7250D02*Y-8000D01*
X124950Y-7250D02*Y-8750D01*
Y-7250D02*X125700Y-6500D01*
X127200D01*
X127950Y-7250D01*
Y-8750D01*
X127200Y-9500D02*X127950Y-8750D01*
X125700Y-9500D02*X127200D01*
X124950Y-8750D02*X125700Y-9500D01*
X130500Y-4250D02*Y-9500D01*
Y-4250D02*X131250Y-3500D01*
X132000D01*
X129750Y-6500D02*X131250D01*
X136950Y-3500D02*Y-8750D01*
X137700Y-9500D01*
X136200Y-5750D02*X137700D01*
X139200Y-3500D02*Y-9500D01*
Y-7250D02*X139950Y-6500D01*
X141450D01*
X142200Y-7250D01*
Y-9500D01*
G54D33*X144000Y-5000D02*Y-5150D01*
G54D32*Y-7250D02*Y-9500D01*
X146250D02*X148500D01*
X149250Y-8750D01*
X148500Y-8000D02*X149250Y-8750D01*
X146250Y-8000D02*X148500D01*
X145500Y-7250D02*X146250Y-8000D01*
X145500Y-7250D02*X146250Y-6500D01*
X148500D01*
X149250Y-7250D01*
X145500Y-8750D02*X146250Y-9500D01*
X153750Y-8750D02*X154500Y-9500D01*
X153750Y-7550D02*Y-8750D01*
Y-7550D02*X154800Y-6500D01*
X155700D01*
X156750Y-7550D01*
Y-8750D01*
X156000Y-9500D02*X156750Y-8750D01*
X154500Y-9500D02*X156000D01*
X153750Y-5450D02*X154800Y-6500D01*
X153750Y-4250D02*Y-5450D01*
Y-4250D02*X154500Y-3500D01*
X156000D01*
X156750Y-4250D01*
Y-5450D01*
X155700Y-6500D02*X156750Y-5450D01*
X158550Y-9500D02*X159300D01*
X161100Y-8750D02*X161850Y-9500D01*
X161100Y-4250D02*Y-8750D01*
Y-4250D02*X161850Y-3500D01*
X163350D01*
X164100Y-4250D01*
Y-8750D01*
X163350Y-9500D02*X164100Y-8750D01*
X161850Y-9500D02*X163350D01*
X161100Y-8000D02*X164100Y-5000D01*
X165900Y-8750D02*X166650Y-9500D01*
X165900Y-4250D02*Y-8750D01*
Y-4250D02*X166650Y-3500D01*
X168150D01*
X168900Y-4250D01*
Y-8750D01*
X168150Y-9500D02*X168900Y-8750D01*
X166650Y-9500D02*X168150D01*
X165900Y-8000D02*X168900Y-5000D01*
X170700Y-8750D02*X171450Y-9500D01*
X170700Y-4250D02*Y-8750D01*
Y-4250D02*X171450Y-3500D01*
X172950D01*
X173700Y-4250D01*
Y-8750D01*
X172950Y-9500D02*X173700Y-8750D01*
X171450Y-9500D02*X172950D01*
X170700Y-8000D02*X173700Y-5000D01*
X175500Y-8750D02*X176250Y-9500D01*
X175500Y-4250D02*Y-8750D01*
Y-4250D02*X176250Y-3500D01*
X177750D01*
X178500Y-4250D01*
Y-8750D01*
X177750Y-9500D02*X178500Y-8750D01*
X176250Y-9500D02*X177750D01*
X175500Y-8000D02*X178500Y-5000D01*
X180300Y-8750D02*X181050Y-9500D01*
X180300Y-4250D02*Y-8750D01*
Y-4250D02*X181050Y-3500D01*
X182550D01*
X183300Y-4250D01*
Y-8750D01*
X182550Y-9500D02*X183300Y-8750D01*
X181050Y-9500D02*X182550D01*
X180300Y-8000D02*X183300Y-5000D01*
X185100Y-8750D02*X185850Y-9500D01*
X185100Y-4250D02*Y-8750D01*
Y-4250D02*X185850Y-3500D01*
X187350D01*
X188100Y-4250D01*
Y-8750D01*
X187350Y-9500D02*X188100Y-8750D01*
X185850Y-9500D02*X187350D01*
X185100Y-8000D02*X188100Y-5000D01*
X193350Y-7250D02*Y-9500D01*
Y-7250D02*X194100Y-6500D01*
X194850D01*
X195600Y-7250D01*
Y-9500D01*
Y-7250D02*X196350Y-6500D01*
X197100D01*
X197850Y-7250D01*
Y-9500D01*
X192600Y-6500D02*X193350Y-7250D01*
G54D33*X199650Y-5000D02*Y-5150D01*
G54D32*Y-7250D02*Y-9500D01*
X201150Y-3500D02*Y-8750D01*
X201900Y-9500D01*
X206850Y-7250D02*Y-9500D01*
Y-7250D02*X207600Y-6500D01*
X209100D01*
X206100D02*X206850Y-7250D01*
X211650Y-9500D02*X213900D01*
X210900Y-8750D02*X211650Y-9500D01*
X210900Y-7250D02*Y-8750D01*
Y-7250D02*X211650Y-6500D01*
X213150D01*
X213900Y-7250D01*
X210900Y-8000D02*X213900D01*
Y-7250D02*Y-8000D01*
X216450Y-6500D02*X218700D01*
X215700Y-7250D02*X216450Y-6500D01*
X215700Y-7250D02*Y-8750D01*
X216450Y-9500D01*
X218700D01*
X221250Y-3500D02*Y-8750D01*
X222000Y-9500D01*
X220500Y-5750D02*X222000D01*
X225750Y-6500D02*X226500Y-7250D01*
X224250Y-6500D02*X225750D01*
X223500Y-7250D02*X224250Y-6500D01*
X223500Y-7250D02*Y-8750D01*
X224250Y-9500D01*
X226500Y-6500D02*Y-8750D01*
X227250Y-9500D01*
X224250D02*X225750D01*
X226500Y-8750D01*
X229800Y-7250D02*Y-9500D01*
Y-7250D02*X230550Y-6500D01*
X231300D01*
X232050Y-7250D01*
Y-9500D01*
X229050Y-6500D02*X229800Y-7250D01*
X236100Y-6500D02*X236850Y-7250D01*
X234600Y-6500D02*X236100D01*
X233850Y-7250D02*X234600Y-6500D01*
X233850Y-7250D02*Y-8750D01*
X234600Y-9500D01*
X236100D01*
X236850Y-8750D01*
X233850Y-11000D02*X234600Y-11750D01*
X236100D01*
X236850Y-11000D01*
Y-6500D02*Y-11000D01*
X238650Y-3500D02*Y-8750D01*
X239400Y-9500D01*
X241650D02*X243900D01*
X240900Y-8750D02*X241650Y-9500D01*
X240900Y-7250D02*Y-8750D01*
Y-7250D02*X241650Y-6500D01*
X243150D01*
X243900Y-7250D01*
X240900Y-8000D02*X243900D01*
Y-7250D02*Y-8000D01*
X248400Y-6500D02*X251400D01*
X255900Y-8750D02*X256650Y-9500D01*
X255900Y-4250D02*Y-8750D01*
Y-4250D02*X256650Y-3500D01*
X258150D01*
X258900Y-4250D01*
Y-8750D01*
X258150Y-9500D02*X258900Y-8750D01*
X256650Y-9500D02*X258150D01*
X255900Y-8000D02*X258900Y-5000D01*
X260700Y-11000D02*X262200Y-9500D01*
X264000Y-8750D02*X264750Y-9500D01*
X264000Y-4250D02*Y-8750D01*
Y-4250D02*X264750Y-3500D01*
X266250D01*
X267000Y-4250D01*
Y-8750D01*
X266250Y-9500D02*X267000Y-8750D01*
X264750Y-9500D02*X266250D01*
X264000Y-8000D02*X267000Y-5000D01*
X272250Y-3500D02*Y-8750D01*
X273000Y-9500D01*
X271500Y-5750D02*X273000D01*
X274500Y-7250D02*Y-8750D01*
Y-7250D02*X275250Y-6500D01*
X276750D01*
X277500Y-7250D01*
Y-8750D01*
X276750Y-9500D02*X277500Y-8750D01*
X275250Y-9500D02*X276750D01*
X274500Y-8750D02*X275250Y-9500D01*
X282000Y-8750D02*X282750Y-9500D01*
X282000Y-7550D02*Y-8750D01*
Y-7550D02*X283050Y-6500D01*
X283950D01*
X285000Y-7550D01*
Y-8750D01*
X284250Y-9500D02*X285000Y-8750D01*
X282750Y-9500D02*X284250D01*
X282000Y-5450D02*X283050Y-6500D01*
X282000Y-4250D02*Y-5450D01*
Y-4250D02*X282750Y-3500D01*
X284250D01*
X285000Y-4250D01*
Y-5450D01*
X283950Y-6500D02*X285000Y-5450D01*
X286800Y-4250D02*X287550Y-3500D01*
X289800D01*
X290550Y-4250D01*
Y-5750D01*
X286800Y-9500D02*X290550Y-5750D01*
X286800Y-9500D02*X290550D01*
X292350Y-8750D02*X293100Y-9500D01*
X292350Y-4250D02*Y-8750D01*
Y-4250D02*X293100Y-3500D01*
X294600D01*
X295350Y-4250D01*
Y-8750D01*
X294600Y-9500D02*X295350Y-8750D01*
X293100Y-9500D02*X294600D01*
X292350Y-8000D02*X295350Y-5000D01*
X297150Y-9500D02*X297900D01*
X299700Y-8750D02*X300450Y-9500D01*
X299700Y-4250D02*Y-8750D01*
Y-4250D02*X300450Y-3500D01*
X301950D01*
X302700Y-4250D01*
Y-8750D01*
X301950Y-9500D02*X302700Y-8750D01*
X300450Y-9500D02*X301950D01*
X299700Y-8000D02*X302700Y-5000D01*
X304500Y-8750D02*X305250Y-9500D01*
X304500Y-4250D02*Y-8750D01*
Y-4250D02*X305250Y-3500D01*
X306750D01*
X307500Y-4250D01*
Y-8750D01*
X306750Y-9500D02*X307500Y-8750D01*
X305250Y-9500D02*X306750D01*
X304500Y-8000D02*X307500Y-5000D01*
X309300Y-8750D02*X310050Y-9500D01*
X309300Y-4250D02*Y-8750D01*
Y-4250D02*X310050Y-3500D01*
X311550D01*
X312300Y-4250D01*
Y-8750D01*
X311550Y-9500D02*X312300Y-8750D01*
X310050Y-9500D02*X311550D01*
X309300Y-8000D02*X312300Y-5000D01*
X314100Y-8750D02*X314850Y-9500D01*
X314100Y-4250D02*Y-8750D01*
Y-4250D02*X314850Y-3500D01*
X316350D01*
X317100Y-4250D01*
Y-8750D01*
X316350Y-9500D02*X317100Y-8750D01*
X314850Y-9500D02*X316350D01*
X314100Y-8000D02*X317100Y-5000D01*
X318900Y-8750D02*X319650Y-9500D01*
X318900Y-4250D02*Y-8750D01*
Y-4250D02*X319650Y-3500D01*
X321150D01*
X321900Y-4250D01*
Y-8750D01*
X321150Y-9500D02*X321900Y-8750D01*
X319650Y-9500D02*X321150D01*
X318900Y-8000D02*X321900Y-5000D01*
X323700Y-8750D02*X324450Y-9500D01*
X323700Y-4250D02*Y-8750D01*
Y-4250D02*X324450Y-3500D01*
X325950D01*
X326700Y-4250D01*
Y-8750D01*
X325950Y-9500D02*X326700Y-8750D01*
X324450Y-9500D02*X325950D01*
X323700Y-8000D02*X326700Y-5000D01*
X328500Y-11000D02*X330000Y-9500D01*
X331800Y-4250D02*X332550Y-3500D01*
X334800D01*
X335550Y-4250D01*
Y-5750D01*
X331800Y-9500D02*X335550Y-5750D01*
X331800Y-9500D02*X335550D01*
X337350Y-8750D02*X338100Y-9500D01*
X337350Y-4250D02*Y-8750D01*
Y-4250D02*X338100Y-3500D01*
X339600D01*
X340350Y-4250D01*
Y-8750D01*
X339600Y-9500D02*X340350Y-8750D01*
X338100Y-9500D02*X339600D01*
X337350Y-8000D02*X340350Y-5000D01*
X342150Y-4250D02*X342900Y-3500D01*
X345150D01*
X345900Y-4250D01*
Y-5750D01*
X342150Y-9500D02*X345900Y-5750D01*
X342150Y-9500D02*X345900D01*
X347700Y-8750D02*X348450Y-9500D01*
X347700Y-4250D02*Y-8750D01*
Y-4250D02*X348450Y-3500D01*
X349950D01*
X350700Y-4250D01*
Y-8750D01*
X349950Y-9500D02*X350700Y-8750D01*
X348450Y-9500D02*X349950D01*
X347700Y-8000D02*X350700Y-5000D01*
X352500Y-9500D02*X353250D01*
X355050Y-8750D02*X355800Y-9500D01*
X355050Y-4250D02*Y-8750D01*
Y-4250D02*X355800Y-3500D01*
X357300D01*
X358050Y-4250D01*
Y-8750D01*
X357300Y-9500D02*X358050Y-8750D01*
X355800Y-9500D02*X357300D01*
X355050Y-8000D02*X358050Y-5000D01*
X359850Y-8750D02*X360600Y-9500D01*
X359850Y-4250D02*Y-8750D01*
Y-4250D02*X360600Y-3500D01*
X362100D01*
X362850Y-4250D01*
Y-8750D01*
X362100Y-9500D02*X362850Y-8750D01*
X360600Y-9500D02*X362100D01*
X359850Y-8000D02*X362850Y-5000D01*
X364650Y-8750D02*X365400Y-9500D01*
X364650Y-4250D02*Y-8750D01*
Y-4250D02*X365400Y-3500D01*
X366900D01*
X367650Y-4250D01*
Y-8750D01*
X366900Y-9500D02*X367650Y-8750D01*
X365400Y-9500D02*X366900D01*
X364650Y-8000D02*X367650Y-5000D01*
X369450Y-8750D02*X370200Y-9500D01*
X369450Y-4250D02*Y-8750D01*
Y-4250D02*X370200Y-3500D01*
X371700D01*
X372450Y-4250D01*
Y-8750D01*
X371700Y-9500D02*X372450Y-8750D01*
X370200Y-9500D02*X371700D01*
X369450Y-8000D02*X372450Y-5000D01*
X374250Y-8750D02*X375000Y-9500D01*
X374250Y-4250D02*Y-8750D01*
Y-4250D02*X375000Y-3500D01*
X376500D01*
X377250Y-4250D01*
Y-8750D01*
X376500Y-9500D02*X377250Y-8750D01*
X375000Y-9500D02*X376500D01*
X374250Y-8000D02*X377250Y-5000D01*
X379050Y-8750D02*X379800Y-9500D01*
X379050Y-4250D02*Y-8750D01*
Y-4250D02*X379800Y-3500D01*
X381300D01*
X382050Y-4250D01*
Y-8750D01*
X381300Y-9500D02*X382050Y-8750D01*
X379800Y-9500D02*X381300D01*
X379050Y-8000D02*X382050Y-5000D01*
X387300Y-7250D02*Y-9500D01*
Y-7250D02*X388050Y-6500D01*
X388800D01*
X389550Y-7250D01*
Y-9500D01*
Y-7250D02*X390300Y-6500D01*
X391050D01*
X391800Y-7250D01*
Y-9500D01*
X386550Y-6500D02*X387300Y-7250D01*
G54D33*X393600Y-5000D02*Y-5150D01*
G54D32*Y-7250D02*Y-9500D01*
X395100Y-3500D02*Y-8750D01*
X395850Y-9500D01*
X398100D02*X400350D01*
X401100Y-8750D01*
X400350Y-8000D02*X401100Y-8750D01*
X398100Y-8000D02*X400350D01*
X397350Y-7250D02*X398100Y-8000D01*
X397350Y-7250D02*X398100Y-6500D01*
X400350D01*
X401100Y-7250D01*
X397350Y-8750D02*X398100Y-9500D01*
X200750Y230500D02*Y224500D01*
X202700Y230500D02*X203750Y229450D01*
Y225550D01*
X202700Y224500D02*X203750Y225550D01*
X200000Y224500D02*X202700D01*
X200000Y230500D02*X202700D01*
X207800Y227500D02*X208550Y226750D01*
X206300Y227500D02*X207800D01*
X205550Y226750D02*X206300Y227500D01*
X205550Y226750D02*Y225250D01*
X206300Y224500D01*
X208550Y227500D02*Y225250D01*
X209300Y224500D01*
X206300D02*X207800D01*
X208550Y225250D01*
X211850Y230500D02*Y225250D01*
X212600Y224500D01*
X211100Y228250D02*X212600D01*
X214850Y224500D02*X217100D01*
X214100Y225250D02*X214850Y224500D01*
X214100Y226750D02*Y225250D01*
Y226750D02*X214850Y227500D01*
X216350D01*
X217100Y226750D01*
X214100Y226000D02*X217100D01*
Y226750D02*Y226000D01*
X218900Y228250D02*X219650D01*
X218900Y226750D02*X219650D01*
X227150Y230500D02*X227900Y229750D01*
X224900Y230500D02*X227150D01*
X224150Y229750D02*X224900Y230500D01*
X224150Y229750D02*Y228250D01*
X224900Y227500D01*
X227150D01*
X227900Y226750D01*
Y225250D01*
X227150Y224500D02*X227900Y225250D01*
X224900Y224500D02*X227150D01*
X224150Y225250D02*X224900Y224500D01*
X231950Y227500D02*X232700Y226750D01*
X230450Y227500D02*X231950D01*
X229700Y226750D02*X230450Y227500D01*
X229700Y226750D02*Y225250D01*
X230450Y224500D01*
X232700Y227500D02*Y225250D01*
X233450Y224500D01*
X230450D02*X231950D01*
X232700Y225250D01*
X236000Y230500D02*Y225250D01*
X236750Y224500D01*
X235250Y228250D02*X236750D01*
X240950Y230500D02*Y224500D01*
Y230500D02*X243200Y227500D01*
X245450Y230500D01*
Y224500D01*
X249500Y227500D02*X250250Y226750D01*
X248000Y227500D02*X249500D01*
X247250Y226750D02*X248000Y227500D01*
X247250Y226750D02*Y225250D01*
X248000Y224500D01*
X250250Y227500D02*Y225250D01*
X251000Y224500D01*
X248000D02*X249500D01*
X250250Y225250D01*
X252800Y227500D02*Y225250D01*
X253550Y224500D01*
X255800Y227500D02*Y223000D01*
X255050Y222250D02*X255800Y223000D01*
X253550Y222250D02*X255050D01*
X252800Y223000D02*X253550Y222250D01*
Y224500D02*X255050D01*
X255800Y225250D01*
X263000Y229750D02*X263750Y230500D01*
X265250D01*
X266000Y229750D01*
X265250Y224500D02*X266000Y225250D01*
X263750Y224500D02*X265250D01*
X263000Y225250D02*X263750Y224500D01*
Y227800D02*X265250D01*
X266000Y229750D02*Y228550D01*
Y227050D02*Y225250D01*
Y227050D02*X265250Y227800D01*
X266000Y228550D02*X265250Y227800D01*
X270500Y229300D02*X271700Y230500D01*
Y224500D01*
X270500D02*X272750D01*
X275300D02*X278300Y230500D01*
X274550D02*X278300D01*
X280100Y228250D02*X280850D01*
X280100Y226750D02*X280850D01*
X282650Y225250D02*X283400Y224500D01*
X282650Y229750D02*Y225250D01*
Y229750D02*X283400Y230500D01*
X284900D01*
X285650Y229750D01*
Y225250D01*
X284900Y224500D02*X285650Y225250D01*
X283400Y224500D02*X284900D01*
X282650Y226000D02*X285650Y229000D01*
X287450Y229300D02*X288650Y230500D01*
Y224500D01*
X287450D02*X289700D01*
X291500Y228250D02*X292250D01*
X291500Y226750D02*X292250D01*
X294050Y229300D02*X295250Y230500D01*
Y224500D01*
X294050D02*X296300D01*
X298100Y225250D02*X298850Y224500D01*
X298100Y226450D02*Y225250D01*
Y226450D02*X299150Y227500D01*
X300050D01*
X301100Y226450D01*
Y225250D01*
X300350Y224500D02*X301100Y225250D01*
X298850Y224500D02*X300350D01*
X298100Y228550D02*X299150Y227500D01*
X298100Y229750D02*Y228550D01*
Y229750D02*X298850Y230500D01*
X300350D01*
X301100Y229750D01*
Y228550D01*
X300050Y227500D02*X301100Y228550D01*
X305600Y229750D02*X306350Y230500D01*
X308600D01*
X309350Y229750D01*
Y228250D01*
X305600Y224500D02*X309350Y228250D01*
X305600Y224500D02*X309350D01*
X311150Y225250D02*X311900Y224500D01*
X311150Y229750D02*Y225250D01*
Y229750D02*X311900Y230500D01*
X313400D01*
X314150Y229750D01*
Y225250D01*
X313400Y224500D02*X314150Y225250D01*
X311900Y224500D02*X313400D01*
X311150Y226000D02*X314150Y229000D01*
X315950Y229750D02*X316700Y230500D01*
X318950D01*
X319700Y229750D01*
Y228250D01*
X315950Y224500D02*X319700Y228250D01*
X315950Y224500D02*X319700D01*
X321500Y230500D02*X324500D01*
X321500D02*Y227500D01*
X322250Y228250D01*
X323750D01*
X324500Y227500D01*
Y225250D01*
X323750Y224500D02*X324500Y225250D01*
X322250Y224500D02*X323750D01*
X321500Y225250D02*X322250Y224500D01*
X329000Y230500D02*Y225250D01*
X329750Y224500D01*
X331250D01*
X332000Y225250D01*
Y230500D02*Y225250D01*
X333800Y230500D02*X336800D01*
X335300D02*Y224500D01*
X339650D02*X341600D01*
X338600Y225550D02*X339650Y224500D01*
X338600Y229450D02*Y225550D01*
Y229450D02*X339650Y230500D01*
X341600D01*
X200000Y244000D02*Y239500D01*
Y244000D02*X201050Y245500D01*
X202700D01*
X203750Y244000D01*
Y239500D01*
X200000Y242500D02*X203750D01*
X205550D02*Y240250D01*
X206300Y239500D01*
X207800D01*
X208550Y240250D01*
Y242500D02*Y240250D01*
X211100Y245500D02*Y240250D01*
X211850Y239500D01*
X210350Y243250D02*X211850D01*
X213350Y245500D02*Y239500D01*
Y241750D02*X214100Y242500D01*
X215600D01*
X216350Y241750D01*
Y239500D01*
X218150Y241750D02*Y240250D01*
Y241750D02*X218900Y242500D01*
X220400D01*
X221150Y241750D01*
Y240250D01*
X220400Y239500D02*X221150Y240250D01*
X218900Y239500D02*X220400D01*
X218150Y240250D02*X218900Y239500D01*
X223700Y241750D02*Y239500D01*
Y241750D02*X224450Y242500D01*
X225950D01*
X222950D02*X223700Y241750D01*
X227750Y243250D02*X228500D01*
X227750Y241750D02*X228500D01*
X233000Y245500D02*Y239500D01*
Y245500D02*X236750Y239500D01*
Y245500D02*Y239500D01*
G54D33*X238550Y244000D02*Y243850D01*
G54D32*Y241750D02*Y239500D01*
X240800Y242500D02*X243050D01*
X240050Y241750D02*X240800Y242500D01*
X240050Y241750D02*Y240250D01*
X240800Y239500D01*
X243050D01*
X244850Y241750D02*Y240250D01*
Y241750D02*X245600Y242500D01*
X247100D01*
X247850Y241750D01*
Y240250D01*
X247100Y239500D02*X247850Y240250D01*
X245600Y239500D02*X247100D01*
X244850Y240250D02*X245600Y239500D01*
X255350Y245500D02*Y239500D01*
X254600D02*X255350Y240250D01*
X253100Y239500D02*X254600D01*
X252350Y240250D02*X253100Y239500D01*
X252350Y241750D02*Y240250D01*
Y241750D02*X253100Y242500D01*
X254600D01*
X255350Y241750D01*
X257900Y239500D02*X260150D01*
X257150Y240250D02*X257900Y239500D01*
X257150Y241750D02*Y240250D01*
Y241750D02*X257900Y242500D01*
X259400D01*
X260150Y241750D01*
X257150Y241000D02*X260150D01*
Y241750D02*Y241000D01*
X264650Y245500D02*X266150Y239500D01*
X267650Y245500D01*
X270200Y241750D02*Y239500D01*
Y241750D02*X270950Y242500D01*
X272450D01*
X269450D02*X270200Y241750D01*
G54D33*X274250Y244000D02*Y243850D01*
G54D32*Y241750D02*Y239500D01*
X276500D02*X278750D01*
X275750Y240250D02*X276500Y239500D01*
X275750Y241750D02*Y240250D01*
Y241750D02*X276500Y242500D01*
X278000D01*
X278750Y241750D01*
X275750Y241000D02*X278750D01*
Y241750D02*Y241000D01*
X281300Y239500D02*X283550D01*
X284300Y240250D01*
X283550Y241000D02*X284300Y240250D01*
X281300Y241000D02*X283550D01*
X280550Y241750D02*X281300Y241000D01*
X280550Y241750D02*X281300Y242500D01*
X283550D01*
X284300Y241750D01*
X280550Y240250D02*X281300Y239500D01*
X200000Y260500D02*X203000D01*
X201500D02*Y254500D01*
G54D33*X204800Y259000D02*Y258850D01*
G54D32*Y256750D02*Y254500D01*
X207050Y260500D02*Y255250D01*
X207800Y254500D01*
X206300Y258250D02*X207800D01*
X209300Y260500D02*Y255250D01*
X210050Y254500D01*
X212300D02*X214550D01*
X211550Y255250D02*X212300Y254500D01*
X211550Y256750D02*Y255250D01*
Y256750D02*X212300Y257500D01*
X213800D01*
X214550Y256750D01*
X211550Y256000D02*X214550D01*
Y256750D02*Y256000D01*
X216350Y258250D02*X217100D01*
X216350Y256750D02*X217100D01*
X222350Y260500D02*Y254500D01*
X221600Y260500D02*X224600D01*
X225350Y259750D01*
Y258250D01*
X224600Y257500D02*X225350Y258250D01*
X222350Y257500D02*X224600D01*
X227150Y257800D02*X229400D01*
X227150Y254500D02*X230150D01*
X227150Y260500D02*Y254500D01*
Y260500D02*X230150D01*
X231950D02*X234950D01*
X233450D02*Y254500D01*
X236750D02*X239750D01*
X241550Y259750D02*X242300Y260500D01*
X243800D01*
X244550Y259750D01*
X243800Y254500D02*X244550Y255250D01*
X242300Y254500D02*X243800D01*
X241550Y255250D02*X242300Y254500D01*
Y257800D02*X243800D01*
X244550Y259750D02*Y258550D01*
Y257050D02*Y255250D01*
Y257050D02*X243800Y257800D01*
X244550Y258550D02*X243800Y257800D01*
X246350Y259750D02*X247100Y260500D01*
X249350D01*
X250100Y259750D01*
Y258250D01*
X246350Y254500D02*X250100Y258250D01*
X246350Y254500D02*X250100D01*
X251900Y260500D02*Y254500D01*
Y256750D02*X254150Y254500D01*
X251900Y256750D02*X253400Y258250D01*
X258650Y257500D02*X261650D01*
X266150Y260500D02*Y254500D01*
Y260500D02*X269150D01*
X266150Y257800D02*X268400D01*
X273200Y257500D02*X273950Y256750D01*
X271700Y257500D02*X273200D01*
X270950Y256750D02*X271700Y257500D01*
X270950Y256750D02*Y255250D01*
X271700Y254500D01*
X273950Y257500D02*Y255250D01*
X274700Y254500D01*
X271700D02*X273200D01*
X273950Y255250D01*
X276500Y260500D02*Y254500D01*
Y255250D02*X277250Y254500D01*
X278750D01*
X279500Y255250D01*
Y256750D02*Y255250D01*
X278750Y257500D02*X279500Y256750D01*
X277250Y257500D02*X278750D01*
X276500Y256750D02*X277250Y257500D01*
X282050Y256750D02*Y254500D01*
Y256750D02*X282800Y257500D01*
X284300D01*
X281300D02*X282050Y256750D01*
G54D33*X286100Y259000D02*Y258850D01*
G54D32*Y256750D02*Y254500D01*
X288350Y257500D02*X290600D01*
X287600Y256750D02*X288350Y257500D01*
X287600Y256750D02*Y255250D01*
X288350Y254500D01*
X290600D01*
X294650Y257500D02*X295400Y256750D01*
X293150Y257500D02*X294650D01*
X292400Y256750D02*X293150Y257500D01*
X292400Y256750D02*Y255250D01*
X293150Y254500D01*
X295400Y257500D02*Y255250D01*
X296150Y254500D01*
X293150D02*X294650D01*
X295400Y255250D01*
X298700Y260500D02*Y255250D01*
X299450Y254500D01*
X297950Y258250D02*X299450D01*
G54D33*X300950Y259000D02*Y258850D01*
G54D32*Y256750D02*Y254500D01*
X302450Y256750D02*Y255250D01*
Y256750D02*X303200Y257500D01*
X304700D01*
X305450Y256750D01*
Y255250D01*
X304700Y254500D02*X305450Y255250D01*
X303200Y254500D02*X304700D01*
X302450Y255250D02*X303200Y254500D01*
X308000Y256750D02*Y254500D01*
Y256750D02*X308750Y257500D01*
X309500D01*
X310250Y256750D01*
Y254500D01*
X307250Y257500D02*X308000Y256750D01*
X315500Y260500D02*Y254500D01*
X317450Y260500D02*X318500Y259450D01*
Y255550D01*
X317450Y254500D02*X318500Y255550D01*
X314750Y254500D02*X317450D01*
X314750Y260500D02*X317450D01*
X321050Y256750D02*Y254500D01*
Y256750D02*X321800Y257500D01*
X323300D01*
X320300D02*X321050Y256750D01*
X327350Y257500D02*X328100Y256750D01*
X325850Y257500D02*X327350D01*
X325100Y256750D02*X325850Y257500D01*
X325100Y256750D02*Y255250D01*
X325850Y254500D01*
X328100Y257500D02*Y255250D01*
X328850Y254500D01*
X325850D02*X327350D01*
X328100Y255250D01*
X330650Y257500D02*Y255250D01*
X331400Y254500D01*
X332150D01*
X332900Y255250D01*
Y257500D02*Y255250D01*
X333650Y254500D01*
X334400D01*
X335150Y255250D01*
Y257500D02*Y255250D01*
G54D33*X336950Y259000D02*Y258850D01*
G54D32*Y256750D02*Y254500D01*
X339200Y256750D02*Y254500D01*
Y256750D02*X339950Y257500D01*
X340700D01*
X341450Y256750D01*
Y254500D01*
X338450Y257500D02*X339200Y256750D01*
X345500Y257500D02*X346250Y256750D01*
X344000Y257500D02*X345500D01*
X343250Y256750D02*X344000Y257500D01*
X343250Y256750D02*Y255250D01*
X344000Y254500D01*
X345500D01*
X346250Y255250D01*
X343250Y253000D02*X344000Y252250D01*
X345500D01*
X346250Y253000D01*
Y257500D02*Y253000D01*
M02*
