M48
INCH
T21C0.028
%
T21
X000600Y019600
X000600Y018600
X000600Y017600
X000600Y016600
X000600Y015600
X000600Y014600
X000600Y013600
X000600Y012600
X000600Y011600
X000600Y010600
X000600Y009600
X000600Y008600
X000600Y007600
X000600Y006600
X000600Y005600
X000600Y004600
X000600Y003600
X000600Y002600
X000600Y001600
X000600Y000600
X001600Y019600
X001600Y018600
X001600Y017600
X001600Y016600
X001600Y015600
X001600Y014600
X001600Y013600
X001600Y012600
X001600Y011600
X001600Y010600
X001600Y009600
X001600Y008600
X001600Y007600
X001600Y006600
X001600Y005600
X001600Y004600
X001600Y003600
X001600Y002600
X001600Y001600
X001600Y000600
X006600Y019600
X006600Y018600
X006600Y017600
X006600Y016600
X006600Y015600
X006600Y014600
X006600Y013600
X006600Y012600
X006600Y011600
X006600Y010600
X006600Y009600
X006600Y008600
X006600Y007600
X006600Y006600
X006600Y005600
X006600Y004600
X006600Y003600
X006600Y002600
X006600Y001600
X006600Y000600
X007600Y019600
X007600Y018600
X007600Y017600
X007600Y016600
X007600Y015600
X007600Y014600
X007600Y013600
X007600Y012600
X007600Y011600
X007600Y010600
X007600Y009600
X007600Y008600
X007600Y007600
X007600Y006600
X007600Y005600
X007600Y004600
X007600Y003600
X007600Y002600
X007600Y001600
X007600Y000600
M30
