G04 start of page 6 for group -4063 idx -4063 *
G04 Title: PET_32k, componentmask *
G04 Creator: pcb 4.0.2 *
G04 CreationDate: Sat May  3 17:01:18 2025 UTC *
G04 For: ndv *
G04 Format: Gerber/RS-274X *
G04 PCB-Dimensions (mil): 820.00 2020.00 *
G04 PCB-Coordinate-Origin: lower left *
%MOIN*%
%FSLAX25Y25*%
%LNTOPMASK*%
%ADD24C,0.0001*%
%ADD23C,0.0660*%
%ADD22C,0.0100*%
G54D22*X0Y202000D02*Y0D01*
Y202000D02*X82000D01*
X0Y0D02*X82000D01*
Y202000D02*Y0D01*
G54D23*X66000Y26000D03*
Y6000D03*
Y16000D03*
X76000Y6000D03*
Y16000D03*
Y26000D03*
Y36000D03*
Y46000D03*
X66000Y36000D03*
Y46000D03*
Y56000D03*
Y66000D03*
Y76000D03*
Y86000D03*
Y96000D03*
Y106000D03*
Y116000D03*
Y126000D03*
Y136000D03*
Y146000D03*
Y156000D03*
Y166000D03*
Y176000D03*
Y186000D03*
Y196000D03*
X76000Y56000D03*
Y66000D03*
Y76000D03*
Y86000D03*
Y96000D03*
Y106000D03*
Y116000D03*
Y126000D03*
Y136000D03*
Y146000D03*
Y156000D03*
Y166000D03*
Y176000D03*
Y186000D03*
Y196000D03*
G54D24*G36*
X2700Y199300D02*Y192700D01*
X9300D01*
Y199300D01*
X2700D01*
G37*
G54D23*X6000Y186000D03*
Y176000D03*
G54D24*G36*
X12700Y199300D02*Y192700D01*
X19300D01*
Y199300D01*
X12700D01*
G37*
G54D23*X16000Y186000D03*
X6000Y166000D03*
Y156000D03*
Y146000D03*
Y136000D03*
Y126000D03*
Y116000D03*
Y106000D03*
Y96000D03*
Y86000D03*
Y76000D03*
Y66000D03*
Y56000D03*
Y46000D03*
Y36000D03*
Y26000D03*
Y16000D03*
Y6000D03*
X16000Y176000D03*
Y166000D03*
Y156000D03*
Y146000D03*
Y136000D03*
Y126000D03*
Y116000D03*
Y106000D03*
Y96000D03*
Y86000D03*
Y76000D03*
Y66000D03*
Y56000D03*
Y46000D03*
Y36000D03*
Y26000D03*
Y16000D03*
Y6000D03*
M02*
