G04 start of page 2 for group 0 idx 0 *
G04 Title: PET_32k, top *
G04 Creator: pcb 4.0.2 *
G04 CreationDate: Sat May  3 17:01:18 2025 UTC *
G04 For: ndv *
G04 Format: Gerber/RS-274X *
G04 PCB-Dimensions (mil): 820.00 2020.00 *
G04 PCB-Coordinate-Origin: lower left *
%MOIN*%
%FSLAX25Y25*%
%LNTOP*%
%ADD14C,0.0280*%
%ADD13C,0.0001*%
%ADD12C,0.0600*%
%ADD11C,0.0100*%
G54D11*X0Y202000D02*Y0D01*
Y202000D02*X82000D01*
X0Y0D02*X82000D01*
Y202000D02*Y0D01*
X76000Y86000D02*Y87000D01*
Y76000D02*Y77000D01*
Y66000D02*Y67000D01*
G54D12*X66000Y26000D03*
Y6000D03*
Y16000D03*
X76000Y6000D03*
Y16000D03*
Y26000D03*
Y36000D03*
Y46000D03*
X66000Y36000D03*
Y46000D03*
Y56000D03*
Y66000D03*
Y76000D03*
Y86000D03*
Y96000D03*
Y106000D03*
Y116000D03*
Y126000D03*
Y136000D03*
Y146000D03*
Y156000D03*
Y166000D03*
Y176000D03*
Y186000D03*
Y196000D03*
X76000Y56000D03*
Y66000D03*
Y76000D03*
Y86000D03*
Y96000D03*
Y106000D03*
Y116000D03*
Y126000D03*
Y136000D03*
Y146000D03*
Y156000D03*
Y166000D03*
Y176000D03*
Y186000D03*
Y196000D03*
G54D13*G36*
X3000Y199000D02*Y193000D01*
X9000D01*
Y199000D01*
X3000D01*
G37*
G54D12*X6000Y186000D03*
Y176000D03*
G54D13*G36*
X13000Y199000D02*Y193000D01*
X19000D01*
Y199000D01*
X13000D01*
G37*
G54D12*X16000Y186000D03*
X6000Y166000D03*
Y156000D03*
Y146000D03*
Y136000D03*
Y126000D03*
Y116000D03*
Y106000D03*
Y96000D03*
Y86000D03*
Y76000D03*
Y66000D03*
Y56000D03*
Y46000D03*
Y36000D03*
Y26000D03*
Y16000D03*
Y6000D03*
X16000Y176000D03*
Y166000D03*
Y156000D03*
Y146000D03*
Y136000D03*
Y126000D03*
Y116000D03*
Y106000D03*
Y96000D03*
Y86000D03*
Y76000D03*
Y66000D03*
Y56000D03*
Y46000D03*
Y36000D03*
Y26000D03*
Y16000D03*
Y6000D03*
G54D14*M02*
