G04 start of page 7 for group -4079 idx -4079 *
G04 Title: 1541-II TRK0, topsilk *
G04 Creator: pcb 4.0.2 *
G04 CreationDate: Sun May  4 11:16:21 2025 UTC *
G04 For: ndv *
G04 Format: Gerber/RS-274X *
G04 PCB-Dimensions (mil): 800.00 2510.00 *
G04 PCB-Coordinate-Origin: lower left *
%MOIN*%
%FSLAX25Y25*%
%LNTOPSILK*%
%ADD49C,0.0020*%
%ADD48C,0.0047*%
%ADD47C,0.0039*%
%ADD46C,0.0200*%
%ADD45C,0.0100*%
G54D45*X0Y251000D02*X80000D01*
X0D02*Y0D01*
X80000Y251000D02*Y0D01*
X0D02*X80000D01*
X1000Y121000D02*X31000D01*
Y36000D01*
X1000D01*
Y121000D01*
X34000Y200000D02*X80000D01*
X0Y186000D02*X80000D01*
X34000Y200000D02*Y186000D01*
X50500Y32000D02*Y28750D01*
X48750Y27000D02*X50500Y28750D01*
X42250Y27000D02*X48750D01*
X42250D02*X40500Y28750D01*
Y32000D02*Y28750D01*
X46750Y35000D02*X49250D01*
X46750D02*X45500Y36250D01*
Y38750D02*Y36250D01*
Y38750D02*X46750Y40000D01*
X49250D01*
X50500Y38750D02*X49250Y40000D01*
X50500Y38750D02*Y36250D01*
X49250Y35000D02*X50500Y36250D01*
X46750Y44250D02*X50500D01*
X46750D02*X45500Y45500D01*
Y46750D02*Y45500D01*
Y46750D02*X46750Y48000D01*
X50500D01*
X46750D02*X45500Y49250D01*
Y50500D02*Y49250D01*
Y50500D02*X46750Y51750D01*
X50500D01*
X45500Y43000D02*X46750Y44250D01*
Y56000D02*X50500D01*
X46750D02*X45500Y57250D01*
Y58500D02*Y57250D01*
Y58500D02*X46750Y59750D01*
X50500D01*
X46750D02*X45500Y61000D01*
Y62250D02*Y61000D01*
Y62250D02*X46750Y63500D01*
X50500D01*
X45500Y54750D02*X46750Y56000D01*
Y66500D02*X49250D01*
X46750D02*X45500Y67750D01*
Y70250D02*Y67750D01*
Y70250D02*X46750Y71500D01*
X49250D01*
X50500Y70250D02*X49250Y71500D01*
X50500Y70250D02*Y67750D01*
X49250Y66500D02*X50500Y67750D01*
X40500Y79500D02*X50500D01*
Y78250D02*X49250Y79500D01*
X50500Y78250D02*Y75750D01*
X49250Y74500D02*X50500Y75750D01*
X46750Y74500D02*X49250D01*
X46750D02*X45500Y75750D01*
Y78250D02*Y75750D01*
Y78250D02*X46750Y79500D01*
Y82500D02*X49250D01*
X46750D02*X45500Y83750D01*
Y86250D02*Y83750D01*
Y86250D02*X46750Y87500D01*
X49250D01*
X50500Y86250D02*X49250Y87500D01*
X50500Y86250D02*Y83750D01*
X49250Y82500D02*X50500Y83750D01*
X46750Y91750D02*X50500D01*
X46750D02*X45500Y93000D01*
Y95500D02*Y93000D01*
Y90500D02*X46750Y91750D01*
X50500Y103500D02*Y99750D01*
X49250Y98500D02*X50500Y99750D01*
X46750Y98500D02*X49250D01*
X46750D02*X45500Y99750D01*
Y102250D02*Y99750D01*
Y102250D02*X46750Y103500D01*
X48000D02*Y98500D01*
X46750Y103500D02*X48000D01*
X42500Y111000D02*X40500Y113000D01*
X50500D01*
Y114750D02*Y111000D01*
X40500Y122750D02*Y117750D01*
X45500D01*
X44250Y119000D01*
Y121500D02*Y119000D01*
Y121500D02*X45500Y122750D01*
X49250D01*
X50500Y121500D02*X49250Y122750D01*
X50500Y121500D02*Y119000D01*
X49250Y117750D02*X50500Y119000D01*
X46750Y125750D02*X40500Y130750D01*
X46750Y132000D02*Y125750D01*
X40500Y130750D02*X50500D01*
X42500Y135000D02*X40500Y137000D01*
X50500D01*
Y138750D02*Y135000D01*
X45500Y146750D02*Y141750D01*
X40500Y152250D02*Y149750D01*
Y151000D02*X50500D01*
Y152250D02*Y149750D01*
X40500Y157750D02*Y155250D01*
Y156500D02*X50500D01*
Y157750D02*Y155250D01*
X60500Y46000D02*Y41000D01*
Y43500D02*X70500D01*
X66750Y50250D02*X70500D01*
X66750D02*X65500Y51500D01*
Y54000D02*Y51500D01*
Y49000D02*X66750Y50250D01*
X65500Y60750D02*X66750Y62000D01*
X65500Y60750D02*Y58250D01*
X66750Y57000D02*X65500Y58250D01*
X66750Y57000D02*X69250D01*
X70500Y58250D01*
X65500Y62000D02*X69250D01*
X70500Y63250D01*
Y60750D02*Y58250D01*
Y60750D02*X69250Y62000D01*
X65500Y71250D02*Y67500D01*
X66750Y66250D02*X65500Y67500D01*
X66750Y66250D02*X69250D01*
X70500Y67500D01*
Y71250D02*Y67500D01*
X60500Y74250D02*X70500D01*
X66750D02*X70500Y78000D01*
X66750Y74250D02*X64250Y76750D01*
X69250Y85500D02*X70500Y86750D01*
X61750Y85500D02*X69250D01*
X61750D02*X60500Y86750D01*
Y89250D02*Y86750D01*
Y89250D02*X61750Y90500D01*
X69250D01*
X70500Y89250D02*X69250Y90500D01*
X70500Y89250D02*Y86750D01*
X68000Y85500D02*X63000Y90500D01*
X70500Y103000D02*Y99250D01*
Y103000D02*X69250Y104250D01*
X68000Y103000D02*X69250Y104250D01*
X68000Y103000D02*Y99250D01*
X66750Y98000D02*X68000Y99250D01*
X66750Y98000D02*X65500Y99250D01*
Y103000D02*Y99250D01*
Y103000D02*X66750Y104250D01*
X69250Y98000D02*X70500Y99250D01*
Y112250D02*Y108500D01*
X69250Y107250D02*X70500Y108500D01*
X66750Y107250D02*X69250D01*
X66750D02*X65500Y108500D01*
Y111000D02*Y108500D01*
Y111000D02*X66750Y112250D01*
X68000D02*Y107250D01*
X66750Y112250D02*X68000D01*
X66750Y116500D02*X70500D01*
X66750D02*X65500Y117750D01*
Y119000D02*Y117750D01*
Y119000D02*X66750Y120250D01*
X70500D01*
X65500Y115250D02*X66750Y116500D01*
X70500Y128250D02*Y124500D01*
Y128250D02*X69250Y129500D01*
X68000Y128250D02*X69250Y129500D01*
X68000Y128250D02*Y124500D01*
X66750Y123250D02*X68000Y124500D01*
X66750Y123250D02*X65500Y124500D01*
Y128250D02*Y124500D01*
Y128250D02*X66750Y129500D01*
X69250Y123250D02*X70500Y124500D01*
X66750Y132500D02*X69250D01*
X66750D02*X65500Y133750D01*
Y136250D02*Y133750D01*
Y136250D02*X66750Y137500D01*
X69250D01*
X70500Y136250D02*X69250Y137500D01*
X70500Y136250D02*Y133750D01*
X69250Y132500D02*X70500Y133750D01*
X66750Y141750D02*X70500D01*
X66750D02*X65500Y143000D01*
Y145500D02*Y143000D01*
Y140500D02*X66750Y141750D01*
X25250Y64250D02*Y63000D01*
Y63625D02*X30250D01*
Y64250D02*Y63000D01*
X25250Y68250D02*Y65750D01*
Y67000D02*X30250D01*
X25250Y72250D02*Y69750D01*
Y72250D02*X25875Y72875D01*
X27125D01*
X27750Y72250D02*X27125Y72875D01*
X27750Y72250D02*Y70375D01*
X25250D02*X30250D01*
X27750Y71375D02*X30250Y72875D01*
X25875Y74375D02*X25250Y75000D01*
Y76875D02*Y75000D01*
Y76875D02*X25875Y77500D01*
X27125D01*
X30250Y74375D02*X27125Y77500D01*
X30250D02*Y74375D01*
X29625Y79000D02*X30250Y79625D01*
X25875Y79000D02*X29625D01*
X25875D02*X25250Y79625D01*
Y80875D02*Y79625D01*
Y80875D02*X25875Y81500D01*
X29625D01*
X30250Y80875D02*X29625Y81500D01*
X30250Y80875D02*Y79625D01*
X29000Y79000D02*X26500Y81500D01*
X29625Y83000D02*X30250Y83625D01*
X25875Y83000D02*X29625D01*
X25875D02*X25250Y83625D01*
Y84875D02*Y83625D01*
Y84875D02*X25875Y85500D01*
X29625D01*
X30250Y84875D02*X29625Y85500D01*
X30250Y84875D02*Y83625D01*
X29000Y83000D02*X26500Y85500D01*
X29625Y87000D02*X30250Y87625D01*
X25875Y87000D02*X29625D01*
X25875D02*X25250Y87625D01*
Y88875D02*Y87625D01*
Y88875D02*X25875Y89500D01*
X29625D01*
X30250Y88875D02*X29625Y89500D01*
X30250Y88875D02*Y87625D01*
X29000Y87000D02*X26500Y89500D01*
X25250Y93500D02*Y91000D01*
X27750D01*
X27125Y91625D01*
Y92875D02*Y91625D01*
Y92875D02*X27750Y93500D01*
X29625D01*
X30250Y92875D02*X29625Y93500D01*
X30250Y92875D02*Y91625D01*
X29625Y91000D02*X30250Y91625D01*
X25500Y246750D02*X26125Y246125D01*
X23625Y246750D02*X25500D01*
X23000Y246125D02*X23625Y246750D01*
X23000Y246125D02*Y242375D01*
X23625Y241750D01*
X25500D01*
X26125Y242375D01*
Y243625D02*Y242375D01*
X25500Y244250D02*X26125Y243625D01*
X24250Y244250D02*X25500D01*
X27625Y246750D02*Y241750D01*
Y246750D02*X30750Y241750D01*
Y246750D02*Y241750D01*
X32875Y246750D02*Y241750D01*
X34500Y246750D02*X35375Y245875D01*
Y242625D01*
X34500Y241750D02*X35375Y242625D01*
X32250Y241750D02*X34500D01*
X32250Y246750D02*X34500D01*
X73000Y244250D02*X75500D01*
X74250Y245500D02*Y243000D01*
G54D46*X44000Y223000D02*X64000D01*
Y213000D01*
X44000D02*X64000D01*
X44000Y223000D02*Y213000D01*
X34000Y218000D02*X44000D01*
X64000D02*X74000D01*
X44073Y211838D02*X64073D01*
Y201838D01*
X44073D02*X64073D01*
X44073Y211838D02*Y201838D01*
X34073Y206838D02*X44073D01*
X64073D02*X74073D01*
G54D45*X2500Y191000D02*X27500D01*
X2500Y201000D02*X27500D01*
X2500Y231000D02*X27500D01*
X2500Y221000D02*X27500D01*
Y236000D02*Y186000D01*
Y236000D02*X2500D01*
Y186000D02*X27500D01*
X2500D02*X7500D01*
X2500Y236000D02*Y186000D01*
G54D47*X39000Y248496D02*Y225662D01*
X69000D01*
Y248496D02*Y225662D01*
X39000Y248496D02*X69000D01*
G54D48*X38567Y248929D02*Y225229D01*
X69433D01*
Y248929D02*Y225229D01*
X38567Y248929D02*X69433D01*
X37426Y244874D02*Y229126D01*
G54D47*X39000Y238968D02*X41784Y237000D01*
X39000Y235032D01*
G54D48*X44000Y229166D02*Y225229D01*
Y229166D02*X64000D01*
Y225229D01*
X44000Y229166D02*X44984Y231252D01*
X63015D01*
X64000Y229166D01*
X44984D02*Y225229D01*
X63015Y229166D02*Y225229D01*
X40851Y248929D02*Y246566D01*
X47149D01*
Y248929D02*Y246566D01*
X50850Y248929D02*Y246566D01*
X57149D01*
Y248929D02*Y246566D01*
X60850Y248929D02*Y246566D01*
X67149D01*
Y248929D02*Y246566D01*
G54D49*X37032Y250464D02*Y223693D01*
X70968D01*
Y250464D02*Y223693D01*
X37032Y250464D02*X70968D01*
G54D45*X51000Y220000D02*X53000D01*
X53500Y219500D01*
Y218500D01*
X53000Y218000D02*X53500Y218500D01*
X51500Y218000D02*X53000D01*
X51500Y220000D02*Y216000D01*
X52300Y218000D02*X53500Y216000D01*
X54700Y219200D02*X55500Y220000D01*
Y216000D01*
X54700D02*X56200D01*
X50927Y209162D02*X52927D01*
X53427Y208662D01*
Y207662D01*
X52927Y207162D02*X53427Y207662D01*
X51427Y207162D02*X52927D01*
X51427Y209162D02*Y205162D01*
X52227Y207162D02*X53427Y205162D01*
X54627Y208662D02*X55127Y209162D01*
X56627D01*
X57127Y208662D01*
Y207662D01*
X54627Y205162D02*X57127Y207662D01*
X54627Y205162D02*X57127D01*
X13000Y213500D02*Y210000D01*
X13500Y209500D01*
X14500D01*
X15000Y210000D01*
Y213500D02*Y210000D01*
X16200Y212700D02*X17000Y213500D01*
Y209500D01*
X16200D02*X17700D01*
X32700Y229220D02*X33500D01*
Y225720D01*
X33000Y225220D02*X33500Y225720D01*
X32500Y225220D02*X33000D01*
X32000Y225720D02*X32500Y225220D01*
X32000Y226220D02*Y225720D01*
X34700Y228420D02*X35500Y229220D01*
Y225220D01*
X34700D02*X36200D01*
M02*
