G04 start of page 3 for group 1 idx 1 *
G04 Title: 1541-II TRK0, bottom *
G04 Creator: pcb 4.0.2 *
G04 CreationDate: Sun May  4 11:16:21 2025 UTC *
G04 For: ndv *
G04 Format: Gerber/RS-274X *
G04 PCB-Dimensions (mil): 800.00 2510.00 *
G04 PCB-Coordinate-Origin: lower left *
%MOIN*%
%FSLAX25Y25*%
%LNBOTTOM*%
%ADD29C,0.0472*%
%ADD28C,0.0380*%
%ADD27C,0.1200*%
%ADD26C,0.3000*%
%ADD25C,0.0685*%
%ADD24C,0.0680*%
%ADD23C,0.0600*%
%ADD22C,0.0001*%
%ADD21C,0.0250*%
%ADD20C,0.0100*%
G54D20*X0Y251000D02*X80000D01*
X0D02*Y0D01*
X80000Y251000D02*Y0D01*
X0D02*X80000D01*
G54D21*X20000Y237000D02*X44000D01*
X10000Y216000D02*X20000Y226000D01*
Y237000D01*
X24000Y218000D02*X49000D01*
X10000Y196000D02*Y216000D01*
X20000Y196000D02*Y214000D01*
X24000Y218000D01*
X34073Y206838D02*Y206073D01*
X27000Y199000D01*
Y194000D01*
X22000Y189000D02*X7000D01*
X3000Y193000D01*
X27000Y194000D02*X22000Y189000D01*
X3000Y193000D02*Y219000D01*
X10000Y226000D01*
X64000Y237000D02*Y232000D01*
X74000Y222000D01*
Y207000D01*
X49000Y218000D02*X54000Y223000D01*
Y237000D01*
G54D22*G36*
X30600Y221400D02*Y214600D01*
X37400D01*
Y221400D01*
X30600D01*
G37*
G36*
X30673Y210238D02*Y203438D01*
X37473D01*
Y210238D01*
X30673D01*
G37*
G54D23*X20000Y196000D03*
Y226000D03*
X10000Y196000D03*
G54D22*G36*
X7000Y229000D02*Y223000D01*
X13000D01*
Y229000D01*
X7000D01*
G37*
G54D24*X74000Y218000D03*
X74073Y206838D03*
G54D25*X44000Y237000D03*
X54000D03*
X64000D03*
G54D22*G36*
X47425Y241330D02*X40575D01*
Y232670D01*
X47425D01*
Y241330D01*
G37*
G54D25*X54000Y237905D02*Y236095D01*
X64000Y237905D02*Y236095D01*
G54D26*X16000Y51000D03*
Y142000D03*
Y106000D03*
G54D27*G54D28*G54D29*M02*
