G04 start of page 11 for group -3984 idx -3984 *
G04 Title: 1541-II TRK0, fab *
G04 Creator: pcb 4.0.2 *
G04 CreationDate: Sun May  4 11:16:21 2025 UTC *
G04 For: ndv *
G04 Format: Gerber/RS-274X *
G04 PCB-Dimensions (mil): 800.00 2510.00 *
G04 PCB-Coordinate-Origin: lower left *
%MOIN*%
%FSLAX25Y25*%
%LNFAB*%
%ADD58C,0.0100*%
%ADD57C,0.0075*%
%ADD56C,0.0060*%
%ADD55C,0.0080*%
G54D55*X0Y251000D02*X80000D01*
X0D02*Y0D01*
X80000Y251000D02*Y0D01*
X0D02*X80000D01*
G54D55*X14800Y52200D02*X17200Y49800D01*
X14800D02*X17200Y52200D01*
X14800Y143200D02*X17200Y140800D01*
X14800D02*X17200Y143200D01*
X14800Y107200D02*X17200Y104800D01*
X14800D02*X17200Y107200D01*
X13800Y278450D02*X16200Y276050D01*
X13800D02*X16200Y278450D01*
G54D56*X135000Y279500D02*X136500Y276500D01*
X138000Y279500D01*
X136500Y276500D02*Y273500D01*
X139800Y276800D02*X142050D01*
X139800Y273500D02*X142800D01*
X139800Y279500D02*Y273500D01*
Y279500D02*X142800D01*
X147600D02*X148350Y278750D01*
X145350Y279500D02*X147600D01*
X144600Y278750D02*X145350Y279500D01*
X144600Y278750D02*Y277250D01*
X145350Y276500D01*
X147600D01*
X148350Y275750D01*
Y274250D01*
X147600Y273500D02*X148350Y274250D01*
X145350Y273500D02*X147600D01*
X144600Y274250D02*X145350Y273500D01*
X98000Y278750D02*X98750Y279500D01*
X100250D01*
X101000Y278750D01*
X100250Y273500D02*X101000Y274250D01*
X98750Y273500D02*X100250D01*
X98000Y274250D02*X98750Y273500D01*
Y276800D02*X100250D01*
X101000Y278750D02*Y277550D01*
Y276050D02*Y274250D01*
Y276050D02*X100250Y276800D01*
X101000Y277550D02*X100250Y276800D01*
X45000Y274250D02*X45750Y273500D01*
X45000Y278750D02*Y274250D01*
Y278750D02*X45750Y279500D01*
X47250D01*
X48000Y278750D01*
Y274250D01*
X47250Y273500D02*X48000Y274250D01*
X45750Y273500D02*X47250D01*
X45000Y275000D02*X48000Y278000D01*
X49800Y273500D02*X50550D01*
X52350Y278300D02*X53550Y279500D01*
Y273500D01*
X52350D02*X54600D01*
X56400Y278750D02*X57150Y279500D01*
X59400D01*
X60150Y278750D01*
Y277250D01*
X56400Y273500D02*X60150Y277250D01*
X56400Y273500D02*X60150D01*
X61950Y274250D02*X62700Y273500D01*
X61950Y278750D02*Y274250D01*
Y278750D02*X62700Y279500D01*
X64200D01*
X64950Y278750D01*
Y274250D01*
X64200Y273500D02*X64950Y274250D01*
X62700Y273500D02*X64200D01*
X61950Y275000D02*X64950Y278000D01*
X44000Y238600D02*Y235400D01*
X42400Y237000D02*X45600D01*
X54000Y238600D02*Y235400D01*
X52400Y237000D02*X55600D01*
X64000Y238600D02*Y235400D01*
X62400Y237000D02*X65600D01*
X15000Y293850D02*Y290650D01*
X13400Y292250D02*X16600D01*
X135000Y294500D02*X136500Y291500D01*
X138000Y294500D01*
X136500Y291500D02*Y288500D01*
X139800Y291800D02*X142050D01*
X139800Y288500D02*X142800D01*
X139800Y294500D02*Y288500D01*
Y294500D02*X142800D01*
X147600D02*X148350Y293750D01*
X145350Y294500D02*X147600D01*
X144600Y293750D02*X145350Y294500D01*
X144600Y293750D02*Y292250D01*
X145350Y291500D01*
X147600D01*
X148350Y290750D01*
Y289250D01*
X147600Y288500D02*X148350Y289250D01*
X145350Y288500D02*X147600D01*
X144600Y289250D02*X145350Y288500D01*
X98000Y293750D02*X98750Y294500D01*
X100250D01*
X101000Y293750D01*
X100250Y288500D02*X101000Y289250D01*
X98750Y288500D02*X100250D01*
X98000Y289250D02*X98750Y288500D01*
Y291800D02*X100250D01*
X101000Y293750D02*Y292550D01*
Y291050D02*Y289250D01*
Y291050D02*X100250Y291800D01*
X101000Y292550D02*X100250Y291800D01*
X45000Y289250D02*X45750Y288500D01*
X45000Y293750D02*Y289250D01*
Y293750D02*X45750Y294500D01*
X47250D01*
X48000Y293750D01*
Y289250D01*
X47250Y288500D02*X48000Y289250D01*
X45750Y288500D02*X47250D01*
X45000Y290000D02*X48000Y293000D01*
X49800Y288500D02*X50550D01*
X52350Y289250D02*X53100Y288500D01*
X52350Y293750D02*Y289250D01*
Y293750D02*X53100Y294500D01*
X54600D01*
X55350Y293750D01*
Y289250D01*
X54600Y288500D02*X55350Y289250D01*
X53100Y288500D02*X54600D01*
X52350Y290000D02*X55350Y293000D01*
X57150Y290750D02*X60150Y294500D01*
X57150Y290750D02*X60900D01*
X60150Y294500D02*Y288500D01*
X63450D02*X66450Y294500D01*
X62700D02*X66450D01*
X34000Y218000D02*Y216400D01*
Y218000D02*X35387Y218800D01*
X34000Y218000D02*X32613Y218800D01*
X74000Y218000D02*Y216400D01*
Y218000D02*X75387Y218800D01*
X74000Y218000D02*X72613Y218800D01*
X34073Y206838D02*Y205238D01*
Y206838D02*X35460Y207638D01*
X34073Y206838D02*X32686Y207638D01*
X74073Y206838D02*Y205238D01*
Y206838D02*X75460Y207638D01*
X74073Y206838D02*X72686Y207638D01*
X20000Y196000D02*Y194400D01*
Y196000D02*X21387Y196800D01*
X20000Y196000D02*X18613Y196800D01*
X20000Y226000D02*Y224400D01*
Y226000D02*X21387Y226800D01*
X20000Y226000D02*X18613Y226800D01*
X10000Y196000D02*Y194400D01*
Y196000D02*X11387Y196800D01*
X10000Y196000D02*X8613Y196800D01*
X10000Y226000D02*Y224400D01*
Y226000D02*X11387Y226800D01*
X10000Y226000D02*X8613Y226800D01*
X15000Y307250D02*Y305650D01*
Y307250D02*X16387Y308050D01*
X15000Y307250D02*X13613Y308050D01*
X135000Y309500D02*X136500Y306500D01*
X138000Y309500D01*
X136500Y306500D02*Y303500D01*
X139800Y306800D02*X142050D01*
X139800Y303500D02*X142800D01*
X139800Y309500D02*Y303500D01*
Y309500D02*X142800D01*
X147600D02*X148350Y308750D01*
X145350Y309500D02*X147600D01*
X144600Y308750D02*X145350Y309500D01*
X144600Y308750D02*Y307250D01*
X145350Y306500D01*
X147600D01*
X148350Y305750D01*
Y304250D01*
X147600Y303500D02*X148350Y304250D01*
X145350Y303500D02*X147600D01*
X144600Y304250D02*X145350Y303500D01*
X98000Y304250D02*X98750Y303500D01*
X98000Y305450D02*Y304250D01*
Y305450D02*X99050Y306500D01*
X99950D01*
X101000Y305450D01*
Y304250D01*
X100250Y303500D02*X101000Y304250D01*
X98750Y303500D02*X100250D01*
X98000Y307550D02*X99050Y306500D01*
X98000Y308750D02*Y307550D01*
Y308750D02*X98750Y309500D01*
X100250D01*
X101000Y308750D01*
Y307550D01*
X99950Y306500D02*X101000Y307550D01*
X45000Y304250D02*X45750Y303500D01*
X45000Y308750D02*Y304250D01*
Y308750D02*X45750Y309500D01*
X47250D01*
X48000Y308750D01*
Y304250D01*
X47250Y303500D02*X48000Y304250D01*
X45750Y303500D02*X47250D01*
X45000Y305000D02*X48000Y308000D01*
X49800Y303500D02*X50550D01*
X52350Y304250D02*X53100Y303500D01*
X52350Y308750D02*Y304250D01*
Y308750D02*X53100Y309500D01*
X54600D01*
X55350Y308750D01*
Y304250D01*
X54600Y303500D02*X55350Y304250D01*
X53100Y303500D02*X54600D01*
X52350Y305000D02*X55350Y308000D01*
X57150Y308750D02*X57900Y309500D01*
X59400D01*
X60150Y308750D01*
X59400Y303500D02*X60150Y304250D01*
X57900Y303500D02*X59400D01*
X57150Y304250D02*X57900Y303500D01*
Y306800D02*X59400D01*
X60150Y308750D02*Y307550D01*
Y306050D02*Y304250D01*
Y306050D02*X59400Y306800D01*
X60150Y307550D02*X59400Y306800D01*
X61950Y304250D02*X62700Y303500D01*
X61950Y305450D02*Y304250D01*
Y305450D02*X63000Y306500D01*
X63900D01*
X64950Y305450D01*
Y304250D01*
X64200Y303500D02*X64950Y304250D01*
X62700Y303500D02*X64200D01*
X61950Y307550D02*X63000Y306500D01*
X61950Y308750D02*Y307550D01*
Y308750D02*X62700Y309500D01*
X64200D01*
X64950Y308750D01*
Y307550D01*
X63900Y306500D02*X64950Y307550D01*
X3000Y324500D02*X3750Y323750D01*
X750Y324500D02*X3000D01*
X0Y323750D02*X750Y324500D01*
X0Y323750D02*Y322250D01*
X750Y321500D01*
X3000D01*
X3750Y320750D01*
Y319250D01*
X3000Y318500D02*X3750Y319250D01*
X750Y318500D02*X3000D01*
X0Y319250D02*X750Y318500D01*
X5550Y321500D02*Y319250D01*
X6300Y318500D01*
X8550Y321500D02*Y317000D01*
X7800Y316250D02*X8550Y317000D01*
X6300Y316250D02*X7800D01*
X5550Y317000D02*X6300Y316250D01*
Y318500D02*X7800D01*
X8550Y319250D01*
X11100Y320750D02*Y318500D01*
Y320750D02*X11850Y321500D01*
X12600D01*
X13350Y320750D01*
Y318500D01*
Y320750D02*X14100Y321500D01*
X14850D01*
X15600Y320750D01*
Y318500D01*
X10350Y321500D02*X11100Y320750D01*
X17400Y324500D02*Y318500D01*
Y319250D02*X18150Y318500D01*
X19650D01*
X20400Y319250D01*
Y320750D02*Y319250D01*
X19650Y321500D02*X20400Y320750D01*
X18150Y321500D02*X19650D01*
X17400Y320750D02*X18150Y321500D01*
X22200Y320750D02*Y319250D01*
Y320750D02*X22950Y321500D01*
X24450D01*
X25200Y320750D01*
Y319250D01*
X24450Y318500D02*X25200Y319250D01*
X22950Y318500D02*X24450D01*
X22200Y319250D02*X22950Y318500D01*
X27000Y324500D02*Y319250D01*
X27750Y318500D01*
X0Y315250D02*X29250D01*
X41750Y324500D02*Y318500D01*
X43700Y324500D02*X44750Y323450D01*
Y319550D01*
X43700Y318500D02*X44750Y319550D01*
X41000Y318500D02*X43700D01*
X41000Y324500D02*X43700D01*
G54D57*X46550Y323000D02*Y322850D01*
G54D56*Y320750D02*Y318500D01*
X50300Y321500D02*X51050Y320750D01*
X48800Y321500D02*X50300D01*
X48050Y320750D02*X48800Y321500D01*
X48050Y320750D02*Y319250D01*
X48800Y318500D01*
X51050Y321500D02*Y319250D01*
X51800Y318500D01*
X48800D02*X50300D01*
X51050Y319250D01*
X54350Y320750D02*Y318500D01*
Y320750D02*X55100Y321500D01*
X55850D01*
X56600Y320750D01*
Y318500D01*
Y320750D02*X57350Y321500D01*
X58100D01*
X58850Y320750D01*
Y318500D01*
X53600Y321500D02*X54350Y320750D01*
X60650Y318500D02*X61400D01*
X65900Y319250D02*X66650Y318500D01*
X65900Y323750D02*X66650Y324500D01*
X65900Y323750D02*Y319250D01*
X68450Y324500D02*X69950D01*
X69200D02*Y318500D01*
X68450D02*X69950D01*
X72500Y320750D02*Y318500D01*
Y320750D02*X73250Y321500D01*
X74000D01*
X74750Y320750D01*
Y318500D01*
X71750Y321500D02*X72500Y320750D01*
X77300Y321500D02*X79550D01*
X76550Y320750D02*X77300Y321500D01*
X76550Y320750D02*Y319250D01*
X77300Y318500D01*
X79550D01*
X81350Y324500D02*Y318500D01*
Y320750D02*X82100Y321500D01*
X83600D01*
X84350Y320750D01*
Y318500D01*
X86150Y324500D02*X86900Y323750D01*
Y319250D01*
X86150Y318500D02*X86900Y319250D01*
X41000Y315250D02*X88700D01*
X96050Y318500D02*X98000D01*
X95000Y319550D02*X96050Y318500D01*
X95000Y323450D02*Y319550D01*
Y323450D02*X96050Y324500D01*
X98000D01*
X99800Y320750D02*Y319250D01*
Y320750D02*X100550Y321500D01*
X102050D01*
X102800Y320750D01*
Y319250D01*
X102050Y318500D02*X102800Y319250D01*
X100550Y318500D02*X102050D01*
X99800Y319250D02*X100550Y318500D01*
X104600Y321500D02*Y319250D01*
X105350Y318500D01*
X106850D01*
X107600Y319250D01*
Y321500D02*Y319250D01*
X110150Y320750D02*Y318500D01*
Y320750D02*X110900Y321500D01*
X111650D01*
X112400Y320750D01*
Y318500D01*
X109400Y321500D02*X110150Y320750D01*
X114950Y324500D02*Y319250D01*
X115700Y318500D01*
X114200Y322250D02*X115700D01*
X95000Y315250D02*X117200D01*
X130750Y324500D02*Y318500D01*
X130000Y324500D02*X133000D01*
X133750Y323750D01*
Y322250D01*
X133000Y321500D02*X133750Y322250D01*
X130750Y321500D02*X133000D01*
X135550Y324500D02*Y319250D01*
X136300Y318500D01*
X140050Y321500D02*X140800Y320750D01*
X138550Y321500D02*X140050D01*
X137800Y320750D02*X138550Y321500D01*
X137800Y320750D02*Y319250D01*
X138550Y318500D01*
X140800Y321500D02*Y319250D01*
X141550Y318500D01*
X138550D02*X140050D01*
X140800Y319250D01*
X144100Y324500D02*Y319250D01*
X144850Y318500D01*
X143350Y322250D02*X144850D01*
X147100Y318500D02*X149350D01*
X146350Y319250D02*X147100Y318500D01*
X146350Y320750D02*Y319250D01*
Y320750D02*X147100Y321500D01*
X148600D01*
X149350Y320750D01*
X146350Y320000D02*X149350D01*
Y320750D02*Y320000D01*
X154150Y324500D02*Y318500D01*
X153400D02*X154150Y319250D01*
X151900Y318500D02*X153400D01*
X151150Y319250D02*X151900Y318500D01*
X151150Y320750D02*Y319250D01*
Y320750D02*X151900Y321500D01*
X153400D01*
X154150Y320750D01*
X157450Y321500D02*Y320750D01*
Y319250D02*Y318500D01*
X155950Y323750D02*Y323000D01*
Y323750D02*X156700Y324500D01*
X158200D01*
X158950Y323750D01*
Y323000D01*
X157450Y321500D02*X158950Y323000D01*
X130000Y315250D02*X160750D01*
X0Y339500D02*X3000D01*
X1500D02*Y333500D01*
X4800Y339500D02*Y333500D01*
Y335750D02*X5550Y336500D01*
X7050D01*
X7800Y335750D01*
Y333500D01*
X10350D02*X12600D01*
X9600Y334250D02*X10350Y333500D01*
X9600Y335750D02*Y334250D01*
Y335750D02*X10350Y336500D01*
X11850D01*
X12600Y335750D01*
X9600Y335000D02*X12600D01*
Y335750D02*Y335000D01*
X15150Y335750D02*Y333500D01*
Y335750D02*X15900Y336500D01*
X17400D01*
X14400D02*X15150Y335750D01*
X19950Y333500D02*X22200D01*
X19200Y334250D02*X19950Y333500D01*
X19200Y335750D02*Y334250D01*
Y335750D02*X19950Y336500D01*
X21450D01*
X22200Y335750D01*
X19200Y335000D02*X22200D01*
Y335750D02*Y335000D01*
X28950Y336500D02*X29700Y335750D01*
X27450Y336500D02*X28950D01*
X26700Y335750D02*X27450Y336500D01*
X26700Y335750D02*Y334250D01*
X27450Y333500D01*
X29700Y336500D02*Y334250D01*
X30450Y333500D01*
X27450D02*X28950D01*
X29700Y334250D01*
X33000Y335750D02*Y333500D01*
Y335750D02*X33750Y336500D01*
X35250D01*
X32250D02*X33000Y335750D01*
X37800Y333500D02*X40050D01*
X37050Y334250D02*X37800Y333500D01*
X37050Y335750D02*Y334250D01*
Y335750D02*X37800Y336500D01*
X39300D01*
X40050Y335750D01*
X37050Y335000D02*X40050D01*
Y335750D02*Y335000D01*
X44550Y338750D02*X45300Y339500D01*
X46800D01*
X47550Y338750D01*
X46800Y333500D02*X47550Y334250D01*
X45300Y333500D02*X46800D01*
X44550Y334250D02*X45300Y333500D01*
Y336800D02*X46800D01*
X47550Y338750D02*Y337550D01*
Y336050D02*Y334250D01*
Y336050D02*X46800Y336800D01*
X47550Y337550D02*X46800Y336800D01*
X55050Y339500D02*Y333500D01*
X54300D02*X55050Y334250D01*
X52800Y333500D02*X54300D01*
X52050Y334250D02*X52800Y333500D01*
X52050Y335750D02*Y334250D01*
Y335750D02*X52800Y336500D01*
X54300D01*
X55050Y335750D01*
G54D57*X56850Y338000D02*Y337850D01*
G54D56*Y335750D02*Y333500D01*
X59100Y338750D02*Y333500D01*
Y338750D02*X59850Y339500D01*
X60600D01*
X58350Y336500D02*X59850D01*
X62850Y338750D02*Y333500D01*
Y338750D02*X63600Y339500D01*
X64350D01*
X62100Y336500D02*X63600D01*
X66600Y333500D02*X68850D01*
X65850Y334250D02*X66600Y333500D01*
X65850Y335750D02*Y334250D01*
Y335750D02*X66600Y336500D01*
X68100D01*
X68850Y335750D01*
X65850Y335000D02*X68850D01*
Y335750D02*Y335000D01*
X71400Y335750D02*Y333500D01*
Y335750D02*X72150Y336500D01*
X73650D01*
X70650D02*X71400Y335750D01*
X76200Y333500D02*X78450D01*
X75450Y334250D02*X76200Y333500D01*
X75450Y335750D02*Y334250D01*
Y335750D02*X76200Y336500D01*
X77700D01*
X78450Y335750D01*
X75450Y335000D02*X78450D01*
Y335750D02*Y335000D01*
X81000Y335750D02*Y333500D01*
Y335750D02*X81750Y336500D01*
X82500D01*
X83250Y335750D01*
Y333500D01*
X80250Y336500D02*X81000Y335750D01*
X85800Y339500D02*Y334250D01*
X86550Y333500D01*
X85050Y337250D02*X86550D01*
X93750Y339500D02*Y333500D01*
X93000D02*X93750Y334250D01*
X91500Y333500D02*X93000D01*
X90750Y334250D02*X91500Y333500D01*
X90750Y335750D02*Y334250D01*
Y335750D02*X91500Y336500D01*
X93000D01*
X93750Y335750D01*
X96300D02*Y333500D01*
Y335750D02*X97050Y336500D01*
X98550D01*
X95550D02*X96300Y335750D01*
G54D57*X100350Y338000D02*Y337850D01*
G54D56*Y335750D02*Y333500D01*
X101850Y339500D02*Y334250D01*
X102600Y333500D01*
X104100Y339500D02*Y334250D01*
X104850Y333500D01*
X109800D02*X112050D01*
X112800Y334250D01*
X112050Y335000D02*X112800Y334250D01*
X109800Y335000D02*X112050D01*
X109050Y335750D02*X109800Y335000D01*
X109050Y335750D02*X109800Y336500D01*
X112050D01*
X112800Y335750D01*
X109050Y334250D02*X109800Y333500D01*
G54D57*X114600Y338000D02*Y337850D01*
G54D56*Y335750D02*Y333500D01*
X116100Y336500D02*X119100D01*
X116100Y333500D02*X119100Y336500D01*
X116100Y333500D02*X119100D01*
X121650D02*X123900D01*
X120900Y334250D02*X121650Y333500D01*
X120900Y335750D02*Y334250D01*
Y335750D02*X121650Y336500D01*
X123150D01*
X123900Y335750D01*
X120900Y335000D02*X123900D01*
Y335750D02*Y335000D01*
X126450Y333500D02*X128700D01*
X129450Y334250D01*
X128700Y335000D02*X129450Y334250D01*
X126450Y335000D02*X128700D01*
X125700Y335750D02*X126450Y335000D01*
X125700Y335750D02*X126450Y336500D01*
X128700D01*
X129450Y335750D01*
X125700Y334250D02*X126450Y333500D01*
X133950Y336500D02*Y334250D01*
X134700Y333500D01*
X136200D01*
X136950Y334250D01*
Y336500D02*Y334250D01*
X139500Y333500D02*X141750D01*
X142500Y334250D01*
X141750Y335000D02*X142500Y334250D01*
X139500Y335000D02*X141750D01*
X138750Y335750D02*X139500Y335000D01*
X138750Y335750D02*X139500Y336500D01*
X141750D01*
X142500Y335750D01*
X138750Y334250D02*X139500Y333500D01*
X145050D02*X147300D01*
X144300Y334250D02*X145050Y333500D01*
X144300Y335750D02*Y334250D01*
Y335750D02*X145050Y336500D01*
X146550D01*
X147300Y335750D01*
X144300Y335000D02*X147300D01*
Y335750D02*Y335000D01*
X152100Y339500D02*Y333500D01*
X151350D02*X152100Y334250D01*
X149850Y333500D02*X151350D01*
X149100Y334250D02*X149850Y333500D01*
X149100Y335750D02*Y334250D01*
Y335750D02*X149850Y336500D01*
X151350D01*
X152100Y335750D01*
G54D57*X156600Y338000D02*Y337850D01*
G54D56*Y335750D02*Y333500D01*
X158850Y335750D02*Y333500D01*
Y335750D02*X159600Y336500D01*
X160350D01*
X161100Y335750D01*
Y333500D01*
X158100Y336500D02*X158850Y335750D01*
X166350Y339500D02*Y334250D01*
X167100Y333500D01*
X165600Y337250D02*X167100D01*
X168600Y339500D02*Y333500D01*
Y335750D02*X169350Y336500D01*
X170850D01*
X171600Y335750D01*
Y333500D01*
G54D57*X173400Y338000D02*Y337850D01*
G54D56*Y335750D02*Y333500D01*
X175650D02*X177900D01*
X178650Y334250D01*
X177900Y335000D02*X178650Y334250D01*
X175650Y335000D02*X177900D01*
X174900Y335750D02*X175650Y335000D01*
X174900Y335750D02*X175650Y336500D01*
X177900D01*
X178650Y335750D01*
X174900Y334250D02*X175650Y333500D01*
X183150Y339500D02*Y334250D01*
X183900Y333500D01*
X187650Y336500D02*X188400Y335750D01*
X186150Y336500D02*X187650D01*
X185400Y335750D02*X186150Y336500D01*
X185400Y335750D02*Y334250D01*
X186150Y333500D01*
X188400Y336500D02*Y334250D01*
X189150Y333500D01*
X186150D02*X187650D01*
X188400Y334250D01*
X190950Y336500D02*Y334250D01*
X191700Y333500D01*
X193950Y336500D02*Y332000D01*
X193200Y331250D02*X193950Y332000D01*
X191700Y331250D02*X193200D01*
X190950Y332000D02*X191700Y331250D01*
Y333500D02*X193200D01*
X193950Y334250D01*
X195750Y335750D02*Y334250D01*
Y335750D02*X196500Y336500D01*
X198000D01*
X198750Y335750D01*
Y334250D01*
X198000Y333500D02*X198750Y334250D01*
X196500Y333500D02*X198000D01*
X195750Y334250D02*X196500Y333500D01*
X200550Y336500D02*Y334250D01*
X201300Y333500D01*
X202800D01*
X203550Y334250D01*
Y336500D02*Y334250D01*
X206100Y339500D02*Y334250D01*
X206850Y333500D01*
X205350Y337250D02*X206850D01*
X208350Y332000D02*X209850Y333500D01*
X214350Y338300D02*X215550Y339500D01*
Y333500D01*
X214350D02*X216600D01*
X218400Y335750D02*X221400Y339500D01*
X218400Y335750D02*X222150D01*
X221400Y339500D02*Y333500D01*
X226650Y339500D02*Y333500D01*
Y335750D02*X227400Y336500D01*
X228900D01*
X229650Y335750D01*
Y333500D01*
X231450Y335750D02*Y334250D01*
Y335750D02*X232200Y336500D01*
X233700D01*
X234450Y335750D01*
Y334250D01*
X233700Y333500D02*X234450Y334250D01*
X232200Y333500D02*X233700D01*
X231450Y334250D02*X232200Y333500D01*
X236250Y339500D02*Y334250D01*
X237000Y333500D01*
X239250D02*X241500D01*
X238500Y334250D02*X239250Y333500D01*
X238500Y335750D02*Y334250D01*
Y335750D02*X239250Y336500D01*
X240750D01*
X241500Y335750D01*
X238500Y335000D02*X241500D01*
Y335750D02*Y335000D01*
X244050Y333500D02*X246300D01*
X247050Y334250D01*
X246300Y335000D02*X247050Y334250D01*
X244050Y335000D02*X246300D01*
X243300Y335750D02*X244050Y335000D01*
X243300Y335750D02*X244050Y336500D01*
X246300D01*
X247050Y335750D01*
X243300Y334250D02*X244050Y333500D01*
X252300Y339500D02*Y334250D01*
X253050Y333500D01*
X251550Y337250D02*X253050D01*
X254550Y335750D02*Y334250D01*
Y335750D02*X255300Y336500D01*
X256800D01*
X257550Y335750D01*
Y334250D01*
X256800Y333500D02*X257550Y334250D01*
X255300Y333500D02*X256800D01*
X254550Y334250D02*X255300Y333500D01*
X260100Y339500D02*Y334250D01*
X260850Y333500D01*
X259350Y337250D02*X260850D01*
X264600Y336500D02*X265350Y335750D01*
X263100Y336500D02*X264600D01*
X262350Y335750D02*X263100Y336500D01*
X262350Y335750D02*Y334250D01*
X263100Y333500D01*
X265350Y336500D02*Y334250D01*
X266100Y333500D01*
X263100D02*X264600D01*
X265350Y334250D01*
X267900Y339500D02*Y334250D01*
X268650Y333500D01*
G54D58*X0Y251000D02*X80000D01*
X0D02*Y0D01*
X80000Y251000D02*Y0D01*
X0D02*X80000D01*
G54D56*X200000Y264500D02*Y258500D01*
Y264500D02*X202250Y261500D01*
X204500Y264500D01*
Y258500D01*
X208550Y261500D02*X209300Y260750D01*
X207050Y261500D02*X208550D01*
X206300Y260750D02*X207050Y261500D01*
X206300Y260750D02*Y259250D01*
X207050Y258500D01*
X209300Y261500D02*Y259250D01*
X210050Y258500D01*
X207050D02*X208550D01*
X209300Y259250D01*
X211850Y261500D02*X214850Y258500D01*
X211850D02*X214850Y261500D01*
G54D57*X216650Y263000D02*Y262850D01*
G54D56*Y260750D02*Y258500D01*
X218900Y260750D02*Y258500D01*
Y260750D02*X219650Y261500D01*
X220400D01*
X221150Y260750D01*
Y258500D01*
Y260750D02*X221900Y261500D01*
X222650D01*
X223400Y260750D01*
Y258500D01*
X218150Y261500D02*X218900Y260750D01*
X225200Y261500D02*Y259250D01*
X225950Y258500D01*
X227450D01*
X228200Y259250D01*
Y261500D02*Y259250D01*
X230750Y260750D02*Y258500D01*
Y260750D02*X231500Y261500D01*
X232250D01*
X233000Y260750D01*
Y258500D01*
Y260750D02*X233750Y261500D01*
X234500D01*
X235250Y260750D01*
Y258500D01*
X230000Y261500D02*X230750Y260750D01*
X240500Y264500D02*Y258500D01*
X242450Y264500D02*X243500Y263450D01*
Y259550D01*
X242450Y258500D02*X243500Y259550D01*
X239750Y258500D02*X242450D01*
X239750Y264500D02*X242450D01*
G54D57*X245300Y263000D02*Y262850D01*
G54D56*Y260750D02*Y258500D01*
X247550Y260750D02*Y258500D01*
Y260750D02*X248300Y261500D01*
X249050D01*
X249800Y260750D01*
Y258500D01*
Y260750D02*X250550Y261500D01*
X251300D01*
X252050Y260750D01*
Y258500D01*
X246800Y261500D02*X247550Y260750D01*
X254600Y258500D02*X256850D01*
X253850Y259250D02*X254600Y258500D01*
X253850Y260750D02*Y259250D01*
Y260750D02*X254600Y261500D01*
X256100D01*
X256850Y260750D01*
X253850Y260000D02*X256850D01*
Y260750D02*Y260000D01*
X259400Y260750D02*Y258500D01*
Y260750D02*X260150Y261500D01*
X260900D01*
X261650Y260750D01*
Y258500D01*
X258650Y261500D02*X259400Y260750D01*
X264200Y258500D02*X266450D01*
X267200Y259250D01*
X266450Y260000D02*X267200Y259250D01*
X264200Y260000D02*X266450D01*
X263450Y260750D02*X264200Y260000D01*
X263450Y260750D02*X264200Y261500D01*
X266450D01*
X267200Y260750D01*
X263450Y259250D02*X264200Y258500D01*
G54D57*X269000Y263000D02*Y262850D01*
G54D56*Y260750D02*Y258500D01*
X270500Y260750D02*Y259250D01*
Y260750D02*X271250Y261500D01*
X272750D01*
X273500Y260750D01*
Y259250D01*
X272750Y258500D02*X273500Y259250D01*
X271250Y258500D02*X272750D01*
X270500Y259250D02*X271250Y258500D01*
X276050Y260750D02*Y258500D01*
Y260750D02*X276800Y261500D01*
X277550D01*
X278300Y260750D01*
Y258500D01*
X275300Y261500D02*X276050Y260750D01*
X280850Y258500D02*X283100D01*
X283850Y259250D01*
X283100Y260000D02*X283850Y259250D01*
X280850Y260000D02*X283100D01*
X280100Y260750D02*X280850Y260000D01*
X280100Y260750D02*X280850Y261500D01*
X283100D01*
X283850Y260750D01*
X280100Y259250D02*X280850Y258500D01*
X285650Y262250D02*X286400D01*
X285650Y260750D02*X286400D01*
X290900Y259250D02*X291650Y258500D01*
X290900Y260450D02*Y259250D01*
Y260450D02*X291950Y261500D01*
X292850D01*
X293900Y260450D01*
Y259250D01*
X293150Y258500D02*X293900Y259250D01*
X291650Y258500D02*X293150D01*
X290900Y262550D02*X291950Y261500D01*
X290900Y263750D02*Y262550D01*
Y263750D02*X291650Y264500D01*
X293150D01*
X293900Y263750D01*
Y262550D01*
X292850Y261500D02*X293900Y262550D01*
X295700Y259250D02*X296450Y258500D01*
X295700Y263750D02*Y259250D01*
Y263750D02*X296450Y264500D01*
X297950D01*
X298700Y263750D01*
Y259250D01*
X297950Y258500D02*X298700Y259250D01*
X296450Y258500D02*X297950D01*
X295700Y260000D02*X298700Y263000D01*
X300500Y259250D02*X301250Y258500D01*
X300500Y263750D02*Y259250D01*
Y263750D02*X301250Y264500D01*
X302750D01*
X303500Y263750D01*
Y259250D01*
X302750Y258500D02*X303500Y259250D01*
X301250Y258500D02*X302750D01*
X300500Y260000D02*X303500Y263000D01*
X305300Y258500D02*X306050D01*
X307850Y259250D02*X308600Y258500D01*
X307850Y263750D02*Y259250D01*
Y263750D02*X308600Y264500D01*
X310100D01*
X310850Y263750D01*
Y259250D01*
X310100Y258500D02*X310850Y259250D01*
X308600Y258500D02*X310100D01*
X307850Y260000D02*X310850Y263000D01*
X312650Y259250D02*X313400Y258500D01*
X312650Y263750D02*Y259250D01*
Y263750D02*X313400Y264500D01*
X314900D01*
X315650Y263750D01*
Y259250D01*
X314900Y258500D02*X315650Y259250D01*
X313400Y258500D02*X314900D01*
X312650Y260000D02*X315650Y263000D01*
X317450Y259250D02*X318200Y258500D01*
X317450Y263750D02*Y259250D01*
Y263750D02*X318200Y264500D01*
X319700D01*
X320450Y263750D01*
Y259250D01*
X319700Y258500D02*X320450Y259250D01*
X318200Y258500D02*X319700D01*
X317450Y260000D02*X320450Y263000D01*
X322250Y259250D02*X323000Y258500D01*
X322250Y263750D02*Y259250D01*
Y263750D02*X323000Y264500D01*
X324500D01*
X325250Y263750D01*
Y259250D01*
X324500Y258500D02*X325250Y259250D01*
X323000Y258500D02*X324500D01*
X322250Y260000D02*X325250Y263000D01*
X327050Y259250D02*X327800Y258500D01*
X327050Y263750D02*Y259250D01*
Y263750D02*X327800Y264500D01*
X329300D01*
X330050Y263750D01*
Y259250D01*
X329300Y258500D02*X330050Y259250D01*
X327800Y258500D02*X329300D01*
X327050Y260000D02*X330050Y263000D01*
X331850Y259250D02*X332600Y258500D01*
X331850Y263750D02*Y259250D01*
Y263750D02*X332600Y264500D01*
X334100D01*
X334850Y263750D01*
Y259250D01*
X334100Y258500D02*X334850Y259250D01*
X332600Y258500D02*X334100D01*
X331850Y260000D02*X334850Y263000D01*
X340100Y260750D02*Y258500D01*
Y260750D02*X340850Y261500D01*
X341600D01*
X342350Y260750D01*
Y258500D01*
Y260750D02*X343100Y261500D01*
X343850D01*
X344600Y260750D01*
Y258500D01*
X339350Y261500D02*X340100Y260750D01*
G54D57*X346400Y263000D02*Y262850D01*
G54D56*Y260750D02*Y258500D01*
X347900Y264500D02*Y259250D01*
X348650Y258500D01*
X350900D02*X353150D01*
X353900Y259250D01*
X353150Y260000D02*X353900Y259250D01*
X350900Y260000D02*X353150D01*
X350150Y260750D02*X350900Y260000D01*
X350150Y260750D02*X350900Y261500D01*
X353150D01*
X353900Y260750D01*
X350150Y259250D02*X350900Y258500D01*
X358400Y261500D02*Y259250D01*
X359150Y258500D01*
X359900D01*
X360650Y259250D01*
Y261500D02*Y259250D01*
X361400Y258500D01*
X362150D01*
X362900Y259250D01*
Y261500D02*Y259250D01*
G54D57*X364700Y263000D02*Y262850D01*
G54D56*Y260750D02*Y258500D01*
X369200Y264500D02*Y258500D01*
X368450D02*X369200Y259250D01*
X366950Y258500D02*X368450D01*
X366200Y259250D02*X366950Y258500D01*
X366200Y260750D02*Y259250D01*
Y260750D02*X366950Y261500D01*
X368450D01*
X369200Y260750D01*
X371750Y258500D02*X374000D01*
X371000Y259250D02*X371750Y258500D01*
X371000Y260750D02*Y259250D01*
Y260750D02*X371750Y261500D01*
X373250D01*
X374000Y260750D01*
X371000Y260000D02*X374000D01*
Y260750D02*Y260000D01*
X375800Y257000D02*X377300Y258500D01*
X381800Y263750D02*X382550Y264500D01*
X384800D01*
X385550Y263750D01*
Y262250D01*
X381800Y258500D02*X385550Y262250D01*
X381800Y258500D02*X385550D01*
X387350Y264500D02*X390350D01*
X387350D02*Y261500D01*
X388100Y262250D01*
X389600D01*
X390350Y261500D01*
Y259250D01*
X389600Y258500D02*X390350Y259250D01*
X388100Y258500D02*X389600D01*
X387350Y259250D02*X388100Y258500D01*
X392150Y263300D02*X393350Y264500D01*
Y258500D01*
X392150D02*X394400D01*
X396200Y259250D02*X396950Y258500D01*
X396200Y263750D02*Y259250D01*
Y263750D02*X396950Y264500D01*
X398450D01*
X399200Y263750D01*
Y259250D01*
X398450Y258500D02*X399200Y259250D01*
X396950Y258500D02*X398450D01*
X396200Y260000D02*X399200Y263000D01*
X401000Y258500D02*X401750D01*
X403550Y259250D02*X404300Y258500D01*
X403550Y263750D02*Y259250D01*
Y263750D02*X404300Y264500D01*
X405800D01*
X406550Y263750D01*
Y259250D01*
X405800Y258500D02*X406550Y259250D01*
X404300Y258500D02*X405800D01*
X403550Y260000D02*X406550Y263000D01*
X408350Y259250D02*X409100Y258500D01*
X408350Y263750D02*Y259250D01*
Y263750D02*X409100Y264500D01*
X410600D01*
X411350Y263750D01*
Y259250D01*
X410600Y258500D02*X411350Y259250D01*
X409100Y258500D02*X410600D01*
X408350Y260000D02*X411350Y263000D01*
X413150Y259250D02*X413900Y258500D01*
X413150Y263750D02*Y259250D01*
Y263750D02*X413900Y264500D01*
X415400D01*
X416150Y263750D01*
Y259250D01*
X415400Y258500D02*X416150Y259250D01*
X413900Y258500D02*X415400D01*
X413150Y260000D02*X416150Y263000D01*
X417950Y259250D02*X418700Y258500D01*
X417950Y263750D02*Y259250D01*
Y263750D02*X418700Y264500D01*
X420200D01*
X420950Y263750D01*
Y259250D01*
X420200Y258500D02*X420950Y259250D01*
X418700Y258500D02*X420200D01*
X417950Y260000D02*X420950Y263000D01*
X422750Y259250D02*X423500Y258500D01*
X422750Y263750D02*Y259250D01*
Y263750D02*X423500Y264500D01*
X425000D01*
X425750Y263750D01*
Y259250D01*
X425000Y258500D02*X425750Y259250D01*
X423500Y258500D02*X425000D01*
X422750Y260000D02*X425750Y263000D01*
X427550Y259250D02*X428300Y258500D01*
X427550Y263750D02*Y259250D01*
Y263750D02*X428300Y264500D01*
X429800D01*
X430550Y263750D01*
Y259250D01*
X429800Y258500D02*X430550Y259250D01*
X428300Y258500D02*X429800D01*
X427550Y260000D02*X430550Y263000D01*
X435800Y260750D02*Y258500D01*
Y260750D02*X436550Y261500D01*
X437300D01*
X438050Y260750D01*
Y258500D01*
Y260750D02*X438800Y261500D01*
X439550D01*
X440300Y260750D01*
Y258500D01*
X435050Y261500D02*X435800Y260750D01*
G54D57*X442100Y263000D02*Y262850D01*
G54D56*Y260750D02*Y258500D01*
X443600Y264500D02*Y259250D01*
X444350Y258500D01*
X446600D02*X448850D01*
X449600Y259250D01*
X448850Y260000D02*X449600Y259250D01*
X446600Y260000D02*X448850D01*
X445850Y260750D02*X446600Y260000D01*
X445850Y260750D02*X446600Y261500D01*
X448850D01*
X449600Y260750D01*
X445850Y259250D02*X446600Y258500D01*
X454100Y264500D02*Y258500D01*
Y260750D02*X454850Y261500D01*
X456350D01*
X457100Y260750D01*
Y258500D01*
G54D57*X458900Y263000D02*Y262850D01*
G54D56*Y260750D02*Y258500D01*
X462650Y261500D02*X463400Y260750D01*
X461150Y261500D02*X462650D01*
X460400Y260750D02*X461150Y261500D01*
X460400Y260750D02*Y259250D01*
X461150Y258500D01*
X462650D01*
X463400Y259250D01*
X460400Y257000D02*X461150Y256250D01*
X462650D01*
X463400Y257000D01*
Y261500D02*Y257000D01*
X465200Y264500D02*Y258500D01*
Y260750D02*X465950Y261500D01*
X467450D01*
X468200Y260750D01*
Y258500D01*
X0Y-9500D02*X3000D01*
X3750Y-8750D01*
Y-6950D02*Y-8750D01*
X3000Y-6200D02*X3750Y-6950D01*
X750Y-6200D02*X3000D01*
X750Y-3500D02*Y-9500D01*
X0Y-3500D02*X3000D01*
X3750Y-4250D01*
Y-5450D01*
X3000Y-6200D02*X3750Y-5450D01*
X5550Y-7250D02*Y-8750D01*
Y-7250D02*X6300Y-6500D01*
X7800D01*
X8550Y-7250D01*
Y-8750D01*
X7800Y-9500D02*X8550Y-8750D01*
X6300Y-9500D02*X7800D01*
X5550Y-8750D02*X6300Y-9500D01*
X12600Y-6500D02*X13350Y-7250D01*
X11100Y-6500D02*X12600D01*
X10350Y-7250D02*X11100Y-6500D01*
X10350Y-7250D02*Y-8750D01*
X11100Y-9500D01*
X13350Y-6500D02*Y-8750D01*
X14100Y-9500D01*
X11100D02*X12600D01*
X13350Y-8750D01*
X16650Y-7250D02*Y-9500D01*
Y-7250D02*X17400Y-6500D01*
X18900D01*
X15900D02*X16650Y-7250D01*
X23700Y-3500D02*Y-9500D01*
X22950D02*X23700Y-8750D01*
X21450Y-9500D02*X22950D01*
X20700Y-8750D02*X21450Y-9500D01*
X20700Y-7250D02*Y-8750D01*
Y-7250D02*X21450Y-6500D01*
X22950D01*
X23700Y-7250D01*
X28200D02*Y-8750D01*
Y-7250D02*X28950Y-6500D01*
X30450D01*
X31200Y-7250D01*
Y-8750D01*
X30450Y-9500D02*X31200Y-8750D01*
X28950Y-9500D02*X30450D01*
X28200Y-8750D02*X28950Y-9500D01*
X33000Y-6500D02*Y-8750D01*
X33750Y-9500D01*
X35250D01*
X36000Y-8750D01*
Y-6500D02*Y-8750D01*
X38550Y-3500D02*Y-8750D01*
X39300Y-9500D01*
X37800Y-5750D02*X39300D01*
X40800Y-3500D02*Y-8750D01*
X41550Y-9500D01*
G54D57*X43050Y-5000D02*Y-5150D01*
G54D56*Y-7250D02*Y-9500D01*
X45300Y-7250D02*Y-9500D01*
Y-7250D02*X46050Y-6500D01*
X46800D01*
X47550Y-7250D01*
Y-9500D01*
X44550Y-6500D02*X45300Y-7250D01*
X50100Y-9500D02*X52350D01*
X49350Y-8750D02*X50100Y-9500D01*
X49350Y-7250D02*Y-8750D01*
Y-7250D02*X50100Y-6500D01*
X51600D01*
X52350Y-7250D01*
X49350Y-8000D02*X52350D01*
Y-7250D02*Y-8000D01*
G54D57*X56850Y-5000D02*Y-5150D01*
G54D56*Y-7250D02*Y-9500D01*
X59100D02*X61350D01*
X62100Y-8750D01*
X61350Y-8000D02*X62100Y-8750D01*
X59100Y-8000D02*X61350D01*
X58350Y-7250D02*X59100Y-8000D01*
X58350Y-7250D02*X59100Y-6500D01*
X61350D01*
X62100Y-7250D01*
X58350Y-8750D02*X59100Y-9500D01*
X67350Y-3500D02*Y-8750D01*
X68100Y-9500D01*
X66600Y-5750D02*X68100D01*
X69600Y-3500D02*Y-9500D01*
Y-7250D02*X70350Y-6500D01*
X71850D01*
X72600Y-7250D01*
Y-9500D01*
X75150D02*X77400D01*
X74400Y-8750D02*X75150Y-9500D01*
X74400Y-7250D02*Y-8750D01*
Y-7250D02*X75150Y-6500D01*
X76650D01*
X77400Y-7250D01*
X74400Y-8000D02*X77400D01*
Y-7250D02*Y-8000D01*
X82650Y-6500D02*X84900D01*
X81900Y-7250D02*X82650Y-6500D01*
X81900Y-7250D02*Y-8750D01*
X82650Y-9500D01*
X84900D01*
X87450D02*X89700D01*
X86700Y-8750D02*X87450Y-9500D01*
X86700Y-7250D02*Y-8750D01*
Y-7250D02*X87450Y-6500D01*
X88950D01*
X89700Y-7250D01*
X86700Y-8000D02*X89700D01*
Y-7250D02*Y-8000D01*
X92250Y-7250D02*Y-9500D01*
Y-7250D02*X93000Y-6500D01*
X93750D01*
X94500Y-7250D01*
Y-9500D01*
X91500Y-6500D02*X92250Y-7250D01*
X97050Y-3500D02*Y-8750D01*
X97800Y-9500D01*
X96300Y-5750D02*X97800D01*
X100050Y-9500D02*X102300D01*
X99300Y-8750D02*X100050Y-9500D01*
X99300Y-7250D02*Y-8750D01*
Y-7250D02*X100050Y-6500D01*
X101550D01*
X102300Y-7250D01*
X99300Y-8000D02*X102300D01*
Y-7250D02*Y-8000D01*
X104850Y-7250D02*Y-9500D01*
Y-7250D02*X105600Y-6500D01*
X107100D01*
X104100D02*X104850Y-7250D01*
X108900Y-3500D02*Y-8750D01*
X109650Y-9500D01*
G54D57*X111150Y-5000D02*Y-5150D01*
G54D56*Y-7250D02*Y-9500D01*
X113400Y-7250D02*Y-9500D01*
Y-7250D02*X114150Y-6500D01*
X114900D01*
X115650Y-7250D01*
Y-9500D01*
X112650Y-6500D02*X113400Y-7250D01*
X118200Y-9500D02*X120450D01*
X117450Y-8750D02*X118200Y-9500D01*
X117450Y-7250D02*Y-8750D01*
Y-7250D02*X118200Y-6500D01*
X119700D01*
X120450Y-7250D01*
X117450Y-8000D02*X120450D01*
Y-7250D02*Y-8000D01*
X124950Y-7250D02*Y-8750D01*
Y-7250D02*X125700Y-6500D01*
X127200D01*
X127950Y-7250D01*
Y-8750D01*
X127200Y-9500D02*X127950Y-8750D01*
X125700Y-9500D02*X127200D01*
X124950Y-8750D02*X125700Y-9500D01*
X130500Y-4250D02*Y-9500D01*
Y-4250D02*X131250Y-3500D01*
X132000D01*
X129750Y-6500D02*X131250D01*
X136950Y-3500D02*Y-8750D01*
X137700Y-9500D01*
X136200Y-5750D02*X137700D01*
X139200Y-3500D02*Y-9500D01*
Y-7250D02*X139950Y-6500D01*
X141450D01*
X142200Y-7250D01*
Y-9500D01*
G54D57*X144000Y-5000D02*Y-5150D01*
G54D56*Y-7250D02*Y-9500D01*
X146250D02*X148500D01*
X149250Y-8750D01*
X148500Y-8000D02*X149250Y-8750D01*
X146250Y-8000D02*X148500D01*
X145500Y-7250D02*X146250Y-8000D01*
X145500Y-7250D02*X146250Y-6500D01*
X148500D01*
X149250Y-7250D01*
X145500Y-8750D02*X146250Y-9500D01*
X153750Y-8750D02*X154500Y-9500D01*
X153750Y-7550D02*Y-8750D01*
Y-7550D02*X154800Y-6500D01*
X155700D01*
X156750Y-7550D01*
Y-8750D01*
X156000Y-9500D02*X156750Y-8750D01*
X154500Y-9500D02*X156000D01*
X153750Y-5450D02*X154800Y-6500D01*
X153750Y-4250D02*Y-5450D01*
Y-4250D02*X154500Y-3500D01*
X156000D01*
X156750Y-4250D01*
Y-5450D01*
X155700Y-6500D02*X156750Y-5450D01*
X158550Y-9500D02*X159300D01*
X161100Y-8750D02*X161850Y-9500D01*
X161100Y-4250D02*Y-8750D01*
Y-4250D02*X161850Y-3500D01*
X163350D01*
X164100Y-4250D01*
Y-8750D01*
X163350Y-9500D02*X164100Y-8750D01*
X161850Y-9500D02*X163350D01*
X161100Y-8000D02*X164100Y-5000D01*
X165900Y-8750D02*X166650Y-9500D01*
X165900Y-4250D02*Y-8750D01*
Y-4250D02*X166650Y-3500D01*
X168150D01*
X168900Y-4250D01*
Y-8750D01*
X168150Y-9500D02*X168900Y-8750D01*
X166650Y-9500D02*X168150D01*
X165900Y-8000D02*X168900Y-5000D01*
X170700Y-8750D02*X171450Y-9500D01*
X170700Y-4250D02*Y-8750D01*
Y-4250D02*X171450Y-3500D01*
X172950D01*
X173700Y-4250D01*
Y-8750D01*
X172950Y-9500D02*X173700Y-8750D01*
X171450Y-9500D02*X172950D01*
X170700Y-8000D02*X173700Y-5000D01*
X175500Y-8750D02*X176250Y-9500D01*
X175500Y-4250D02*Y-8750D01*
Y-4250D02*X176250Y-3500D01*
X177750D01*
X178500Y-4250D01*
Y-8750D01*
X177750Y-9500D02*X178500Y-8750D01*
X176250Y-9500D02*X177750D01*
X175500Y-8000D02*X178500Y-5000D01*
X180300Y-8750D02*X181050Y-9500D01*
X180300Y-4250D02*Y-8750D01*
Y-4250D02*X181050Y-3500D01*
X182550D01*
X183300Y-4250D01*
Y-8750D01*
X182550Y-9500D02*X183300Y-8750D01*
X181050Y-9500D02*X182550D01*
X180300Y-8000D02*X183300Y-5000D01*
X185100Y-8750D02*X185850Y-9500D01*
X185100Y-4250D02*Y-8750D01*
Y-4250D02*X185850Y-3500D01*
X187350D01*
X188100Y-4250D01*
Y-8750D01*
X187350Y-9500D02*X188100Y-8750D01*
X185850Y-9500D02*X187350D01*
X185100Y-8000D02*X188100Y-5000D01*
X193350Y-7250D02*Y-9500D01*
Y-7250D02*X194100Y-6500D01*
X194850D01*
X195600Y-7250D01*
Y-9500D01*
Y-7250D02*X196350Y-6500D01*
X197100D01*
X197850Y-7250D01*
Y-9500D01*
X192600Y-6500D02*X193350Y-7250D01*
G54D57*X199650Y-5000D02*Y-5150D01*
G54D56*Y-7250D02*Y-9500D01*
X201150Y-3500D02*Y-8750D01*
X201900Y-9500D01*
X206850Y-7250D02*Y-9500D01*
Y-7250D02*X207600Y-6500D01*
X209100D01*
X206100D02*X206850Y-7250D01*
X211650Y-9500D02*X213900D01*
X210900Y-8750D02*X211650Y-9500D01*
X210900Y-7250D02*Y-8750D01*
Y-7250D02*X211650Y-6500D01*
X213150D01*
X213900Y-7250D01*
X210900Y-8000D02*X213900D01*
Y-7250D02*Y-8000D01*
X216450Y-6500D02*X218700D01*
X215700Y-7250D02*X216450Y-6500D01*
X215700Y-7250D02*Y-8750D01*
X216450Y-9500D01*
X218700D01*
X221250Y-3500D02*Y-8750D01*
X222000Y-9500D01*
X220500Y-5750D02*X222000D01*
X225750Y-6500D02*X226500Y-7250D01*
X224250Y-6500D02*X225750D01*
X223500Y-7250D02*X224250Y-6500D01*
X223500Y-7250D02*Y-8750D01*
X224250Y-9500D01*
X226500Y-6500D02*Y-8750D01*
X227250Y-9500D01*
X224250D02*X225750D01*
X226500Y-8750D01*
X229800Y-7250D02*Y-9500D01*
Y-7250D02*X230550Y-6500D01*
X231300D01*
X232050Y-7250D01*
Y-9500D01*
X229050Y-6500D02*X229800Y-7250D01*
X236100Y-6500D02*X236850Y-7250D01*
X234600Y-6500D02*X236100D01*
X233850Y-7250D02*X234600Y-6500D01*
X233850Y-7250D02*Y-8750D01*
X234600Y-9500D01*
X236100D01*
X236850Y-8750D01*
X233850Y-11000D02*X234600Y-11750D01*
X236100D01*
X236850Y-11000D01*
Y-6500D02*Y-11000D01*
X238650Y-3500D02*Y-8750D01*
X239400Y-9500D01*
X241650D02*X243900D01*
X240900Y-8750D02*X241650Y-9500D01*
X240900Y-7250D02*Y-8750D01*
Y-7250D02*X241650Y-6500D01*
X243150D01*
X243900Y-7250D01*
X240900Y-8000D02*X243900D01*
Y-7250D02*Y-8000D01*
X248400Y-6500D02*X251400D01*
X255900Y-8750D02*X256650Y-9500D01*
X255900Y-4250D02*Y-8750D01*
Y-4250D02*X256650Y-3500D01*
X258150D01*
X258900Y-4250D01*
Y-8750D01*
X258150Y-9500D02*X258900Y-8750D01*
X256650Y-9500D02*X258150D01*
X255900Y-8000D02*X258900Y-5000D01*
X260700Y-11000D02*X262200Y-9500D01*
X264000Y-8750D02*X264750Y-9500D01*
X264000Y-4250D02*Y-8750D01*
Y-4250D02*X264750Y-3500D01*
X266250D01*
X267000Y-4250D01*
Y-8750D01*
X266250Y-9500D02*X267000Y-8750D01*
X264750Y-9500D02*X266250D01*
X264000Y-8000D02*X267000Y-5000D01*
X272250Y-3500D02*Y-8750D01*
X273000Y-9500D01*
X271500Y-5750D02*X273000D01*
X274500Y-7250D02*Y-8750D01*
Y-7250D02*X275250Y-6500D01*
X276750D01*
X277500Y-7250D01*
Y-8750D01*
X276750Y-9500D02*X277500Y-8750D01*
X275250Y-9500D02*X276750D01*
X274500Y-8750D02*X275250Y-9500D01*
X282000Y-8750D02*X282750Y-9500D01*
X282000Y-7550D02*Y-8750D01*
Y-7550D02*X283050Y-6500D01*
X283950D01*
X285000Y-7550D01*
Y-8750D01*
X284250Y-9500D02*X285000Y-8750D01*
X282750Y-9500D02*X284250D01*
X282000Y-5450D02*X283050Y-6500D01*
X282000Y-4250D02*Y-5450D01*
Y-4250D02*X282750Y-3500D01*
X284250D01*
X285000Y-4250D01*
Y-5450D01*
X283950Y-6500D02*X285000Y-5450D01*
X286800Y-8750D02*X287550Y-9500D01*
X286800Y-4250D02*Y-8750D01*
Y-4250D02*X287550Y-3500D01*
X289050D01*
X289800Y-4250D01*
Y-8750D01*
X289050Y-9500D02*X289800Y-8750D01*
X287550Y-9500D02*X289050D01*
X286800Y-8000D02*X289800Y-5000D01*
X291600Y-8750D02*X292350Y-9500D01*
X291600Y-4250D02*Y-8750D01*
Y-4250D02*X292350Y-3500D01*
X293850D01*
X294600Y-4250D01*
Y-8750D01*
X293850Y-9500D02*X294600Y-8750D01*
X292350Y-9500D02*X293850D01*
X291600Y-8000D02*X294600Y-5000D01*
X296400Y-9500D02*X297150D01*
X298950Y-8750D02*X299700Y-9500D01*
X298950Y-4250D02*Y-8750D01*
Y-4250D02*X299700Y-3500D01*
X301200D01*
X301950Y-4250D01*
Y-8750D01*
X301200Y-9500D02*X301950Y-8750D01*
X299700Y-9500D02*X301200D01*
X298950Y-8000D02*X301950Y-5000D01*
X303750Y-8750D02*X304500Y-9500D01*
X303750Y-4250D02*Y-8750D01*
Y-4250D02*X304500Y-3500D01*
X306000D01*
X306750Y-4250D01*
Y-8750D01*
X306000Y-9500D02*X306750Y-8750D01*
X304500Y-9500D02*X306000D01*
X303750Y-8000D02*X306750Y-5000D01*
X308550Y-8750D02*X309300Y-9500D01*
X308550Y-4250D02*Y-8750D01*
Y-4250D02*X309300Y-3500D01*
X310800D01*
X311550Y-4250D01*
Y-8750D01*
X310800Y-9500D02*X311550Y-8750D01*
X309300Y-9500D02*X310800D01*
X308550Y-8000D02*X311550Y-5000D01*
X313350Y-8750D02*X314100Y-9500D01*
X313350Y-4250D02*Y-8750D01*
Y-4250D02*X314100Y-3500D01*
X315600D01*
X316350Y-4250D01*
Y-8750D01*
X315600Y-9500D02*X316350Y-8750D01*
X314100Y-9500D02*X315600D01*
X313350Y-8000D02*X316350Y-5000D01*
X318150Y-8750D02*X318900Y-9500D01*
X318150Y-4250D02*Y-8750D01*
Y-4250D02*X318900Y-3500D01*
X320400D01*
X321150Y-4250D01*
Y-8750D01*
X320400Y-9500D02*X321150Y-8750D01*
X318900Y-9500D02*X320400D01*
X318150Y-8000D02*X321150Y-5000D01*
X322950Y-8750D02*X323700Y-9500D01*
X322950Y-4250D02*Y-8750D01*
Y-4250D02*X323700Y-3500D01*
X325200D01*
X325950Y-4250D01*
Y-8750D01*
X325200Y-9500D02*X325950Y-8750D01*
X323700Y-9500D02*X325200D01*
X322950Y-8000D02*X325950Y-5000D01*
X327750Y-11000D02*X329250Y-9500D01*
X331050Y-4250D02*X331800Y-3500D01*
X334050D01*
X334800Y-4250D01*
Y-5750D01*
X331050Y-9500D02*X334800Y-5750D01*
X331050Y-9500D02*X334800D01*
X336600Y-3500D02*X339600D01*
X336600D02*Y-6500D01*
X337350Y-5750D01*
X338850D01*
X339600Y-6500D01*
Y-8750D01*
X338850Y-9500D02*X339600Y-8750D01*
X337350Y-9500D02*X338850D01*
X336600Y-8750D02*X337350Y-9500D01*
X341400Y-4700D02*X342600Y-3500D01*
Y-9500D01*
X341400D02*X343650D01*
X345450Y-8750D02*X346200Y-9500D01*
X345450Y-4250D02*Y-8750D01*
Y-4250D02*X346200Y-3500D01*
X347700D01*
X348450Y-4250D01*
Y-8750D01*
X347700Y-9500D02*X348450Y-8750D01*
X346200Y-9500D02*X347700D01*
X345450Y-8000D02*X348450Y-5000D01*
X350250Y-9500D02*X351000D01*
X352800Y-8750D02*X353550Y-9500D01*
X352800Y-4250D02*Y-8750D01*
Y-4250D02*X353550Y-3500D01*
X355050D01*
X355800Y-4250D01*
Y-8750D01*
X355050Y-9500D02*X355800Y-8750D01*
X353550Y-9500D02*X355050D01*
X352800Y-8000D02*X355800Y-5000D01*
X357600Y-8750D02*X358350Y-9500D01*
X357600Y-4250D02*Y-8750D01*
Y-4250D02*X358350Y-3500D01*
X359850D01*
X360600Y-4250D01*
Y-8750D01*
X359850Y-9500D02*X360600Y-8750D01*
X358350Y-9500D02*X359850D01*
X357600Y-8000D02*X360600Y-5000D01*
X362400Y-8750D02*X363150Y-9500D01*
X362400Y-4250D02*Y-8750D01*
Y-4250D02*X363150Y-3500D01*
X364650D01*
X365400Y-4250D01*
Y-8750D01*
X364650Y-9500D02*X365400Y-8750D01*
X363150Y-9500D02*X364650D01*
X362400Y-8000D02*X365400Y-5000D01*
X367200Y-8750D02*X367950Y-9500D01*
X367200Y-4250D02*Y-8750D01*
Y-4250D02*X367950Y-3500D01*
X369450D01*
X370200Y-4250D01*
Y-8750D01*
X369450Y-9500D02*X370200Y-8750D01*
X367950Y-9500D02*X369450D01*
X367200Y-8000D02*X370200Y-5000D01*
X372000Y-8750D02*X372750Y-9500D01*
X372000Y-4250D02*Y-8750D01*
Y-4250D02*X372750Y-3500D01*
X374250D01*
X375000Y-4250D01*
Y-8750D01*
X374250Y-9500D02*X375000Y-8750D01*
X372750Y-9500D02*X374250D01*
X372000Y-8000D02*X375000Y-5000D01*
X376800Y-8750D02*X377550Y-9500D01*
X376800Y-4250D02*Y-8750D01*
Y-4250D02*X377550Y-3500D01*
X379050D01*
X379800Y-4250D01*
Y-8750D01*
X379050Y-9500D02*X379800Y-8750D01*
X377550Y-9500D02*X379050D01*
X376800Y-8000D02*X379800Y-5000D01*
X385050Y-7250D02*Y-9500D01*
Y-7250D02*X385800Y-6500D01*
X386550D01*
X387300Y-7250D01*
Y-9500D01*
Y-7250D02*X388050Y-6500D01*
X388800D01*
X389550Y-7250D01*
Y-9500D01*
X384300Y-6500D02*X385050Y-7250D01*
G54D57*X391350Y-5000D02*Y-5150D01*
G54D56*Y-7250D02*Y-9500D01*
X392850Y-3500D02*Y-8750D01*
X393600Y-9500D01*
X395850D02*X398100D01*
X398850Y-8750D01*
X398100Y-8000D02*X398850Y-8750D01*
X395850Y-8000D02*X398100D01*
X395100Y-7250D02*X395850Y-8000D01*
X395100Y-7250D02*X395850Y-6500D01*
X398100D01*
X398850Y-7250D01*
X395100Y-8750D02*X395850Y-9500D01*
X200750Y279500D02*Y273500D01*
X202700Y279500D02*X203750Y278450D01*
Y274550D01*
X202700Y273500D02*X203750Y274550D01*
X200000Y273500D02*X202700D01*
X200000Y279500D02*X202700D01*
X207800Y276500D02*X208550Y275750D01*
X206300Y276500D02*X207800D01*
X205550Y275750D02*X206300Y276500D01*
X205550Y275750D02*Y274250D01*
X206300Y273500D01*
X208550Y276500D02*Y274250D01*
X209300Y273500D01*
X206300D02*X207800D01*
X208550Y274250D01*
X211850Y279500D02*Y274250D01*
X212600Y273500D01*
X211100Y277250D02*X212600D01*
X214850Y273500D02*X217100D01*
X214100Y274250D02*X214850Y273500D01*
X214100Y275750D02*Y274250D01*
Y275750D02*X214850Y276500D01*
X216350D01*
X217100Y275750D01*
X214100Y275000D02*X217100D01*
Y275750D02*Y275000D01*
X218900Y277250D02*X219650D01*
X218900Y275750D02*X219650D01*
X227150Y279500D02*X227900Y278750D01*
X224900Y279500D02*X227150D01*
X224150Y278750D02*X224900Y279500D01*
X224150Y278750D02*Y277250D01*
X224900Y276500D01*
X227150D01*
X227900Y275750D01*
Y274250D01*
X227150Y273500D02*X227900Y274250D01*
X224900Y273500D02*X227150D01*
X224150Y274250D02*X224900Y273500D01*
X229700Y276500D02*Y274250D01*
X230450Y273500D01*
X231950D01*
X232700Y274250D01*
Y276500D02*Y274250D01*
X235250Y275750D02*Y273500D01*
Y275750D02*X236000Y276500D01*
X236750D01*
X237500Y275750D01*
Y273500D01*
X234500Y276500D02*X235250Y275750D01*
X242000Y279500D02*Y273500D01*
Y279500D02*X244250Y276500D01*
X246500Y279500D01*
Y273500D01*
X250550Y276500D02*X251300Y275750D01*
X249050Y276500D02*X250550D01*
X248300Y275750D02*X249050Y276500D01*
X248300Y275750D02*Y274250D01*
X249050Y273500D01*
X251300Y276500D02*Y274250D01*
X252050Y273500D01*
X249050D02*X250550D01*
X251300Y274250D01*
X253850Y276500D02*Y274250D01*
X254600Y273500D01*
X256850Y276500D02*Y272000D01*
X256100Y271250D02*X256850Y272000D01*
X254600Y271250D02*X256100D01*
X253850Y272000D02*X254600Y271250D01*
Y273500D02*X256100D01*
X256850Y274250D01*
X264050Y275750D02*X267050Y279500D01*
X264050Y275750D02*X267800D01*
X267050Y279500D02*Y273500D01*
X272300Y278300D02*X273500Y279500D01*
Y273500D01*
X272300D02*X274550D01*
X276350Y278300D02*X277550Y279500D01*
Y273500D01*
X276350D02*X278600D01*
X280400Y277250D02*X281150D01*
X280400Y275750D02*X281150D01*
X282950Y278300D02*X284150Y279500D01*
Y273500D01*
X282950D02*X285200D01*
X289250Y279500D02*X290000Y278750D01*
X287750Y279500D02*X289250D01*
X287000Y278750D02*X287750Y279500D01*
X287000Y278750D02*Y274250D01*
X287750Y273500D01*
X289250Y276800D02*X290000Y276050D01*
X287000Y276800D02*X289250D01*
X287750Y273500D02*X289250D01*
X290000Y274250D01*
Y276050D02*Y274250D01*
X291800Y277250D02*X292550D01*
X291800Y275750D02*X292550D01*
X294350Y278750D02*X295100Y279500D01*
X297350D01*
X298100Y278750D01*
Y277250D01*
X294350Y273500D02*X298100Y277250D01*
X294350Y273500D02*X298100D01*
X299900Y278300D02*X301100Y279500D01*
Y273500D01*
X299900D02*X302150D01*
X306650Y278750D02*X307400Y279500D01*
X309650D01*
X310400Y278750D01*
Y277250D01*
X306650Y273500D02*X310400Y277250D01*
X306650Y273500D02*X310400D01*
X312200Y274250D02*X312950Y273500D01*
X312200Y278750D02*Y274250D01*
Y278750D02*X312950Y279500D01*
X314450D01*
X315200Y278750D01*
Y274250D01*
X314450Y273500D02*X315200Y274250D01*
X312950Y273500D02*X314450D01*
X312200Y275000D02*X315200Y278000D01*
X317000Y278750D02*X317750Y279500D01*
X320000D01*
X320750Y278750D01*
Y277250D01*
X317000Y273500D02*X320750Y277250D01*
X317000Y273500D02*X320750D01*
X322550Y279500D02*X325550D01*
X322550D02*Y276500D01*
X323300Y277250D01*
X324800D01*
X325550Y276500D01*
Y274250D01*
X324800Y273500D02*X325550Y274250D01*
X323300Y273500D02*X324800D01*
X322550Y274250D02*X323300Y273500D01*
X330050Y279500D02*Y274250D01*
X330800Y273500D01*
X332300D01*
X333050Y274250D01*
Y279500D02*Y274250D01*
X334850Y279500D02*X337850D01*
X336350D02*Y273500D01*
X340700D02*X342650D01*
X339650Y274550D02*X340700Y273500D01*
X339650Y278450D02*Y274550D01*
Y278450D02*X340700Y279500D01*
X342650D01*
X200000Y293000D02*Y288500D01*
Y293000D02*X201050Y294500D01*
X202700D01*
X203750Y293000D01*
Y288500D01*
X200000Y291500D02*X203750D01*
X205550D02*Y289250D01*
X206300Y288500D01*
X207800D01*
X208550Y289250D01*
Y291500D02*Y289250D01*
X211100Y294500D02*Y289250D01*
X211850Y288500D01*
X210350Y292250D02*X211850D01*
X213350Y294500D02*Y288500D01*
Y290750D02*X214100Y291500D01*
X215600D01*
X216350Y290750D01*
Y288500D01*
X218150Y290750D02*Y289250D01*
Y290750D02*X218900Y291500D01*
X220400D01*
X221150Y290750D01*
Y289250D01*
X220400Y288500D02*X221150Y289250D01*
X218900Y288500D02*X220400D01*
X218150Y289250D02*X218900Y288500D01*
X223700Y290750D02*Y288500D01*
Y290750D02*X224450Y291500D01*
X225950D01*
X222950D02*X223700Y290750D01*
X227750Y292250D02*X228500D01*
X227750Y290750D02*X228500D01*
X233000Y294500D02*Y288500D01*
Y294500D02*X236750Y288500D01*
Y294500D02*Y288500D01*
G54D57*X238550Y293000D02*Y292850D01*
G54D56*Y290750D02*Y288500D01*
X240800Y291500D02*X243050D01*
X240050Y290750D02*X240800Y291500D01*
X240050Y290750D02*Y289250D01*
X240800Y288500D01*
X243050D01*
X244850Y290750D02*Y289250D01*
Y290750D02*X245600Y291500D01*
X247100D01*
X247850Y290750D01*
Y289250D01*
X247100Y288500D02*X247850Y289250D01*
X245600Y288500D02*X247100D01*
X244850Y289250D02*X245600Y288500D01*
X255350Y294500D02*Y288500D01*
X254600D02*X255350Y289250D01*
X253100Y288500D02*X254600D01*
X252350Y289250D02*X253100Y288500D01*
X252350Y290750D02*Y289250D01*
Y290750D02*X253100Y291500D01*
X254600D01*
X255350Y290750D01*
X257900Y288500D02*X260150D01*
X257150Y289250D02*X257900Y288500D01*
X257150Y290750D02*Y289250D01*
Y290750D02*X257900Y291500D01*
X259400D01*
X260150Y290750D01*
X257150Y290000D02*X260150D01*
Y290750D02*Y290000D01*
X264650Y294500D02*X266150Y288500D01*
X267650Y294500D01*
X270200Y290750D02*Y288500D01*
Y290750D02*X270950Y291500D01*
X272450D01*
X269450D02*X270200Y290750D01*
G54D57*X274250Y293000D02*Y292850D01*
G54D56*Y290750D02*Y288500D01*
X276500D02*X278750D01*
X275750Y289250D02*X276500Y288500D01*
X275750Y290750D02*Y289250D01*
Y290750D02*X276500Y291500D01*
X278000D01*
X278750Y290750D01*
X275750Y290000D02*X278750D01*
Y290750D02*Y290000D01*
X281300Y288500D02*X283550D01*
X284300Y289250D01*
X283550Y290000D02*X284300Y289250D01*
X281300Y290000D02*X283550D01*
X280550Y290750D02*X281300Y290000D01*
X280550Y290750D02*X281300Y291500D01*
X283550D01*
X284300Y290750D01*
X280550Y289250D02*X281300Y288500D01*
X200000Y309500D02*X203000D01*
X201500D02*Y303500D01*
G54D57*X204800Y308000D02*Y307850D01*
G54D56*Y305750D02*Y303500D01*
X207050Y309500D02*Y304250D01*
X207800Y303500D01*
X206300Y307250D02*X207800D01*
X209300Y309500D02*Y304250D01*
X210050Y303500D01*
X212300D02*X214550D01*
X211550Y304250D02*X212300Y303500D01*
X211550Y305750D02*Y304250D01*
Y305750D02*X212300Y306500D01*
X213800D01*
X214550Y305750D01*
X211550Y305000D02*X214550D01*
Y305750D02*Y305000D01*
X216350Y307250D02*X217100D01*
X216350Y305750D02*X217100D01*
X221600Y308300D02*X222800Y309500D01*
Y303500D01*
X221600D02*X223850D01*
X225650Y309500D02*X228650D01*
X225650D02*Y306500D01*
X226400Y307250D01*
X227900D01*
X228650Y306500D01*
Y304250D01*
X227900Y303500D02*X228650Y304250D01*
X226400Y303500D02*X227900D01*
X225650Y304250D02*X226400Y303500D01*
X230450Y305750D02*X233450Y309500D01*
X230450Y305750D02*X234200D01*
X233450Y309500D02*Y303500D01*
X236000Y308300D02*X237200Y309500D01*
Y303500D01*
X236000D02*X238250D01*
X240050Y306500D02*X243050D01*
X244850Y309500D02*X246350D01*
X245600D02*Y303500D01*
X244850D02*X246350D01*
X248150Y309500D02*X249650D01*
X248900D02*Y303500D01*
X248150D02*X249650D01*
X254150Y309500D02*X257150D01*
X255650D02*Y303500D01*
X258950Y309500D02*X261950D01*
X262700Y308750D01*
Y307250D01*
X261950Y306500D02*X262700Y307250D01*
X259700Y306500D02*X261950D01*
X259700Y309500D02*Y303500D01*
X260900Y306500D02*X262700Y303500D01*
X264500Y309500D02*Y303500D01*
Y306500D02*X267500Y309500D01*
X264500Y306500D02*X267500Y303500D01*
X269300Y304250D02*X270050Y303500D01*
X269300Y308750D02*Y304250D01*
Y308750D02*X270050Y309500D01*
X271550D01*
X272300Y308750D01*
Y304250D01*
X271550Y303500D02*X272300Y304250D01*
X270050Y303500D02*X271550D01*
X269300Y305000D02*X272300Y308000D01*
X276800Y306500D02*X279800D01*
X284300Y309500D02*Y303500D01*
Y309500D02*X287300D01*
X284300Y306800D02*X286550D01*
X291350Y306500D02*X292100Y305750D01*
X289850Y306500D02*X291350D01*
X289100Y305750D02*X289850Y306500D01*
X289100Y305750D02*Y304250D01*
X289850Y303500D01*
X292100Y306500D02*Y304250D01*
X292850Y303500D01*
X289850D02*X291350D01*
X292100Y304250D01*
X294650Y309500D02*Y303500D01*
Y304250D02*X295400Y303500D01*
X296900D01*
X297650Y304250D01*
Y305750D02*Y304250D01*
X296900Y306500D02*X297650Y305750D01*
X295400Y306500D02*X296900D01*
X294650Y305750D02*X295400Y306500D01*
X300200Y305750D02*Y303500D01*
Y305750D02*X300950Y306500D01*
X302450D01*
X299450D02*X300200Y305750D01*
G54D57*X304250Y308000D02*Y307850D01*
G54D56*Y305750D02*Y303500D01*
X306500Y306500D02*X308750D01*
X305750Y305750D02*X306500Y306500D01*
X305750Y305750D02*Y304250D01*
X306500Y303500D01*
X308750D01*
X312800Y306500D02*X313550Y305750D01*
X311300Y306500D02*X312800D01*
X310550Y305750D02*X311300Y306500D01*
X310550Y305750D02*Y304250D01*
X311300Y303500D01*
X313550Y306500D02*Y304250D01*
X314300Y303500D01*
X311300D02*X312800D01*
X313550Y304250D01*
X316850Y309500D02*Y304250D01*
X317600Y303500D01*
X316100Y307250D02*X317600D01*
G54D57*X319100Y308000D02*Y307850D01*
G54D56*Y305750D02*Y303500D01*
X320600Y305750D02*Y304250D01*
Y305750D02*X321350Y306500D01*
X322850D01*
X323600Y305750D01*
Y304250D01*
X322850Y303500D02*X323600Y304250D01*
X321350Y303500D02*X322850D01*
X320600Y304250D02*X321350Y303500D01*
X326150Y305750D02*Y303500D01*
Y305750D02*X326900Y306500D01*
X327650D01*
X328400Y305750D01*
Y303500D01*
X325400Y306500D02*X326150Y305750D01*
X333650Y309500D02*Y303500D01*
X335600Y309500D02*X336650Y308450D01*
Y304550D01*
X335600Y303500D02*X336650Y304550D01*
X332900Y303500D02*X335600D01*
X332900Y309500D02*X335600D01*
X339200Y305750D02*Y303500D01*
Y305750D02*X339950Y306500D01*
X341450D01*
X338450D02*X339200Y305750D01*
X345500Y306500D02*X346250Y305750D01*
X344000Y306500D02*X345500D01*
X343250Y305750D02*X344000Y306500D01*
X343250Y305750D02*Y304250D01*
X344000Y303500D01*
X346250Y306500D02*Y304250D01*
X347000Y303500D01*
X344000D02*X345500D01*
X346250Y304250D01*
X348800Y306500D02*Y304250D01*
X349550Y303500D01*
X350300D01*
X351050Y304250D01*
Y306500D02*Y304250D01*
X351800Y303500D01*
X352550D01*
X353300Y304250D01*
Y306500D02*Y304250D01*
G54D57*X355100Y308000D02*Y307850D01*
G54D56*Y305750D02*Y303500D01*
X357350Y305750D02*Y303500D01*
Y305750D02*X358100Y306500D01*
X358850D01*
X359600Y305750D01*
Y303500D01*
X356600Y306500D02*X357350Y305750D01*
X363650Y306500D02*X364400Y305750D01*
X362150Y306500D02*X363650D01*
X361400Y305750D02*X362150Y306500D01*
X361400Y305750D02*Y304250D01*
X362150Y303500D01*
X363650D01*
X364400Y304250D01*
X361400Y302000D02*X362150Y301250D01*
X363650D01*
X364400Y302000D01*
Y306500D02*Y302000D01*
M02*
