G04 start of page 11 for group -3984 idx -3984 *
G04 Title: 6530_ExtROM, fab *
G04 Creator: pcb 4.0.2 *
G04 CreationDate: Mon May 12 20:29:28 2025 UTC *
G04 For: ndv *
G04 Format: Gerber/RS-274X *
G04 PCB-Dimensions (mil): 1260.00 2740.00 *
G04 PCB-Coordinate-Origin: lower left *
%MOIN*%
%FSLAX25Y25*%
%LNFAB*%
%ADD49C,0.0100*%
%ADD48C,0.0075*%
%ADD47C,0.0060*%
%ADD46C,0.0080*%
G54D46*X0Y274000D02*X126000D01*
X0D02*Y0D01*
X126000Y274000D02*Y0D01*
X0D02*X126000D01*
X46800Y114200D02*X49200Y111800D01*
X46800D02*X49200Y114200D01*
X66800D02*X69200Y111800D01*
X66800D02*X69200Y114200D01*
X56800Y44200D02*X59200Y41800D01*
X56800D02*X59200Y44200D01*
X36800D02*X39200Y41800D01*
X36800D02*X39200Y44200D01*
X56800Y249200D02*X59200Y246800D01*
X56800D02*X59200Y249200D01*
X76800D02*X79200Y246800D01*
X76800D02*X79200Y249200D01*
X13800Y301450D02*X16200Y299050D01*
X13800D02*X16200Y301450D01*
G54D47*X135000Y302500D02*X136500Y299500D01*
X138000Y302500D01*
X136500Y299500D02*Y296500D01*
X139800Y299800D02*X142050D01*
X139800Y296500D02*X142800D01*
X139800Y302500D02*Y296500D01*
Y302500D02*X142800D01*
X147600D02*X148350Y301750D01*
X145350Y302500D02*X147600D01*
X144600Y301750D02*X145350Y302500D01*
X144600Y301750D02*Y300250D01*
X145350Y299500D01*
X147600D01*
X148350Y298750D01*
Y297250D01*
X147600Y296500D02*X148350Y297250D01*
X145350Y296500D02*X147600D01*
X144600Y297250D02*X145350Y296500D01*
X100250Y302500D02*X101000Y301750D01*
X98750Y302500D02*X100250D01*
X98000Y301750D02*X98750Y302500D01*
X98000Y301750D02*Y297250D01*
X98750Y296500D01*
X100250Y299800D02*X101000Y299050D01*
X98000Y299800D02*X100250D01*
X98750Y296500D02*X100250D01*
X101000Y297250D01*
Y299050D02*Y297250D01*
X45000D02*X45750Y296500D01*
X45000Y301750D02*Y297250D01*
Y301750D02*X45750Y302500D01*
X47250D01*
X48000Y301750D01*
Y297250D01*
X47250Y296500D02*X48000Y297250D01*
X45750Y296500D02*X47250D01*
X45000Y298000D02*X48000Y301000D01*
X49800Y296500D02*X50550D01*
X52350Y297250D02*X53100Y296500D01*
X52350Y301750D02*Y297250D01*
Y301750D02*X53100Y302500D01*
X54600D01*
X55350Y301750D01*
Y297250D01*
X54600Y296500D02*X55350Y297250D01*
X53100Y296500D02*X54600D01*
X52350Y298000D02*X55350Y301000D01*
X57150Y301750D02*X57900Y302500D01*
X59400D01*
X60150Y301750D01*
X59400Y296500D02*X60150Y297250D01*
X57900Y296500D02*X59400D01*
X57150Y297250D02*X57900Y296500D01*
Y299800D02*X59400D01*
X60150Y301750D02*Y300550D01*
Y299050D02*Y297250D01*
Y299050D02*X59400Y299800D01*
X60150Y300550D02*X59400Y299800D01*
X61950Y297250D02*X62700Y296500D01*
X61950Y301750D02*Y297250D01*
Y301750D02*X62700Y302500D01*
X64200D01*
X64950Y301750D01*
Y297250D01*
X64200Y296500D02*X64950Y297250D01*
X62700Y296500D02*X64200D01*
X61950Y298000D02*X64950Y301000D01*
X48000Y189600D02*Y186400D01*
X46400Y188000D02*X49600D01*
X48000Y179600D02*Y176400D01*
X46400Y178000D02*X49600D01*
X48000Y169600D02*Y166400D01*
X46400Y168000D02*X49600D01*
X48000Y159600D02*Y156400D01*
X46400Y158000D02*X49600D01*
X48000Y149600D02*Y146400D01*
X46400Y148000D02*X49600D01*
X48000Y139600D02*Y136400D01*
X46400Y138000D02*X49600D01*
X48000Y129600D02*Y126400D01*
X46400Y128000D02*X49600D01*
X78000Y129600D02*Y126400D01*
X76400Y128000D02*X79600D01*
X78000Y139600D02*Y136400D01*
X76400Y138000D02*X79600D01*
X78000Y149600D02*Y146400D01*
X76400Y148000D02*X79600D01*
X78000Y159600D02*Y156400D01*
X76400Y158000D02*X79600D01*
X78000Y169600D02*Y166400D01*
X76400Y168000D02*X79600D01*
X78000Y179600D02*Y176400D01*
X76400Y178000D02*X79600D01*
X78000Y189600D02*Y186400D01*
X76400Y188000D02*X79600D01*
X8000Y9600D02*Y6400D01*
X6400Y8000D02*X9600D01*
X18000Y9600D02*Y6400D01*
X16400Y8000D02*X19600D01*
X28000Y9600D02*Y6400D01*
X26400Y8000D02*X29600D01*
X38000Y9600D02*Y6400D01*
X36400Y8000D02*X39600D01*
X48000Y9600D02*Y6400D01*
X46400Y8000D02*X49600D01*
X58000Y9600D02*Y6400D01*
X56400Y8000D02*X59600D01*
X68000Y9600D02*Y6400D01*
X66400Y8000D02*X69600D01*
X78000Y9600D02*Y6400D01*
X76400Y8000D02*X79600D01*
X88000Y9600D02*Y6400D01*
X86400Y8000D02*X89600D01*
X98000Y9600D02*Y6400D01*
X96400Y8000D02*X99600D01*
X108000Y9600D02*Y6400D01*
X106400Y8000D02*X109600D01*
X118000Y9600D02*Y6400D01*
X116400Y8000D02*X119600D01*
X118000Y69600D02*Y66400D01*
X116400Y68000D02*X119600D01*
X108000Y69600D02*Y66400D01*
X106400Y68000D02*X109600D01*
X98000Y69600D02*Y66400D01*
X96400Y68000D02*X99600D01*
X88000Y69600D02*Y66400D01*
X86400Y68000D02*X89600D01*
X78000Y69600D02*Y66400D01*
X76400Y68000D02*X79600D01*
X68000Y69600D02*Y66400D01*
X66400Y68000D02*X69600D01*
X58000Y69600D02*Y66400D01*
X56400Y68000D02*X59600D01*
X48000Y69600D02*Y66400D01*
X46400Y68000D02*X49600D01*
X38000Y69600D02*Y66400D01*
X36400Y68000D02*X39600D01*
X28000Y69600D02*Y66400D01*
X26400Y68000D02*X29600D01*
X18000Y69600D02*Y66400D01*
X16400Y68000D02*X19600D01*
X8000Y69600D02*Y66400D01*
X6400Y68000D02*X9600D01*
X38000Y269600D02*Y266400D01*
X36400Y268000D02*X39600D01*
X38000Y259600D02*Y256400D01*
X36400Y258000D02*X39600D01*
X38000Y249600D02*Y246400D01*
X36400Y248000D02*X39600D01*
X38000Y239600D02*Y236400D01*
X36400Y238000D02*X39600D01*
X38000Y229600D02*Y226400D01*
X36400Y228000D02*X39600D01*
X38000Y219600D02*Y216400D01*
X36400Y218000D02*X39600D01*
X38000Y209600D02*Y206400D01*
X36400Y208000D02*X39600D01*
X38000Y199600D02*Y196400D01*
X36400Y198000D02*X39600D01*
X38000Y189600D02*Y186400D01*
X36400Y188000D02*X39600D01*
X38000Y179600D02*Y176400D01*
X36400Y178000D02*X39600D01*
X38000Y169600D02*Y166400D01*
X36400Y168000D02*X39600D01*
X38000Y159600D02*Y156400D01*
X36400Y158000D02*X39600D01*
X38000Y149600D02*Y146400D01*
X36400Y148000D02*X39600D01*
X38000Y139600D02*Y136400D01*
X36400Y138000D02*X39600D01*
X38000Y129600D02*Y126400D01*
X36400Y128000D02*X39600D01*
X38000Y119600D02*Y116400D01*
X36400Y118000D02*X39600D01*
X38000Y109600D02*Y106400D01*
X36400Y108000D02*X39600D01*
X38000Y99600D02*Y96400D01*
X36400Y98000D02*X39600D01*
X38000Y89600D02*Y86400D01*
X36400Y88000D02*X39600D01*
X38000Y79600D02*Y76400D01*
X36400Y78000D02*X39600D01*
X98000Y79600D02*Y76400D01*
X96400Y78000D02*X99600D01*
X98000Y89600D02*Y86400D01*
X96400Y88000D02*X99600D01*
X98000Y99600D02*Y96400D01*
X96400Y98000D02*X99600D01*
X98000Y109600D02*Y106400D01*
X96400Y108000D02*X99600D01*
X98000Y119600D02*Y116400D01*
X96400Y118000D02*X99600D01*
X98000Y129600D02*Y126400D01*
X96400Y128000D02*X99600D01*
X98000Y139600D02*Y136400D01*
X96400Y138000D02*X99600D01*
X98000Y149600D02*Y146400D01*
X96400Y148000D02*X99600D01*
X98000Y159600D02*Y156400D01*
X96400Y158000D02*X99600D01*
X98000Y169600D02*Y166400D01*
X96400Y168000D02*X99600D01*
X98000Y179600D02*Y176400D01*
X96400Y178000D02*X99600D01*
X98000Y189600D02*Y186400D01*
X96400Y188000D02*X99600D01*
X98000Y199600D02*Y196400D01*
X96400Y198000D02*X99600D01*
X98000Y209600D02*Y206400D01*
X96400Y208000D02*X99600D01*
X98000Y219600D02*Y216400D01*
X96400Y218000D02*X99600D01*
X98000Y229600D02*Y226400D01*
X96400Y228000D02*X99600D01*
X98000Y239600D02*Y236400D01*
X96400Y238000D02*X99600D01*
X98000Y249600D02*Y246400D01*
X96400Y248000D02*X99600D01*
X98000Y259600D02*Y256400D01*
X96400Y258000D02*X99600D01*
X98000Y269600D02*Y266400D01*
X96400Y268000D02*X99600D01*
X28000Y269600D02*Y266400D01*
X26400Y268000D02*X29600D01*
X28000Y259600D02*Y256400D01*
X26400Y258000D02*X29600D01*
X28000Y249600D02*Y246400D01*
X26400Y248000D02*X29600D01*
X28000Y239600D02*Y236400D01*
X26400Y238000D02*X29600D01*
X28000Y229600D02*Y226400D01*
X26400Y228000D02*X29600D01*
X28000Y219600D02*Y216400D01*
X26400Y218000D02*X29600D01*
X28000Y209600D02*Y206400D01*
X26400Y208000D02*X29600D01*
X28000Y199600D02*Y196400D01*
X26400Y198000D02*X29600D01*
X28000Y189600D02*Y186400D01*
X26400Y188000D02*X29600D01*
X28000Y179600D02*Y176400D01*
X26400Y178000D02*X29600D01*
X28000Y169600D02*Y166400D01*
X26400Y168000D02*X29600D01*
X28000Y159600D02*Y156400D01*
X26400Y158000D02*X29600D01*
X28000Y149600D02*Y146400D01*
X26400Y148000D02*X29600D01*
X28000Y139600D02*Y136400D01*
X26400Y138000D02*X29600D01*
X28000Y129600D02*Y126400D01*
X26400Y128000D02*X29600D01*
X28000Y119600D02*Y116400D01*
X26400Y118000D02*X29600D01*
X28000Y109600D02*Y106400D01*
X26400Y108000D02*X29600D01*
X28000Y99600D02*Y96400D01*
X26400Y98000D02*X29600D01*
X28000Y89600D02*Y86400D01*
X26400Y88000D02*X29600D01*
X28000Y79600D02*Y76400D01*
X26400Y78000D02*X29600D01*
X88000Y79600D02*Y76400D01*
X86400Y78000D02*X89600D01*
X88000Y89600D02*Y86400D01*
X86400Y88000D02*X89600D01*
X88000Y99600D02*Y96400D01*
X86400Y98000D02*X89600D01*
X88000Y109600D02*Y106400D01*
X86400Y108000D02*X89600D01*
X88000Y119600D02*Y116400D01*
X86400Y118000D02*X89600D01*
X88000Y129600D02*Y126400D01*
X86400Y128000D02*X89600D01*
X88000Y139600D02*Y136400D01*
X86400Y138000D02*X89600D01*
X88000Y149600D02*Y146400D01*
X86400Y148000D02*X89600D01*
X88000Y159600D02*Y156400D01*
X86400Y158000D02*X89600D01*
X88000Y169600D02*Y166400D01*
X86400Y168000D02*X89600D01*
X88000Y179600D02*Y176400D01*
X86400Y178000D02*X89600D01*
X88000Y189600D02*Y186400D01*
X86400Y188000D02*X89600D01*
X88000Y199600D02*Y196400D01*
X86400Y198000D02*X89600D01*
X88000Y209600D02*Y206400D01*
X86400Y208000D02*X89600D01*
X88000Y219600D02*Y216400D01*
X86400Y218000D02*X89600D01*
X88000Y229600D02*Y226400D01*
X86400Y228000D02*X89600D01*
X88000Y239600D02*Y236400D01*
X86400Y238000D02*X89600D01*
X88000Y249600D02*Y246400D01*
X86400Y248000D02*X89600D01*
X88000Y259600D02*Y256400D01*
X86400Y258000D02*X89600D01*
X88000Y269600D02*Y266400D01*
X86400Y268000D02*X89600D01*
X15000Y316850D02*Y313650D01*
X13400Y315250D02*X16600D01*
X135000Y317500D02*X136500Y314500D01*
X138000Y317500D01*
X136500Y314500D02*Y311500D01*
X139800Y314800D02*X142050D01*
X139800Y311500D02*X142800D01*
X139800Y317500D02*Y311500D01*
Y317500D02*X142800D01*
X147600D02*X148350Y316750D01*
X145350Y317500D02*X147600D01*
X144600Y316750D02*X145350Y317500D01*
X144600Y316750D02*Y315250D01*
X145350Y314500D01*
X147600D01*
X148350Y313750D01*
Y312250D01*
X147600Y311500D02*X148350Y312250D01*
X145350Y311500D02*X147600D01*
X144600Y312250D02*X145350Y311500D01*
X98000Y316300D02*X99200Y317500D01*
Y311500D01*
X98000D02*X100250D01*
X102050Y316300D02*X103250Y317500D01*
Y311500D01*
X102050D02*X104300D01*
X106100Y312250D02*X106850Y311500D01*
X106100Y313450D02*Y312250D01*
Y313450D02*X107150Y314500D01*
X108050D01*
X109100Y313450D01*
Y312250D01*
X108350Y311500D02*X109100Y312250D01*
X106850Y311500D02*X108350D01*
X106100Y315550D02*X107150Y314500D01*
X106100Y316750D02*Y315550D01*
Y316750D02*X106850Y317500D01*
X108350D01*
X109100Y316750D01*
Y315550D01*
X108050Y314500D02*X109100Y315550D01*
X45000Y312250D02*X45750Y311500D01*
X45000Y316750D02*Y312250D01*
Y316750D02*X45750Y317500D01*
X47250D01*
X48000Y316750D01*
Y312250D01*
X47250Y311500D02*X48000Y312250D01*
X45750Y311500D02*X47250D01*
X45000Y313000D02*X48000Y316000D01*
X49800Y311500D02*X50550D01*
X52350Y312250D02*X53100Y311500D01*
X52350Y316750D02*Y312250D01*
Y316750D02*X53100Y317500D01*
X54600D01*
X55350Y316750D01*
Y312250D01*
X54600Y311500D02*X55350Y312250D01*
X53100Y311500D02*X54600D01*
X52350Y313000D02*X55350Y316000D01*
X57150Y316750D02*X57900Y317500D01*
X60150D01*
X60900Y316750D01*
Y315250D01*
X57150Y311500D02*X60900Y315250D01*
X57150Y311500D02*X60900D01*
X62700Y312250D02*X63450Y311500D01*
X62700Y313450D02*Y312250D01*
Y313450D02*X63750Y314500D01*
X64650D01*
X65700Y313450D01*
Y312250D01*
X64950Y311500D02*X65700Y312250D01*
X63450Y311500D02*X64950D01*
X62700Y315550D02*X63750Y314500D01*
X62700Y316750D02*Y315550D01*
Y316750D02*X63450Y317500D01*
X64950D01*
X65700Y316750D01*
Y315550D01*
X64650Y314500D02*X65700Y315550D01*
X58000Y85000D02*Y83400D01*
Y85000D02*X59387Y85800D01*
X58000Y85000D02*X56613Y85800D01*
X15000Y330250D02*Y328650D01*
Y330250D02*X16387Y331050D01*
X15000Y330250D02*X13613Y331050D01*
X135000Y332500D02*X136500Y329500D01*
X138000Y332500D01*
X136500Y329500D02*Y326500D01*
X139800Y329800D02*X142050D01*
X139800Y326500D02*X142800D01*
X139800Y332500D02*Y326500D01*
Y332500D02*X142800D01*
X147600D02*X148350Y331750D01*
X145350Y332500D02*X147600D01*
X144600Y331750D02*X145350Y332500D01*
X144600Y331750D02*Y330250D01*
X145350Y329500D01*
X147600D01*
X148350Y328750D01*
Y327250D01*
X147600Y326500D02*X148350Y327250D01*
X145350Y326500D02*X147600D01*
X144600Y327250D02*X145350Y326500D01*
X98000Y331300D02*X99200Y332500D01*
Y326500D01*
X98000D02*X100250D01*
X45000Y327250D02*X45750Y326500D01*
X45000Y331750D02*Y327250D01*
Y331750D02*X45750Y332500D01*
X47250D01*
X48000Y331750D01*
Y327250D01*
X47250Y326500D02*X48000Y327250D01*
X45750Y326500D02*X47250D01*
X45000Y328000D02*X48000Y331000D01*
X49800Y326500D02*X50550D01*
X52350Y327250D02*X53100Y326500D01*
X52350Y331750D02*Y327250D01*
Y331750D02*X53100Y332500D01*
X54600D01*
X55350Y331750D01*
Y327250D01*
X54600Y326500D02*X55350Y327250D01*
X53100Y326500D02*X54600D01*
X52350Y328000D02*X55350Y331000D01*
X57150Y331750D02*X57900Y332500D01*
X60150D01*
X60900Y331750D01*
Y330250D01*
X57150Y326500D02*X60900Y330250D01*
X57150Y326500D02*X60900D01*
X62700Y327250D02*X63450Y326500D01*
X62700Y331750D02*Y327250D01*
Y331750D02*X63450Y332500D01*
X64950D01*
X65700Y331750D01*
Y327250D01*
X64950Y326500D02*X65700Y327250D01*
X63450Y326500D02*X64950D01*
X62700Y328000D02*X65700Y331000D01*
X3000Y347500D02*X3750Y346750D01*
X750Y347500D02*X3000D01*
X0Y346750D02*X750Y347500D01*
X0Y346750D02*Y345250D01*
X750Y344500D01*
X3000D01*
X3750Y343750D01*
Y342250D01*
X3000Y341500D02*X3750Y342250D01*
X750Y341500D02*X3000D01*
X0Y342250D02*X750Y341500D01*
X5550Y344500D02*Y342250D01*
X6300Y341500D01*
X8550Y344500D02*Y340000D01*
X7800Y339250D02*X8550Y340000D01*
X6300Y339250D02*X7800D01*
X5550Y340000D02*X6300Y339250D01*
Y341500D02*X7800D01*
X8550Y342250D01*
X11100Y343750D02*Y341500D01*
Y343750D02*X11850Y344500D01*
X12600D01*
X13350Y343750D01*
Y341500D01*
Y343750D02*X14100Y344500D01*
X14850D01*
X15600Y343750D01*
Y341500D01*
X10350Y344500D02*X11100Y343750D01*
X17400Y347500D02*Y341500D01*
Y342250D02*X18150Y341500D01*
X19650D01*
X20400Y342250D01*
Y343750D02*Y342250D01*
X19650Y344500D02*X20400Y343750D01*
X18150Y344500D02*X19650D01*
X17400Y343750D02*X18150Y344500D01*
X22200Y343750D02*Y342250D01*
Y343750D02*X22950Y344500D01*
X24450D01*
X25200Y343750D01*
Y342250D01*
X24450Y341500D02*X25200Y342250D01*
X22950Y341500D02*X24450D01*
X22200Y342250D02*X22950Y341500D01*
X27000Y347500D02*Y342250D01*
X27750Y341500D01*
X0Y338250D02*X29250D01*
X41750Y347500D02*Y341500D01*
X43700Y347500D02*X44750Y346450D01*
Y342550D01*
X43700Y341500D02*X44750Y342550D01*
X41000Y341500D02*X43700D01*
X41000Y347500D02*X43700D01*
G54D48*X46550Y346000D02*Y345850D01*
G54D47*Y343750D02*Y341500D01*
X50300Y344500D02*X51050Y343750D01*
X48800Y344500D02*X50300D01*
X48050Y343750D02*X48800Y344500D01*
X48050Y343750D02*Y342250D01*
X48800Y341500D01*
X51050Y344500D02*Y342250D01*
X51800Y341500D01*
X48800D02*X50300D01*
X51050Y342250D01*
X54350Y343750D02*Y341500D01*
Y343750D02*X55100Y344500D01*
X55850D01*
X56600Y343750D01*
Y341500D01*
Y343750D02*X57350Y344500D01*
X58100D01*
X58850Y343750D01*
Y341500D01*
X53600Y344500D02*X54350Y343750D01*
X60650Y341500D02*X61400D01*
X65900Y342250D02*X66650Y341500D01*
X65900Y346750D02*X66650Y347500D01*
X65900Y346750D02*Y342250D01*
X68450Y347500D02*X69950D01*
X69200D02*Y341500D01*
X68450D02*X69950D01*
X72500Y343750D02*Y341500D01*
Y343750D02*X73250Y344500D01*
X74000D01*
X74750Y343750D01*
Y341500D01*
X71750Y344500D02*X72500Y343750D01*
X77300Y344500D02*X79550D01*
X76550Y343750D02*X77300Y344500D01*
X76550Y343750D02*Y342250D01*
X77300Y341500D01*
X79550D01*
X81350Y347500D02*Y341500D01*
Y343750D02*X82100Y344500D01*
X83600D01*
X84350Y343750D01*
Y341500D01*
X86150Y347500D02*X86900Y346750D01*
Y342250D01*
X86150Y341500D02*X86900Y342250D01*
X41000Y338250D02*X88700D01*
X96050Y341500D02*X98000D01*
X95000Y342550D02*X96050Y341500D01*
X95000Y346450D02*Y342550D01*
Y346450D02*X96050Y347500D01*
X98000D01*
X99800Y343750D02*Y342250D01*
Y343750D02*X100550Y344500D01*
X102050D01*
X102800Y343750D01*
Y342250D01*
X102050Y341500D02*X102800Y342250D01*
X100550Y341500D02*X102050D01*
X99800Y342250D02*X100550Y341500D01*
X104600Y344500D02*Y342250D01*
X105350Y341500D01*
X106850D01*
X107600Y342250D01*
Y344500D02*Y342250D01*
X110150Y343750D02*Y341500D01*
Y343750D02*X110900Y344500D01*
X111650D01*
X112400Y343750D01*
Y341500D01*
X109400Y344500D02*X110150Y343750D01*
X114950Y347500D02*Y342250D01*
X115700Y341500D01*
X114200Y345250D02*X115700D01*
X95000Y338250D02*X117200D01*
X130750Y347500D02*Y341500D01*
X130000Y347500D02*X133000D01*
X133750Y346750D01*
Y345250D01*
X133000Y344500D02*X133750Y345250D01*
X130750Y344500D02*X133000D01*
X135550Y347500D02*Y342250D01*
X136300Y341500D01*
X140050Y344500D02*X140800Y343750D01*
X138550Y344500D02*X140050D01*
X137800Y343750D02*X138550Y344500D01*
X137800Y343750D02*Y342250D01*
X138550Y341500D01*
X140800Y344500D02*Y342250D01*
X141550Y341500D01*
X138550D02*X140050D01*
X140800Y342250D01*
X144100Y347500D02*Y342250D01*
X144850Y341500D01*
X143350Y345250D02*X144850D01*
X147100Y341500D02*X149350D01*
X146350Y342250D02*X147100Y341500D01*
X146350Y343750D02*Y342250D01*
Y343750D02*X147100Y344500D01*
X148600D01*
X149350Y343750D01*
X146350Y343000D02*X149350D01*
Y343750D02*Y343000D01*
X154150Y347500D02*Y341500D01*
X153400D02*X154150Y342250D01*
X151900Y341500D02*X153400D01*
X151150Y342250D02*X151900Y341500D01*
X151150Y343750D02*Y342250D01*
Y343750D02*X151900Y344500D01*
X153400D01*
X154150Y343750D01*
X157450Y344500D02*Y343750D01*
Y342250D02*Y341500D01*
X155950Y346750D02*Y346000D01*
Y346750D02*X156700Y347500D01*
X158200D01*
X158950Y346750D01*
Y346000D01*
X157450Y344500D02*X158950Y346000D01*
X130000Y338250D02*X160750D01*
X0Y362500D02*X3000D01*
X1500D02*Y356500D01*
X4800Y362500D02*Y356500D01*
Y358750D02*X5550Y359500D01*
X7050D01*
X7800Y358750D01*
Y356500D01*
X10350D02*X12600D01*
X9600Y357250D02*X10350Y356500D01*
X9600Y358750D02*Y357250D01*
Y358750D02*X10350Y359500D01*
X11850D01*
X12600Y358750D01*
X9600Y358000D02*X12600D01*
Y358750D02*Y358000D01*
X15150Y358750D02*Y356500D01*
Y358750D02*X15900Y359500D01*
X17400D01*
X14400D02*X15150Y358750D01*
X19950Y356500D02*X22200D01*
X19200Y357250D02*X19950Y356500D01*
X19200Y358750D02*Y357250D01*
Y358750D02*X19950Y359500D01*
X21450D01*
X22200Y358750D01*
X19200Y358000D02*X22200D01*
Y358750D02*Y358000D01*
X28950Y359500D02*X29700Y358750D01*
X27450Y359500D02*X28950D01*
X26700Y358750D02*X27450Y359500D01*
X26700Y358750D02*Y357250D01*
X27450Y356500D01*
X29700Y359500D02*Y357250D01*
X30450Y356500D01*
X27450D02*X28950D01*
X29700Y357250D01*
X33000Y358750D02*Y356500D01*
Y358750D02*X33750Y359500D01*
X35250D01*
X32250D02*X33000Y358750D01*
X37800Y356500D02*X40050D01*
X37050Y357250D02*X37800Y356500D01*
X37050Y358750D02*Y357250D01*
Y358750D02*X37800Y359500D01*
X39300D01*
X40050Y358750D01*
X37050Y358000D02*X40050D01*
Y358750D02*Y358000D01*
X44550Y361750D02*X45300Y362500D01*
X46800D01*
X47550Y361750D01*
X46800Y356500D02*X47550Y357250D01*
X45300Y356500D02*X46800D01*
X44550Y357250D02*X45300Y356500D01*
Y359800D02*X46800D01*
X47550Y361750D02*Y360550D01*
Y359050D02*Y357250D01*
Y359050D02*X46800Y359800D01*
X47550Y360550D02*X46800Y359800D01*
X55050Y362500D02*Y356500D01*
X54300D02*X55050Y357250D01*
X52800Y356500D02*X54300D01*
X52050Y357250D02*X52800Y356500D01*
X52050Y358750D02*Y357250D01*
Y358750D02*X52800Y359500D01*
X54300D01*
X55050Y358750D01*
G54D48*X56850Y361000D02*Y360850D01*
G54D47*Y358750D02*Y356500D01*
X59100Y361750D02*Y356500D01*
Y361750D02*X59850Y362500D01*
X60600D01*
X58350Y359500D02*X59850D01*
X62850Y361750D02*Y356500D01*
Y361750D02*X63600Y362500D01*
X64350D01*
X62100Y359500D02*X63600D01*
X66600Y356500D02*X68850D01*
X65850Y357250D02*X66600Y356500D01*
X65850Y358750D02*Y357250D01*
Y358750D02*X66600Y359500D01*
X68100D01*
X68850Y358750D01*
X65850Y358000D02*X68850D01*
Y358750D02*Y358000D01*
X71400Y358750D02*Y356500D01*
Y358750D02*X72150Y359500D01*
X73650D01*
X70650D02*X71400Y358750D01*
X76200Y356500D02*X78450D01*
X75450Y357250D02*X76200Y356500D01*
X75450Y358750D02*Y357250D01*
Y358750D02*X76200Y359500D01*
X77700D01*
X78450Y358750D01*
X75450Y358000D02*X78450D01*
Y358750D02*Y358000D01*
X81000Y358750D02*Y356500D01*
Y358750D02*X81750Y359500D01*
X82500D01*
X83250Y358750D01*
Y356500D01*
X80250Y359500D02*X81000Y358750D01*
X85800Y362500D02*Y357250D01*
X86550Y356500D01*
X85050Y360250D02*X86550D01*
X93750Y362500D02*Y356500D01*
X93000D02*X93750Y357250D01*
X91500Y356500D02*X93000D01*
X90750Y357250D02*X91500Y356500D01*
X90750Y358750D02*Y357250D01*
Y358750D02*X91500Y359500D01*
X93000D01*
X93750Y358750D01*
X96300D02*Y356500D01*
Y358750D02*X97050Y359500D01*
X98550D01*
X95550D02*X96300Y358750D01*
G54D48*X100350Y361000D02*Y360850D01*
G54D47*Y358750D02*Y356500D01*
X101850Y362500D02*Y357250D01*
X102600Y356500D01*
X104100Y362500D02*Y357250D01*
X104850Y356500D01*
X109800D02*X112050D01*
X112800Y357250D01*
X112050Y358000D02*X112800Y357250D01*
X109800Y358000D02*X112050D01*
X109050Y358750D02*X109800Y358000D01*
X109050Y358750D02*X109800Y359500D01*
X112050D01*
X112800Y358750D01*
X109050Y357250D02*X109800Y356500D01*
G54D48*X114600Y361000D02*Y360850D01*
G54D47*Y358750D02*Y356500D01*
X116100Y359500D02*X119100D01*
X116100Y356500D02*X119100Y359500D01*
X116100Y356500D02*X119100D01*
X121650D02*X123900D01*
X120900Y357250D02*X121650Y356500D01*
X120900Y358750D02*Y357250D01*
Y358750D02*X121650Y359500D01*
X123150D01*
X123900Y358750D01*
X120900Y358000D02*X123900D01*
Y358750D02*Y358000D01*
X126450Y356500D02*X128700D01*
X129450Y357250D01*
X128700Y358000D02*X129450Y357250D01*
X126450Y358000D02*X128700D01*
X125700Y358750D02*X126450Y358000D01*
X125700Y358750D02*X126450Y359500D01*
X128700D01*
X129450Y358750D01*
X125700Y357250D02*X126450Y356500D01*
X133950Y359500D02*Y357250D01*
X134700Y356500D01*
X136200D01*
X136950Y357250D01*
Y359500D02*Y357250D01*
X139500Y356500D02*X141750D01*
X142500Y357250D01*
X141750Y358000D02*X142500Y357250D01*
X139500Y358000D02*X141750D01*
X138750Y358750D02*X139500Y358000D01*
X138750Y358750D02*X139500Y359500D01*
X141750D01*
X142500Y358750D01*
X138750Y357250D02*X139500Y356500D01*
X145050D02*X147300D01*
X144300Y357250D02*X145050Y356500D01*
X144300Y358750D02*Y357250D01*
Y358750D02*X145050Y359500D01*
X146550D01*
X147300Y358750D01*
X144300Y358000D02*X147300D01*
Y358750D02*Y358000D01*
X152100Y362500D02*Y356500D01*
X151350D02*X152100Y357250D01*
X149850Y356500D02*X151350D01*
X149100Y357250D02*X149850Y356500D01*
X149100Y358750D02*Y357250D01*
Y358750D02*X149850Y359500D01*
X151350D01*
X152100Y358750D01*
G54D48*X156600Y361000D02*Y360850D01*
G54D47*Y358750D02*Y356500D01*
X158850Y358750D02*Y356500D01*
Y358750D02*X159600Y359500D01*
X160350D01*
X161100Y358750D01*
Y356500D01*
X158100Y359500D02*X158850Y358750D01*
X166350Y362500D02*Y357250D01*
X167100Y356500D01*
X165600Y360250D02*X167100D01*
X168600Y362500D02*Y356500D01*
Y358750D02*X169350Y359500D01*
X170850D01*
X171600Y358750D01*
Y356500D01*
G54D48*X173400Y361000D02*Y360850D01*
G54D47*Y358750D02*Y356500D01*
X175650D02*X177900D01*
X178650Y357250D01*
X177900Y358000D02*X178650Y357250D01*
X175650Y358000D02*X177900D01*
X174900Y358750D02*X175650Y358000D01*
X174900Y358750D02*X175650Y359500D01*
X177900D01*
X178650Y358750D01*
X174900Y357250D02*X175650Y356500D01*
X183150Y362500D02*Y357250D01*
X183900Y356500D01*
X187650Y359500D02*X188400Y358750D01*
X186150Y359500D02*X187650D01*
X185400Y358750D02*X186150Y359500D01*
X185400Y358750D02*Y357250D01*
X186150Y356500D01*
X188400Y359500D02*Y357250D01*
X189150Y356500D01*
X186150D02*X187650D01*
X188400Y357250D01*
X190950Y359500D02*Y357250D01*
X191700Y356500D01*
X193950Y359500D02*Y355000D01*
X193200Y354250D02*X193950Y355000D01*
X191700Y354250D02*X193200D01*
X190950Y355000D02*X191700Y354250D01*
Y356500D02*X193200D01*
X193950Y357250D01*
X195750Y358750D02*Y357250D01*
Y358750D02*X196500Y359500D01*
X198000D01*
X198750Y358750D01*
Y357250D01*
X198000Y356500D02*X198750Y357250D01*
X196500Y356500D02*X198000D01*
X195750Y357250D02*X196500Y356500D01*
X200550Y359500D02*Y357250D01*
X201300Y356500D01*
X202800D01*
X203550Y357250D01*
Y359500D02*Y357250D01*
X206100Y362500D02*Y357250D01*
X206850Y356500D01*
X205350Y360250D02*X206850D01*
X208350Y355000D02*X209850Y356500D01*
X214350Y361300D02*X215550Y362500D01*
Y356500D01*
X214350D02*X216600D01*
X218400Y361750D02*X219150Y362500D01*
X221400D01*
X222150Y361750D01*
Y360250D01*
X218400Y356500D02*X222150Y360250D01*
X218400Y356500D02*X222150D01*
X223950Y362500D02*X226950D01*
X223950D02*Y359500D01*
X224700Y360250D01*
X226200D01*
X226950Y359500D01*
Y357250D01*
X226200Y356500D02*X226950Y357250D01*
X224700Y356500D02*X226200D01*
X223950Y357250D02*X224700Y356500D01*
X231450Y362500D02*Y356500D01*
Y358750D02*X232200Y359500D01*
X233700D01*
X234450Y358750D01*
Y356500D01*
X236250Y358750D02*Y357250D01*
Y358750D02*X237000Y359500D01*
X238500D01*
X239250Y358750D01*
Y357250D01*
X238500Y356500D02*X239250Y357250D01*
X237000Y356500D02*X238500D01*
X236250Y357250D02*X237000Y356500D01*
X241050Y362500D02*Y357250D01*
X241800Y356500D01*
X244050D02*X246300D01*
X243300Y357250D02*X244050Y356500D01*
X243300Y358750D02*Y357250D01*
Y358750D02*X244050Y359500D01*
X245550D01*
X246300Y358750D01*
X243300Y358000D02*X246300D01*
Y358750D02*Y358000D01*
X248850Y356500D02*X251100D01*
X251850Y357250D01*
X251100Y358000D02*X251850Y357250D01*
X248850Y358000D02*X251100D01*
X248100Y358750D02*X248850Y358000D01*
X248100Y358750D02*X248850Y359500D01*
X251100D01*
X251850Y358750D01*
X248100Y357250D02*X248850Y356500D01*
X257100Y362500D02*Y357250D01*
X257850Y356500D01*
X256350Y360250D02*X257850D01*
X259350Y358750D02*Y357250D01*
Y358750D02*X260100Y359500D01*
X261600D01*
X262350Y358750D01*
Y357250D01*
X261600Y356500D02*X262350Y357250D01*
X260100Y356500D02*X261600D01*
X259350Y357250D02*X260100Y356500D01*
X264900Y362500D02*Y357250D01*
X265650Y356500D01*
X264150Y360250D02*X265650D01*
X269400Y359500D02*X270150Y358750D01*
X267900Y359500D02*X269400D01*
X267150Y358750D02*X267900Y359500D01*
X267150Y358750D02*Y357250D01*
X267900Y356500D01*
X270150Y359500D02*Y357250D01*
X270900Y356500D01*
X267900D02*X269400D01*
X270150Y357250D01*
X272700Y362500D02*Y357250D01*
X273450Y356500D01*
G54D49*X0Y274000D02*X126000D01*
X0D02*Y0D01*
X126000Y274000D02*Y0D01*
X0D02*X126000D01*
G54D47*X200000Y287500D02*Y281500D01*
Y287500D02*X202250Y284500D01*
X204500Y287500D01*
Y281500D01*
X208550Y284500D02*X209300Y283750D01*
X207050Y284500D02*X208550D01*
X206300Y283750D02*X207050Y284500D01*
X206300Y283750D02*Y282250D01*
X207050Y281500D01*
X209300Y284500D02*Y282250D01*
X210050Y281500D01*
X207050D02*X208550D01*
X209300Y282250D01*
X211850Y284500D02*X214850Y281500D01*
X211850D02*X214850Y284500D01*
G54D48*X216650Y286000D02*Y285850D01*
G54D47*Y283750D02*Y281500D01*
X218900Y283750D02*Y281500D01*
Y283750D02*X219650Y284500D01*
X220400D01*
X221150Y283750D01*
Y281500D01*
Y283750D02*X221900Y284500D01*
X222650D01*
X223400Y283750D01*
Y281500D01*
X218150Y284500D02*X218900Y283750D01*
X225200Y284500D02*Y282250D01*
X225950Y281500D01*
X227450D01*
X228200Y282250D01*
Y284500D02*Y282250D01*
X230750Y283750D02*Y281500D01*
Y283750D02*X231500Y284500D01*
X232250D01*
X233000Y283750D01*
Y281500D01*
Y283750D02*X233750Y284500D01*
X234500D01*
X235250Y283750D01*
Y281500D01*
X230000Y284500D02*X230750Y283750D01*
X240500Y287500D02*Y281500D01*
X242450Y287500D02*X243500Y286450D01*
Y282550D01*
X242450Y281500D02*X243500Y282550D01*
X239750Y281500D02*X242450D01*
X239750Y287500D02*X242450D01*
G54D48*X245300Y286000D02*Y285850D01*
G54D47*Y283750D02*Y281500D01*
X247550Y283750D02*Y281500D01*
Y283750D02*X248300Y284500D01*
X249050D01*
X249800Y283750D01*
Y281500D01*
Y283750D02*X250550Y284500D01*
X251300D01*
X252050Y283750D01*
Y281500D01*
X246800Y284500D02*X247550Y283750D01*
X254600Y281500D02*X256850D01*
X253850Y282250D02*X254600Y281500D01*
X253850Y283750D02*Y282250D01*
Y283750D02*X254600Y284500D01*
X256100D01*
X256850Y283750D01*
X253850Y283000D02*X256850D01*
Y283750D02*Y283000D01*
X259400Y283750D02*Y281500D01*
Y283750D02*X260150Y284500D01*
X260900D01*
X261650Y283750D01*
Y281500D01*
X258650Y284500D02*X259400Y283750D01*
X264200Y281500D02*X266450D01*
X267200Y282250D01*
X266450Y283000D02*X267200Y282250D01*
X264200Y283000D02*X266450D01*
X263450Y283750D02*X264200Y283000D01*
X263450Y283750D02*X264200Y284500D01*
X266450D01*
X267200Y283750D01*
X263450Y282250D02*X264200Y281500D01*
G54D48*X269000Y286000D02*Y285850D01*
G54D47*Y283750D02*Y281500D01*
X270500Y283750D02*Y282250D01*
Y283750D02*X271250Y284500D01*
X272750D01*
X273500Y283750D01*
Y282250D01*
X272750Y281500D02*X273500Y282250D01*
X271250Y281500D02*X272750D01*
X270500Y282250D02*X271250Y281500D01*
X276050Y283750D02*Y281500D01*
Y283750D02*X276800Y284500D01*
X277550D01*
X278300Y283750D01*
Y281500D01*
X275300Y284500D02*X276050Y283750D01*
X280850Y281500D02*X283100D01*
X283850Y282250D01*
X283100Y283000D02*X283850Y282250D01*
X280850Y283000D02*X283100D01*
X280100Y283750D02*X280850Y283000D01*
X280100Y283750D02*X280850Y284500D01*
X283100D01*
X283850Y283750D01*
X280100Y282250D02*X280850Y281500D01*
X285650Y285250D02*X286400D01*
X285650Y283750D02*X286400D01*
X290900Y286300D02*X292100Y287500D01*
Y281500D01*
X290900D02*X293150D01*
X294950Y286750D02*X295700Y287500D01*
X297950D01*
X298700Y286750D01*
Y285250D01*
X294950Y281500D02*X298700Y285250D01*
X294950Y281500D02*X298700D01*
X302750Y287500D02*X303500Y286750D01*
X301250Y287500D02*X302750D01*
X300500Y286750D02*X301250Y287500D01*
X300500Y286750D02*Y282250D01*
X301250Y281500D01*
X302750Y284800D02*X303500Y284050D01*
X300500Y284800D02*X302750D01*
X301250Y281500D02*X302750D01*
X303500Y282250D01*
Y284050D02*Y282250D01*
X305300D02*X306050Y281500D01*
X305300Y286750D02*Y282250D01*
Y286750D02*X306050Y287500D01*
X307550D01*
X308300Y286750D01*
Y282250D01*
X307550Y281500D02*X308300Y282250D01*
X306050Y281500D02*X307550D01*
X305300Y283000D02*X308300Y286000D01*
X310100Y281500D02*X310850D01*
X312650Y282250D02*X313400Y281500D01*
X312650Y286750D02*Y282250D01*
Y286750D02*X313400Y287500D01*
X314900D01*
X315650Y286750D01*
Y282250D01*
X314900Y281500D02*X315650Y282250D01*
X313400Y281500D02*X314900D01*
X312650Y283000D02*X315650Y286000D01*
X317450Y282250D02*X318200Y281500D01*
X317450Y286750D02*Y282250D01*
Y286750D02*X318200Y287500D01*
X319700D01*
X320450Y286750D01*
Y282250D01*
X319700Y281500D02*X320450Y282250D01*
X318200Y281500D02*X319700D01*
X317450Y283000D02*X320450Y286000D01*
X322250Y282250D02*X323000Y281500D01*
X322250Y286750D02*Y282250D01*
Y286750D02*X323000Y287500D01*
X324500D01*
X325250Y286750D01*
Y282250D01*
X324500Y281500D02*X325250Y282250D01*
X323000Y281500D02*X324500D01*
X322250Y283000D02*X325250Y286000D01*
X327050Y282250D02*X327800Y281500D01*
X327050Y286750D02*Y282250D01*
Y286750D02*X327800Y287500D01*
X329300D01*
X330050Y286750D01*
Y282250D01*
X329300Y281500D02*X330050Y282250D01*
X327800Y281500D02*X329300D01*
X327050Y283000D02*X330050Y286000D01*
X331850Y282250D02*X332600Y281500D01*
X331850Y286750D02*Y282250D01*
Y286750D02*X332600Y287500D01*
X334100D01*
X334850Y286750D01*
Y282250D01*
X334100Y281500D02*X334850Y282250D01*
X332600Y281500D02*X334100D01*
X331850Y283000D02*X334850Y286000D01*
X336650Y282250D02*X337400Y281500D01*
X336650Y286750D02*Y282250D01*
Y286750D02*X337400Y287500D01*
X338900D01*
X339650Y286750D01*
Y282250D01*
X338900Y281500D02*X339650Y282250D01*
X337400Y281500D02*X338900D01*
X336650Y283000D02*X339650Y286000D01*
X344900Y283750D02*Y281500D01*
Y283750D02*X345650Y284500D01*
X346400D01*
X347150Y283750D01*
Y281500D01*
Y283750D02*X347900Y284500D01*
X348650D01*
X349400Y283750D01*
Y281500D01*
X344150Y284500D02*X344900Y283750D01*
G54D48*X351200Y286000D02*Y285850D01*
G54D47*Y283750D02*Y281500D01*
X352700Y287500D02*Y282250D01*
X353450Y281500D01*
X355700D02*X357950D01*
X358700Y282250D01*
X357950Y283000D02*X358700Y282250D01*
X355700Y283000D02*X357950D01*
X354950Y283750D02*X355700Y283000D01*
X354950Y283750D02*X355700Y284500D01*
X357950D01*
X358700Y283750D01*
X354950Y282250D02*X355700Y281500D01*
X363200Y284500D02*Y282250D01*
X363950Y281500D01*
X364700D01*
X365450Y282250D01*
Y284500D02*Y282250D01*
X366200Y281500D01*
X366950D01*
X367700Y282250D01*
Y284500D02*Y282250D01*
G54D48*X369500Y286000D02*Y285850D01*
G54D47*Y283750D02*Y281500D01*
X374000Y287500D02*Y281500D01*
X373250D02*X374000Y282250D01*
X371750Y281500D02*X373250D01*
X371000Y282250D02*X371750Y281500D01*
X371000Y283750D02*Y282250D01*
Y283750D02*X371750Y284500D01*
X373250D01*
X374000Y283750D01*
X376550Y281500D02*X378800D01*
X375800Y282250D02*X376550Y281500D01*
X375800Y283750D02*Y282250D01*
Y283750D02*X376550Y284500D01*
X378050D01*
X378800Y283750D01*
X375800Y283000D02*X378800D01*
Y283750D02*Y283000D01*
X380600Y280000D02*X382100Y281500D01*
X386600Y286750D02*X387350Y287500D01*
X389600D01*
X390350Y286750D01*
Y285250D01*
X386600Y281500D02*X390350Y285250D01*
X386600Y281500D02*X390350D01*
X392900D02*X395900Y287500D01*
X392150D02*X395900D01*
X397700Y283750D02*X400700Y287500D01*
X397700Y283750D02*X401450D01*
X400700Y287500D02*Y281500D01*
X403250Y282250D02*X404000Y281500D01*
X403250Y286750D02*Y282250D01*
Y286750D02*X404000Y287500D01*
X405500D01*
X406250Y286750D01*
Y282250D01*
X405500Y281500D02*X406250Y282250D01*
X404000Y281500D02*X405500D01*
X403250Y283000D02*X406250Y286000D01*
X408050Y281500D02*X408800D01*
X410600Y282250D02*X411350Y281500D01*
X410600Y286750D02*Y282250D01*
Y286750D02*X411350Y287500D01*
X412850D01*
X413600Y286750D01*
Y282250D01*
X412850Y281500D02*X413600Y282250D01*
X411350Y281500D02*X412850D01*
X410600Y283000D02*X413600Y286000D01*
X415400Y282250D02*X416150Y281500D01*
X415400Y286750D02*Y282250D01*
Y286750D02*X416150Y287500D01*
X417650D01*
X418400Y286750D01*
Y282250D01*
X417650Y281500D02*X418400Y282250D01*
X416150Y281500D02*X417650D01*
X415400Y283000D02*X418400Y286000D01*
X420200Y282250D02*X420950Y281500D01*
X420200Y286750D02*Y282250D01*
Y286750D02*X420950Y287500D01*
X422450D01*
X423200Y286750D01*
Y282250D01*
X422450Y281500D02*X423200Y282250D01*
X420950Y281500D02*X422450D01*
X420200Y283000D02*X423200Y286000D01*
X425000Y282250D02*X425750Y281500D01*
X425000Y286750D02*Y282250D01*
Y286750D02*X425750Y287500D01*
X427250D01*
X428000Y286750D01*
Y282250D01*
X427250Y281500D02*X428000Y282250D01*
X425750Y281500D02*X427250D01*
X425000Y283000D02*X428000Y286000D01*
X429800Y282250D02*X430550Y281500D01*
X429800Y286750D02*Y282250D01*
Y286750D02*X430550Y287500D01*
X432050D01*
X432800Y286750D01*
Y282250D01*
X432050Y281500D02*X432800Y282250D01*
X430550Y281500D02*X432050D01*
X429800Y283000D02*X432800Y286000D01*
X434600Y282250D02*X435350Y281500D01*
X434600Y286750D02*Y282250D01*
Y286750D02*X435350Y287500D01*
X436850D01*
X437600Y286750D01*
Y282250D01*
X436850Y281500D02*X437600Y282250D01*
X435350Y281500D02*X436850D01*
X434600Y283000D02*X437600Y286000D01*
X442850Y283750D02*Y281500D01*
Y283750D02*X443600Y284500D01*
X444350D01*
X445100Y283750D01*
Y281500D01*
Y283750D02*X445850Y284500D01*
X446600D01*
X447350Y283750D01*
Y281500D01*
X442100Y284500D02*X442850Y283750D01*
G54D48*X449150Y286000D02*Y285850D01*
G54D47*Y283750D02*Y281500D01*
X450650Y287500D02*Y282250D01*
X451400Y281500D01*
X453650D02*X455900D01*
X456650Y282250D01*
X455900Y283000D02*X456650Y282250D01*
X453650Y283000D02*X455900D01*
X452900Y283750D02*X453650Y283000D01*
X452900Y283750D02*X453650Y284500D01*
X455900D01*
X456650Y283750D01*
X452900Y282250D02*X453650Y281500D01*
X461150Y287500D02*Y281500D01*
Y283750D02*X461900Y284500D01*
X463400D01*
X464150Y283750D01*
Y281500D01*
G54D48*X465950Y286000D02*Y285850D01*
G54D47*Y283750D02*Y281500D01*
X469700Y284500D02*X470450Y283750D01*
X468200Y284500D02*X469700D01*
X467450Y283750D02*X468200Y284500D01*
X467450Y283750D02*Y282250D01*
X468200Y281500D01*
X469700D01*
X470450Y282250D01*
X467450Y280000D02*X468200Y279250D01*
X469700D01*
X470450Y280000D01*
Y284500D02*Y280000D01*
X472250Y287500D02*Y281500D01*
Y283750D02*X473000Y284500D01*
X474500D01*
X475250Y283750D01*
Y281500D01*
X0Y-9500D02*X3000D01*
X3750Y-8750D01*
Y-6950D02*Y-8750D01*
X3000Y-6200D02*X3750Y-6950D01*
X750Y-6200D02*X3000D01*
X750Y-3500D02*Y-9500D01*
X0Y-3500D02*X3000D01*
X3750Y-4250D01*
Y-5450D01*
X3000Y-6200D02*X3750Y-5450D01*
X5550Y-7250D02*Y-8750D01*
Y-7250D02*X6300Y-6500D01*
X7800D01*
X8550Y-7250D01*
Y-8750D01*
X7800Y-9500D02*X8550Y-8750D01*
X6300Y-9500D02*X7800D01*
X5550Y-8750D02*X6300Y-9500D01*
X12600Y-6500D02*X13350Y-7250D01*
X11100Y-6500D02*X12600D01*
X10350Y-7250D02*X11100Y-6500D01*
X10350Y-7250D02*Y-8750D01*
X11100Y-9500D01*
X13350Y-6500D02*Y-8750D01*
X14100Y-9500D01*
X11100D02*X12600D01*
X13350Y-8750D01*
X16650Y-7250D02*Y-9500D01*
Y-7250D02*X17400Y-6500D01*
X18900D01*
X15900D02*X16650Y-7250D01*
X23700Y-3500D02*Y-9500D01*
X22950D02*X23700Y-8750D01*
X21450Y-9500D02*X22950D01*
X20700Y-8750D02*X21450Y-9500D01*
X20700Y-7250D02*Y-8750D01*
Y-7250D02*X21450Y-6500D01*
X22950D01*
X23700Y-7250D01*
X28200D02*Y-8750D01*
Y-7250D02*X28950Y-6500D01*
X30450D01*
X31200Y-7250D01*
Y-8750D01*
X30450Y-9500D02*X31200Y-8750D01*
X28950Y-9500D02*X30450D01*
X28200Y-8750D02*X28950Y-9500D01*
X33000Y-6500D02*Y-8750D01*
X33750Y-9500D01*
X35250D01*
X36000Y-8750D01*
Y-6500D02*Y-8750D01*
X38550Y-3500D02*Y-8750D01*
X39300Y-9500D01*
X37800Y-5750D02*X39300D01*
X40800Y-3500D02*Y-8750D01*
X41550Y-9500D01*
G54D48*X43050Y-5000D02*Y-5150D01*
G54D47*Y-7250D02*Y-9500D01*
X45300Y-7250D02*Y-9500D01*
Y-7250D02*X46050Y-6500D01*
X46800D01*
X47550Y-7250D01*
Y-9500D01*
X44550Y-6500D02*X45300Y-7250D01*
X50100Y-9500D02*X52350D01*
X49350Y-8750D02*X50100Y-9500D01*
X49350Y-7250D02*Y-8750D01*
Y-7250D02*X50100Y-6500D01*
X51600D01*
X52350Y-7250D01*
X49350Y-8000D02*X52350D01*
Y-7250D02*Y-8000D01*
G54D48*X56850Y-5000D02*Y-5150D01*
G54D47*Y-7250D02*Y-9500D01*
X59100D02*X61350D01*
X62100Y-8750D01*
X61350Y-8000D02*X62100Y-8750D01*
X59100Y-8000D02*X61350D01*
X58350Y-7250D02*X59100Y-8000D01*
X58350Y-7250D02*X59100Y-6500D01*
X61350D01*
X62100Y-7250D01*
X58350Y-8750D02*X59100Y-9500D01*
X67350Y-3500D02*Y-8750D01*
X68100Y-9500D01*
X66600Y-5750D02*X68100D01*
X69600Y-3500D02*Y-9500D01*
Y-7250D02*X70350Y-6500D01*
X71850D01*
X72600Y-7250D01*
Y-9500D01*
X75150D02*X77400D01*
X74400Y-8750D02*X75150Y-9500D01*
X74400Y-7250D02*Y-8750D01*
Y-7250D02*X75150Y-6500D01*
X76650D01*
X77400Y-7250D01*
X74400Y-8000D02*X77400D01*
Y-7250D02*Y-8000D01*
X82650Y-6500D02*X84900D01*
X81900Y-7250D02*X82650Y-6500D01*
X81900Y-7250D02*Y-8750D01*
X82650Y-9500D01*
X84900D01*
X87450D02*X89700D01*
X86700Y-8750D02*X87450Y-9500D01*
X86700Y-7250D02*Y-8750D01*
Y-7250D02*X87450Y-6500D01*
X88950D01*
X89700Y-7250D01*
X86700Y-8000D02*X89700D01*
Y-7250D02*Y-8000D01*
X92250Y-7250D02*Y-9500D01*
Y-7250D02*X93000Y-6500D01*
X93750D01*
X94500Y-7250D01*
Y-9500D01*
X91500Y-6500D02*X92250Y-7250D01*
X97050Y-3500D02*Y-8750D01*
X97800Y-9500D01*
X96300Y-5750D02*X97800D01*
X100050Y-9500D02*X102300D01*
X99300Y-8750D02*X100050Y-9500D01*
X99300Y-7250D02*Y-8750D01*
Y-7250D02*X100050Y-6500D01*
X101550D01*
X102300Y-7250D01*
X99300Y-8000D02*X102300D01*
Y-7250D02*Y-8000D01*
X104850Y-7250D02*Y-9500D01*
Y-7250D02*X105600Y-6500D01*
X107100D01*
X104100D02*X104850Y-7250D01*
X108900Y-3500D02*Y-8750D01*
X109650Y-9500D01*
G54D48*X111150Y-5000D02*Y-5150D01*
G54D47*Y-7250D02*Y-9500D01*
X113400Y-7250D02*Y-9500D01*
Y-7250D02*X114150Y-6500D01*
X114900D01*
X115650Y-7250D01*
Y-9500D01*
X112650Y-6500D02*X113400Y-7250D01*
X118200Y-9500D02*X120450D01*
X117450Y-8750D02*X118200Y-9500D01*
X117450Y-7250D02*Y-8750D01*
Y-7250D02*X118200Y-6500D01*
X119700D01*
X120450Y-7250D01*
X117450Y-8000D02*X120450D01*
Y-7250D02*Y-8000D01*
X124950Y-7250D02*Y-8750D01*
Y-7250D02*X125700Y-6500D01*
X127200D01*
X127950Y-7250D01*
Y-8750D01*
X127200Y-9500D02*X127950Y-8750D01*
X125700Y-9500D02*X127200D01*
X124950Y-8750D02*X125700Y-9500D01*
X130500Y-4250D02*Y-9500D01*
Y-4250D02*X131250Y-3500D01*
X132000D01*
X129750Y-6500D02*X131250D01*
X136950Y-3500D02*Y-8750D01*
X137700Y-9500D01*
X136200Y-5750D02*X137700D01*
X139200Y-3500D02*Y-9500D01*
Y-7250D02*X139950Y-6500D01*
X141450D01*
X142200Y-7250D01*
Y-9500D01*
G54D48*X144000Y-5000D02*Y-5150D01*
G54D47*Y-7250D02*Y-9500D01*
X146250D02*X148500D01*
X149250Y-8750D01*
X148500Y-8000D02*X149250Y-8750D01*
X146250Y-8000D02*X148500D01*
X145500Y-7250D02*X146250Y-8000D01*
X145500Y-7250D02*X146250Y-6500D01*
X148500D01*
X149250Y-7250D01*
X145500Y-8750D02*X146250Y-9500D01*
X153750Y-8750D02*X154500Y-9500D01*
X153750Y-7550D02*Y-8750D01*
Y-7550D02*X154800Y-6500D01*
X155700D01*
X156750Y-7550D01*
Y-8750D01*
X156000Y-9500D02*X156750Y-8750D01*
X154500Y-9500D02*X156000D01*
X153750Y-5450D02*X154800Y-6500D01*
X153750Y-4250D02*Y-5450D01*
Y-4250D02*X154500Y-3500D01*
X156000D01*
X156750Y-4250D01*
Y-5450D01*
X155700Y-6500D02*X156750Y-5450D01*
X158550Y-9500D02*X159300D01*
X161100Y-8750D02*X161850Y-9500D01*
X161100Y-4250D02*Y-8750D01*
Y-4250D02*X161850Y-3500D01*
X163350D01*
X164100Y-4250D01*
Y-8750D01*
X163350Y-9500D02*X164100Y-8750D01*
X161850Y-9500D02*X163350D01*
X161100Y-8000D02*X164100Y-5000D01*
X165900Y-8750D02*X166650Y-9500D01*
X165900Y-4250D02*Y-8750D01*
Y-4250D02*X166650Y-3500D01*
X168150D01*
X168900Y-4250D01*
Y-8750D01*
X168150Y-9500D02*X168900Y-8750D01*
X166650Y-9500D02*X168150D01*
X165900Y-8000D02*X168900Y-5000D01*
X170700Y-8750D02*X171450Y-9500D01*
X170700Y-4250D02*Y-8750D01*
Y-4250D02*X171450Y-3500D01*
X172950D01*
X173700Y-4250D01*
Y-8750D01*
X172950Y-9500D02*X173700Y-8750D01*
X171450Y-9500D02*X172950D01*
X170700Y-8000D02*X173700Y-5000D01*
X175500Y-8750D02*X176250Y-9500D01*
X175500Y-4250D02*Y-8750D01*
Y-4250D02*X176250Y-3500D01*
X177750D01*
X178500Y-4250D01*
Y-8750D01*
X177750Y-9500D02*X178500Y-8750D01*
X176250Y-9500D02*X177750D01*
X175500Y-8000D02*X178500Y-5000D01*
X180300Y-8750D02*X181050Y-9500D01*
X180300Y-4250D02*Y-8750D01*
Y-4250D02*X181050Y-3500D01*
X182550D01*
X183300Y-4250D01*
Y-8750D01*
X182550Y-9500D02*X183300Y-8750D01*
X181050Y-9500D02*X182550D01*
X180300Y-8000D02*X183300Y-5000D01*
X185100Y-8750D02*X185850Y-9500D01*
X185100Y-4250D02*Y-8750D01*
Y-4250D02*X185850Y-3500D01*
X187350D01*
X188100Y-4250D01*
Y-8750D01*
X187350Y-9500D02*X188100Y-8750D01*
X185850Y-9500D02*X187350D01*
X185100Y-8000D02*X188100Y-5000D01*
X193350Y-7250D02*Y-9500D01*
Y-7250D02*X194100Y-6500D01*
X194850D01*
X195600Y-7250D01*
Y-9500D01*
Y-7250D02*X196350Y-6500D01*
X197100D01*
X197850Y-7250D01*
Y-9500D01*
X192600Y-6500D02*X193350Y-7250D01*
G54D48*X199650Y-5000D02*Y-5150D01*
G54D47*Y-7250D02*Y-9500D01*
X201150Y-3500D02*Y-8750D01*
X201900Y-9500D01*
X206850Y-7250D02*Y-9500D01*
Y-7250D02*X207600Y-6500D01*
X209100D01*
X206100D02*X206850Y-7250D01*
X211650Y-9500D02*X213900D01*
X210900Y-8750D02*X211650Y-9500D01*
X210900Y-7250D02*Y-8750D01*
Y-7250D02*X211650Y-6500D01*
X213150D01*
X213900Y-7250D01*
X210900Y-8000D02*X213900D01*
Y-7250D02*Y-8000D01*
X216450Y-6500D02*X218700D01*
X215700Y-7250D02*X216450Y-6500D01*
X215700Y-7250D02*Y-8750D01*
X216450Y-9500D01*
X218700D01*
X221250Y-3500D02*Y-8750D01*
X222000Y-9500D01*
X220500Y-5750D02*X222000D01*
X225750Y-6500D02*X226500Y-7250D01*
X224250Y-6500D02*X225750D01*
X223500Y-7250D02*X224250Y-6500D01*
X223500Y-7250D02*Y-8750D01*
X224250Y-9500D01*
X226500Y-6500D02*Y-8750D01*
X227250Y-9500D01*
X224250D02*X225750D01*
X226500Y-8750D01*
X229800Y-7250D02*Y-9500D01*
Y-7250D02*X230550Y-6500D01*
X231300D01*
X232050Y-7250D01*
Y-9500D01*
X229050Y-6500D02*X229800Y-7250D01*
X236100Y-6500D02*X236850Y-7250D01*
X234600Y-6500D02*X236100D01*
X233850Y-7250D02*X234600Y-6500D01*
X233850Y-7250D02*Y-8750D01*
X234600Y-9500D01*
X236100D01*
X236850Y-8750D01*
X233850Y-11000D02*X234600Y-11750D01*
X236100D01*
X236850Y-11000D01*
Y-6500D02*Y-11000D01*
X238650Y-3500D02*Y-8750D01*
X239400Y-9500D01*
X241650D02*X243900D01*
X240900Y-8750D02*X241650Y-9500D01*
X240900Y-7250D02*Y-8750D01*
Y-7250D02*X241650Y-6500D01*
X243150D01*
X243900Y-7250D01*
X240900Y-8000D02*X243900D01*
Y-7250D02*Y-8000D01*
X248400Y-6500D02*X251400D01*
X255900Y-8750D02*X256650Y-9500D01*
X255900Y-4250D02*Y-8750D01*
Y-4250D02*X256650Y-3500D01*
X258150D01*
X258900Y-4250D01*
Y-8750D01*
X258150Y-9500D02*X258900Y-8750D01*
X256650Y-9500D02*X258150D01*
X255900Y-8000D02*X258900Y-5000D01*
X260700Y-11000D02*X262200Y-9500D01*
X264000Y-8750D02*X264750Y-9500D01*
X264000Y-4250D02*Y-8750D01*
Y-4250D02*X264750Y-3500D01*
X266250D01*
X267000Y-4250D01*
Y-8750D01*
X266250Y-9500D02*X267000Y-8750D01*
X264750Y-9500D02*X266250D01*
X264000Y-8000D02*X267000Y-5000D01*
X272250Y-3500D02*Y-8750D01*
X273000Y-9500D01*
X271500Y-5750D02*X273000D01*
X274500Y-7250D02*Y-8750D01*
Y-7250D02*X275250Y-6500D01*
X276750D01*
X277500Y-7250D01*
Y-8750D01*
X276750Y-9500D02*X277500Y-8750D01*
X275250Y-9500D02*X276750D01*
X274500Y-8750D02*X275250Y-9500D01*
X282000Y-4700D02*X283200Y-3500D01*
Y-9500D01*
X282000D02*X284250D01*
X286050Y-4250D02*X286800Y-3500D01*
X289050D01*
X289800Y-4250D01*
Y-5750D01*
X286050Y-9500D02*X289800Y-5750D01*
X286050Y-9500D02*X289800D01*
X293850Y-3500D02*X294600Y-4250D01*
X292350Y-3500D02*X293850D01*
X291600Y-4250D02*X292350Y-3500D01*
X291600Y-4250D02*Y-8750D01*
X292350Y-9500D01*
X293850Y-6200D02*X294600Y-6950D01*
X291600Y-6200D02*X293850D01*
X292350Y-9500D02*X293850D01*
X294600Y-8750D01*
Y-6950D02*Y-8750D01*
X296400D02*X297150Y-9500D01*
X296400Y-4250D02*Y-8750D01*
Y-4250D02*X297150Y-3500D01*
X298650D01*
X299400Y-4250D01*
Y-8750D01*
X298650Y-9500D02*X299400Y-8750D01*
X297150Y-9500D02*X298650D01*
X296400Y-8000D02*X299400Y-5000D01*
X301200Y-9500D02*X301950D01*
X303750Y-8750D02*X304500Y-9500D01*
X303750Y-4250D02*Y-8750D01*
Y-4250D02*X304500Y-3500D01*
X306000D01*
X306750Y-4250D01*
Y-8750D01*
X306000Y-9500D02*X306750Y-8750D01*
X304500Y-9500D02*X306000D01*
X303750Y-8000D02*X306750Y-5000D01*
X308550Y-8750D02*X309300Y-9500D01*
X308550Y-4250D02*Y-8750D01*
Y-4250D02*X309300Y-3500D01*
X310800D01*
X311550Y-4250D01*
Y-8750D01*
X310800Y-9500D02*X311550Y-8750D01*
X309300Y-9500D02*X310800D01*
X308550Y-8000D02*X311550Y-5000D01*
X313350Y-8750D02*X314100Y-9500D01*
X313350Y-4250D02*Y-8750D01*
Y-4250D02*X314100Y-3500D01*
X315600D01*
X316350Y-4250D01*
Y-8750D01*
X315600Y-9500D02*X316350Y-8750D01*
X314100Y-9500D02*X315600D01*
X313350Y-8000D02*X316350Y-5000D01*
X318150Y-8750D02*X318900Y-9500D01*
X318150Y-4250D02*Y-8750D01*
Y-4250D02*X318900Y-3500D01*
X320400D01*
X321150Y-4250D01*
Y-8750D01*
X320400Y-9500D02*X321150Y-8750D01*
X318900Y-9500D02*X320400D01*
X318150Y-8000D02*X321150Y-5000D01*
X322950Y-8750D02*X323700Y-9500D01*
X322950Y-4250D02*Y-8750D01*
Y-4250D02*X323700Y-3500D01*
X325200D01*
X325950Y-4250D01*
Y-8750D01*
X325200Y-9500D02*X325950Y-8750D01*
X323700Y-9500D02*X325200D01*
X322950Y-8000D02*X325950Y-5000D01*
X327750Y-8750D02*X328500Y-9500D01*
X327750Y-4250D02*Y-8750D01*
Y-4250D02*X328500Y-3500D01*
X330000D01*
X330750Y-4250D01*
Y-8750D01*
X330000Y-9500D02*X330750Y-8750D01*
X328500Y-9500D02*X330000D01*
X327750Y-8000D02*X330750Y-5000D01*
X332550Y-11000D02*X334050Y-9500D01*
X335850Y-4250D02*X336600Y-3500D01*
X338850D01*
X339600Y-4250D01*
Y-5750D01*
X335850Y-9500D02*X339600Y-5750D01*
X335850Y-9500D02*X339600D01*
X342150D02*X345150Y-3500D01*
X341400D02*X345150D01*
X346950Y-7250D02*X349950Y-3500D01*
X346950Y-7250D02*X350700D01*
X349950Y-3500D02*Y-9500D01*
X352500Y-8750D02*X353250Y-9500D01*
X352500Y-4250D02*Y-8750D01*
Y-4250D02*X353250Y-3500D01*
X354750D01*
X355500Y-4250D01*
Y-8750D01*
X354750Y-9500D02*X355500Y-8750D01*
X353250Y-9500D02*X354750D01*
X352500Y-8000D02*X355500Y-5000D01*
X357300Y-9500D02*X358050D01*
X359850Y-8750D02*X360600Y-9500D01*
X359850Y-4250D02*Y-8750D01*
Y-4250D02*X360600Y-3500D01*
X362100D01*
X362850Y-4250D01*
Y-8750D01*
X362100Y-9500D02*X362850Y-8750D01*
X360600Y-9500D02*X362100D01*
X359850Y-8000D02*X362850Y-5000D01*
X364650Y-8750D02*X365400Y-9500D01*
X364650Y-4250D02*Y-8750D01*
Y-4250D02*X365400Y-3500D01*
X366900D01*
X367650Y-4250D01*
Y-8750D01*
X366900Y-9500D02*X367650Y-8750D01*
X365400Y-9500D02*X366900D01*
X364650Y-8000D02*X367650Y-5000D01*
X369450Y-8750D02*X370200Y-9500D01*
X369450Y-4250D02*Y-8750D01*
Y-4250D02*X370200Y-3500D01*
X371700D01*
X372450Y-4250D01*
Y-8750D01*
X371700Y-9500D02*X372450Y-8750D01*
X370200Y-9500D02*X371700D01*
X369450Y-8000D02*X372450Y-5000D01*
X374250Y-8750D02*X375000Y-9500D01*
X374250Y-4250D02*Y-8750D01*
Y-4250D02*X375000Y-3500D01*
X376500D01*
X377250Y-4250D01*
Y-8750D01*
X376500Y-9500D02*X377250Y-8750D01*
X375000Y-9500D02*X376500D01*
X374250Y-8000D02*X377250Y-5000D01*
X379050Y-8750D02*X379800Y-9500D01*
X379050Y-4250D02*Y-8750D01*
Y-4250D02*X379800Y-3500D01*
X381300D01*
X382050Y-4250D01*
Y-8750D01*
X381300Y-9500D02*X382050Y-8750D01*
X379800Y-9500D02*X381300D01*
X379050Y-8000D02*X382050Y-5000D01*
X383850Y-8750D02*X384600Y-9500D01*
X383850Y-4250D02*Y-8750D01*
Y-4250D02*X384600Y-3500D01*
X386100D01*
X386850Y-4250D01*
Y-8750D01*
X386100Y-9500D02*X386850Y-8750D01*
X384600Y-9500D02*X386100D01*
X383850Y-8000D02*X386850Y-5000D01*
X392100Y-7250D02*Y-9500D01*
Y-7250D02*X392850Y-6500D01*
X393600D01*
X394350Y-7250D01*
Y-9500D01*
Y-7250D02*X395100Y-6500D01*
X395850D01*
X396600Y-7250D01*
Y-9500D01*
X391350Y-6500D02*X392100Y-7250D01*
G54D48*X398400Y-5000D02*Y-5150D01*
G54D47*Y-7250D02*Y-9500D01*
X399900Y-3500D02*Y-8750D01*
X400650Y-9500D01*
X402900D02*X405150D01*
X405900Y-8750D01*
X405150Y-8000D02*X405900Y-8750D01*
X402900Y-8000D02*X405150D01*
X402150Y-7250D02*X402900Y-8000D01*
X402150Y-7250D02*X402900Y-6500D01*
X405150D01*
X405900Y-7250D01*
X402150Y-8750D02*X402900Y-9500D01*
X200750Y302500D02*Y296500D01*
X202700Y302500D02*X203750Y301450D01*
Y297550D01*
X202700Y296500D02*X203750Y297550D01*
X200000Y296500D02*X202700D01*
X200000Y302500D02*X202700D01*
X207800Y299500D02*X208550Y298750D01*
X206300Y299500D02*X207800D01*
X205550Y298750D02*X206300Y299500D01*
X205550Y298750D02*Y297250D01*
X206300Y296500D01*
X208550Y299500D02*Y297250D01*
X209300Y296500D01*
X206300D02*X207800D01*
X208550Y297250D01*
X211850Y302500D02*Y297250D01*
X212600Y296500D01*
X211100Y300250D02*X212600D01*
X214850Y296500D02*X217100D01*
X214100Y297250D02*X214850Y296500D01*
X214100Y298750D02*Y297250D01*
Y298750D02*X214850Y299500D01*
X216350D01*
X217100Y298750D01*
X214100Y298000D02*X217100D01*
Y298750D02*Y298000D01*
X218900Y300250D02*X219650D01*
X218900Y298750D02*X219650D01*
X224150Y302500D02*Y296500D01*
Y302500D02*X226400Y299500D01*
X228650Y302500D01*
Y296500D01*
X230450Y298750D02*Y297250D01*
Y298750D02*X231200Y299500D01*
X232700D01*
X233450Y298750D01*
Y297250D01*
X232700Y296500D02*X233450Y297250D01*
X231200Y296500D02*X232700D01*
X230450Y297250D02*X231200Y296500D01*
X236000Y298750D02*Y296500D01*
Y298750D02*X236750Y299500D01*
X237500D01*
X238250Y298750D01*
Y296500D01*
X235250Y299500D02*X236000Y298750D01*
X242750Y302500D02*Y296500D01*
Y302500D02*X245000Y299500D01*
X247250Y302500D01*
Y296500D01*
X251300Y299500D02*X252050Y298750D01*
X249800Y299500D02*X251300D01*
X249050Y298750D02*X249800Y299500D01*
X249050Y298750D02*Y297250D01*
X249800Y296500D01*
X252050Y299500D02*Y297250D01*
X252800Y296500D01*
X249800D02*X251300D01*
X252050Y297250D01*
X254600Y299500D02*Y297250D01*
X255350Y296500D01*
X257600Y299500D02*Y295000D01*
X256850Y294250D02*X257600Y295000D01*
X255350Y294250D02*X256850D01*
X254600Y295000D02*X255350Y294250D01*
Y296500D02*X256850D01*
X257600Y297250D01*
X262100Y301300D02*X263300Y302500D01*
Y296500D01*
X262100D02*X264350D01*
X266150Y301750D02*X266900Y302500D01*
X269150D01*
X269900Y301750D01*
Y300250D01*
X266150Y296500D02*X269900Y300250D01*
X266150Y296500D02*X269900D01*
X274400Y301750D02*X275150Y302500D01*
X277400D01*
X278150Y301750D01*
Y300250D01*
X274400Y296500D02*X278150Y300250D01*
X274400Y296500D02*X278150D01*
X279950Y297250D02*X280700Y296500D01*
X279950Y301750D02*Y297250D01*
Y301750D02*X280700Y302500D01*
X282200D01*
X282950Y301750D01*
Y297250D01*
X282200Y296500D02*X282950Y297250D01*
X280700Y296500D02*X282200D01*
X279950Y298000D02*X282950Y301000D01*
X284750Y300250D02*X285500D01*
X284750Y298750D02*X285500D01*
X287300Y301750D02*X288050Y302500D01*
X290300D01*
X291050Y301750D01*
Y300250D01*
X287300Y296500D02*X291050Y300250D01*
X287300Y296500D02*X291050D01*
X293600D02*X295850Y299500D01*
Y301750D02*Y299500D01*
X295100Y302500D02*X295850Y301750D01*
X293600Y302500D02*X295100D01*
X292850Y301750D02*X293600Y302500D01*
X292850Y301750D02*Y300250D01*
X293600Y299500D01*
X295850D01*
X297650Y300250D02*X298400D01*
X297650Y298750D02*X298400D01*
X300200Y301750D02*X300950Y302500D01*
X303200D01*
X303950Y301750D01*
Y300250D01*
X300200Y296500D02*X303950Y300250D01*
X300200Y296500D02*X303950D01*
X305750Y297250D02*X306500Y296500D01*
X305750Y298450D02*Y297250D01*
Y298450D02*X306800Y299500D01*
X307700D01*
X308750Y298450D01*
Y297250D01*
X308000Y296500D02*X308750Y297250D01*
X306500Y296500D02*X308000D01*
X305750Y300550D02*X306800Y299500D01*
X305750Y301750D02*Y300550D01*
Y301750D02*X306500Y302500D01*
X308000D01*
X308750Y301750D01*
Y300550D01*
X307700Y299500D02*X308750Y300550D01*
X313250Y301750D02*X314000Y302500D01*
X316250D01*
X317000Y301750D01*
Y300250D01*
X313250Y296500D02*X317000Y300250D01*
X313250Y296500D02*X317000D01*
X318800Y297250D02*X319550Y296500D01*
X318800Y301750D02*Y297250D01*
Y301750D02*X319550Y302500D01*
X321050D01*
X321800Y301750D01*
Y297250D01*
X321050Y296500D02*X321800Y297250D01*
X319550Y296500D02*X321050D01*
X318800Y298000D02*X321800Y301000D01*
X323600Y301750D02*X324350Y302500D01*
X326600D01*
X327350Y301750D01*
Y300250D01*
X323600Y296500D02*X327350Y300250D01*
X323600Y296500D02*X327350D01*
X329150Y302500D02*X332150D01*
X329150D02*Y299500D01*
X329900Y300250D01*
X331400D01*
X332150Y299500D01*
Y297250D01*
X331400Y296500D02*X332150Y297250D01*
X329900Y296500D02*X331400D01*
X329150Y297250D02*X329900Y296500D01*
X336650Y302500D02*Y297250D01*
X337400Y296500D01*
X338900D01*
X339650Y297250D01*
Y302500D02*Y297250D01*
X341450Y302500D02*X344450D01*
X342950D02*Y296500D01*
X347300D02*X349250D01*
X346250Y297550D02*X347300Y296500D01*
X346250Y301450D02*Y297550D01*
Y301450D02*X347300Y302500D01*
X349250D01*
X200000Y316000D02*Y311500D01*
Y316000D02*X201050Y317500D01*
X202700D01*
X203750Y316000D01*
Y311500D01*
X200000Y314500D02*X203750D01*
X205550D02*Y312250D01*
X206300Y311500D01*
X207800D01*
X208550Y312250D01*
Y314500D02*Y312250D01*
X211100Y317500D02*Y312250D01*
X211850Y311500D01*
X210350Y315250D02*X211850D01*
X213350Y317500D02*Y311500D01*
Y313750D02*X214100Y314500D01*
X215600D01*
X216350Y313750D01*
Y311500D01*
X218150Y313750D02*Y312250D01*
Y313750D02*X218900Y314500D01*
X220400D01*
X221150Y313750D01*
Y312250D01*
X220400Y311500D02*X221150Y312250D01*
X218900Y311500D02*X220400D01*
X218150Y312250D02*X218900Y311500D01*
X223700Y313750D02*Y311500D01*
Y313750D02*X224450Y314500D01*
X225950D01*
X222950D02*X223700Y313750D01*
X227750Y315250D02*X228500D01*
X227750Y313750D02*X228500D01*
X233000Y317500D02*Y311500D01*
Y317500D02*X236750Y311500D01*
Y317500D02*Y311500D01*
G54D48*X238550Y316000D02*Y315850D01*
G54D47*Y313750D02*Y311500D01*
X240800Y314500D02*X243050D01*
X240050Y313750D02*X240800Y314500D01*
X240050Y313750D02*Y312250D01*
X240800Y311500D01*
X243050D01*
X244850Y313750D02*Y312250D01*
Y313750D02*X245600Y314500D01*
X247100D01*
X247850Y313750D01*
Y312250D01*
X247100Y311500D02*X247850Y312250D01*
X245600Y311500D02*X247100D01*
X244850Y312250D02*X245600Y311500D01*
X255350Y317500D02*Y311500D01*
X254600D02*X255350Y312250D01*
X253100Y311500D02*X254600D01*
X252350Y312250D02*X253100Y311500D01*
X252350Y313750D02*Y312250D01*
Y313750D02*X253100Y314500D01*
X254600D01*
X255350Y313750D01*
X257900Y311500D02*X260150D01*
X257150Y312250D02*X257900Y311500D01*
X257150Y313750D02*Y312250D01*
Y313750D02*X257900Y314500D01*
X259400D01*
X260150Y313750D01*
X257150Y313000D02*X260150D01*
Y313750D02*Y313000D01*
X264650Y317500D02*X266150Y311500D01*
X267650Y317500D01*
X270200Y313750D02*Y311500D01*
Y313750D02*X270950Y314500D01*
X272450D01*
X269450D02*X270200Y313750D01*
G54D48*X274250Y316000D02*Y315850D01*
G54D47*Y313750D02*Y311500D01*
X276500D02*X278750D01*
X275750Y312250D02*X276500Y311500D01*
X275750Y313750D02*Y312250D01*
Y313750D02*X276500Y314500D01*
X278000D01*
X278750Y313750D01*
X275750Y313000D02*X278750D01*
Y313750D02*Y313000D01*
X281300Y311500D02*X283550D01*
X284300Y312250D01*
X283550Y313000D02*X284300Y312250D01*
X281300Y313000D02*X283550D01*
X280550Y313750D02*X281300Y313000D01*
X280550Y313750D02*X281300Y314500D01*
X283550D01*
X284300Y313750D01*
X280550Y312250D02*X281300Y311500D01*
X200000Y332500D02*X203000D01*
X201500D02*Y326500D01*
G54D48*X204800Y331000D02*Y330850D01*
G54D47*Y328750D02*Y326500D01*
X207050Y332500D02*Y327250D01*
X207800Y326500D01*
X206300Y330250D02*X207800D01*
X209300Y332500D02*Y327250D01*
X210050Y326500D01*
X212300D02*X214550D01*
X211550Y327250D02*X212300Y326500D01*
X211550Y328750D02*Y327250D01*
Y328750D02*X212300Y329500D01*
X213800D01*
X214550Y328750D01*
X211550Y328000D02*X214550D01*
Y328750D02*Y328000D01*
X216350Y330250D02*X217100D01*
X216350Y328750D02*X217100D01*
X223850Y332500D02*X224600Y331750D01*
X222350Y332500D02*X223850D01*
X221600Y331750D02*X222350Y332500D01*
X221600Y331750D02*Y327250D01*
X222350Y326500D01*
X223850Y329800D02*X224600Y329050D01*
X221600Y329800D02*X223850D01*
X222350Y326500D02*X223850D01*
X224600Y327250D01*
Y329050D02*Y327250D01*
X226400Y332500D02*X229400D01*
X226400D02*Y329500D01*
X227150Y330250D01*
X228650D01*
X229400Y329500D01*
Y327250D01*
X228650Y326500D02*X229400Y327250D01*
X227150Y326500D02*X228650D01*
X226400Y327250D02*X227150Y326500D01*
X231200Y331750D02*X231950Y332500D01*
X233450D01*
X234200Y331750D01*
X233450Y326500D02*X234200Y327250D01*
X231950Y326500D02*X233450D01*
X231200Y327250D02*X231950Y326500D01*
Y329800D02*X233450D01*
X234200Y331750D02*Y330550D01*
Y329050D02*Y327250D01*
Y329050D02*X233450Y329800D01*
X234200Y330550D02*X233450Y329800D01*
X236000Y327250D02*X236750Y326500D01*
X236000Y331750D02*Y327250D01*
Y331750D02*X236750Y332500D01*
X238250D01*
X239000Y331750D01*
Y327250D01*
X238250Y326500D02*X239000Y327250D01*
X236750Y326500D02*X238250D01*
X236000Y328000D02*X239000Y331000D01*
X240800Y326500D02*X243800D01*
X245600Y329800D02*X247850D01*
X245600Y326500D02*X248600D01*
X245600Y332500D02*Y326500D01*
Y332500D02*X248600D01*
X250400Y329500D02*X253400Y326500D01*
X250400D02*X253400Y329500D01*
X255950Y332500D02*Y327250D01*
X256700Y326500D01*
X255200Y330250D02*X256700D01*
X258200Y332500D02*X261200D01*
X261950Y331750D01*
Y330250D01*
X261200Y329500D02*X261950Y330250D01*
X258950Y329500D02*X261200D01*
X258950Y332500D02*Y326500D01*
X260150Y329500D02*X261950Y326500D01*
X263750Y331750D02*Y327250D01*
Y331750D02*X264500Y332500D01*
X266000D01*
X266750Y331750D01*
Y327250D01*
X266000Y326500D02*X266750Y327250D01*
X264500Y326500D02*X266000D01*
X263750Y327250D02*X264500Y326500D01*
X268550Y332500D02*Y326500D01*
Y332500D02*X270800Y329500D01*
X273050Y332500D01*
Y326500D01*
X277550Y329500D02*X280550D01*
X285050Y332500D02*Y326500D01*
Y332500D02*X288050D01*
X285050Y329800D02*X287300D01*
X292100Y329500D02*X292850Y328750D01*
X290600Y329500D02*X292100D01*
X289850Y328750D02*X290600Y329500D01*
X289850Y328750D02*Y327250D01*
X290600Y326500D01*
X292850Y329500D02*Y327250D01*
X293600Y326500D01*
X290600D02*X292100D01*
X292850Y327250D01*
X295400Y332500D02*Y326500D01*
Y327250D02*X296150Y326500D01*
X297650D01*
X298400Y327250D01*
Y328750D02*Y327250D01*
X297650Y329500D02*X298400Y328750D01*
X296150Y329500D02*X297650D01*
X295400Y328750D02*X296150Y329500D01*
X300950Y328750D02*Y326500D01*
Y328750D02*X301700Y329500D01*
X303200D01*
X300200D02*X300950Y328750D01*
G54D48*X305000Y331000D02*Y330850D01*
G54D47*Y328750D02*Y326500D01*
X307250Y329500D02*X309500D01*
X306500Y328750D02*X307250Y329500D01*
X306500Y328750D02*Y327250D01*
X307250Y326500D01*
X309500D01*
X313550Y329500D02*X314300Y328750D01*
X312050Y329500D02*X313550D01*
X311300Y328750D02*X312050Y329500D01*
X311300Y328750D02*Y327250D01*
X312050Y326500D01*
X314300Y329500D02*Y327250D01*
X315050Y326500D01*
X312050D02*X313550D01*
X314300Y327250D01*
X317600Y332500D02*Y327250D01*
X318350Y326500D01*
X316850Y330250D02*X318350D01*
G54D48*X319850Y331000D02*Y330850D01*
G54D47*Y328750D02*Y326500D01*
X321350Y328750D02*Y327250D01*
Y328750D02*X322100Y329500D01*
X323600D01*
X324350Y328750D01*
Y327250D01*
X323600Y326500D02*X324350Y327250D01*
X322100Y326500D02*X323600D01*
X321350Y327250D02*X322100Y326500D01*
X326900Y328750D02*Y326500D01*
Y328750D02*X327650Y329500D01*
X328400D01*
X329150Y328750D01*
Y326500D01*
X326150Y329500D02*X326900Y328750D01*
X334400Y332500D02*Y326500D01*
X336350Y332500D02*X337400Y331450D01*
Y327550D01*
X336350Y326500D02*X337400Y327550D01*
X333650Y326500D02*X336350D01*
X333650Y332500D02*X336350D01*
X339950Y328750D02*Y326500D01*
Y328750D02*X340700Y329500D01*
X342200D01*
X339200D02*X339950Y328750D01*
X346250Y329500D02*X347000Y328750D01*
X344750Y329500D02*X346250D01*
X344000Y328750D02*X344750Y329500D01*
X344000Y328750D02*Y327250D01*
X344750Y326500D01*
X347000Y329500D02*Y327250D01*
X347750Y326500D01*
X344750D02*X346250D01*
X347000Y327250D01*
X349550Y329500D02*Y327250D01*
X350300Y326500D01*
X351050D01*
X351800Y327250D01*
Y329500D02*Y327250D01*
X352550Y326500D01*
X353300D01*
X354050Y327250D01*
Y329500D02*Y327250D01*
G54D48*X355850Y331000D02*Y330850D01*
G54D47*Y328750D02*Y326500D01*
X358100Y328750D02*Y326500D01*
Y328750D02*X358850Y329500D01*
X359600D01*
X360350Y328750D01*
Y326500D01*
X357350Y329500D02*X358100Y328750D01*
X364400Y329500D02*X365150Y328750D01*
X362900Y329500D02*X364400D01*
X362150Y328750D02*X362900Y329500D01*
X362150Y328750D02*Y327250D01*
X362900Y326500D01*
X364400D01*
X365150Y327250D01*
X362150Y325000D02*X362900Y324250D01*
X364400D01*
X365150Y325000D01*
Y329500D02*Y325000D01*
M02*
