G04 start of page 3 for group 1 idx 1 *
G04 Title: 6530_ExtROM, bottom *
G04 Creator: pcb 4.0.2 *
G04 CreationDate: Mon May 12 20:29:28 2025 UTC *
G04 For: ndv *
G04 Format: Gerber/RS-274X *
G04 PCB-Dimensions (mil): 1260.00 2740.00 *
G04 PCB-Coordinate-Origin: lower left *
%MOIN*%
%FSLAX25Y25*%
%LNBOTTOM*%
%ADD30C,0.0300*%
%ADD29C,0.0280*%
%ADD28C,0.0200*%
%ADD27C,0.0360*%
%ADD26C,0.0001*%
%ADD25C,0.0550*%
%ADD24C,0.0600*%
%ADD23C,0.0100*%
%ADD22C,0.0250*%
%ADD21C,0.0080*%
G54D21*X0Y274000D02*X126000D01*
X0D02*Y0D01*
X126000Y274000D02*Y0D01*
X0D02*X126000D01*
G54D22*X28000Y138000D02*X38000D01*
X28000Y188000D02*X39000D01*
G54D23*X43000Y170000D02*X46000Y173000D01*
G54D22*X38000Y188000D02*X48000D01*
G54D23*X3000Y66000D02*Y214000D01*
X7000Y218000D01*
X28000D01*
G54D22*Y148000D02*X38000D01*
X52000Y128000D02*X58000Y134000D01*
X49000Y128000D02*X52000D01*
X28000Y158000D02*X38000D01*
X28000Y168000D02*X38000D01*
X28000Y178000D02*X38000D01*
X28000Y198000D02*X38000D01*
X28000Y208000D02*X38000D01*
X28000Y248000D02*X38000D01*
X28000Y258000D02*X38000D01*
X28000Y268000D02*X53000D01*
X58000Y263000D01*
Y248000D01*
Y134000D02*Y230000D01*
G54D23*X54000Y176000D02*Y212000D01*
X51000Y173000D02*X54000Y176000D01*
X46000Y173000D02*X51000D01*
G54D22*X58000Y230000D02*Y248000D01*
X28000Y228000D02*X38000D01*
X28000Y218000D02*X38000D01*
G54D23*X54000Y212000D02*X38000Y228000D01*
G54D22*X88000Y268000D02*X98000D01*
X88000Y258000D02*X98000D01*
X88000Y248000D02*X98000D01*
X88000Y238000D02*X98000D01*
X88000Y228000D02*X98000D01*
X88000Y218000D02*X98000D01*
X88000Y208000D02*X98000D01*
X88000Y198000D02*X98000D01*
X88000Y188000D02*X98000D01*
X88000Y178000D02*X98000D01*
X78000Y248000D02*Y188000D01*
X88000Y88000D02*X98000D01*
X88000Y98000D02*X98000D01*
X88000Y108000D02*X98000D01*
G54D23*X78000Y68000D02*Y118000D01*
X118000Y68000D02*Y162000D01*
X108000Y154000D02*X104000Y158000D01*
X105000Y146000D02*X103000Y148000D01*
X104000Y158000D02*X98000D01*
X103000Y148000D02*X98000D01*
X108000Y68000D02*Y154000D01*
X105000Y75000D02*Y146000D01*
G54D22*X68000Y113000D02*Y81000D01*
X88000Y118000D02*X98000D01*
X88000Y128000D02*X98000D01*
X88000Y138000D02*X98000D01*
X88000Y148000D02*X98000D01*
G54D23*X78000Y118000D02*X88000Y128000D01*
G54D22*Y158000D02*X98000D01*
G54D23*X112000Y168000D02*X98000D01*
X118000Y162000D02*X112000Y168000D01*
G54D22*X88000D02*X98000D01*
X78000Y188000D02*X64000Y174000D01*
Y117000D01*
X68000Y113000D02*X64000Y117000D01*
X28000Y88000D02*X38000D01*
X28000Y98000D02*X38000D01*
X28000Y108000D02*X38000D01*
X28000Y118000D02*X38000D01*
X28000Y128000D02*X38000D01*
X48000D02*Y114000D01*
X38000Y68000D02*Y43000D01*
G54D23*X43000Y76000D02*Y170000D01*
G54D22*X58000Y72000D02*Y62000D01*
G54D23*X48000Y75000D02*Y68000D01*
Y75000D02*X58000Y85000D01*
G54D22*X88000Y78000D02*X98000D01*
X68000Y81000D02*X58000Y72000D01*
Y43000D02*X104000D01*
X118000Y29000D01*
Y8000D01*
G54D23*X98000Y68000D02*X105000Y75000D01*
G54D22*X8000Y68000D02*Y74000D01*
X12000Y78000D01*
G54D23*X18000Y68000D02*X13000Y63000D01*
G54D22*X38000Y58000D02*X54000D01*
X38000Y78000D02*X12000D01*
G54D23*X28000Y68000D02*X33000Y73000D01*
X40000D01*
X43000Y76000D01*
X13000Y63000D02*X6000D01*
X3000Y66000D01*
G54D22*X58000Y62000D02*X54000Y58000D01*
G54D24*X48000Y158000D03*
Y148000D03*
Y138000D03*
Y128000D03*
G54D25*Y113000D03*
G54D26*G36*
X45000Y191000D02*Y185000D01*
X51000D01*
Y191000D01*
X45000D01*
G37*
G54D24*X48000Y178000D03*
Y168000D03*
X78000Y128000D03*
G54D25*X68000Y113000D03*
G54D24*X78000Y138000D03*
Y148000D03*
Y158000D03*
Y168000D03*
Y178000D03*
Y188000D03*
X118000Y68000D03*
X108000D03*
X98000D03*
Y78000D03*
Y88000D03*
X88000Y68000D03*
Y78000D03*
X38000Y198000D03*
Y188000D03*
Y178000D03*
Y168000D03*
Y158000D03*
Y148000D03*
Y138000D03*
Y128000D03*
Y118000D03*
Y108000D03*
Y98000D03*
Y88000D03*
Y78000D03*
X98000Y98000D03*
Y108000D03*
Y118000D03*
Y128000D03*
X88000Y88000D03*
Y98000D03*
Y108000D03*
Y118000D03*
Y128000D03*
Y138000D03*
Y148000D03*
Y158000D03*
Y168000D03*
Y178000D03*
Y188000D03*
Y198000D03*
G54D26*G36*
X5000Y11000D02*Y5000D01*
X11000D01*
Y11000D01*
X5000D01*
G37*
G54D24*X18000Y8000D03*
X28000D03*
X38000D03*
X48000D03*
X58000D03*
X68000D03*
X78000D03*
X88000D03*
X98000D03*
X108000D03*
X118000D03*
X78000Y68000D03*
X68000D03*
X58000D03*
X48000D03*
X38000D03*
X28000D03*
X18000D03*
X8000D03*
G54D25*X58000Y43000D03*
X38000D03*
G54D26*G36*
X35000Y271000D02*Y265000D01*
X41000D01*
Y271000D01*
X35000D01*
G37*
G54D24*X38000Y258000D03*
G54D26*G36*
X25000Y271000D02*Y265000D01*
X31000D01*
Y271000D01*
X25000D01*
G37*
G54D24*X28000Y258000D03*
G54D25*X58000Y248000D03*
X78000D03*
G54D24*X98000Y138000D03*
Y148000D03*
Y158000D03*
Y168000D03*
Y178000D03*
Y188000D03*
Y198000D03*
Y208000D03*
Y218000D03*
X88000Y208000D03*
Y218000D03*
X98000Y228000D03*
X88000D03*
Y238000D03*
Y248000D03*
Y258000D03*
Y268000D03*
X98000Y238000D03*
Y248000D03*
Y258000D03*
Y268000D03*
X38000Y228000D03*
Y218000D03*
Y248000D03*
Y238000D03*
X28000Y248000D03*
Y238000D03*
Y228000D03*
X38000Y208000D03*
X28000D03*
Y218000D03*
Y198000D03*
Y188000D03*
Y178000D03*
Y168000D03*
Y158000D03*
Y148000D03*
Y138000D03*
Y128000D03*
Y118000D03*
Y108000D03*
Y98000D03*
Y88000D03*
Y78000D03*
G54D27*X58000Y85000D03*
G54D28*G54D29*G54D30*G54D29*G54D30*G54D29*G54D30*G54D29*G54D30*G54D29*M02*
