M48
INCH
T33C0.020
T32C0.030
T31C0.028
%
T33
X005800Y008500
T31
X000800Y006800
X000800Y000800
X001800Y006800
X001800Y000800
X002800Y026800
X002800Y025800
X002800Y024800
X002800Y023800
X002800Y022800
X002800Y021800
X002800Y020800
X002800Y019800
X002800Y018800
X002800Y017800
X002800Y016800
X002800Y015800
X002800Y014800
X002800Y013800
X002800Y012800
X002800Y011800
X002800Y010800
X002800Y009800
X002800Y008800
X002800Y007800
X002800Y006800
X002800Y000800
X003800Y026800
X003800Y025800
X003800Y024800
X003800Y023800
X003800Y022800
X003800Y021800
X003800Y020800
X003800Y019800
X003800Y018800
X003800Y017800
X003800Y016800
X003800Y015800
X003800Y014800
X003800Y013800
X003800Y012800
X003800Y011800
X003800Y010800
X003800Y009800
X003800Y008800
X003800Y007800
X003800Y006800
X003800Y000800
X004800Y018800
X004800Y017800
X004800Y016800
X004800Y015800
X004800Y014800
X004800Y013800
X004800Y012800
X004800Y006800
X004800Y000800
X005800Y006800
X005800Y000800
X006800Y006800
X006800Y000800
X007800Y018800
X007800Y017800
X007800Y016800
X007800Y015800
X007800Y014800
X007800Y013800
X007800Y012800
X007800Y006800
X007800Y000800
X008800Y026800
X008800Y025800
X008800Y024800
X008800Y023800
X008800Y022800
X008800Y021800
X008800Y020800
X008800Y019800
X008800Y018800
X008800Y017800
X008800Y016800
X008800Y015800
X008800Y014800
X008800Y013800
X008800Y012800
X008800Y011800
X008800Y010800
X008800Y009800
X008800Y008800
X008800Y007800
X008800Y006800
X008800Y000800
X009800Y026800
X009800Y025800
X009800Y024800
X009800Y023800
X009800Y022800
X009800Y021800
X009800Y020800
X009800Y019800
X009800Y018800
X009800Y017800
X009800Y016800
X009800Y015800
X009800Y014800
X009800Y013800
X009800Y012800
X009800Y011800
X009800Y010800
X009800Y009800
X009800Y008800
X009800Y007800
X009800Y006800
X009800Y000800
X010800Y006800
X010800Y000800
X011800Y006800
X011800Y000800
T32
X003800Y004300
X004800Y011300
X005800Y024800
X005800Y004300
X006800Y011300
X007800Y024800
M30
