G04 start of page 7 for group -4079 idx -4079 *
G04 Title: 6530_ExtROM, topsilk *
G04 Creator: pcb 4.0.2 *
G04 CreationDate: Mon May 12 20:29:28 2025 UTC *
G04 For: ndv *
G04 Format: Gerber/RS-274X *
G04 PCB-Dimensions (mil): 1260.00 2740.00 *
G04 PCB-Coordinate-Origin: lower left *
%MOIN*%
%FSLAX25Y25*%
%LNTOPSILK*%
%ADD44C,0.0200*%
%ADD43C,0.0100*%
%ADD42C,0.0080*%
G54D42*X0Y274000D02*X126000D01*
X0D02*Y0D01*
X126000Y274000D02*Y0D01*
X0D02*X126000D01*
X15750Y254125D02*X15125Y253500D01*
X15750Y255375D02*Y254125D01*
X15125Y256000D02*X15750Y255375D01*
X11375Y256000D02*X15125D01*
X11375D02*X10750Y255375D01*
X13500Y254125D02*X12875Y253500D01*
X13500Y256000D02*Y254125D01*
X10750Y255375D02*Y254125D01*
X11375Y253500D01*
X12875D01*
X15750Y252000D02*Y249500D01*
X13250Y252000D02*X15750D01*
X13250D02*X13875Y251375D01*
Y250125D01*
X13250Y249500D01*
X11375D02*X13250D01*
X10750Y250125D02*X11375Y249500D01*
X10750Y251375D02*Y250125D01*
X11375Y252000D02*X10750Y251375D01*
X15125Y248000D02*X15750Y247375D01*
Y246125D01*
X15125Y245500D01*
X10750Y246125D02*X11375Y245500D01*
X10750Y247375D02*Y246125D01*
X11375Y248000D02*X10750Y247375D01*
X13500D02*Y246125D01*
X14125Y245500D02*X15125D01*
X11375D02*X12875D01*
X13500Y246125D01*
X14125Y245500D02*X13500Y246125D01*
X11375Y244000D02*X10750Y243375D01*
X11375Y244000D02*X15125D01*
X15750Y243375D01*
Y242125D01*
X15125Y241500D01*
X11375D02*X15125D01*
X10750Y242125D02*X11375Y241500D01*
X10750Y243375D02*Y242125D01*
X12000Y244000D02*X14500Y241500D01*
X13500Y237750D02*Y235875D01*
X10750Y237750D02*Y235250D01*
Y237750D02*X15750D01*
Y235250D01*
X13250Y233750D02*X10750Y231250D01*
Y233750D02*X13250Y231250D01*
X11375Y229125D02*X15750D01*
X11375D02*X10750Y228500D01*
X13875Y229750D02*Y228500D01*
X10750Y226625D02*Y224750D01*
X11375Y227250D02*X10750Y226625D01*
X11375Y227250D02*X12625D01*
X13250Y226625D01*
Y225375D01*
X12625Y224750D01*
X12000Y227250D02*Y224750D01*
X12625D01*
X10750Y222625D02*X12625D01*
X13250Y222000D01*
Y220750D01*
Y223250D02*X12625Y222625D01*
X10750Y218625D02*X12625D01*
X13250Y218000D01*
Y217375D01*
X12625Y216750D01*
X10750D02*X12625D01*
X13250Y219250D02*X12625Y218625D01*
X13250Y213375D02*X12625Y212750D01*
X13250Y214625D02*Y213375D01*
X12625Y215250D02*X13250Y214625D01*
X11375Y215250D02*X12625D01*
X11375D02*X10750Y214625D01*
X11375Y212750D02*X13250D01*
X11375D02*X10750Y212125D01*
Y214625D02*Y213375D01*
X11375Y212750D01*
Y210625D02*X15750D01*
X11375D02*X10750Y210000D01*
X15750Y206500D02*Y204000D01*
X15125Y203375D01*
X13875D02*X15125D01*
X13250Y204000D02*X13875Y203375D01*
X13250Y205875D02*Y204000D01*
X10750Y205875D02*X15750D01*
X13250Y204875D02*X10750Y203375D01*
X11375Y201875D02*X15125D01*
X15750Y201250D01*
Y200000D01*
X15125Y199375D01*
X11375D02*X15125D01*
X10750Y200000D02*X11375Y199375D01*
X10750Y201250D02*Y200000D01*
X11375Y201875D02*X10750Y201250D01*
Y197875D02*X15750D01*
X13250Y196000D01*
X15750Y194125D01*
X10750D02*X15750D01*
X112750Y255375D02*X117750D01*
Y253750D02*X116875Y252875D01*
X113625D02*X116875D01*
X112750Y253750D02*X113625Y252875D01*
X112750Y256000D02*Y253750D01*
X117750Y256000D02*Y253750D01*
X112750Y250750D02*Y248875D01*
X113375Y251375D02*X112750Y250750D01*
X113375Y251375D02*X114625D01*
X115250Y250750D01*
Y249500D01*
X114625Y248875D01*
X114000Y251375D02*Y248875D01*
X114625D01*
X112750Y246750D02*Y244875D01*
X113375Y244250D01*
X114000Y244875D02*X113375Y244250D01*
X114000Y246750D02*Y244875D01*
X114625Y247375D02*X114000Y246750D01*
X114625Y247375D02*X115250Y246750D01*
Y244875D01*
X114625Y244250D01*
X113375Y247375D02*X112750Y246750D01*
X116375Y242750D02*X116500D01*
X112750D02*X114625D01*
X115250Y239625D02*X114625Y239000D01*
X115250Y240875D02*Y239625D01*
X114625Y241500D02*X115250Y240875D01*
X113375Y241500D02*X114625D01*
X113375D02*X112750Y240875D01*
Y239625D01*
X113375Y239000D01*
X111500Y241500D02*X110875Y240875D01*
Y239625D01*
X111500Y239000D01*
X115250D01*
X112750Y236875D02*X114625D01*
X115250Y236250D01*
Y235625D01*
X114625Y235000D01*
X112750D02*X114625D01*
X115250Y237500D02*X114625Y236875D01*
X112750Y232875D02*Y231000D01*
X113375Y233500D02*X112750Y232875D01*
X113375Y233500D02*X114625D01*
X115250Y232875D01*
Y231625D01*
X114625Y231000D01*
X114000Y233500D02*Y231000D01*
X114625D01*
X112750Y227000D02*X117750D01*
X112750Y227625D02*X113375Y227000D01*
X112750Y228875D02*Y227625D01*
X113375Y229500D02*X112750Y228875D01*
X113375Y229500D02*X114625D01*
X115250Y228875D01*
Y227625D01*
X114625Y227000D01*
X112750Y223250D02*X117750D01*
X113375D02*X112750Y222625D01*
Y221375D01*
X113375Y220750D01*
X114625D01*
X115250Y221375D02*X114625Y220750D01*
X115250Y222625D02*Y221375D01*
X114625Y223250D02*X115250Y222625D01*
X113375Y219250D02*X115250D01*
X113375D02*X112750Y218625D01*
X111500Y216750D02*X115250D01*
X110875Y217375D02*X111500Y216750D01*
X110875Y218625D02*Y217375D01*
X111500Y219250D02*X110875Y218625D01*
X112750D02*Y217375D01*
X113375Y216750D01*
X112750Y213000D02*X116500D01*
X117750Y212125D01*
Y210750D01*
X116500Y209875D01*
X112750D02*X116500D01*
X115250Y213000D02*Y209875D01*
X113375Y208375D02*X115250D01*
X113375D02*X112750Y207750D01*
Y206500D01*
X113375Y205875D01*
X115250D01*
X112750Y201875D02*X117750D01*
X112750Y202500D02*X113375Y201875D01*
X112750Y203750D02*Y202500D01*
X113375Y204375D02*X112750Y203750D01*
X113375Y204375D02*X114625D01*
X115250Y203750D01*
Y202500D01*
X114625Y201875D01*
X116375Y200375D02*X116500D01*
X112750D02*X114625D01*
X113375Y199125D02*X114625D01*
X115250Y198500D01*
Y197250D01*
X114625Y196625D01*
X113375D02*X114625D01*
X112750Y197250D02*X113375Y196625D01*
X112750Y198500D02*Y197250D01*
X113375Y199125D02*X112750Y198500D01*
Y194500D02*X114625D01*
X115250Y193875D01*
Y193250D01*
X114625Y192625D01*
X112750D02*X114625D01*
X115250Y195125D02*X114625Y194500D01*
X116375Y191125D02*X116500D01*
X112750D02*X114625D01*
X112750Y189250D02*Y187375D01*
X113375Y189875D02*X112750Y189250D01*
X113375Y189875D02*X114625D01*
X115250Y189250D01*
Y188000D01*
X114625Y187375D01*
X114000Y189875D02*Y187375D01*
X114625D01*
X112750Y185875D02*X117750D01*
X114625D02*X112750Y184000D01*
X114625Y185875D02*X115875Y184625D01*
G54D43*X43000Y193000D02*Y123000D01*
X83000D01*
Y193000D01*
X43000D02*X58000D01*
X68000D02*X83000D01*
X58000D02*G75*G03X68000Y193000I5000J0D01*G01*
X33000Y273000D02*Y73000D01*
X103000D01*
Y273000D02*Y73000D01*
X33000Y273000D02*X63000D01*
X73000D02*X103000D01*
X63000D02*G75*G03X73000Y273000I5000J0D01*G01*
X48000Y113000D02*X55500D01*
X60500D02*X68000D01*
G54D44*X60500Y108000D02*Y118000D01*
X55500Y108000D02*Y118000D01*
G54D43*X58000Y248000D02*X65500D01*
X70500D02*X78000D01*
G54D44*X70500Y243000D02*Y253000D01*
X65500Y243000D02*Y253000D01*
G54D43*X23000Y273000D02*Y73000D01*
X93000D01*
Y273000D01*
X23000D02*X53000D01*
X63000D02*X93000D01*
X53000D02*G75*G03X63000Y273000I5000J0D01*G01*
X3000Y3000D02*X123000D01*
Y73000D02*Y3000D01*
X3000Y73000D02*X123000D01*
X3000Y33000D02*Y3000D01*
Y73000D02*Y43000D01*
X3000Y33000D02*G75*G03X3000Y43000I0J5000D01*G01*
X50500D02*X58000D01*
X38000D02*X45500D01*
G54D44*Y48000D02*Y38000D01*
X50500Y48000D02*Y38000D01*
G54D42*X44000Y270000D02*Y266500D01*
X44500Y266000D01*
X45500D01*
X46000Y266500D01*
Y270000D02*Y266500D01*
X47200Y269200D02*X48000Y270000D01*
Y266000D01*
X47200D02*X48700D01*
X74200Y251500D02*X75500D01*
X73500Y252200D02*X74200Y251500D01*
X73500Y254800D02*Y252200D01*
Y254800D02*X74200Y255500D01*
X75500D01*
X76700Y254700D02*X77500Y255500D01*
Y251500D01*
X76700D02*X78200D01*
X18000Y270000D02*X18500Y269500D01*
X16500Y270000D02*X18000D01*
X16000Y269500D02*X16500Y270000D01*
X16000Y269500D02*Y268500D01*
X16500Y268000D01*
X18000D01*
X18500Y267500D01*
Y266500D01*
X18000Y266000D02*X18500Y266500D01*
X16500Y266000D02*X18000D01*
X16000Y266500D02*X16500Y266000D01*
X19700Y269200D02*X20500Y270000D01*
Y266000D01*
X19700D02*X21200D01*
X60000Y160000D02*Y156500D01*
X60500Y156000D01*
X61500D01*
X62000Y156500D01*
Y160000D02*Y156500D01*
X63200Y159500D02*X63700Y160000D01*
X64700D01*
X65200Y159500D01*
X64700Y156000D02*X65200Y156500D01*
X63700Y156000D02*X64700D01*
X63200Y156500D02*X63700Y156000D01*
Y158200D02*X64700D01*
X65200Y159500D02*Y158700D01*
Y157700D02*Y156500D01*
Y157700D02*X64700Y158200D01*
X65200Y158700D02*X64700Y158200D01*
X58000Y40000D02*Y36500D01*
X58500Y36000D01*
X59500D01*
X60000Y36500D01*
Y40000D02*Y36500D01*
X61200Y39500D02*X61700Y40000D01*
X63200D01*
X63700Y39500D01*
Y38500D01*
X61200Y36000D02*X63700Y38500D01*
X61200Y36000D02*X63700D01*
X63200Y116500D02*X64500D01*
X62500Y117200D02*X63200Y116500D01*
X62500Y119800D02*Y117200D01*
Y119800D02*X63200Y120500D01*
X64500D01*
X65700Y120000D02*X66200Y120500D01*
X67200D01*
X67700Y120000D01*
X67200Y116500D02*X67700Y117000D01*
X66200Y116500D02*X67200D01*
X65700Y117000D02*X66200Y116500D01*
Y118700D02*X67200D01*
X67700Y120000D02*Y119200D01*
Y118200D02*Y117000D01*
Y118200D02*X67200Y118700D01*
X67700Y119200D02*X67200Y118700D01*
X54200Y47500D02*X55500D01*
X53500Y48200D02*X54200Y47500D01*
X53500Y50800D02*Y48200D01*
Y50800D02*X54200Y51500D01*
X55500D01*
X56700Y51000D02*X57200Y51500D01*
X58700D01*
X59200Y51000D01*
Y50000D01*
X56700Y47500D02*X59200Y50000D01*
X56700Y47500D02*X59200D01*
M02*
