G04 start of page 2 for group 0 idx 0 *
G04 Title: 6530_ExtROM, top *
G04 Creator: pcb 4.0.2 *
G04 CreationDate: Mon May 12 20:29:28 2025 UTC *
G04 For: ndv *
G04 Format: Gerber/RS-274X *
G04 PCB-Dimensions (mil): 1260.00 2740.00 *
G04 PCB-Coordinate-Origin: lower left *
%MOIN*%
%FSLAX25Y25*%
%LNTOP*%
%ADD20C,0.0300*%
%ADD19C,0.0280*%
%ADD18C,0.0200*%
%ADD17C,0.0360*%
%ADD16C,0.0001*%
%ADD15C,0.0550*%
%ADD14C,0.0600*%
%ADD13C,0.0250*%
%ADD12C,0.0100*%
%ADD11C,0.0080*%
G54D11*X0Y274000D02*X126000D01*
X0D02*Y0D01*
X126000Y274000D02*Y0D01*
X0D02*X126000D01*
G54D12*X3000Y13000D02*Y204000D01*
X12000Y14000D02*Y76000D01*
X7000Y81000D01*
Y195000D01*
X14000Y64000D02*Y175000D01*
X17000Y76000D02*Y166000D01*
X20000Y76000D02*Y155000D01*
X8000Y8000D03*
X3000Y13000D01*
X18000Y8000D03*
X12000Y14000D01*
X28000Y8000D02*X18000Y18000D01*
X38000Y8000D02*X24000Y22000D01*
X18000Y18000D02*Y60000D01*
X24000Y22000D02*Y61000D01*
X27000Y29000D02*Y61000D01*
X30000Y62000D02*Y36000D01*
X34000Y62000D02*X33000Y61000D01*
Y41000D01*
X48000Y8000D02*X27000Y29000D01*
X58000Y8000D02*X30000Y36000D01*
X56000Y18000D02*X33000Y41000D01*
X56000Y18000D02*X58000D01*
X68000Y8000D01*
X78000D02*X43000Y43000D01*
G54D13*X53000Y48000D02*X58000Y43000D01*
G54D12*X88000Y8000D02*Y45000D01*
X73000Y60000D01*
X98000Y8000D02*Y45000D01*
X83000Y60000D01*
X103000Y50000D02*X108000Y45000D01*
Y8000D01*
X18000Y60000D02*X14000Y64000D01*
X24000Y61000D02*X22000Y63000D01*
Y71000D01*
X27000Y61000D02*X24000Y64000D01*
Y72000D01*
X22000Y71000D02*X17000Y76000D01*
X24000Y72000D02*X20000Y76000D01*
X26000Y73000D02*X23000Y76000D01*
X32000Y64000D02*Y72000D01*
X31000Y73000D01*
X26000D01*
X34000Y62000D02*Y74000D01*
X33000Y75000D01*
X68000Y68000D02*Y73000D01*
X73000Y60000D02*Y72000D01*
X53000D02*Y63000D01*
X88000Y68000D02*X93000Y73000D01*
Y133000D01*
X98000Y138000D01*
Y178000D02*X101000D01*
X103000Y176000D01*
Y50000D01*
X68000Y73000D02*X75000Y80000D01*
X73000Y72000D02*X78000Y77000D01*
X75000Y115000D02*Y80000D01*
X83000Y60000D02*Y183000D01*
X88000Y188000D01*
Y198000D02*X79000D01*
X78000Y77000D02*Y117000D01*
X72000Y123000D01*
X69000Y121000D02*X75000Y115000D01*
G54D13*X53000Y72000D02*Y108000D01*
X48000Y113000D02*X53000Y108000D01*
G54D12*X58000Y158000D02*Y85000D01*
G54D13*X53000Y65000D02*Y48000D01*
G54D12*X20000Y155000D02*X23000Y158000D01*
X28000D01*
X43000Y183000D02*X35000D01*
X33000Y185000D01*
X23000Y76000D02*Y143000D01*
X33000Y75000D02*Y133000D01*
X28000Y138000D01*
X43000Y123000D02*X38000Y128000D01*
X23000Y143000D02*X28000Y148000D01*
X43000Y43000D02*Y123000D01*
G54D13*X38000Y78000D02*Y68000D01*
G54D12*X32000Y64000D02*X30000Y62000D01*
X3000Y204000D02*X7000Y208000D01*
X28000D01*
X7000Y195000D02*X10000Y198000D01*
X28000D01*
X69000Y210000D02*X46000Y233000D01*
X33000D01*
G54D13*X38000Y238000D02*X68000D01*
X78000Y248000D01*
G54D12*X28000Y238000D02*X33000Y233000D01*
Y220000D02*X30000Y223000D01*
X25000D01*
X23000Y225000D01*
Y243000D01*
X28000Y248000D01*
X14000Y175000D02*X17000Y178000D01*
X28000D01*
X17000Y166000D02*X19000Y168000D01*
X28000D01*
X69000Y121000D02*Y210000D01*
X72000Y123000D02*Y191000D01*
X79000Y198000D01*
X38000Y188000D02*X39000D01*
X48000Y168000D02*X58000Y158000D01*
X48000Y178000D02*X43000Y183000D01*
X33000Y185000D02*Y220000D01*
G54D14*X48000Y158000D03*
Y148000D03*
Y138000D03*
Y128000D03*
G54D15*Y113000D03*
G54D16*G36*
X45000Y191000D02*Y185000D01*
X51000D01*
Y191000D01*
X45000D01*
G37*
G54D14*X48000Y178000D03*
Y168000D03*
X78000Y128000D03*
G54D15*X68000Y113000D03*
G54D14*X78000Y138000D03*
Y148000D03*
Y158000D03*
Y168000D03*
Y178000D03*
Y188000D03*
X118000Y68000D03*
X108000D03*
X98000D03*
Y78000D03*
Y88000D03*
X88000Y68000D03*
Y78000D03*
X38000Y198000D03*
Y188000D03*
Y178000D03*
Y168000D03*
Y158000D03*
Y148000D03*
Y138000D03*
Y128000D03*
Y118000D03*
Y108000D03*
Y98000D03*
Y88000D03*
Y78000D03*
X98000Y98000D03*
Y108000D03*
Y118000D03*
Y128000D03*
X88000Y88000D03*
Y98000D03*
Y108000D03*
Y118000D03*
Y128000D03*
Y138000D03*
Y148000D03*
Y158000D03*
Y168000D03*
Y178000D03*
Y188000D03*
Y198000D03*
G54D16*G36*
X5000Y11000D02*Y5000D01*
X11000D01*
Y11000D01*
X5000D01*
G37*
G54D14*X18000Y8000D03*
X28000D03*
X38000D03*
X48000D03*
X58000D03*
X68000D03*
X78000D03*
X88000D03*
X98000D03*
X108000D03*
X118000D03*
X78000Y68000D03*
X68000D03*
X58000D03*
X48000D03*
X38000D03*
X28000D03*
X18000D03*
X8000D03*
G54D15*X58000Y43000D03*
X38000D03*
G54D16*G36*
X35000Y271000D02*Y265000D01*
X41000D01*
Y271000D01*
X35000D01*
G37*
G54D14*X38000Y258000D03*
G54D16*G36*
X25000Y271000D02*Y265000D01*
X31000D01*
Y271000D01*
X25000D01*
G37*
G54D14*X28000Y258000D03*
G54D15*X58000Y248000D03*
X78000D03*
G54D14*X98000Y138000D03*
Y148000D03*
Y158000D03*
Y168000D03*
Y178000D03*
Y188000D03*
Y198000D03*
Y208000D03*
Y218000D03*
X88000Y208000D03*
Y218000D03*
X98000Y228000D03*
X88000D03*
Y238000D03*
Y248000D03*
Y258000D03*
Y268000D03*
X98000Y238000D03*
Y248000D03*
Y258000D03*
Y268000D03*
X38000Y228000D03*
Y218000D03*
Y248000D03*
Y238000D03*
X28000Y248000D03*
Y238000D03*
Y228000D03*
X38000Y208000D03*
X28000D03*
Y218000D03*
Y198000D03*
Y188000D03*
Y178000D03*
Y168000D03*
Y158000D03*
Y148000D03*
Y138000D03*
Y128000D03*
Y118000D03*
Y108000D03*
Y98000D03*
Y88000D03*
Y78000D03*
G54D17*X58000Y85000D03*
G54D18*G54D19*G54D20*G54D19*G54D20*G54D19*G54D20*G54D19*G54D20*G54D19*M02*
