G04 start of page 5 for group -4063 idx -4063 *
G04 Title: 6530_ExtROM, componentmask *
G04 Creator: pcb 4.0.2 *
G04 CreationDate: Mon May 12 20:29:28 2025 UTC *
G04 For: ndv *
G04 Format: Gerber/RS-274X *
G04 PCB-Dimensions (mil): 1260.00 2740.00 *
G04 PCB-Coordinate-Origin: lower left *
%MOIN*%
%FSLAX25Y25*%
%LNTOPMASK*%
%ADD37C,0.0001*%
%ADD36C,0.0610*%
%ADD35C,0.0660*%
%ADD34C,0.0080*%
G54D34*X0Y274000D02*X126000D01*
X0D02*Y0D01*
X126000Y274000D02*Y0D01*
X0D02*X126000D01*
G54D35*X48000Y158000D03*
Y148000D03*
Y138000D03*
Y128000D03*
G54D36*Y113000D03*
G54D37*G36*
X44700Y191300D02*Y184700D01*
X51300D01*
Y191300D01*
X44700D01*
G37*
G54D35*X48000Y178000D03*
Y168000D03*
X78000Y128000D03*
G54D36*X68000Y113000D03*
G54D35*X78000Y138000D03*
Y148000D03*
Y158000D03*
Y168000D03*
Y178000D03*
Y188000D03*
X118000Y68000D03*
X108000D03*
X98000D03*
Y78000D03*
Y88000D03*
X88000Y68000D03*
Y78000D03*
X38000Y198000D03*
Y188000D03*
Y178000D03*
Y168000D03*
Y158000D03*
Y148000D03*
Y138000D03*
Y128000D03*
Y118000D03*
Y108000D03*
Y98000D03*
Y88000D03*
Y78000D03*
X98000Y98000D03*
Y108000D03*
Y118000D03*
Y128000D03*
X88000Y88000D03*
Y98000D03*
Y108000D03*
Y118000D03*
Y128000D03*
Y138000D03*
Y148000D03*
Y158000D03*
Y168000D03*
Y178000D03*
Y188000D03*
Y198000D03*
G54D37*G36*
X4700Y11300D02*Y4700D01*
X11300D01*
Y11300D01*
X4700D01*
G37*
G54D35*X18000Y8000D03*
X28000D03*
X38000D03*
X48000D03*
X58000D03*
X68000D03*
X78000D03*
X88000D03*
X98000D03*
X108000D03*
X118000D03*
X78000Y68000D03*
X68000D03*
X58000D03*
X48000D03*
X38000D03*
X28000D03*
X18000D03*
X8000D03*
G54D36*X58000Y43000D03*
X38000D03*
G54D37*G36*
X34700Y271300D02*Y264700D01*
X41300D01*
Y271300D01*
X34700D01*
G37*
G54D35*X38000Y258000D03*
G54D37*G36*
X24700Y271300D02*Y264700D01*
X31300D01*
Y271300D01*
X24700D01*
G37*
G54D35*X28000Y258000D03*
G54D36*X58000Y248000D03*
X78000D03*
G54D35*X98000Y138000D03*
Y148000D03*
Y158000D03*
Y168000D03*
Y178000D03*
Y188000D03*
Y198000D03*
Y208000D03*
Y218000D03*
X88000Y208000D03*
Y218000D03*
X98000Y228000D03*
X88000D03*
Y238000D03*
Y248000D03*
Y258000D03*
Y268000D03*
X98000Y238000D03*
Y248000D03*
Y258000D03*
Y268000D03*
X38000Y228000D03*
Y218000D03*
Y248000D03*
Y238000D03*
X28000Y248000D03*
Y238000D03*
Y228000D03*
X38000Y208000D03*
X28000D03*
Y218000D03*
Y198000D03*
Y188000D03*
Y178000D03*
Y168000D03*
Y158000D03*
Y148000D03*
Y138000D03*
Y128000D03*
Y118000D03*
Y108000D03*
Y98000D03*
Y88000D03*
Y78000D03*
M02*
